<?xml version="1.0" standalone="no"?>
<!DOCTYPE svg PUBLIC "-//W3C//DTD SVG 1.1//EN" "http://www.w3.org/Graphics/SVG/1.1/DTD/svg11.dtd" >
<svg xmlns="http://www.w3.org/2000/svg">
<metadata></metadata>
<defs>
<font id="marvelbold_italic" horiz-adv-x="856" >
<font-face units-per-em="2048" ascent="1638" descent="-410" />
<missing-glyph horiz-adv-x="421" />
<glyph horiz-adv-x="2048" />
<glyph horiz-adv-x="2048" />
<glyph unicode="&#xd;" horiz-adv-x="1024" />
<glyph unicode=" "  horiz-adv-x="421" />
<glyph unicode="&#x09;" horiz-adv-x="421" />
<glyph unicode="&#xa0;" horiz-adv-x="421" />
<glyph unicode="!" horiz-adv-x="407" d="M31 2l35 207h133l-35 -207h-133zM82 281l201 1142h131l-201 -1142h-131z" />
<glyph unicode="&#x22;" horiz-adv-x="647" d="M168 1151q37 16 68.5 51t44.5 105l20 116h143l-20 -118q-20 -117 -86 -189t-158 -108zM428 1151q37 16 69.5 51t45.5 105l20 116h144l-21 -118q-20 -117 -85.5 -189t-160.5 -108z" />
<glyph unicode="$" horiz-adv-x="970" d="M10 137l72 133q96 -47 153.5 -72.5t91 -38t52 -15.5t39.5 -3q53 0 102 19.5t88 54.5t66.5 83t38.5 103q10 57 -4.5 100.5t-45 72t-73.5 43t-90 14.5q-84 0 -151.5 27.5t-113 78.5t-63.5 120t-4 153q14 74 50 141.5t87 121.5t114.5 91t133.5 49l25 137h137l-25 -139 q35 -8 68 -22l170 -74l-70 -139l-45 22q-45 23 -106.5 50.5t-110.5 27.5q-51 0 -98 -21.5t-84 -57.5t-63.5 -83t-35.5 -98q-10 -59 4.5 -102.5t44 -73t72.5 -44t90 -14.5q82 0 149.5 -27.5t113 -77.5t63.5 -120t4 -154q-14 -80 -52 -149.5t-93.5 -121.5t-124 -87t-144.5 -43 l-26 -147h-137l26 155q-43 14 -87 32.5t-85 36t-72.5 33t-50.5 25.5z" />
<glyph unicode="&#x26;" horiz-adv-x="1222" d="M25 395q18 111 84.5 190t169.5 134q29 16 54 28.5t54 28.5l-74 103q-41 59 -55 115.5t-2 127.5q12 68 48 128.5t90.5 104.5t122 69.5t142.5 25.5q74 0 133.5 -22.5t100.5 -65.5t57.5 -103.5t3.5 -136.5q-18 -109 -77.5 -177t-151.5 -118l-150 -79l285 -377q53 76 80 166 t49 206h123q-12 -57 -27.5 -121.5t-38 -127t-52 -122t-66.5 -104.5q41 -63 92 -134t92 -134h-162l-108 172q-92 -86 -208 -138t-251 -52q-90 0 -164 29.5t-123 82.5t-68.5 130t-2.5 171zM162 397q-12 -63 2 -115.5t48 -89t84 -56t112 -19.5q111 0 198.5 42t159.5 109 l-311 412q-29 -14 -56.5 -30.5t-54.5 -28.5h2q-76 -41 -124 -95.5t-60 -128.5zM388 1075q3 -22 15.5 -53t38 -74t68.5 -106l164 92q59 35 100 82t51 106q16 94 -37 149.5t-149 55.5q-43 0 -85 -14.5t-76 -41t-57.5 -64.5t-31.5 -85q-4 -25 -1 -47zM831 182l25 17l113 -176 l-23 -17z" />
<glyph unicode="'" horiz-adv-x="387" d="M168 1151q37 16 68.5 51t44.5 105l20 116h145l-20 -118q-20 -117 -86 -189t-160 -108z" />
<glyph unicode="(" horiz-adv-x="487" d="M42 52q-9 52 3 126l188 1069q27 145 110 210t189 65h50l-25 -136h-41q-51 0 -93 -27.5t-54 -101.5l-193 -1089q-14 -76 18.5 -103.5t84.5 -27.5h40l-24 -135h-49q-53 0 -96.5 15t-71 49t-36.5 86z" />
<glyph unicode=")" horiz-adv-x="487" d="M-57 -100l24 137h39q51 0 93 26.5t57 102.5l194 1091q12 74 -20.5 101.5t-83.5 27.5h-39l24 136h50q51 0 94 -15.5t70.5 -49.5t38 -85t-2.5 -125l-190 -1071q-27 -147 -111 -211.5t-188 -64.5h-49z" />
<glyph unicode="*" horiz-adv-x="825" d="M86 541l231 114l-190 115l74 98l182 -120l37 239h115l-48 -242l230 123l39 -98l-234 -115q47 -29 96.5 -57.5t94.5 -54.5l-72 -103l-186 125l-35 -239h-115l47 239l-227 -125z" />
<glyph unicode="+" horiz-adv-x="878" d="M63 469l27 156h275l49 274h155l-49 -274h275l-27 -156h-274l-50 -274h-155l49 274h-275z" />
<glyph unicode="," horiz-adv-x="374" d="M-78 -43q37 16 69 51t44 103l20 116h146l-21 -116q-20 -117 -84.5 -190t-161.5 -107z" />
<glyph unicode="-" horiz-adv-x="747" d="M127 643l27 156h505l-26 -156h-506z" />
<glyph unicode="." horiz-adv-x="393" d="M10 10l37 203h166l-37 -203h-166z" />
<glyph unicode="/" horiz-adv-x="550" d="M-6 2l455 1419h147l-455 -1419h-147z" />
<glyph unicode="0" horiz-adv-x="897" d="M78 268l137 779q10 61 41 113t75 90t98 60.5t114 22.5h65q57 0 104.5 -22.5t79 -60.5t44 -90t2.5 -113l-138 -779q-10 -61 -41.5 -113.5t-76.5 -90t-100.5 -60t-112.5 -22.5h-66q-59 0 -105 22.5t-77 60t-42 90t-1 113.5zM207 274q-10 -66 23.5 -112.5t97.5 -46.5h63 q31 0 60.5 12t54 33.5t41 51.5t22.5 62l138 773q12 72 -33 111.5t-111 39.5q-78 0 -141.5 -32.5t-77.5 -118.5z" />
<glyph unicode="1" horiz-adv-x="450" d="M51 2l221 1262l148 67l-234 -1329h-135z" />
<glyph unicode="2" horiz-adv-x="817" d="M23 0l24 147l500 605q39 45 59.5 91t32.5 99q6 51 -1 97t-27.5 81t-54.5 56.5t-79 21.5q-10 0 -23.5 -3t-42 -12t-76.5 -26.5t-126 -48.5l-33 129l176 66q33 14 77 22t75 10q72 0 128 -30.5t93 -83t50 -123t-1 -150.5q-12 -72 -37.5 -132t-83.5 -124 q-72 -92 -150.5 -190.5t-146.5 -177.5q-80 -96 -155 -185h426l-23 -139h-581z" />
<glyph unicode="3" horiz-adv-x="854" d="M-2 68l61 135l164 -76l2 2q18 -8 38 -13t36 -5q45 0 88 21.5t78 58t59.5 84t36.5 98.5q8 49 4 95t-22.5 81t-53 55.5t-90.5 20.5h-127l23 127h129q111 0 167 62.5t77 162.5q6 51 -6.5 92t-36 69.5t-55 45t-66.5 16.5q-20 0 -49 -5t-49 -13l-170 -72l-33 129l164 61v-2 q35 14 86 25.5t79 11.5q74 -2 129.5 -30.5t89 -78.5t45 -119t-2.5 -149q-8 -41 -19.5 -76.5t-31 -69.5t-49 -64.5t-72.5 -63.5q37 -35 54 -74t21 -80t0 -82.5t-10 -82.5q-14 -80 -52 -150t-92.5 -122t-122 -82.5t-138.5 -30.5q-33 2 -74 10t-70 20z" />
<glyph unicode="4" horiz-adv-x="815" d="M29 389l24 135l445 799h139l-434 -799h354l39 228h135l-131 -752h-135l67 389h-503z" />
<glyph unicode="5" horiz-adv-x="878" d="M33 80l63 127q49 -23 99 -39q41 -16 88 -27.5t88 -11.5q51 0 92 22.5t70.5 59.5t49 86t29.5 104l11 60q10 55 7 104t-20.5 86t-51.5 58.5t-85 21.5h-321l104 592h547l-23 -131h-401l-57 -326h178q82 0 139 -30.5t90 -85t40 -129t-7 -160.5l-10 -60q-16 -86 -50 -161.5 t-85.5 -132t-119 -90t-149.5 -33.5q-43 0 -97 14t-102.5 32.5t-82.5 33.5z" />
<glyph unicode="6" horiz-adv-x="860" d="M78 272l131 746q12 70 48 128t86 100t113.5 65.5t131.5 23.5q10 0 43 -7t67 -15q39 -10 88 -23l-59 -121q-41 10 -76 19q-29 8 -54.5 14t-29.5 6q-41 0 -78.5 -13t-69.5 -37.5t-54.5 -60.5t-30.5 -79l-37 -213q31 16 64.5 25.5t65.5 13.5t57.5 5t37.5 1q57 0 104.5 -23.5 t78 -63.5t43 -93.5t2.5 -114.5l-50 -283q-10 -61 -41.5 -113.5t-76.5 -90t-100.5 -60t-112.5 -22.5h-66q-57 0 -103 22.5t-77 60t-43 90t-2 113.5zM205 264q-14 -78 35 -115.5t122 -37.5q72 0 131.5 35.5t73.5 117.5l54 297q10 66 -25 113t-96 47h-64q-31 0 -60.5 -12.5 t-54 -34t-41 -51t-22.5 -62.5z" />
<glyph unicode="7" horiz-adv-x="749" d="M57 0l582 1194h-467l23 129h610l-25 -147l-579 -1176h-144z" />
<glyph unicode="8" horiz-adv-x="890" d="M74 262l30 170q12 74 55.5 133.5t104.5 91.5q-47 39 -69.5 99.5t-10.5 136.5l31 170q12 76 49 127t87 83t111.5 46t127.5 14q59 0 109.5 -18.5t85 -53t50 -85t5.5 -113.5l-31 -170q-14 -80 -58 -141.5t-110 -96.5q51 -35 76.5 -90t11.5 -133l-31 -170 q-10 -57 -39.5 -108.5t-71.5 -89t-94.5 -60t-107.5 -22.5h-96q-55 0 -99.5 22.5t-74 60t-41 89t-0.5 108.5zM205 268q-12 -66 23.5 -114t99.5 -48h63q31 0 60.5 13.5t54 35t42 51.5t23.5 62l27 152q14 78 -36 115.5t-124 37.5q-72 0 -132 -35.5t-75 -117.5zM315 899 q-12 -68 24 -116t99 -48h64q63 0 115.5 48t64.5 116l27 156q14 72 -32 111.5t-114 39.5q-78 0 -141.5 -32.5t-79.5 -118.5z" />
<glyph unicode="9" horiz-adv-x="878" d="M18 45l60 123q68 -18 121 -33q47 -12 86 -21.5t45 -9.5q39 0 77.5 13.5t70.5 39t53.5 60.5t29.5 78l43 244q-27 -14 -58.5 -22.5t-63 -13.5t-59.5 -7t-44 -2q-59 0 -105.5 23.5t-77 63.5t-43 93t-1.5 114l47 261q10 61 40.5 113t74.5 90t98.5 60.5t113.5 22.5h66 q57 0 104 -22.5t79 -60.5t44 -90t2 -113l-133 -754q-12 -70 -48 -128t-87 -100t-113.5 -66t-130.5 -24q-12 0 -58 10.5t-99 22.5q-61 14 -134 35zM281 782q-12 -66 22.5 -112.5t97.5 -46.5h64q61 0 113.5 47t64.5 112l47 275q14 72 -32 110.5t-111 38.5q-78 0 -140.5 -31.5 t-78.5 -117.5z" />
<glyph unicode=":" horiz-adv-x="407" d="M14 2l35 203h166l-35 -203h-166zM129 639l35 207h166l-35 -207h-166z" />
<glyph unicode=";" horiz-adv-x="454" d="M-57 -51q39 16 76.5 54t50.5 106l20 114h164l-21 -117q-23 -117 -85 -189.5t-154 -106.5zM164 639l35 207h163l-34 -207h-164z" />
<glyph unicode="&#x3c;" horiz-adv-x="997" d="M86 520l35 193l786 176l-24 -139l-355 -74h2q-33 -8 -77.5 -16.5t-85.5 -18.5q-49 -10 -101 -20l-2 -17q10 -2 32.5 -7t53.5 -13h-2q41 -10 87 -18.5t75 -16.5l324 -74l-25 -139z" />
<glyph unicode="=" horiz-adv-x="989" d="M92 348l29 156h710l-28 -156h-711zM162 737l26 156h711l-27 -156h-710z" />
<glyph unicode="&#x3e;" horiz-adv-x="1001" d="M94 346l25 137l354 76h-2q33 8 80 16.5t92 18.5l92 20l4 15l-243 57h2l-330 74l25 139l727 -176l-35 -193z" />
<glyph unicode="?" horiz-adv-x="880" d="M182 29h111l26 151h-110zM197 1333l194 74q35 14 87 24.5t87 10.5q76 0 140.5 -25.5t108.5 -73t64.5 -112t6.5 -144.5q-12 -68 -40 -114.5t-57 -81.5l-360 -428q-23 -29 -41 -58.5t-27 -70.5l-10 -55h-143l10 53q12 72 40 121t56 84q84 100 170 202.5t172 202.5 q29 33 55.5 72t32.5 71q8 49 -9 88t-49 67t-72 42t-72 14q-23 0 -48.5 -6t-50.5 -14l-221 -78z" />
<glyph unicode="@" horiz-adv-x="1753" d="M103.5 349.5q-29.5 146.5 0.5 314.5q33 186 119 340.5t214 266t292 173t352 61.5q156 0 284 -47t214 -136t123 -218t8 -291q-16 -96 -57 -194.5t-104.5 -178.5t-146.5 -131t-185 -51q-66 0 -109 37t-51 100q-53 -57 -131 -95t-148 -38q-80 0 -135 30t-88 80t-42 115.5 t3 139.5q14 84 55 164.5t100.5 143t138.5 101.5t171 39q63 0 116.5 -25.5t78.5 -78.5l36 88h101l-137 -541l-2 -18q-10 -57 8 -92t65 -35q63 0 119.5 38t100.5 100t75 141t45 161q25 137 -6 243.5t-102.5 180.5t-179 111.5t-238.5 37.5q-162 0 -301 -53t-248 -149.5 t-182.5 -228.5t-100.5 -291q-25 -141 0 -265.5t94.5 -217.5t179 -146t255.5 -53q133 0 266 24.5t270 79.5l-22 -123q-145 -57 -272.5 -78.5t-266.5 -21.5q-172 0 -303 62.5t-214 170t-112.5 254zM641 627q-18 -106 20.5 -179t141.5 -73q66 0 117 31.5t90 81t62.5 109 t33.5 114.5q8 49 5 94t-20.5 81t-53.5 56.5t-91 20.5q-59 0 -110.5 -31t-91 -79t-66.5 -107.5t-37 -118.5z" />
<glyph unicode="A" horiz-adv-x="954" d="M-51 2l579 1434h195l76 -1434h-137l-23 391h-395l-156 -391h-139zM307 541h322l-29 735h-2q-72 -186 -145.5 -367.5t-145.5 -367.5z" />
<glyph unicode="B" horiz-adv-x="980" d="M49 0l242 1372q86 31 149.5 48.5t89.5 21.5q29 6 58.5 9t56.5 3q68 0 100.5 -15.5t45.5 -25.5l2 -2q67 -45 105 -138q25 -60 25 -131q0 -39 -8 -81q-8 -45 -19 -89t-30.5 -86t-50.5 -82t-78 -75q47 -37 72 -76t35 -80q8 -32 8 -65q0 -10 -1 -20q-3 -44 -11 -93 q-10 -63 -33 -116.5t-48.5 -93.5t-48 -64.5t-32.5 -30.5q-43 -35 -102.5 -62.5t-145.5 -27.5h-381zM215 145h240q55 0 96 19.5t69.5 53.5t46 80t27.5 97q7 47 7 91v10q-1 48 -17 84t-50 56.5t-89 20.5h-240zM330 801h192q57 0 98.5 20.5t70 54t45 80t26.5 97.5q2 22 2 43 q0 26 -3 52q-5 46 -23.5 82t-52.5 57.5t-83 21.5q-20 0 -62 -6.5t-128 -38.5z" />
<glyph unicode="C" horiz-adv-x="903" d="M92 381l115 649q16 84 60 161t87 118q41 39 70 59.5t57 36.5l13 4l-7 -2q25 12 70 29.5t117 17.5q31 0 69.5 -10t67.5 -21l160 -65l-70 -133l-176 71q-18 8 -37.5 14.5t-36.5 6.5q-51 0 -101 -24.5t-92 -64.5t-72 -91.5t-40 -106.5l-117 -639q-5 -28 -4 -54q-1 -31 5 -57 q12 -50 40.5 -84t71.5 -53.5t92 -21.5q14 0 28.5 2t38 9t57.5 19.5t89 32.5l72 29l31 -141l-191 -64q-35 -12 -78 -20t-71 -8q-78 0 -143.5 27.5t-109.5 79.5q-45 52 -63 127q-10 40 -9 85q0 39 7 82z" />
<glyph unicode="D" horiz-adv-x="980" d="M47 57l232 1313q139 53 226 68.5t116 15.5q82 0 145 -34t103 -92q41 -58 55 -134q7 -39 7 -80q0 -40 -7 -82l-113 -647q-16 -86 -62.5 -160.5t-111 -129t-142 -85t-157.5 -30.5q-16 0 -39 2t-56.5 9t-81.5 22.5t-114 43.5zM207 168q68 -29 105.5 -35t58.5 -6h8 q47 0 94 22.5t87 61.5t68.5 88t39.5 104l106 629q5 30 5 57q1 51 -17 93q-26 64 -66 96q-23 16 -51.5 23.5t-50.5 7.5q-43 0 -95.5 -17.5t-99.5 -36.5z" />
<glyph unicode="E" horiz-adv-x="841" d="M51 2l252 1432h594l-25 -144h-452l-88 -497h354l-27 -144h-354l-88 -502h457l-25 -145h-598z" />
<glyph unicode="F" horiz-adv-x="806" d="M51 0l252 1434h594l-25 -144h-452l-88 -499h354l-27 -142h-354l-112 -649h-142z" />
<glyph unicode="G" horiz-adv-x="921" d="M94 236q-8 37 -8 76q0 41 8 85l113 639q20 96 63 174t102.5 132.5t134.5 83t159 28.5q31 -2 69.5 -10t69.5 -21l129 -53l-74 -143l-145 59q-43 20 -76 21q-49 0 -97 -22.5t-88 -59.5t-69 -86t-37 -103l-119 -667q-4 -23 -4 -44q0 -28 7 -55q14 -45 41.5 -79.5t68.5 -54 t90 -19.5q20 0 55 7t109 42l68 387h141l-84 -475q-66 -33 -119 -52.5t-93 -29.5t-66.5 -13t-41.5 -3q-84 0 -148.5 33.5t-104 90t-54.5 132.5z" />
<glyph unicode="H" horiz-adv-x="1060" d="M51 2l252 1432h141l-112 -637h461l112 637h144l-252 -1432h-144l115 649h-461l-114 -649h-142z" />
<glyph unicode="I" horiz-adv-x="448" d="M51 0l252 1434h133l-252 -1434h-133z" />
<glyph unicode="J" horiz-adv-x="649" d="M-70 2l52 148q10 -4 36.5 -7.5t54 -6.5t50 -5t27.5 -2q23 0 45 5t40.5 20.5t34 43t23.5 74.5l205 1162h139l-203 -1147q-16 -88 -35.5 -147.5t-52.5 -94.5t-85 -50t-132 -15q-8 0 -34.5 2t-57.5 5t-61.5 7t-45.5 8z" />
<glyph unicode="K" horiz-adv-x="815" d="M51 0l252 1434h139l-114 -646h32q102 160 202 321t202 321h154l-441 -717l185 -713h-154l-170 641h-35l-113 -641h-139z" />
<glyph unicode="L" horiz-adv-x="776" d="M51 0l252 1434h141l-227 -1293h447l-25 -141h-588z" />
<glyph unicode="M" horiz-adv-x="1251" d="M51 0l252 1434h201l108 -873h9l419 873h199l-252 -1434h-135l205 1169h-2l-369 -755h-194l-101 751l-205 -1165h-135z" />
<glyph unicode="N" horiz-adv-x="1142" d="M51 0l252 1434h168l299 -1268h4l223 1268h133l-251 -1434h-217l-273 1169h-2l-205 -1169h-131z" />
<glyph unicode="O" horiz-adv-x="1064" d="M89 248q-3 30 -3 56q0 30 4 54l125 705q8 45 38 111.5t86 128t141 105.5t204 44q117 0 185.5 -43t103.5 -105t42 -128q3 -31 4 -57q0 -30 -5 -54l-125 -707q-8 -45 -37 -109.5t-84 -123.5t-141 -101t-205 -42q-117 0 -185.5 42t-104.5 101t-43 123zM227 358 q-4 -28 -4 -51q-1 -43 13 -71q22 -44 59 -67.5t81 -29.5t75 -6t76.5 7t92 31t83 68t49.5 119l125 707q6 30 6 55q1 39 -13 67q-22 46 -59 71.5t-81 33.5t-75 8t-77 -9t-92 -34.5t-83.5 -71.5t-50.5 -122z" />
<glyph unicode="P" horiz-adv-x="1011" d="M49 0l240 1370q59 23 125 41q55 16 121.5 29.5t132.5 13.5q86 0 158.5 -30.5t121.5 -87.5q48 -56 70 -135q12 -45 13 -97q0 -38 -7 -80q-18 -98 -65.5 -181t-116 -143.5t-154.5 -93.5t-178 -33h-225l-101 -573h-135zM311 719h209q139 0 236.5 76.5t126.5 228.5q6 35 6 65 q1 34 -7 63q-14 54 -48.5 89t-87.5 51.5t-121 16.5q-33 0 -71 -7.5t-71 -17.5q-37 -10 -75 -22z" />
<glyph unicode="Q" horiz-adv-x="1067" d="M89 255q-3 28 -3 52q0 28 4 51l125 703q8 45 38 111.5t86 129t141 106.5t204 44q117 0 185.5 -44t103.5 -106.5t42 -129.5q3 -31 3 -57q0 -30 -4 -54l-125 -703q-6 -39 -30.5 -93t-67.5 -107.5t-106.5 -98.5t-145.5 -65q14 -33 55 -51l-66 -150q-61 29 -101 76t-48 115 q-100 10 -160.5 54t-91.5 100.5t-38 116.5zM231 358q-4 -29 -4 -53q0 -41 13 -69q20 -43 57 -67t80 -30t74 -6t75.5 6t90 30t82 68t49.5 121l124 703q4 29 4 53q0 41 -12 70q-20 47 -56 74.5t-78 38t-73 10.5t-75.5 -10.5t-91 -37t-84 -73.5t-50.5 -123z" />
<glyph unicode="R" horiz-adv-x="1044" d="M49 0l240 1370q61 23 127 41q55 16 121.5 29.5t130.5 13.5q86 0 158.5 -27.5t122.5 -82.5q49 -54 71 -130q12 -44 13 -96q0 -38 -7 -80q-12 -68 -40 -132t-67.5 -120.5t-89 -99.5t-102.5 -68l141 -618h-139l-149 580q-16 -2 -35 -3.5t-35 -1.5h-225l-101 -575h-135z M313 721h209q139 0 236.5 82t126.5 235q6 35 6 65q1 33 -7 61q-14 52 -48.5 84t-88.5 46.5t-122 14.5q-33 0 -71 -7.5t-71 -15.5q-37 -10 -75 -22z" />
<glyph unicode="S" horiz-adv-x="960" d="M0 141l72 135q63 -37 129 -63q53 -25 115.5 -44t113.5 -19q53 0 103.5 21.5t91.5 58t69.5 86t38.5 106.5q3 19 3 35q0 34 -14 61q-20 39 -56.5 64.5t-85 40t-93.5 22.5q-74 12 -136 44t-104 81q-41 50 -59 116q-10 37 -10 79q0 34 6 71q14 86 58.5 162t108 132t140 90 t156.5 34q49 0 101.5 -11t95.5 -26q51 -16 98 -37l-70 -139q-43 18 -88 33q-39 12 -83 23.5t-85 11.5q-51 0 -99 -22.5t-88 -59.5t-67.5 -85t-35.5 -100q-4 -23 -4 -43q0 -33 10 -60q16 -44 49 -74.5t74 -49t82 -27.5q82 -14 151.5 -40.5t116.5 -69.5q47 -42 67 -104 q11 -36 11 -80q0 -32 -6 -68q-16 -86 -59.5 -164t-107 -135t-141 -91t-161.5 -34q-80 0 -154 21.5t-131 48.5q-68 31 -123 69z" />
<glyph unicode="T" horiz-adv-x="862" d="M156 1296l24 138h791l-25 -138h-321l-228 -1296h-137l227 1296h-331z" />
<glyph unicode="U" horiz-adv-x="1095" d="M108 234q-3 27 -4 53q0 38 7 73l188 1076h133l-188 -1076q-6 -34 -7 -63q0 -34 10 -60q17 -47 52 -74.5t79 -37.5t83 -10q35 0 83 10t93 37.5t82 75t51 122.5l188 1076h132l-189 -1076q-10 -59 -41 -125.5t-86 -122t-138 -91t-198 -35.5t-184.5 35.5t-103.5 91t-42 121.5 z" />
<glyph unicode="V" horiz-adv-x="946" d="M195 1434h139l55 -1274h4q8 20 34 86.5t62.5 160t81.5 206l91 227.5q106 266 237 594h141l-581 -1434h-195z" />
<glyph unicode="W" horiz-adv-x="1255" d="M170 2l43 1432h133l-49 -1274l293 725h176l25 -725l409 1274h131l-459 -1432h-198l-27 709l-280 -709h-197z" />
<glyph unicode="X" horiz-adv-x="919" d="M-61 0l423 711l-172 723h140l162 -648l391 648h139l-426 -723l172 -711h-141l-156 639h-12l-381 -639h-139z" />
<glyph unicode="Y" horiz-adv-x="888" d="M172 1434h139l162 -648l391 648h140l-467 -795h-23l-113 -639h-133l113 639h-16z" />
<glyph unicode="Z" horiz-adv-x="937" d="M-39 0l25 150l800 1136h-555l27 148h731l-24 -134l-803 -1153h633l-25 -147h-809z" />
<glyph unicode="[" horiz-adv-x="499" d="M-4 -168l307 1743h305l-22 -125h-178l-263 -1491h179l-23 -127h-305z" />
<glyph unicode="\" horiz-adv-x="798" d="M225 1559h137l252 -1672h-135z" />
<glyph unicode="]" horiz-adv-x="499" d="M-74 -170l23 127h178l262 1491h-178l22 125h306l-308 -1743h-305z" />
<glyph unicode="_" horiz-adv-x="421" />
<glyph unicode="`" horiz-adv-x="745" d="M438 1495h158l156 -321h-138z" />
<glyph unicode="a" horiz-adv-x="829" d="M33 279l20 112q10 59 41 112.5t76 93.5t99.5 63.5t113.5 23.5q12 0 37.5 -1t55.5 -6t60.5 -14.5t55.5 -23.5l6 43q4 22 4 43t-4 43q-8 43 -28.5 76t-53.5 53.5t-72 20.5q-14 0 -59 -10.5t-92 -20.5q-55 -14 -123 -31l-12 123q72 18 133 33q53 12 103 22t73 10 q66 0 119 -30.5t88 -81.5q35 -52 48 -116q7 -34 7 -68q0 -32 -6 -66l-96 -565l37 -41l-109 -92l-45 55q-70 -31 -141.5 -45t-108.5 -14q-59 0 -106.5 23.5t-78 64.5t-41.5 95q-6 28 -6 59q0 27 5 57zM160 270q-3 -17 -3 -32q1 -46 27 -80q36 -46 97 -45q23 0 61.5 10 t75.5 22q43 14 90 35l55 318q0 2 -15.5 11t-43 19.5t-64.5 18.5t-80 8q-31 0 -60.5 -13.5t-54 -35t-41 -50t-22.5 -59.5z" />
<glyph unicode="b" d="M-10 78l51 45l229 1300h129l-75 -428q84 39 137 44t86 5q57 0 104 -23.5t78 -63t43 -93.5q7 -29 6 -60q0 -26 -4 -54l-84 -471q-10 -61 -42 -115.5t-76 -94.5t-99 -62.5t-113 -22.5q-43 0 -106.5 11t-124.5 46q-16 -10 -33.5 -26.5t-32.5 -26.5zM182 176q4 -14 30 -26.5 t58.5 -20.5t64.5 -12t50 -4q61 0 113.5 46t64.5 111l86 486q2 15 2 28q1 48 -27 84q-36 46 -100 45q-16 0 -43.5 -4t-58.5 -11t-63.5 -19.5t-57.5 -26.5z" />
<glyph unicode="c" horiz-adv-x="716" d="M55 309l74 416q12 70 48 129t88 102t116.5 67t132.5 24q33 0 70 -9.5t67 -19.5q37 -12 72 -29l-53 -112q-31 12 -64 20q-29 8 -59.5 15.5t-54.5 7.5q-82 0 -151 -53.5t-85 -141.5l-74 -416q-3 -19 -3 -37q-1 -24 5 -45q10 -37 34 -62.5t57.5 -39.5t74.5 -14q16 0 49 5 t66 13q37 8 78 21l18 -119q-45 -14 -86 -25q-37 -10 -77 -16t-70 -6q-68 0 -124.5 24.5t-93.5 67.5q-36 42 -52 102q-9 34 -8 71q0 29 5 60z" />
<glyph unicode="d" d="M51 276l84 472q10 61 41 114t76 93t99.5 63.5t113.5 23.5q31 0 86 -7t121 -42l76 428h126l-231 -1306l43 -49l-108 -91l-50 62q-68 -31 -138.5 -43t-110.5 -12q-59 0 -105.5 22.5t-77 62t-42.5 93.5q-7 30 -7 63q0 26 4 53zM178 268q-3 -16 -3 -32q0 -46 27 -80 q36 -46 97 -45q18 0 51 5t68 13t64.5 19.5t41.5 25.5l119 674q-53 37 -111.5 51t-89.5 14t-60.5 -12t-54 -33.5t-42 -51.5t-23.5 -62z" />
<glyph unicode="e" horiz-adv-x="837" d="M55 307l78 441q10 61 42 115.5t78 94t102.5 63t115.5 23.5h68q59 0 107 -22.5t80 -62t45 -93.5q7 -31 7 -65q0 -26 -4 -53l-12 -66q-16 -88 -57 -147.5t-101.5 -96.5t-135.5 -53t-155 -16q-57 0 -112 6l-19 -103q2 -72 50.5 -116.5t119.5 -44.5q4 0 49 9t99 21 q61 12 137 31l10 -135q-80 -16 -147 -29q-57 -10 -108.5 -18t-61.5 -8q-68 0 -124 24.5t-93 67.5q-37 42 -53 102q-10 34 -10 73q0 28 5 58zM223 510l226 -2q31 0 61.5 13.5t55 37t42 53t23.5 62.5l14 84q3 17 3 32q0 22 -7 40q-12 30 -36.5 48.5t-59.5 26.5t-74 8 q-70 0 -130 -42t-73 -113z" />
<glyph unicode="f" horiz-adv-x="600" d="M104 899l23 125h176l25 141q27 147 108.5 211t186.5 64h49l-23 -135h-39q-49 0 -93 -27t-56 -98l-27 -156h191l-23 -125h-188l-158 -899h-135l158 899h-175z" />
<glyph unicode="g" horiz-adv-x="860" d="M-80 -449l57 121q55 -18 107 -32q43 -12 85 -22.5t62 -10.5q80 0 146.5 43t81.5 129l45 246q-72 -33 -120 -38t-83 -5h-20q-59 0 -106.5 23.5t-78 63.5t-42.5 93q-7 29 -7 61q0 26 4 53l84 474q10 61 42 114.5t77 93t99.5 63t113.5 23.5q45 0 103.5 -14t121.5 -43l76 64 l76 -93l-58 -47l-198 -1130q-14 -78 -50 -134.5t-86.5 -92t-113 -53t-129.5 -17.5q-33 0 -81 10t-95 23q-53 14 -113 34zM180 270q-3 -16 -3 -32q0 -46 27 -80q36 -47 99 -47q16 0 32.5 1t41 7t60.5 18.5t89 36.5l121 678q-70 41 -120 51t-85 10q-61 0 -113.5 -46 t-62.5 -109z" />
<glyph unicode="h" horiz-adv-x="868" d="M20 0l250 1423h129l-75 -428q84 39 137 44t86 5q57 0 104 -23.5t78 -63t43 -93.5q7 -29 6 -60q0 -26 -4 -54l-131 -750h-127l133 756q2 14 2 27q-1 49 -29 85q-36 46 -98 45q-35 0 -98.5 -12t-126.5 -51l-149 -850h-130z" />
<glyph unicode="i" horiz-adv-x="387" d="M20 0l181 1024h135l-180 -1024h-136zM238 1239l32 184h136l-33 -184h-135z" />
<glyph unicode="j" horiz-adv-x="387" d="M-229 -485l22 135h41q49 0 92 29.5t58 99.5l215 1247h137l-219 -1237q-25 -145 -108 -209.5t-189 -64.5h-49zM238 1245l30 176h138l-31 -176h-137z" />
<glyph unicode="k" horiz-adv-x="694" d="M20 0l250 1423h129l-141 -798h41l283 397h143l-334 -473l158 -549h-143l-132 475h-43l-81 -475h-130z" />
<glyph unicode="l" horiz-adv-x="444" d="M80 276l203 1147h131l-205 -1157q-3 -20 -3 -37q0 -45 22 -65q32 -28 83 -27h41l-22 -135h-51q-104 0 -164 64q-42 46 -42 132q0 35 7 78z" />
<glyph unicode="m" horiz-adv-x="1398" d="M23 0l159 909l-43 49l109 91l49 -64q57 29 111.5 44t105.5 15q86 0 154.5 -34.5t93.5 -104.5q76 84 159 111.5t154 27.5q76 0 124 -31.5t73 -80.5q24 -50 30 -106q2 -21 2 -41q0 -33 -6 -64l-127 -721h-131l127 721q5 26 5 52q0 9 -1 17q-2 34 -15 61.5t-39.5 44.5 t-69.5 17q-117 0 -182.5 -66.5t-88.5 -189.5l-114 -657h-132l134 764q6 31 -5.5 58.5t-35 48t-54 31.5t-65.5 11q-16 0 -43 -5t-56.5 -14t-57.5 -20.5t-46 -23.5l-149 -850h-129z" />
<glyph unicode="n" horiz-adv-x="884" d="M23 0l159 907l-41 47l107 93l51 -62q117 57 215 57q45 0 89 -9t79 -29.5t60.5 -53.5t37.5 -80q12 -40 13 -80q0 -12 -2 -24q-5 -51 -15 -107l-114 -659h-134l127 721q4 24 4 45q-1 61 -31 99q-40 50 -102 50q-35 0 -91 -9t-134 -56l-149 -850h-129z" />
<glyph unicode="o" d="M53 287l82 461q16 96 62.5 154.5t101.5 90t111.5 41.5t95.5 10t91 -10t97 -42q46 -32 70 -90q15 -35 14 -84q0 -32 -6 -70l-82 -461q-16 -96 -62 -154.5t-101.5 -91.5t-112 -43t-95.5 -10t-92 10t-97 43t-68 91q-15 35 -15 84q0 33 6 71zM172 301q-4 -24 -4 -44 q0 -31 10 -54q16 -37 44 -56.5t61.5 -26.5t58.5 -7t59.5 7t69.5 26.5t63.5 56.5t38.5 98l78 432q4 24 4 45q0 31 -9 52q-15 36 -43 55.5t-61.5 26t-58.5 6.5t-60.5 -6.5t-70.5 -26t-63.5 -55t-38.5 -97.5z" />
<glyph unicode="p" horiz-adv-x="858" d="M-66 -498l248 1409l-41 47l105 93l53 -64q72 31 138.5 44t109.5 13q57 0 104 -23.5t78 -63t43 -93.5q7 -29 7 -60q0 -26 -5 -54l-84 -476q-10 -61 -42 -114.5t-76 -93t-99 -63t-113 -23.5q-29 0 -85 7t-121 42l-93 -527h-127zM180 174q20 -14 49 -25.5t57.5 -19.5 t54.5 -13t42 -5q63 0 115.5 46t64.5 111l86 490q2 14 2 27q0 46 -27 82q-36 46 -98 46q-35 0 -99.5 -13t-127.5 -52z" />
<glyph unicode="q" horiz-adv-x="858" d="M51 274l84 474q10 61 41 114t76 93t99.5 63.5t113.5 23.5q41 0 104.5 -13t122.5 -42l78 62l72 -93l-58 -47l-247 -1407h-127l92 523l-21 -9q-57 -25 -101 -29.5t-77 -6.5h-18q-59 0 -106.5 23.5t-79 63t-45.5 93.5q-7 30 -7 63q0 25 4 51zM178 268q-3 -16 -3 -32 q0 -45 27 -80q36 -45 99 -45q14 0 42 3t58.5 10t63.5 18.5t59 29.5l119 674q-63 47 -115.5 57t-87.5 10q-61 0 -113.5 -46t-62.5 -111z" />
<glyph unicode="r" horiz-adv-x="688" d="M29 2l155 889q-10 12 -24.5 28.5t-24.5 28.5l107 92l57 -67q68 47 122 59t93 12q41 0 90 -18t135 -72l-92 -108q-31 23 -53.5 36t-38.5 19t-32.5 7t-35.5 1q-29 0 -79 -15t-107 -58l-145 -834h-127z" />
<glyph unicode="s" horiz-adv-x="745" d="M-6 80l69 113l166 -72q49 -18 103 -19q63 0 116.5 50.5t69.5 144.5q2 15 2 28q0 23 -6 39q-10 28 -30.5 44t-47 24t-51.5 8q-74 0 -132 14.5t-94 48.5q-35 34 -49 90q-6 25 -6 55q0 39 9 87q12 76 44.5 134.5t78 97.5t100.5 58t117 19q37 0 71.5 -9t75.5 -23l74 -29 l-72 -113q-49 18 -76.5 28.5t-44 15t-24.5 5.5t-17 1h-10q-63 0 -121.5 -51.5t-75.5 -143.5q-2 -13 -2 -26q-1 -23 7 -43q12 -30 33.5 -50t49 -30.5t52.5 -10.5q66 0 121 -11t93 -42t52 -84q7 -26 7 -61t-7 -78q-27 -154 -117 -231.5t-213 -77.5q-37 0 -75.5 7t-75.5 23z " />
<glyph unicode="t" horiz-adv-x="565" d="M90 899l23 127h170l69 397h133l-69 -397h182l-23 -127h-182l-112 -637q-3 -20 -4 -37q-1 -45 23 -65q32 -28 83 -27h57l-24 -135h-68q-53 0 -95 15.5t-69.5 49t-37.5 85.5q-4 22 -4 47q0 35 8 77l110 627h-170z" />
<glyph unicode="u" horiz-adv-x="884" d="M62 260q4 51 14 107l117 657h131l-127 -719q-4 -26 -5 -49q0 -59 30 -95q42 -50 104 -50q59 0 122.5 21.5t104.5 43.5l149 848h129l-159 -905l43 -47l-109 -92l-51 61q-61 -29 -130 -43t-120 -14q-37 0 -73.5 9t-67.5 29.5t-54.5 53.5t-35.5 80q-13 42 -13 84q0 10 1 20z " />
<glyph unicode="v" horiz-adv-x="753" d="M113 1024h129q18 -285 28.5 -456t16.5 -261q8 -109 10 -149l352 866h131l-411 -1024h-193z" />
<glyph unicode="w" horiz-adv-x="1089" d="M111 0l16 1024h127l-37 -870l297 868h197l-15 -868l279 870h129l-344 -1024h-172l-4 862q-78 -213 -153 -432t-152 -430h-168z" />
<glyph unicode="x" horiz-adv-x="741" d="M-59 0l305 510l-125 514h129l117 -438q66 109 132 219t132 219h133l-301 -514q31 -123 63.5 -254t63.5 -254h-133l-115 436h-8l-264 -438h-129z" />
<glyph unicode="y" horiz-adv-x="778" d="M45 -498l170 498h-10l-90 1024h131q14 -219 26.5 -371.5t22.5 -251.5q10 -113 20 -186h2q6 12 28 65.5t65 151.5t109.5 244.5t158.5 347.5h133l-455 -1024h-12q-41 -123 -85 -249t-83 -249h-131z" />
<glyph unicode="z" horiz-adv-x="837" d="M-35 0l21 123l635 747l4 21h-488l23 129h655l-20 -123l-637 -752l-2 -16h538l-22 -129h-707z" />
<glyph unicode="{" horiz-adv-x="491" d="M29.5 -20.5q-4.5 40.5 7.5 112.5l219 1239q12 72 31.5 113t56.5 69q31 29 77 43.5t118 14.5h59l-23 -127h-49q-43 0 -65.5 -2t-38.5 -17q-27 -25 -43 -118l-211 -1198q-8 -47 -8 -73t10 -40t32.5 -16.5t65.5 -2.5h49l-22 -124h-59q-72 0 -112 14t-63 41 q-27 31 -31.5 71.5z" />
<glyph unicode="|" horiz-adv-x="399" d="M27 -20l254 1443h127l-254 -1443h-127z" />
<glyph unicode="}" horiz-adv-x="501" d="M-68 -143l23 125h82q29 0 47 3t31 13q16 14 25.5 39.5t17.5 73.5l213 1208q14 88 -2 111q-12 14 -35 16t-66 2h-55l23 125h65q72 0 113 -13.5t63 -41.5q27 -29 33 -70t-8 -113l-217 -1239q-12 -72 -34 -112.5t-56 -71.5q-33 -27 -79 -41t-118 -14h-66z" />
<glyph unicode="~" horiz-adv-x="937" d="M72 539q45 39 79.5 63.5t64.5 38.5t56.5 19.5t55.5 5.5q45 0 81.5 -16.5t71.5 -33.5q33 -18 67 -32.5t73 -14.5q16 0 30.5 3t31.5 11.5t38.5 24t52.5 41.5l78 -71q-47 -39 -82 -64t-64.5 -39t-56 -19t-55.5 -5q-39 0 -75 15t-73 34q-35 16 -69.5 31.5t-73.5 15.5 q-16 0 -31.5 -3t-33 -11.5t-40 -23.5t-53.5 -42z" />
<glyph unicode="&#xa1;" horiz-adv-x="405" d="M31 2l200 1141h131l-200 -1141h-131zM242 1214l37 209h133l-37 -209h-133z" />
<glyph unicode="&#xa2;" horiz-adv-x="731" d="M47 204q-10 50 0 107l74 416q10 57 37.5 108.5t67.5 91.5t88 68.5t102 42.5l45 258h127l-45 -252q29 -4 59.5 -12t54.5 -18q29 -10 58 -23l-53 -112q-31 12 -64 20q-29 8 -59.5 15.5t-55.5 7.5q-82 0 -150.5 -53.5t-84.5 -141.5l-74 -416q-8 -45 2 -81.5t33.5 -62.5 t57.5 -40t75 -14q16 0 49 5t66 13q37 8 80 21l10 -115q-33 -12 -66 -23q-29 -10 -62.5 -17t-62.5 -9l-43 -248h-127l45 256q-45 14 -82.5 45t-64.5 72t-37 91z" />
<glyph unicode="&#xa3;" horiz-adv-x="1032" d="M70 0l112 643h-78l25 145h78l49 273q14 82 53 151.5t96.5 120.5t132 79t160.5 28q84 0 150.5 -29t109.5 -81t58.5 -123.5t1.5 -157.5h-137q14 82 -3.5 132t-51 77.5t-75.5 37t-77 9.5q-37 0 -81 -10.5t-84 -36t-71.5 -72.5t-44.5 -121l-49 -277h440l-24 -145h-441 l-90 -508h625l-23 -135h-761z" />
<glyph unicode="&#xa5;" horiz-adv-x="1003" d="M100 350l27 156h281l22 129h-16l-29 104h-217l29 156h153q-33 127 -64.5 265t-62.5 265h139l160 -643h17l387 643h139l-311 -530h153l-28 -156h-220l-59 -104h-22l-23 -129h283l-27 -156h-283l-61 -348h-148l62 348h-281z" />
<glyph unicode="&#xa6;" horiz-adv-x="403" d="M31 0l112 649h131l-112 -649h-131zM166 772l115 651h131l-115 -651h-131z" />
<glyph unicode="&#xa8;" horiz-adv-x="923" d="M410 1196l32 180h144l-33 -180h-143zM803 1196l33 180h143l-33 -180h-143z" />
<glyph unicode="&#xa9;" horiz-adv-x="1626" d="M102 709q27 152 107 284.5t196.5 231t259 156t293.5 57.5q152 0 274 -57.5t204 -156t116 -231t7 -284.5t-108 -284t-196.5 -231.5t-258 -156.5t-294.5 -57t-273.5 57t-203.5 156.5t-115.5 231.5t-7.5 284zM229 709q-23 -125 6 -234.5t96.5 -190.5t169 -128t224.5 -47 q125 0 242.5 47t213 128t162 190.5t89.5 234.5q20 125 -7.5 234.5t-95 191.5t-168 129t-225.5 47q-123 0 -240.5 -47t-214 -128t-164 -191.5t-88.5 -235.5zM590 553l59 338q8 49 35 91t63.5 72.5t81.5 47t95 16.5q41 0 78.5 -13t54.5 -20l-19 -41q-23 4 -45 11 q-18 4 -40.5 8t-39.5 4q-76 0 -138 -49t-77 -127l-59 -338q-14 -80 33 -130t123 -50q12 0 30.5 3t38 6t37 7t27.5 8q4 -16 5 -22t3 -23q-31 -8 -59 -14q-25 -6 -50.5 -10t-42.5 -4q-98 0 -155.5 63.5t-38.5 165.5z" />
<glyph unicode="&#xad;" horiz-adv-x="747" d="M127 643l27 156h505l-26 -156h-506z" />
<glyph unicode="&#xae;" horiz-adv-x="1626" d="M104 717q27 152 108 285t197.5 231t259 155.5t294.5 57.5q150 0 272.5 -57.5t203.5 -155.5t115 -231t7 -285t-107 -284t-196.5 -231.5t-260 -156.5t-292.5 -57q-152 0 -274 57t-204 156.5t-115.5 231.5t-7.5 284zM231 717q-23 -125 5 -234.5t95.5 -191.5t169 -129 t226.5 -47q123 0 240.5 47t214 129t163 191.5t89.5 234.5t-5 235.5t-95.5 191.5t-169 128t-224.5 47q-125 0 -242.5 -47t-214 -128t-163 -191.5t-89.5 -235.5zM569 322l136 770q33 12 67 20q29 8 63.5 14.5t69.5 6.5q45 0 85 -14.5t67.5 -43t39 -70.5t3.5 -96 q-14 -76 -61.5 -141.5t-108.5 -87.5l-10 -18l79 -340h-41l-84 346q-23 -6 -34 -7.5t-21 -1.5h-155l-60 -337h-35zM672 700h147q90 0 154.5 54.5t83.5 154.5q16 100 -32 140.5t-138 40.5q-23 0 -49.5 -5.5t-49.5 -11.5q-27 -8 -55 -16z" />
<glyph unicode="&#xb0;" horiz-adv-x="673" d="M172 1182q10 55 40 102t72 83t93 56.5t104 20.5q55 0 100.5 -20.5t74 -55.5t40.5 -83t2 -103q-10 -53 -38.5 -101.5t-70.5 -84t-94.5 -57t-107.5 -21.5q-53 0 -97 21.5t-74 57t-42 83.5t-2 102zM291 1182q-10 -59 24.5 -100.5t94.5 -41.5q31 0 59.5 11.5t51 31t39 45 t20.5 54.5q10 59 -25 101t-94 42q-29 0 -57.5 -11t-51 -30.5t-39 -45.5t-22.5 -56z" />
<glyph unicode="&#xb4;" horiz-adv-x="948" d="M598 1176l266 321h158l-287 -321h-137z" />
<glyph unicode="&#xb8;" horiz-adv-x="806" d="M217 -352q41 16 70.5 61t42.5 111l20 117h123l-20 -119q-20 -115 -66.5 -175.5t-112.5 -88.5z" />
<glyph unicode="&#xbf;" horiz-adv-x="802" d="M-57 -137q10 59 35.5 103t52.5 77l360 430q25 29 46.5 62.5t31.5 80.5l4 27h86l-4 -25q-12 -68 -35.5 -110.5t-52.5 -77.5q-86 -100 -172 -202.5t-170 -202.5q-31 -35 -60.5 -78t-35.5 -82q-10 -55 9 -99.5t55 -76t79 -48t82 -16.5q29 0 54.5 6.5t51.5 16.5l193 69 l16 -79l-166 -66q-37 -14 -86 -25.5t-77 -11.5q-70 0 -129.5 23.5t-101.5 66.5t-60 103.5t-6 134.5zM449 743l34 207h166l-35 -207h-165z" />
<glyph unicode="&#xc0;" horiz-adv-x="954" d="M-51 2l579 1434h195l76 -1434h-137l-23 391h-395l-156 -391h-139zM307 541h322l-29 735h-2q-72 -186 -145.5 -367.5t-145.5 -367.5zM395 1905h158l156 -321h-138z" />
<glyph unicode="&#xc1;" horiz-adv-x="954" d="M-51 2l579 1434h195l76 -1434h-137l-23 391h-395l-156 -391h-139zM307 541h322l-29 735h-2q-72 -186 -145.5 -367.5t-145.5 -367.5zM580 1586l266 321h158l-287 -321h-137z" />
<glyph unicode="&#xc2;" horiz-adv-x="954" d="M-51 2l579 1434h195l76 -1434h-137l-23 391h-395l-156 -391h-139zM307 541h322l-29 735h-2q-72 -186 -145.5 -367.5t-145.5 -367.5zM381 1657l270 277h121l172 -277h-131l-123 156l-176 -156h-133z" />
<glyph unicode="&#xc3;" horiz-adv-x="954" d="M-51 2l579 1434h195l76 -1434h-137l-23 391h-395l-156 -391h-139zM307 541h322l-29 735h-2q-72 -186 -145.5 -367.5t-145.5 -367.5zM363 1743h575l35 -127h-569z" />
<glyph unicode="&#xc4;" horiz-adv-x="954" d="M-51 2l579 1434h195l76 -1434h-137l-23 391h-395l-156 -391h-139zM307 541h322l-29 735h-2q-72 -186 -145.5 -367.5t-145.5 -367.5zM390 1606l32 180h144l-33 -180h-143zM783 1606l33 180h143l-33 -180h-143z" />
<glyph unicode="&#xc6;" horiz-adv-x="1507" d="M-78 2l909 1432h732l-25 -144h-455l-88 -497h357l-27 -144h-356l-88 -502h458l-24 -145h-596l67 391h-479l-246 -391h-139zM403 541q106 0 206 -1t204 -1q33 186 65.5 367t65.5 368q-20 0 -39.5 1t-42.5 1z" />
<glyph unicode="&#xc7;" horiz-adv-x="903" d="M92 381l115 649q16 84 60 161t87 118q41 39 70 59.5t57 36.5l13 4l-7 -2q25 12 70 29.5t117 17.5q31 0 69.5 -10t67.5 -21l160 -65l-70 -133l-176 71q-18 8 -37.5 14.5t-36.5 6.5q-51 0 -101 -24.5t-92 -64.5t-72 -91.5t-40 -106.5l-117 -639q-10 -61 1.5 -110.5t40 -84 t71.5 -54t92 -21.5q14 0 28.5 2t38 9t57.5 19.5t89 32.5l72 29l31 -141l-191 -64q-35 -12 -78 -20t-71 -8q-78 0 -143.5 27.5t-109.5 79.5t-62.5 127t-2.5 167zM201 -352q41 16 70.5 61t42.5 111l20 117h123l-20 -119q-20 -115 -66.5 -175.5t-112.5 -88.5z" />
<glyph unicode="&#xc8;" horiz-adv-x="841" d="M51 2l252 1432h594l-25 -144h-452l-88 -497h354l-27 -144h-354l-88 -502h457l-25 -145h-598zM377 1905h158l156 -321h-138z" />
<glyph unicode="&#xc9;" horiz-adv-x="841" d="M51 2l252 1432h594l-25 -144h-452l-88 -497h354l-27 -144h-354l-88 -502h457l-25 -145h-598zM516 1573l266 321h158l-287 -321h-137z" />
<glyph unicode="&#xca;" horiz-adv-x="841" d="M51 2l252 1432h594l-25 -144h-452l-88 -497h354l-27 -144h-354l-88 -502h457l-25 -145h-598zM307 1657l270 277h121l172 -277h-131l-123 156l-176 -156h-133z" />
<glyph unicode="&#xcb;" horiz-adv-x="841" d="M51 2l252 1432h594l-25 -144h-452l-88 -497h354l-27 -144h-354l-88 -502h457l-25 -145h-598zM353 1606l32 180h144l-33 -180h-143zM746 1606l33 180h143l-33 -180h-143z" />
<glyph unicode="&#xcc;" horiz-adv-x="448" d="M51 0l252 1434h133l-252 -1434h-133zM157 1905h158l156 -321h-138z" />
<glyph unicode="&#xcd;" horiz-adv-x="448" d="M51 0l252 1434h133l-252 -1434h-133zM340 1586l266 321h158l-287 -321h-137z" />
<glyph unicode="&#xce;" horiz-adv-x="448" d="M51 0l252 1434h133l-252 -1434h-133zM129 1657l270 277h121l172 -277h-131l-123 156l-176 -156h-133z" />
<glyph unicode="&#xcf;" horiz-adv-x="448" d="M51 0l252 1434h133l-252 -1434h-133zM131 1606l32 180h144l-33 -180h-143zM524 1606l33 180h143l-33 -180h-143z" />
<glyph unicode="&#xd1;" horiz-adv-x="1142" d="M51 0l252 1434h168l299 -1268h4l223 1268h133l-251 -1434h-217l-273 1169h-2l-205 -1169h-131zM451 1743h575l35 -127h-569z" />
<glyph unicode="&#xd2;" horiz-adv-x="1064" d="M89 248.5q-7 64.5 1 109.5l125 705q8 45 38 111.5t86 128t141 105.5t204 44q117 0 185.5 -43t103.5 -104.5t42 -128t-1 -111.5l-125 -707q-8 -45 -37 -109.5t-84 -123.5t-141 -101t-205 -42q-117 0 -185.5 42t-104.5 101t-43 123.5zM227 358q-12 -78 9.5 -121.5 t58.5 -67.5t81 -30t75 -6t76.5 7t92 31t83 68t49.5 119l125 707q14 76 -7.5 122t-58.5 71.5t-81 33.5t-75 8t-77 -9t-92 -34.5t-83.5 -71.5t-50.5 -122zM479 1905h158l156 -321h-138z" />
<glyph unicode="&#xd3;" horiz-adv-x="1064" d="M89 248.5q-7 64.5 1 109.5l125 705q8 45 38 111.5t86 128t141 105.5t204 44q117 0 185.5 -43t103.5 -104.5t42 -128t-1 -111.5l-125 -707q-8 -45 -37 -109.5t-84 -123.5t-141 -101t-205 -42q-117 0 -185.5 42t-104.5 101t-43 123.5zM227 358q-12 -78 9.5 -121.5 t58.5 -67.5t81 -30t75 -6t76.5 7t92 31t83 68t49.5 119l125 707q14 76 -7.5 122t-58.5 71.5t-81 33.5t-75 8t-77 -9t-92 -34.5t-83.5 -71.5t-50.5 -122zM643 1586l266 321h158l-287 -321h-137z" />
<glyph unicode="&#xd4;" horiz-adv-x="1064" d="M89 248.5q-7 64.5 1 109.5l125 705q8 45 38 111.5t86 128t141 105.5t204 44q117 0 185.5 -43t103.5 -104.5t42 -128t-1 -111.5l-125 -707q-8 -45 -37 -109.5t-84 -123.5t-141 -101t-205 -42q-117 0 -185.5 42t-104.5 101t-43 123.5zM227 358q-12 -78 9.5 -121.5 t58.5 -67.5t81 -30t75 -6t76.5 7t92 31t83 68t49.5 119l125 707q14 76 -7.5 122t-58.5 71.5t-81 33.5t-75 8t-77 -9t-92 -34.5t-83.5 -71.5t-50.5 -122zM436 1657l270 277h121l172 -277h-131l-123 156l-176 -156h-133z" />
<glyph unicode="&#xd5;" horiz-adv-x="1064" d="M89 248.5q-7 64.5 1 109.5l125 705q8 45 38 111.5t86 128t141 105.5t204 44q117 0 185.5 -43t103.5 -104.5t42 -128t-1 -111.5l-125 -707q-8 -45 -37 -109.5t-84 -123.5t-141 -101t-205 -42q-117 0 -185.5 42t-104.5 101t-43 123.5zM227 358q-12 -78 9.5 -121.5 t58.5 -67.5t81 -30t75 -6t76.5 7t92 31t83 68t49.5 119l125 707q14 76 -7.5 122t-58.5 71.5t-81 33.5t-75 8t-77 -9t-92 -34.5t-83.5 -71.5t-50.5 -122zM418 1743h575l35 -127h-569z" />
<glyph unicode="&#xd6;" horiz-adv-x="1064" d="M89 248.5q-7 64.5 1 109.5l125 705q8 45 38 111.5t86 128t141 105.5t204 44q117 0 185.5 -43t103.5 -104.5t42 -128t-1 -111.5l-125 -707q-8 -45 -37 -109.5t-84 -123.5t-141 -101t-205 -42q-117 0 -185.5 42t-104.5 101t-43 123.5zM227 358q-12 -78 9.5 -121.5 t58.5 -67.5t81 -30t75 -6t76.5 7t92 31t83 68t49.5 119l125 707q14 76 -7.5 122t-58.5 71.5t-81 33.5t-75 8t-77 -9t-92 -34.5t-83.5 -71.5t-50.5 -122zM447 1606l32 180h144l-33 -180h-143zM840 1606l33 180h143l-33 -180h-143z" />
<glyph unicode="&#xd7;" horiz-adv-x="931" d="M49 281l320 270l-226 272l107 90l223 -272l320 272l71 -90l-317 -272l223 -270l-104 -91l-226 273l-317 -273z" />
<glyph unicode="&#xd8;" horiz-adv-x="1067" d="M90 248.5q-8 64.5 0 109.5l125 705q8 45 38 111.5t86 128t141 105.5t204 44q117 0 185.5 -43t104.5 -104.5t43 -128t-1 -111.5l-125 -707q-8 -45 -37 -109.5t-85 -123.5t-142 -101t-205 -42q-115 0 -184.5 42t-104.5 101t-43 123.5zM205 -133l549 1700h149l-549 -1700 h-149zM227 358q-12 -78 9.5 -121.5t58.5 -67.5t81 -30t75 -6t76.5 7t92 31t83 68t49.5 119l125 707q14 76 -7.5 122t-58.5 71.5t-81 33.5t-75 8t-77 -9t-92 -34.5t-83.5 -71.5t-50.5 -122z" />
<glyph unicode="&#xd9;" horiz-adv-x="1097" d="M109.5 234.5q-7.5 66.5 3.5 125.5l188 1076h133l-188 -1076q-14 -76 3 -123t52 -74.5t79 -37.5t83 -10q35 0 83 10t93 37.5t82 75t51 122.5l188 1076h132l-189 -1076q-10 -59 -41 -125.5t-86 -122t-138 -91t-198 -35.5t-184.5 35.5t-104 91t-42 122zM497 1905h158 l156 -321h-138z" />
<glyph unicode="&#xda;" horiz-adv-x="1097" d="M109.5 234.5q-7.5 66.5 3.5 125.5l188 1076h133l-188 -1076q-14 -76 3 -123t52 -74.5t79 -37.5t83 -10q35 0 83 10t93 37.5t82 75t51 122.5l188 1076h132l-189 -1076q-10 -59 -41 -125.5t-86 -122t-138 -91t-198 -35.5t-184.5 35.5t-104 91t-42 122zM637 1586l266 321 h158l-287 -321h-137z" />
<glyph unicode="&#xdb;" horiz-adv-x="1097" d="M109.5 234.5q-7.5 66.5 3.5 125.5l188 1076h133l-188 -1076q-14 -76 3 -123t52 -74.5t79 -37.5t83 -10q35 0 83 10t93 37.5t82 75t51 122.5l188 1076h132l-189 -1076q-10 -59 -41 -125.5t-86 -122t-138 -91t-198 -35.5t-184.5 35.5t-104 91t-42 122zM453 1657l270 277 h121l172 -277h-131l-123 156l-176 -156h-133z" />
<glyph unicode="&#xdc;" horiz-adv-x="1097" d="M109.5 234.5q-7.5 66.5 3.5 125.5l188 1076h133l-188 -1076q-14 -76 3 -123t52 -74.5t79 -37.5t83 -10q35 0 83 10t93 37.5t82 75t51 122.5l188 1076h132l-189 -1076q-10 -59 -41 -125.5t-86 -122t-138 -91t-198 -35.5t-184.5 35.5t-104 91t-42 122zM453 1606l32 180h144 l-33 -180h-143zM846 1606l33 180h143l-33 -180h-143z" />
<glyph unicode="&#xdd;" horiz-adv-x="888" d="M172 1434h139l162 -648l391 648h140l-467 -795h-23l-113 -639h-133l113 639h-16zM532 1586l266 321h158l-287 -321h-137z" />
<glyph unicode="&#xde;" horiz-adv-x="886" d="M-39 -500l344 1934h127l-76 -430q84 39 139.5 44t86.5 5q59 0 106 -23.5t78 -64.5t44 -94.5t3 -114.5l-84 -475q-10 -61 -42 -115.5t-78 -94.5t-101 -62.5t-115 -22.5q-41 0 -95 8t-116 37l-94 -531h-127zM211 164q49 -27 98 -39t109 -12q31 0 60.5 13t54 34.5t42 50.5 t23.5 61l86 490q12 66 -24.5 113t-100.5 47q-43 0 -108.5 -16.5t-116.5 -45.5z" />
<glyph unicode="&#xdf;" horiz-adv-x="1036" d="M25 0l186 1065q8 45 34.5 110.5t79 125t135.5 101.5t204 42q119 0 185 -42t97 -102.5t34 -126t-5 -112.5q-14 -78 -58.5 -154t-117.5 -112q53 -29 81.5 -70t40 -87t10.5 -89t-7 -74l-15 -90q-8 -49 -34.5 -114.5t-79 -126t-133 -102.5t-199.5 -42h-119l23 135h114 q33 0 77 9.5t86 36t77 75.5t49 129l14 86q14 80 0 129t-43.5 75.5t-67.5 35t-71 8.5h-61l24 135h66q86 0 138 55.5t69 151.5q14 80 -3.5 129t-50 75.5t-72.5 35t-73 8.5t-77 -8.5t-87 -35t-78 -75.5t-49 -129l-186 -1061h-137z" />
<glyph unicode="&#xe0;" horiz-adv-x="829" d="M33 279l20 112q10 59 41 112.5t76 93.5t99.5 63.5t113.5 23.5q12 0 37.5 -1t55.5 -6t60.5 -14.5t55.5 -23.5l6 43q8 43 0 86t-28.5 76t-53.5 53.5t-72 20.5q-14 0 -59 -10.5t-92 -20.5q-55 -14 -123 -31l-12 123q72 18 133 33q53 12 103 22t73 10q66 0 119 -30.5 t88 -81.5t48 -115.5t1 -134.5l-96 -565l37 -41l-109 -92l-45 55q-70 -31 -141.5 -45t-108.5 -14q-59 0 -106.5 23.5t-78 64.5t-41.5 95t-1 116zM160 270q-12 -66 23.5 -111.5t97.5 -45.5q23 0 61.5 10t75.5 22q43 14 90 35l55 318q0 2 -15.5 11t-43 19.5t-64.5 18.5t-80 8 q-31 0 -60.5 -13.5t-54 -35t-41 -50t-22.5 -59.5zM291 1495h158l156 -321h-138z" />
<glyph unicode="&#xe1;" horiz-adv-x="829" d="M33 279l20 112q10 59 41 112.5t76 93.5t99.5 63.5t113.5 23.5q12 0 37.5 -1t55.5 -6t60.5 -14.5t55.5 -23.5l6 43q8 43 0 86t-28.5 76t-53.5 53.5t-72 20.5q-14 0 -59 -10.5t-92 -20.5q-55 -14 -123 -31l-12 123q72 18 133 33q53 12 103 22t73 10q66 0 119 -30.5 t88 -81.5t48 -115.5t1 -134.5l-96 -565l37 -41l-109 -92l-45 55q-70 -31 -141.5 -45t-108.5 -14q-59 0 -106.5 23.5t-78 64.5t-41.5 95t-1 116zM160 270q-12 -66 23.5 -111.5t97.5 -45.5q23 0 61.5 10t75.5 22q43 14 90 35l55 318q0 2 -15.5 11t-43 19.5t-64.5 18.5t-80 8 q-31 0 -60.5 -13.5t-54 -35t-41 -50t-22.5 -59.5zM436 1176l266 321h158l-287 -321h-137z" />
<glyph unicode="&#xe2;" horiz-adv-x="829" d="M33 279l20 112q10 59 41 112.5t76 93.5t99.5 63.5t113.5 23.5q12 0 37.5 -1t55.5 -6t60.5 -14.5t55.5 -23.5l6 43q8 43 0 86t-28.5 76t-53.5 53.5t-72 20.5q-14 0 -59 -10.5t-92 -20.5q-55 -14 -123 -31l-12 123q72 18 133 33q53 12 103 22t73 10q66 0 119 -30.5 t88 -81.5t48 -115.5t1 -134.5l-96 -565l37 -41l-109 -92l-45 55q-70 -31 -141.5 -45t-108.5 -14q-59 0 -106.5 23.5t-78 64.5t-41.5 95t-1 116zM160 270q-12 -66 23.5 -111.5t97.5 -45.5q23 0 61.5 10t75.5 22q43 14 90 35l55 318q0 2 -15.5 11t-43 19.5t-64.5 18.5t-80 8 q-31 0 -60.5 -13.5t-54 -35t-41 -50t-22.5 -59.5zM254 1247l270 277h121l172 -277h-131l-123 156l-176 -156h-133z" />
<glyph unicode="&#xe3;" horiz-adv-x="829" d="M33 279l20 112q10 59 41 112.5t76 93.5t99.5 63.5t113.5 23.5q12 0 37.5 -1t55.5 -6t60.5 -14.5t55.5 -23.5l6 43q8 43 0 86t-28.5 76t-53.5 53.5t-72 20.5q-14 0 -59 -10.5t-92 -20.5q-55 -14 -123 -31l-12 123q72 18 133 33q53 12 103 22t73 10q66 0 119 -30.5 t88 -81.5t48 -115.5t1 -134.5l-96 -565l37 -41l-109 -92l-45 55q-70 -31 -141.5 -45t-108.5 -14q-59 0 -106.5 23.5t-78 64.5t-41.5 95t-1 116zM160 270q-12 -66 23.5 -111.5t97.5 -45.5q23 0 61.5 10t75.5 22q43 14 90 35l55 318q0 2 -15.5 11t-43 19.5t-64.5 18.5t-80 8 q-31 0 -60.5 -13.5t-54 -35t-41 -50t-22.5 -59.5zM228 1333h575l35 -127h-569z" />
<glyph unicode="&#xe4;" horiz-adv-x="829" d="M33 279l20 112q10 59 41 112.5t76 93.5t99.5 63.5t113.5 23.5q12 0 37.5 -1t55.5 -6t60.5 -14.5t55.5 -23.5l6 43q8 43 0 86t-28.5 76t-53.5 53.5t-72 20.5q-14 0 -59 -10.5t-92 -20.5q-55 -14 -123 -31l-12 123q72 18 133 33q53 12 103 22t73 10q66 0 119 -30.5 t88 -81.5t48 -115.5t1 -134.5l-96 -565l37 -41l-109 -92l-45 55q-70 -31 -141.5 -45t-108.5 -14q-59 0 -106.5 23.5t-78 64.5t-41.5 95t-1 116zM160 270q-12 -66 23.5 -111.5t97.5 -45.5q23 0 61.5 10t75.5 22q43 14 90 35l55 318q0 2 -15.5 11t-43 19.5t-64.5 18.5t-80 8 q-31 0 -60.5 -13.5t-54 -35t-41 -50t-22.5 -59.5zM244 1196l32 180h144l-33 -180h-143zM637 1196l33 180h143l-33 -180h-143z" />
<glyph unicode="&#xe6;" horiz-adv-x="1310" d="M33 279l20 112q10 59 42 112.5t76 93.5t99.5 63.5t114.5 23.5q12 0 36.5 -1t54.5 -5t59.5 -13.5t54.5 -23.5l10 66q0 39 -10 77.5t-30.5 67.5t-49.5 47.5t-66 18.5q-14 0 -58 -10.5t-91 -20.5q-55 -14 -123 -31l-14 123q72 18 133 33q53 12 103 22t73 10q74 0 130 -34.5 t89 -94.5q49 61 114.5 95t143.5 34h68q59 0 107 -22.5t81 -62t45 -94t2 -117.5l-12 -66q-16 -88 -57 -147.5t-101.5 -96.5t-135.5 -53t-155 -16q-57 0 -112 6l-19 -103q4 -72 51.5 -116.5t118.5 -44.5q4 0 49.5 9t98.5 21q61 12 137 31l10 -135q-80 -16 -147 -29 q-57 -10 -108.5 -18t-61.5 -8q-72 0 -135.5 31.5t-92.5 68.5l-55 -33q-74 -41 -145.5 -55t-112.5 -14q-59 0 -106 23.5t-78 64.5t-43 95t-2 116zM162 270q-12 -66 23.5 -111.5t97.5 -45.5q23 0 61.5 10t75.5 22q43 14 90 35l14 84q0 10 2 21.5t4 21.5l33 185q-10 6 -28.5 16 t-45 21.5t-58.5 18.5t-69 7q-31 0 -60.5 -13.5t-54 -35t-41 -50t-22.5 -59.5zM696 510h222q33 -2 63.5 11.5t56 36t43 53t23.5 63.5l14 84q8 43 -4 72.5t-36.5 48t-59.5 26.5t-74 8q-70 0 -130 -42t-73 -113z" />
<glyph unicode="&#xe7;" horiz-adv-x="716" d="M55 309l74 416q12 70 48 129t88 102t116.5 67t132.5 24q33 0 70 -9.5t67 -19.5q37 -12 72 -29l-53 -112q-31 12 -64 20q-29 8 -59.5 15.5t-54.5 7.5q-82 0 -151 -53.5t-85 -141.5l-74 -416q-8 -45 2.5 -82t34 -62.5t57 -39.5t74.5 -14q16 0 49 5t66 13q37 8 78 21 l18 -119q-45 -14 -86 -25q-37 -10 -77 -16t-70 -6q-68 0 -124.5 24.5t-93 67.5t-52 102.5t-3.5 130.5zM121 -352q41 16 70.5 61t42.5 111l20 117h123l-20 -119q-20 -115 -66.5 -175.5t-112.5 -88.5z" />
<glyph unicode="&#xe8;" horiz-adv-x="837" d="M55 307l78 441q10 61 42 115.5t78 94t102.5 63t115.5 23.5h68q59 0 107 -22.5t80 -62t45 -94t3 -117.5l-12 -66q-16 -88 -57 -147.5t-101.5 -96.5t-135.5 -53t-155 -16q-57 0 -112 6l-19 -103q2 -72 50.5 -116.5t119.5 -44.5q4 0 49 9t99 21q61 12 137 31l10 -135 q-80 -16 -147 -29q-57 -10 -108.5 -18t-61.5 -8q-68 0 -124 24.5t-93 67.5t-53.5 102.5t-4.5 130.5zM223 510l226 -2q31 0 61.5 13.5t55 37t42 53t23.5 62.5l14 84q8 43 -4 72.5t-36.5 48t-59.5 26.5t-74 8q-70 0 -130 -42t-73 -113zM301 1495h158l156 -321h-138z" />
<glyph unicode="&#xe9;" horiz-adv-x="837" d="M55 307l78 441q10 61 42 115.5t78 94t102.5 63t115.5 23.5h68q59 0 107 -22.5t80 -62t45 -94t3 -117.5l-12 -66q-16 -88 -57 -147.5t-101.5 -96.5t-135.5 -53t-155 -16q-57 0 -112 6l-19 -103q2 -72 50.5 -116.5t119.5 -44.5q4 0 49 9t99 21q61 12 137 31l10 -135 q-80 -16 -147 -29q-57 -10 -108.5 -18t-61.5 -8q-68 0 -124 24.5t-93 67.5t-53.5 102.5t-4.5 130.5zM223 510l226 -2q31 0 61.5 13.5t55 37t42 53t23.5 62.5l14 84q8 43 -4 72.5t-36.5 48t-59.5 26.5t-74 8q-70 0 -130 -42t-73 -113zM455 1176l266 321h158l-287 -321h-137z " />
<glyph unicode="&#xea;" horiz-adv-x="837" d="M55 307l78 441q10 61 42 115.5t78 94t102.5 63t115.5 23.5h68q59 0 107 -22.5t80 -62t45 -94t3 -117.5l-12 -66q-16 -88 -57 -147.5t-101.5 -96.5t-135.5 -53t-155 -16q-57 0 -112 6l-19 -103q2 -72 50.5 -116.5t119.5 -44.5q4 0 49 9t99 21q61 12 137 31l10 -135 q-80 -16 -147 -29q-57 -10 -108.5 -18t-61.5 -8q-68 0 -124 24.5t-93 67.5t-53.5 102.5t-4.5 130.5zM223 510l226 -2q31 0 61.5 13.5t55 37t42 53t23.5 62.5l14 84q8 43 -4 72.5t-36.5 48t-59.5 26.5t-74 8q-70 0 -130 -42t-73 -113zM252 1247l270 277h121l172 -277h-131 l-123 156l-176 -156h-133z" />
<glyph unicode="&#xeb;" horiz-adv-x="837" d="M55 307l78 441q10 61 42 115.5t78 94t102.5 63t115.5 23.5h68q59 0 107 -22.5t80 -62t45 -94t3 -117.5l-12 -66q-16 -88 -57 -147.5t-101.5 -96.5t-135.5 -53t-155 -16q-57 0 -112 6l-19 -103q2 -72 50.5 -116.5t119.5 -44.5q4 0 49 9t99 21q61 12 137 31l10 -135 q-80 -16 -147 -29q-57 -10 -108.5 -18t-61.5 -8q-68 0 -124 24.5t-93 67.5t-53.5 102.5t-4.5 130.5zM223 510l226 -2q31 0 61.5 13.5t55 37t42 53t23.5 62.5l14 84q8 43 -4 72.5t-36.5 48t-59.5 26.5t-74 8q-70 0 -130 -42t-73 -113zM271 1196l32 180h144l-33 -180h-143z M664 1196l33 180h143l-33 -180h-143z" />
<glyph unicode="&#xec;" horiz-adv-x="385" d="M20 0l181 1024h133l-180 -1024h-134zM59 1509h158l156 -321h-137z" />
<glyph unicode="&#xed;" horiz-adv-x="387" d="M20 0l181 1024h135l-180 -1024h-136zM231 1190l267 321h157l-286 -321h-138z" />
<glyph unicode="&#xee;" horiz-adv-x="387" d="M20 0l181 1024h135l-180 -1024h-136zM25 1247l270 277h121l172 -277h-131l-123 156l-176 -156h-133zM238 1239l32 184h136l-33 -184h-135z" />
<glyph unicode="&#xef;" horiz-adv-x="385" d="M20 0l181 1024h133l-180 -1024h-134zM39 1210l33 181h143l-33 -181h-143zM432 1210l33 181h143l-33 -181h-143z" />
<glyph unicode="&#xf1;" horiz-adv-x="884" d="M23 0l159 907l-41 47l107 93l51 -62q117 57 215 57q45 0 89 -9t79 -29.5t60.5 -53.5t37.5 -80q16 -53 11 -104t-15 -107l-114 -659h-134l127 721q14 94 -26.5 144t-102.5 50q-35 0 -91 -9t-134 -56l-149 -850h-129zM244 1333h575l35 -127h-569z" />
<glyph unicode="&#xf2;" d="M53 287l82 461q16 96 62.5 154.5t101.5 90t111.5 41.5t95.5 10t91 -10t97 -41.5t69.5 -90t8.5 -154.5l-82 -461q-16 -96 -62 -154.5t-101.5 -91.5t-112 -43t-95.5 -10t-92 10t-97 43t-68.5 91t-8.5 155zM172 301q-10 -61 5.5 -98t44 -56.5t62 -26.5t58.5 -7t59.5 7 t69.5 26.5t63.5 56.5t38.5 98l78 432q10 61 -5 97t-43 55.5t-61.5 26t-58.5 6.5t-60.5 -6.5t-70.5 -26t-63.5 -55t-38.5 -97.5zM293 1495h158l156 -321h-138z" />
<glyph unicode="&#xf3;" d="M55 287l82 461q16 96 62.5 154.5t101.5 90t111.5 41.5t95.5 10t91 -10t97 -41.5t69.5 -90t8.5 -154.5l-82 -461q-16 -96 -62 -154.5t-101.5 -91.5t-112 -43t-95.5 -10t-92 10t-97 43t-68.5 91t-8.5 155zM174 301q-10 -61 5.5 -98t44 -56.5t62 -26.5t58.5 -7t59.5 7 t69.5 26.5t63.5 56.5t38.5 98l78 432q10 61 -5 97t-43 55.5t-61.5 26t-58.5 6.5t-60.5 -6.5t-70.5 -26t-63.5 -55t-38.5 -97.5zM444 1176l266 321h158l-287 -321h-137z" />
<glyph unicode="&#xf4;" d="M55 287l82 461q16 96 62.5 154.5t101.5 90t111.5 41.5t95.5 10t91 -10t97 -41.5t69.5 -90t8.5 -154.5l-82 -461q-16 -96 -62 -154.5t-101.5 -91.5t-112 -43t-95.5 -10t-92 10t-97 43t-68.5 91t-8.5 155zM174 301q-10 -61 5.5 -98t44 -56.5t62 -26.5t58.5 -7t59.5 7 t69.5 26.5t63.5 56.5t38.5 98l78 432q10 61 -5 97t-43 55.5t-61.5 26t-58.5 6.5t-60.5 -6.5t-70.5 -26t-63.5 -55t-38.5 -97.5zM262 1247l270 277h121l172 -277h-131l-123 156l-176 -156h-133z" />
<glyph unicode="&#xf5;" d="M55 287l82 461q16 96 62.5 154.5t101.5 90t111.5 41.5t95.5 10t91 -10t97 -41.5t69.5 -90t8.5 -154.5l-82 -461q-16 -96 -62 -154.5t-101.5 -91.5t-112 -43t-95.5 -10t-92 10t-97 43t-68.5 91t-8.5 155zM174 301q-10 -61 5.5 -98t44 -56.5t62 -26.5t58.5 -7t59.5 7 t69.5 26.5t63.5 56.5t38.5 98l78 432q10 61 -5 97t-43 55.5t-61.5 26t-58.5 6.5t-60.5 -6.5t-70.5 -26t-63.5 -55t-38.5 -97.5zM242 1333h575l35 -127h-569z" />
<glyph unicode="&#xf6;" d="M55 287l82 461q16 96 62.5 154.5t101.5 90t111.5 41.5t95.5 10t91 -10t97 -41.5t69.5 -90t8.5 -154.5l-82 -461q-16 -96 -62 -154.5t-101.5 -91.5t-112 -43t-95.5 -10t-92 10t-97 43t-68.5 91t-8.5 155zM174 301q-10 -61 5.5 -98t44 -56.5t62 -26.5t58.5 -7t59.5 7 t69.5 26.5t63.5 56.5t38.5 98l78 432q10 61 -5 97t-43 55.5t-61.5 26t-58.5 6.5t-60.5 -6.5t-70.5 -26t-63.5 -55t-38.5 -97.5zM265 1196l32 180h144l-33 -180h-143zM658 1196l33 180h143l-33 -180h-143z" />
<glyph unicode="&#xf7;" horiz-adv-x="911" d="M60 355l26 155h711l-27 -155h-710zM280 2l35 203h166l-35 -203h-166zM395 639l35 207h166l-35 -207h-166z" />
<glyph unicode="&#xf8;" horiz-adv-x="858" d="M53 287l82 461q16 96 62.5 154.5t101.5 90t111.5 41.5t95.5 10t91 -10t97 -41.5t69.5 -90t8.5 -154.5l-82 -461q-16 -96 -62 -154.5t-101.5 -91.5t-112 -43t-95.5 -10t-92 10t-97 43t-68.5 91t-8.5 155zM113 -180l455 1419h147l-455 -1419h-147zM172 301q-10 -61 5.5 -98 t44 -56.5t62 -26.5t58.5 -7t59.5 7t69.5 26.5t63.5 56.5t38.5 98l78 432q10 61 -5 97t-43 55.5t-61.5 26t-58.5 6.5t-60.5 -6.5t-70.5 -26t-63.5 -55t-38.5 -97.5z" />
<glyph unicode="&#xf9;" horiz-adv-x="884" d="M62 260q4 51 14 107l117 657h131l-127 -719q-16 -94 25.5 -144t103.5 -50q59 0 122.5 21.5t104.5 43.5l149 848h129l-159 -905l43 -47l-109 -92l-51 61q-61 -29 -130 -43t-120 -14q-37 0 -73.5 9t-67.5 29.5t-54.5 53.5t-35.5 80q-16 53 -12 104zM299 1495h158l156 -321 h-138z" />
<glyph unicode="&#xfa;" horiz-adv-x="884" d="M62 260q4 51 14 107l117 657h131l-127 -719q-16 -94 25.5 -144t103.5 -50q59 0 122.5 21.5t104.5 43.5l149 848h129l-159 -905l43 -47l-109 -92l-51 61q-61 -29 -130 -43t-120 -14q-37 0 -73.5 9t-67.5 29.5t-54.5 53.5t-35.5 80q-16 53 -12 104zM444 1176l266 321h158 l-287 -321h-137z" />
<glyph unicode="&#xfb;" horiz-adv-x="884" d="M62 260q4 51 14 107l117 657h131l-127 -719q-16 -94 25.5 -144t103.5 -50q59 0 122.5 21.5t104.5 43.5l149 848h129l-159 -905l43 -47l-109 -92l-51 61q-61 -29 -130 -43t-120 -14q-37 0 -73.5 9t-67.5 29.5t-54.5 53.5t-35.5 80q-16 53 -12 104zM270 1247l270 277h121 l172 -277h-131l-123 156l-176 -156h-133z" />
<glyph unicode="&#xfc;" horiz-adv-x="884" d="M62 260q4 51 14 107l117 657h131l-127 -719q-16 -94 25.5 -144t103.5 -50q59 0 122.5 21.5t104.5 43.5l149 848h129l-159 -905l43 -47l-109 -92l-51 61q-61 -29 -130 -43t-120 -14q-37 0 -73.5 9t-67.5 29.5t-54.5 53.5t-35.5 80q-16 53 -12 104zM279 1196l32 180h144 l-33 -180h-143zM672 1196l33 180h143l-33 -180h-143z" />
<glyph unicode="&#xfd;" horiz-adv-x="778" d="M45 -498l170 498h-10l-90 1024h131q14 -219 26.5 -371.5t22.5 -251.5q10 -113 20 -186h2q6 12 28 65.5t65 151.5t109.5 244.5t158.5 347.5h133l-455 -1024h-12q-41 -123 -85 -249t-83 -249h-131zM397 1176l266 321h158l-287 -321h-137z" />
<glyph unicode="&#xfe;" d="M-70 -498l340 1919h127l-75 -428q82 37 137 43t86 6q57 0 104 -23.5t78 -63.5t43 -93t2 -114l-84 -472q-10 -61 -42 -114t-76 -93t-99 -62.5t-113 -22.5q-41 0 -95 8t-113 37l-93 -527h-127zM170 166q4 -4 6 -4v-8zM176 162q47 -29 97.5 -40t109.5 -11q61 0 113.5 46 t64.5 111l84 486q12 66 -23.5 112.5t-99.5 46.5q-43 0 -108.5 -16t-114.5 -47z" />
<glyph unicode="&#xff;" horiz-adv-x="778" d="M45 -498l170 498h-10l-90 1024h131q14 -219 26.5 -371.5t22.5 -251.5q10 -113 20 -186h2q6 12 28 65.5t65 151.5t109.5 244.5t158.5 347.5h133l-455 -1024h-12q-41 -123 -85 -249t-83 -249h-131zM226 1196l32 180h144l-33 -180h-143zM619 1196l33 180h143l-33 -180h-143z " />
<glyph unicode="&#x152;" horiz-adv-x="1476" d="M92 267.5q-8 64.5 0 111.5l125 702q8 45 38 113t86 129t141 105.5t204 44.5q86 0 144.5 -25t99.5 -66l12 72h594l-27 -143h-450l-86 -498h352l-27 -145h-352l-88 -502h455l-27 -143h-598l12 59q-53 -35 -120.5 -57.5t-153.5 -22.5q-117 0 -186.5 42t-104.5 100.5t-43 123 zM229 377q-14 -76 7.5 -120t59.5 -67.5t83 -29.5t76 -6q27 0 67.5 8t83.5 29.5t80 58.5t59 96l138 772q4 63 -19.5 103.5t-59.5 63t-76 29.5t-69 7q-31 0 -77.5 -9t-93 -36t-84 -73t-50.5 -122z" />
<glyph unicode="&#x153;" horiz-adv-x="1357" d="M55 283l82 460q16 96 62.5 154.5t101.5 90.5t111.5 42t95.5 10t92 -10t98 -42t70 -90t8 -155l-82 -460q-16 -96 -62 -154.5t-101.5 -91.5t-113 -43t-95.5 -10q-39 0 -91.5 10t-97.5 43t-69.5 91t-8.5 155zM176 297q-10 -61 5.5 -97t43 -56.5t61 -26.5t58.5 -6t59.5 6 t69.5 26.5t63.5 56.5t38.5 97l76 432q10 61 -5 97t-43 55.5t-60.5 25.5t-57.5 6t-60.5 -6t-70.5 -25.5t-63.5 -55t-38.5 -97.5zM578 307l77 441q10 61 42 115.5t78 94t101.5 63t114.5 23.5h70q59 0 107.5 -22.5t80 -62t45 -94t2.5 -117.5l-12 -66q-16 -88 -57 -147.5 t-101.5 -96.5t-135.5 -53t-154 -16q-57 0 -113 6l-18 -103q2 -72 50 -116.5t119 -44.5q16 0 63.5 9t96.5 19q57 12 125 31l10 -133q-70 -16 -133 -29q-53 -10 -106 -18t-78 -8q-68 0 -124 24.5t-93 67.5t-53.5 102.5t-3.5 130.5zM745 510l224 -2q66 0 118 50t64 116l14 84 q8 43 -3 72.5t-35.5 48t-59.5 26.5t-74 8q-72 0 -131 -42t-71 -113z" />
<glyph unicode="&#x178;" horiz-adv-x="888" d="M172 1434h139l162 -648l391 648h140l-467 -795h-23l-113 -639h-133l113 639h-16zM363 1606l32 180h144l-33 -180h-143zM756 1606l33 180h143l-33 -180h-143z" />
<glyph unicode="&#x2c6;" horiz-adv-x="811" d="M336 1247l270 277h121l172 -277h-131l-123 156l-176 -156h-133z" />
<glyph unicode="&#x2dc;" horiz-adv-x="1017" d="M418 1333h575l35 -127h-569z" />
<glyph unicode="&#x2000;" horiz-adv-x="967" />
<glyph unicode="&#x2001;" horiz-adv-x="1934" />
<glyph unicode="&#x2002;" horiz-adv-x="967" />
<glyph unicode="&#x2003;" horiz-adv-x="1934" />
<glyph unicode="&#x2004;" horiz-adv-x="644" />
<glyph unicode="&#x2005;" horiz-adv-x="483" />
<glyph unicode="&#x2006;" horiz-adv-x="322" />
<glyph unicode="&#x2007;" horiz-adv-x="322" />
<glyph unicode="&#x2008;" horiz-adv-x="241" />
<glyph unicode="&#x2009;" horiz-adv-x="386" />
<glyph unicode="&#x200a;" horiz-adv-x="107" />
<glyph unicode="&#x2010;" horiz-adv-x="747" d="M127 643l27 156h505l-26 -156h-506z" />
<glyph unicode="&#x2011;" horiz-adv-x="747" d="M127 643l27 156h505l-26 -156h-506z" />
<glyph unicode="&#x2012;" horiz-adv-x="747" d="M127 643l27 156h505l-26 -156h-506z" />
<glyph unicode="&#x2013;" horiz-adv-x="966" d="M94 416l25 135h710l-24 -135h-711z" />
<glyph unicode="&#x2014;" horiz-adv-x="1505" d="M92 416l25 135h1251l-25 -135h-1251z" />
<glyph unicode="&#x201a;" horiz-adv-x="401" d="M106 756q35 16 68 51t45 104l21 115h145l-20 -117q-20 -117 -86 -189.5t-160 -107.5z" />
<glyph unicode="&#x201c;" horiz-adv-x="659" d="M170 1016l20 119q20 115 86 187.5t158 107.5l15 -144q-37 -16 -70 -51t-45 -102l-21 -117h-143zM430 1016l21 119q20 115 85.5 187.5t159.5 107.5l13 -144q-37 -16 -69 -51t-44 -102l-21 -117h-145z" />
<glyph unicode="&#x201d;" horiz-adv-x="647" d="M166 1151q39 16 70.5 51t44.5 105l20 116h143l-20 -118q-20 -117 -86 -189t-158 -108zM428 1151q37 16 69.5 51t45.5 105l20 116h144l-21 -118q-20 -117 -85.5 -189t-160.5 -108z" />
<glyph unicode="&#x2022;" horiz-adv-x="612" d="M70 506q8 45 31.5 85t59.5 70.5t79 48t88 17.5t81.5 -17.5t61.5 -48t36 -70.5t3 -85t-32.5 -85t-59.5 -71t-79 -48t-89 -17t-82 17t-61.5 48t-35 71t-1.5 85z" />
<glyph unicode="&#x2026;" horiz-adv-x="1034" d="M10 10l37 203h166l-37 -203h-166zM332 10l37 203h166l-37 -203h-166zM651 10l37 203h166l-37 -203h-166z" />
<glyph unicode="&#x202f;" horiz-adv-x="386" />
<glyph unicode="&#x205f;" horiz-adv-x="483" />
<glyph unicode="&#x20ac;" horiz-adv-x="956" d="M66 498l20 116h143l23 123h-143l20 115h143l37 211q10 61 41 114.5t76 91.5t99.5 60.5t113.5 22.5h66q57 0 103 -22.5t76.5 -60.5t43 -91.5t2.5 -114.5l-10 -59h-129l10 59q12 74 -33 112.5t-113 38.5q-76 0 -138 -31.5t-79 -119.5l-37 -211h306l-21 -115h-305l-23 -123 h306l-21 -116h-305l-35 -205q-12 -66 22.5 -113t98.5 -47h63q61 0 113.5 47t65.5 113l10 59h129l-12 -65q-10 -61 -41 -113.5t-75 -91.5t-99.5 -60.5t-112.5 -21.5h-66q-59 0 -105 21.5t-77 60.5t-43 91t-2 114l37 211h-143z" />
<glyph unicode="&#x2122;" horiz-adv-x="1118" d="M250 1374l4 21h311l-4 -21h-143l-103 -575h-20l102 575h-147zM563 770l115 653h102l45 -370q41 90 89.5 185t89.5 185h104l-115 -653h-75l81 471q-35 -72 -72.5 -145.5t-68.5 -141.5h-98l-39 291l-84 -475h-74z" />
<glyph unicode="&#xe000;" horiz-adv-x="1024" d="M0 0v1024h1024v-1024h-1024z" />
<glyph unicode="&#xfb01;" horiz-adv-x="954" d="M104 899l23 125h178l25 141q27 147 107.5 211t185.5 64h51l-23 -135h-41q-49 0 -93 -27t-56 -98l-27 -156h467l-180 -1024h-133l157 899h-331l-158 -899h-133l158 899h-177zM805 1239l33 184h133l-33 -184h-133z" />
<glyph unicode="&#xfb02;" horiz-adv-x="997" d="M104 899l23 125h176l25 141q27 147 108.5 211t186.5 64h49l-23 -135h-39q-49 0 -93 -27t-56 -98l-27 -156h332l70 399h131l-205 -1157q-12 -74 20.5 -101.5t83.5 -27.5h39l-22 -135h-49q-104 0 -165 64.5t-36 209.5l110 623h-329l-158 -899h-135l158 899h-175z" />
</font>
</defs>
</svg>
