<?xml version="1.0" standalone="no"?>
<!DOCTYPE svg PUBLIC "-//W3C//DTD SVG 1.1//EN" "http://www.w3.org/Graphics/SVG/1.1/DTD/svg11.dtd" >
<svg xmlns="http://www.w3.org/2000/svg">
<metadata></metadata>
<defs>
<font id="marvelitalic" horiz-adv-x="862" >
<font-face units-per-em="2048" ascent="1638" descent="-410" />
<missing-glyph horiz-adv-x="434" />
<glyph horiz-adv-x="2048" />
<glyph horiz-adv-x="2048" />
<glyph unicode="&#xd;" horiz-adv-x="1024" />
<glyph unicode=" "  horiz-adv-x="434" />
<glyph unicode="&#x09;" horiz-adv-x="434" />
<glyph unicode="&#xa0;" horiz-adv-x="434" />
<glyph unicode="!" horiz-adv-x="395" d="M37 2l33 184h108l-33 -184h-108zM88 289l203 1145h106l-202 -1145h-107z" />
<glyph unicode="&#x22;" horiz-adv-x="643" d="M176 1163q39 16 71 54t46 112l18 105h119l-18 -107q-20 -115 -79 -184.5t-145 -102.5zM444 1163q39 16 71 54t46 112l19 105h118l-18 -107q-20 -115 -78.5 -184.5t-144.5 -102.5z" />
<glyph unicode="$" horiz-adv-x="972" d="M20 133l62 113q96 -47 153.5 -73t91 -38t52 -15t39.5 -3q57 0 110.5 21.5t96.5 58t72.5 88t39.5 112.5q10 63 -5 110.5t-49 79t-81 47t-96 15.5q-82 0 -149.5 28t-111.5 78t-62.5 118.5t-4.5 150.5q12 76 49 143.5t89.5 120.5t118 89t134.5 48l25 140h113l-25 -142 q23 -4 43 -11t37 -13l162 -72l-60 -115q-20 10 -52 26.5t-68.5 33t-72.5 28t-67 11.5q-55 0 -106.5 -22.5t-92 -61.5t-68.5 -90.5t-38 -106.5q-10 -63 4 -111.5t47 -80t79 -47t99 -15.5q82 0 148.5 -27.5t112 -76.5t63.5 -119t4 -152q-14 -80 -53 -150.5t-96.5 -123.5 t-128 -87t-146.5 -40l-26 -150h-113l26 156q-47 16 -93 34.5t-86 36t-71.5 33t-48.5 23.5z" />
<glyph unicode="&#x26;" horiz-adv-x="1224" d="M29 391q20 111 85.5 188.5t170.5 133.5l127 67l-86 119q-41 59 -55.5 114.5t-2.5 125.5q12 68 47 127t88.5 102t121 68.5t141.5 25.5q72 0 132 -22.5t100 -64.5t56.5 -102.5t3.5 -133.5q-18 -104 -78.5 -173t-152.5 -118l-166 -90l311 -416q59 80 91 177t55 216h98 q-10 -57 -26.5 -120.5t-39 -126t-53 -121t-69.5 -103.5l180 -264h-131l-119 182q-94 -92 -214 -146t-257 -54q-90 0 -162.5 28.5t-122 81.5t-70 129t-3.5 170zM141 393q-12 -68 3.5 -124t52 -95t90 -60.5t119.5 -21.5q123 0 217 46t172 126l-330 436l-125 -65 q-80 -43 -131 -101.5t-68 -140.5zM376 1087.5q3 -24.5 17.5 -58.5t43 -80t73.5 -115l180 100q66 37 109 88t55 117q16 104 -42 164.5t-163 60.5q-47 0 -93 -16.5t-83 -45t-62.5 -70.5t-33.5 -93q-4 -27 -1 -51.5zM858 182l119 -182z" />
<glyph unicode="'" horiz-adv-x="374" d="M176 1163q39 16 71 54t46 112l18 105h119l-18 -107q-20 -115 -79 -184.5t-145 -102.5z" />
<glyph unicode="(" horiz-adv-x="475" d="M49 45q-10 51 2 123l195 1100q12 72 39.5 123t65.5 82.5t85 47t99 15.5h36l-20 -111h-27q-59 0 -106 -30.5t-62 -116.5l-198 -1120q-8 -43 -2 -71t23.5 -45t42 -24.5t52.5 -7.5h27l-18 -110h-37q-51 0 -92 15t-68 47t-37 83z" />
<glyph unicode=")" horiz-adv-x="477" d="M-55 -102l18 110h27q59 0 106 31t64 117l200 1122q6 43 0 70.5t-23.5 45t-42 24.5t-52.5 7h-27l21 111h36q51 0 92.5 -15.5t68 -47t36.5 -83t-2 -122.5l-197 -1102q-27 -143 -106.5 -205.5t-181.5 -62.5h-37z" />
<glyph unicode="*" horiz-adv-x="815" d="M92 537l246 122l-203 123l58 76l196 -131l39 258h90l-53 -258l246 131l30 -76l-247 -123l204 -122l-57 -78l-201 133l-37 -258h-90l52 258l-242 -133z" />
<glyph unicode="+" horiz-adv-x="876" d="M70 481l22 133h281l51 281h133l-51 -281h280l-22 -133h-281l-49 -280h-133l49 280h-280z" />
<glyph unicode="," horiz-adv-x="356" d="M-82 -66q39 16 72 54.5t45 111.5l18 105h119l-18 -107q-20 -115 -79 -184.5t-145 -101.5z" />
<glyph unicode="-" horiz-adv-x="745" d="M135 662l25 131h491l-24 -131h-492z" />
<glyph unicode="." horiz-adv-x="372" d="M12 10l33 180h141l-32 -180h-142z" />
<glyph unicode="/" horiz-adv-x="536" d="M-2 2l459 1430h123l-459 -1430h-123z" />
<glyph unicode="0" horiz-adv-x="899" d="M84 262l141 799q10 59 41 110.5t74 89t96 59t111 21.5h67q55 0 101.5 -21.5t76 -59t42 -89t2.5 -110.5l-142 -799q-10 -59 -40.5 -110.5t-73.5 -89t-96.5 -59t-110.5 -21.5h-68q-57 0 -102 21.5t-76 59t-42 89t-1 110.5zM190 268q-14 -74 25 -126t111 -52h65 q70 0 128.5 52.5t72.5 125.5l139 793q6 41 -4 72.5t-32.5 53t-55.5 33t-70 11.5q-43 0 -81.5 -8.5t-71.5 -28.5t-55.5 -52t-30.5 -81z" />
<glyph unicode="1" horiz-adv-x="434" d="M57 2l224 1274l118 55l-233 -1329h-109z" />
<glyph unicode="2" horiz-adv-x="813" d="M27 0l22 133l510 617q43 47 64.5 96t33.5 108q6 55 -2 105.5t-30.5 88.5t-59.5 60.5t-88 22.5q-10 0 -24.5 -3t-42 -12.5t-74.5 -27t-123 -45.5l-29 106l168 64q33 12 76 20t74 10q72 0 127 -30.5t91 -82.5t49 -121t-1 -148q-12 -72 -35.5 -131.5t-85.5 -124.5 q-72 -96 -158 -201t-157 -191q-86 -102 -170 -198h452l-18 -115h-569z" />
<glyph unicode="3" horiz-adv-x="847" d="M2 66l49 110l154 -72q20 -8 41.5 -14t42.5 -6q51 0 97 23.5t84 63.5t64.5 91t38.5 107q8 55 5 104t-23 87t-59 60.5t-99 22.5h-116l18 100h119q121 0 182.5 69t83.5 177q6 55 -7 100.5t-39 77t-61.5 49t-72.5 17.5q-20 0 -52 -5t-55 -16l-161 -67l-27 104l156 60 q35 14 85 24t78 10q74 -2 128.5 -30.5t87 -77.5t44 -116.5t-3.5 -147.5q-16 -84 -55 -148.5t-129 -134.5q41 -35 60.5 -75t25.5 -82t1 -86t-11 -85q-14 -80 -52 -148.5t-92.5 -119.5t-120 -81.5t-137.5 -30.5q-31 2 -70.5 10t-70.5 20z" />
<glyph unicode="4" horiz-adv-x="811" d="M33 399l20 121l453 811h112l-448 -821h399l43 233h109l-131 -743h-109l70 399h-518z" />
<glyph unicode="5" horiz-adv-x="878" d="M33 63l57 117q45 -23 94 -39q41 -14 88 -25.5t88 -11.5q57 0 102.5 24t78 64.5t55 94t33.5 112.5l10 60q10 59 7 112.5t-22.5 93.5t-56.5 63.5t-94 23.5h-315l102 579h533l-19 -106h-412l-63 -363h197q82 0 138 -30.5t88 -85t39 -128t-7 -159.5l-11 -60 q-16 -86 -50 -160.5t-84 -132t-117.5 -90t-147.5 -32.5q-41 0 -95 12t-102.5 26.5t-80.5 27.5z" />
<glyph unicode="6" d="M84 266l135 766q12 68 47 125t85 99t112.5 64.5t128.5 22.5q10 0 41 -6t63 -14q37 -8 82 -20l-47 -97q-37 10 -69 19q-29 6 -53.5 12t-33.5 6q-43 0 -86 -15.5t-77.5 -43t-59 -66.5t-33.5 -86l-43 -244q29 20 66 31.5t72 18t64.5 7.5t45.5 1q57 0 102.5 -22.5t76 -62.5 t42 -92.5t0.5 -111.5l-51 -291q-10 -59 -39.5 -110.5t-73.5 -89t-97.5 -59t-110.5 -21.5h-68q-55 0 -101 21.5t-76 59t-42 89t-2 110.5zM188 258q-8 -43 3.5 -75.5t35 -54.5t58 -32t75.5 -10q78 0 145.5 40t84.5 132l53 305q12 74 -27.5 126t-109.5 52h-66q-35 0 -67.5 -14 t-60 -37.5t-46 -56.5t-24.5 -70z" />
<glyph unicode="7" horiz-adv-x="741" d="M66 0l598 1227h-486l19 104h598l-23 -133l-590 -1198h-116z" />
<glyph unicode="8" horiz-adv-x="888" d="M78 256l31 174q14 78 62 139.5t114 92.5q-53 35 -81 99t-14 142l31 176q12 74 48 124t86.5 81t110.5 44t124 13q57 0 107.5 -18t84 -52t49 -82t3.5 -110l-31 -176q-14 -80 -64.5 -144.5t-120.5 -99.5q59 -33 88 -91t15 -138l-31 -174q-10 -55 -38.5 -105.5t-69.5 -88 t-92.5 -59t-104.5 -21.5h-98q-53 0 -96.5 21.5t-72 59t-39.5 88t-1 105.5zM182 262q-14 -76 25.5 -129t111.5 -53h66q72 0 130 53t73 129l26 156q16 88 -39 130t-137 42q-80 0 -146.5 -41t-82.5 -131zM297 909q-14 -76 25.5 -129t111.5 -53h66q72 0 130 53.5t72 128.5 l29 160q6 41 -4 73t-32.5 54.5t-55.5 33.5t-72 11q-43 0 -83 -9t-71.5 -28.5t-55 -52.5t-31.5 -82z" />
<glyph unicode="9" horiz-adv-x="878" d="M29 43l45 96q66 -18 119 -30q45 -12 84.5 -21.5t48.5 -9.5q43 0 85 15.5t76.5 43t59 66.5t33.5 86l49 276q-23 -18 -57.5 -29.5t-70.5 -17.5t-69 -8t-51 -2q-57 0 -102.5 22.5t-75 62.5t-41.5 92t-2 112l47 266q10 59 41 110.5t74 89t96 59t110 21.5h68q55 0 101 -21.5 t76 -59t42 -89t2 -110.5l-137 -774q-12 -68 -47 -125.5t-85 -99t-111.5 -64.5t-127.5 -23q-10 0 -56 10.5t-95 22.5q-59 14 -129 33zM264 791q-14 -74 24.5 -126.5t110.5 -52.5h66q70 0 128 52.5t73 126.5l49 280q6 41 -4.5 73t-33 53.5t-55 32.5t-69.5 11q-43 0 -82 -8 t-71.5 -28.5t-55 -52.5t-31.5 -81z" />
<glyph unicode=":" horiz-adv-x="395" d="M20 2l31 180h142l-31 -180h-142zM137 657l33 185h141l-32 -185h-142z" />
<glyph unicode=";" horiz-adv-x="450" d="M-51 -74q39 16 75.5 56.5t51.5 113.5l18 105h142l-19 -107q-20 -115 -78.5 -184.5t-144.5 -102.5zM174 657l33 185h141l-33 -185h-141z" />
<glyph unicode="&#x3c;" horiz-adv-x="1007" d="M96 532l31 175l780 174l-18 -113l-354 -74q-33 -8 -80 -17t-93 -20q-53 -10 -108 -22l-6 -41l30 -7q29 -7 71 -15.5t87 -18.5t74 -16l324 -76l-19 -111z" />
<glyph unicode="=" horiz-adv-x="993" d="M100 358l25 131h702l-24 -131h-703zM172 758l23 131h702l-23 -131h-702z" />
<glyph unicode="&#x3e;" horiz-adv-x="1003" d="M104 360l19 111l352 76q31 6 79 16t93 18.5t78 15.5l33 7l6 41q-51 12 -100 23q-41 10 -86.5 19t-73.5 18l-326 73l19 113l718 -174l-30 -174z" />
<glyph unicode="?" horiz-adv-x="872" d="M154 0h141l31 184h-142zM201 1346l186 71q37 14 88 25.5t84 11.5q74 0 138.5 -25.5t109.5 -71.5t65.5 -110.5t6.5 -142.5q-12 -66 -40 -113t-57 -82l-370 -440q-25 -29 -45.5 -60.5t-28.5 -78.5l-8 -43h-119l8 41q12 72 38 119t56 81l353 418q29 35 58.5 76t35.5 80 q10 53 -9.5 96t-54 72.5t-78 46t-79.5 16.5q-25 0 -51.5 -6t-53.5 -16l-213 -76z" />
<glyph unicode="@" horiz-adv-x="1771" d="M105.5 350.5q-29.5 147.5 0.5 317.5q33 188 120 344.5t217 269.5t295 175.5t356 62.5q158 0 286.5 -47.5t215.5 -137.5t123 -220t7 -294q-16 -96 -57 -194.5t-103.5 -178t-145.5 -131t-183 -51.5q-70 0 -113 45t-43 117q-25 -35 -58.5 -64.5t-72.5 -50t-81 -32t-81 -11.5 q-78 0 -133 30t-86.5 79t-40 114.5t3.5 137.5q14 84 53.5 163.5t99.5 143t137 101.5t169 38q72 0 128.5 -33.5t74.5 -101.5l47 117h76l-137 -541q0 -4 -1 -9t-1 -9q-12 -66 9 -106t77 -40q70 0 130 40t108 106.5t80 150.5t48 170q25 143 -7 256t-106.5 191t-188.5 117.5 t-251 39.5q-170 0 -315.5 -56t-259 -156.5t-190 -239.5t-105.5 -305q-27 -147 -0.5 -278.5t99.5 -227.5t188.5 -152.5t267.5 -56.5q135 0 268 23.5t268 76.5l-16 -96q-143 -57 -271 -77.5t-272 -20.5q-174 0 -306 62.5t-215 172t-112.5 257zM626 523.5q5 -50.5 26.5 -87.5 t59.5 -58.5t95 -21.5q72 0 128 35t97 87t67 116t36 123q8 53 6 102t-21.5 87t-57.5 60.5t-99 22.5q-66 0 -122.5 -32.5t-99.5 -84t-71.5 -115t-38.5 -126.5q-10 -57 -5 -107.5z" />
<glyph unicode="A" horiz-adv-x="946" d="M-45 2l580 1434h174l75 -1434h-108l-23 399h-428l-159 -399h-111zM279 522h364l-31 778h-26z" />
<glyph unicode="B" horiz-adv-x="974" d="M55 0l242 1374q82 31 143.5 47.5t87.5 20.5q62 12 115 12q74 0 105.5 -18.5t39.5 -24.5q43 -29 75 -79q33 -50 45 -120q6 -32 5 -64q0 -40 -8 -81q-16 -92 -54 -180t-136 -160q49 -37 75 -77t38 -81q11 -38 11 -79v-7q-1 -45 -10 -94q-14 -80 -46.5 -150.5t-64.5 -103.5 t-44 -45q-43 -37 -101.5 -63.5t-144.5 -26.5h-373zM190 119h259q61 0 105 21.5t76 58.5t50 86t29 104q9 52 9 99v10q-1 52 -19.5 89.5t-55.5 60t-98 22.5h-258zM307 788h211q61 0 106.5 21.5t76 58.5t50 86.5t29.5 104.5q3 25 3 50q0 28 -4 55q-7 50 -24.5 81t-35.5 49 q-4 4 -10 6q-2 0 0 3q-2 0 -4 2l-30 18t-71 12q-20 0 -68.5 -8t-140.5 -45z" />
<glyph unicode="C" horiz-adv-x="894" d="M98 375l4 20l113 641q14 86 57 161t86 114q45 41 71 60.5t52 33.5q23 10 68 29.5t125 19.5q29 0 67.5 -10t69.5 -21l150 -63l-58 -107l-166 70q-18 8 -39.5 14t-42.5 6q-55 0 -109 -25.5t-98.5 -68.5t-76 -98t-41.5 -115l-119 -651q-6 -33 -6 -63t6 -56q12 -53 43 -90 t77 -58.5t99 -23.5q16 0 33.5 3t47.5 13.5t77 28t123 45.5l24 -116l-176 -60q-37 -12 -79 -20t-70 -8q-78 0 -141.5 27.5t-106.5 78.5q-44 51 -62 124q-10 39 -9 84q0 38 7 81z" />
<glyph unicode="D" horiz-adv-x="978" d="M53 55l234 1319q131 51 217 65.5t114 14.5q80 0 142.5 -34t101.5 -90q38 -56 54 -132q8 -40 9 -82q0 -38 -7 -78l-117 -659q-14 -86 -60.5 -159t-110 -127t-140 -83.5t-154.5 -29.5q-16 0 -38 2t-55.5 9t-79.5 22.5t-110 41.5zM184 150q43 -20 74 -30.5t52.5 -15 t36.5 -4.5h26q51 0 102 25t94 65.5t75 94t42 112.5l109 641q6 32 6 62q1 54 -19 99q-30 69 -77 101q-57 35 -109 35q-47 0 -105.5 -20.5t-107.5 -38.5z" />
<glyph unicode="E" horiz-adv-x="833" d="M57 2l252 1432h578l-21 -117h-460l-95 -537h361l-23 -118h-360l-94 -541h464l-20 -119h-582z" />
<glyph unicode="F" horiz-adv-x="796" d="M57 0l252 1434h578l-21 -117h-460l-95 -539h361l-23 -116h-360l-115 -662h-117z" />
<glyph unicode="G" horiz-adv-x="917" d="M100 391l115 651q43 193 165 302.5t288 109.5q29 -2 67.5 -10t69.5 -21l121 -49l-62 -117l-133 56q-49 20 -86 20q-53 0 -105.5 -23.5t-95.5 -63.5t-72.5 -93.5t-39.5 -110.5l-119 -680q-5 -26 -5 -50q0 -29 7 -56q12 -49 43 -86t75 -58.5t95 -21.5q20 0 60 8t124 49 l70 388h115l-82 -461q-127 -61 -205 -77.5t-107 -16.5q-82 0 -145 32.5t-103 89t-55 130.5q-7 38 -7 79q0 39 7 80z" />
<glyph unicode="H" horiz-adv-x="1056" d="M57 2l252 1432h115l-115 -650h500l115 650h116l-252 -1432h-116l116 662h-499l-117 -662h-115z" />
<glyph unicode="I" horiz-adv-x="432" d="M57 0l252 1434h107l-252 -1434h-107z" />
<glyph unicode="J" horiz-adv-x="632" d="M-72 -2l45 121q8 -2 33 -5t51.5 -5.5t48 -4.5t25.5 -2q27 0 52.5 5.5t47 22.5t39 49t25.5 85l207 1170h114l-204 -1155q-14 -86 -34 -143.5t-52.5 -92.5t-82.5 -49t-126 -14q-8 0 -34 1t-56.5 4t-57 6t-41.5 7z" />
<glyph unicode="K" horiz-adv-x="804" d="M57 0l252 1434h115l-117 -658h55l412 654h127l-440 -717l184 -713h-127l-174 653h-57l-115 -653h-115z" />
<glyph unicode="L" horiz-adv-x="768" d="M57 0l252 1434h117l-233 -1319h454l-18 -115h-572z" />
<glyph unicode="M" horiz-adv-x="1251" d="M57 0l252 1434h178l109 -891h33l428 891h178l-252 -1434h-111l209 1192h-26l-375 -770h-178l-103 770h-24l-209 -1192h-109z" />
<glyph unicode="N" horiz-adv-x="1140" d="M57 0l252 1434h148l307 -1293h27l227 1293h106l-252 -1434h-198l-279 1192h-24l-209 -1192h-105z" />
<glyph unicode="O" horiz-adv-x="1067" d="M95 244q-3 30 -3 55q0 29 4 53l127 717q6 45 36 110.5t85 126t139 103.5t201 43q115 0 182.5 -43t102.5 -103q35 -58 42 -124q3 -31 3 -57q0 -30 -4 -54l-127 -719q-8 -45 -37 -108.5t-84 -122t-139 -99t-201 -40.5q-115 0 -183.5 40.5t-102.5 99t-41 122.5zM207 350 q-5 -31 -5 -58q0 -43 14 -72q22 -48 62.5 -73.5t88 -33t79.5 -7.5q33 0 82.5 8.5t97.5 34t89 73.5t55 130l127 719q5 31 5 57q0 44 -14 75q-24 50 -63 78t-85 37t-78 9q-33 0 -83.5 -10t-100.5 -38t-90 -78t-54 -132z" />
<glyph unicode="P" horiz-adv-x="1009" d="M55 0l242 1374q55 20 119 39q53 16 118.5 28.5t131.5 12.5q84 0 155.5 -29.5t120.5 -84.5q48 -56 70 -135q12 -45 13 -96q0 -38 -7 -79q-16 -98 -63.5 -180t-115 -140.5t-152.5 -91t-177 -32.5h-244l-102 -586h-109zM289 705h227q147 0 251.5 81.5t133.5 243.5q8 43 8 80 q0 100 -58 152q-79 72 -224 73q-37 0 -78 -9t-76 -19q-41 -12 -82 -27z" />
<glyph unicode="Q" horiz-adv-x="1067" d="M94 248q-3 26 -3 49q0 30 5 55l125 715q8 45 38 110.5t85 127t139 104.5t201 43q115 0 182.5 -43t102.5 -104.5t41 -126.5q3 -29 3 -53q0 -32 -5 -58l-125 -717q-8 -41 -32 -96t-68 -108.5t-108.5 -96.5t-154.5 -59q10 -49 55 -72l-55 -125q-55 25 -90 71t-41 118 q-104 6 -164.5 48t-92.5 99t-38 119zM211 350q-5 -31 -5 -58q0 -42 14 -72q22 -48 62 -73.5t86 -33t78 -7.5q33 0 81 7.5t96.5 33t88.5 73.5t54 130l125 717q6 32 6 60q0 42 -13 73q-22 51 -61 81t-84 41t-77 11q-33 0 -82.5 -11t-98.5 -40t-89 -80t-54 -133z" />
<glyph unicode="R" horiz-adv-x="1038" d="M55 0l242 1374q57 20 121 39q53 16 118.5 28.5t129.5 12.5q84 0 156.5 -27.5t122.5 -80.5q49 -52 71 -128q12 -41 12 -89q0 -40 -8 -85q-12 -70 -41 -136t-69 -121.5t-91 -97t-108 -64.5l145 -625h-115l-149 594q-41 -6 -82 -6h-244l-102 -588h-109zM289 707h227 q147 0 252.5 88t134.5 249q7 40 7 74t-7 62q-14 56 -51 90.5t-95 49.5t-130 15q-37 0 -78 -8t-76 -18q-41 -12 -82 -27z" />
<glyph unicode="S" horiz-adv-x="958" d="M6 135l62 113q61 -37 125 -64q53 -23 116.5 -42t116.5 -19q57 0 111.5 22.5t97.5 62.5t73.5 93t41.5 115q4 23 4 42q0 36 -14 63q-22 42 -60.5 69.5t-89.5 43t-101 23.5q-74 12 -135 43t-102 80q-40 49 -58 115q-10 37 -10 78q0 33 6 69q14 84 58.5 159t106 131.5t137 89 t153.5 32.5q49 0 100.5 -11t92.5 -24q49 -16 94 -35l-60 -114q-43 18 -86 33q-37 12 -82 22t-86 10q-55 0 -107 -23.5t-94 -63.5t-71 -92t-39 -107q-5 -26 -5 -49q0 -34 10 -62q18 -48 52.5 -81.5t79.5 -53t88 -27.5q82 -14 151 -40.5t115 -68.5q46 -41 66 -103 q12 -36 11 -80q0 -30 -5 -64q-16 -86 -59 -162t-105.5 -132t-139.5 -90t-158 -34q-80 0 -153 20.5t-128 45.5q-66 29 -121 67z" />
<glyph unicode="T" horiz-adv-x="858" d="M166 1323l20 111h779l-21 -111h-328l-231 -1323h-111l232 1323h-340z" />
<glyph unicode="U" horiz-adv-x="1095" d="M110 230q-2 24 -2 48q0 39 7 76l190 1082h107l-191 -1082q-6 -34 -6 -63q-1 -40 11 -70q20 -51 56.5 -80.5t84 -41t90.5 -11.5q37 0 88 11.5t100 41t88 80.5t53 133l191 1082h106l-190 -1082q-10 -59 -40 -123.5t-84 -119t-136 -90t-195 -35.5t-181.5 35.5t-104.5 90 t-42 118.5z" />
<glyph unicode="V" horiz-adv-x="940" d="M201 1434h112l56 -1299h26q39 94 82 203q37 92 83 208t95 238q113 285 258 650h115l-584 -1434h-174z" />
<glyph unicode="W" horiz-adv-x="1253" d="M174 2l43 1432h107l-41 -1301h16l297 741h156l32 -741h17l418 1301h106l-461 -1432h-176l-29 741h-16l-293 -741h-176z" />
<glyph unicode="X" horiz-adv-x="925" d="M-55 0l424 711l-172 723h114l164 -660h35l397 660h115l-426 -723l172 -711h-117l-155 651h-50l-387 -651h-114z" />
<glyph unicode="Y" horiz-adv-x="892" d="M176 1434h115l164 -660h34l398 660h114l-460 -783h-29l-115 -651h-123l115 651h-24z" />
<glyph unicode="Z" horiz-adv-x="927" d="M-37 0l23 135l815 1149l6 29h-565l20 121h717l-21 -119l-817 -1161l-6 -33h645l-20 -121h-797z" />
<glyph unicode="[" horiz-adv-x="487" d="M2 -172l311 1763h285l-18 -100h-183l-276 -1563h182l-16 -100h-285z" />
<glyph unicode="\" horiz-adv-x="784" d="M233 1573h111l252 -1690h-109z" />
<glyph unicode="]" horiz-adv-x="487" d="M-72 -174l17 100h182l276 1563h-182l17 100h284l-309 -1763h-285z" />
<glyph unicode="_" horiz-adv-x="434" />
<glyph unicode="`" horiz-adv-x="745" d="M469 1507h125l145 -301h-106z" />
<glyph unicode="a" horiz-adv-x="827" d="M37 272l20 115q10 59 40 111.5t74 91.5t98.5 61.5t111.5 22.5q14 0 43 -2t62.5 -8.5t65.5 -17.5t54 -30l12 70q4 24 4 47t-4 46q-8 46 -31.5 83t-58 59.5t-79.5 22.5q-16 0 -60.5 -10t-91.5 -21q-55 -12 -119 -28l-12 96q70 16 129 31q51 12 100 22t70 10q66 0 118 -30.5 t85 -80.5q34 -51 48 -115q8 -35 8 -71q0 -30 -5 -61l-103 -586l33 -37l-86 -73l-47 55q-72 -37 -144.5 -51t-113.5 -14q-57 0 -103 23.5t-76 63t-41 93.5q-6 28 -6 57q0 27 5 55zM137 264q-3 -17 -3 -32q0 -52 31 -92q40 -52 109 -52q31 0 73 11.5t81 25.5q45 16 94 37 l60 336q0 2 -16.5 13t-45 24.5t-69.5 24.5t-89 11q-35 0 -68.5 -14t-61 -38.5t-47 -56.5t-25.5 -69z" />
<glyph unicode="b" horiz-adv-x="858" d="M-2 66l47 40l234 1328h102l-80 -447q90 43 150.5 50t95.5 7q57 0 102 -22.5t76 -62t43 -91.5q7 -29 7 -60q0 -25 -5 -52l-86 -484q-10 -59 -41 -112.5t-75 -92t-97 -61t-111 -22.5q-45 0 -111.5 13t-125.5 50l-66 -53zM158 162q2 -18 30.5 -31.5t64.5 -23t72.5 -14.5 t55.5 -5q35 0 67.5 14.5t60.5 38t46 55t25 68.5l88 498q3 16 3 32q-1 20 -5 38q-8 32 -26.5 55.5t-47.5 38t-64 14.5q-18 0 -47.5 -4t-65.5 -13.5t-71 -22.5t-61 -32z" />
<glyph unicode="c" horiz-adv-x="708" d="M61 303l74 428q12 70 48 128.5t87.5 99t113.5 64.5t130 24q33 0 67.5 -8.5t63.5 -18.5q35 -10 66 -25l-39 -88q-29 10 -60 19q-27 8 -57.5 14t-58.5 6q-45 0 -87 -15.5t-77 -44t-60.5 -67.5t-33.5 -88l-74 -428q-5 -23 -5 -45q0 -23 6 -44q11 -40 36.5 -68.5t62.5 -44 t82 -15.5q20 0 52 5t63 11q37 8 74 19l16 -94q-43 -14 -82 -23q-35 -8 -74 -14t-67 -6q-68 0 -122 23.5t-90 66.5t-52 101q-9 33 -8 69q0 28 5 59z" />
<glyph unicode="d" horiz-adv-x="858" d="M57 270l84 484q10 59 41 111.5t75 92t97.5 62t110.5 22.5q35 0 93 -7t132 -50l80 447h102l-235 -1334l37 -45l-86 -71l-51 61q-72 -37 -143.5 -49t-114.5 -12q-57 0 -102.5 22.5t-76 61t-42.5 92.5q-6 29 -6 58q0 27 5 54zM158 262q-3 -17 -3 -32q1 -52 31 -92 q40 -52 109 -52q18 0 56 5t78 14.5t72 23t42 31.5l125 706q-61 47 -124 59.5t-98 12.5t-68.5 -14.5t-61 -38t-46 -56t-24.5 -69.5z" />
<glyph unicode="e" horiz-adv-x="837" d="M61 301l80 453q10 61 41 114.5t76 92t99.5 61t113.5 22.5h70q57 0 105 -22.5t79 -61t44 -92.5q7 -28 6 -57q0 -28 -5 -57l-10 -68q-16 -86 -57 -144.5t-100.5 -95t-133.5 -52t-154 -15.5q-33 0 -65.5 2t-65.5 6l-22 -123q0 -82 54 -130t134 -48q8 0 53.5 9t96.5 20 q59 12 133 28l4 -108q-78 -16 -141 -27q-53 -10 -103.5 -18t-60.5 -8q-66 0 -121 23.5t-92 66.5t-53 101q-10 34 -10 71q0 28 5 57zM203 496l241 -2h5q37 0 70.5 15t61 40.5t46 58.5t24.5 70l15 86q3 20 3 38q-1 25 -7 45q-12 34 -39 54.5t-65 29.5t-81 9q-39 0 -77 -12.5 t-68.5 -35t-52 -55t-29.5 -73.5z" />
<glyph unicode="f" horiz-adv-x="587" d="M109 924l18 100h182l27 160q27 143 106.5 205.5t182.5 62.5h37l-21 -111h-27q-57 0 -106 -30.5t-64 -112.5l-30 -174h196l-18 -100h-195l-161 -924h-109l162 924h-180z" />
<glyph unicode="g" horiz-adv-x="858" d="M-74 -465l47 96q53 -18 103 -32q41 -12 83 -21.5t64 -9.5q43 0 85 12t76 36t58.5 59.5t32.5 82.5l47 275q-78 -37 -132 -44t-89 -7h-22q-57 0 -102.5 22.5t-76 62t-42.5 91.5q-6 29 -6 59q0 26 5 53l86 486q10 59 40 112.5t74 92t97.5 61t110.5 22.5q47 0 107.5 -13 t129.5 -48l72 61l62 -73l-54 -43l-204 -1168q-14 -76 -49 -131t-85.5 -90t-111 -52t-125.5 -17q-31 0 -79 10t-93 22q-53 14 -109 33zM158 264q-3 -17 -3 -33q0 -53 31 -93q39 -52 111 -52q18 0 51 5t70 14.5t70.5 22.5t54.5 30l125 708q-4 18 -32 31.5t-63.5 23t-72.5 14.5 t-56 5q-35 0 -67.5 -14.5t-59 -38t-46 -55t-25.5 -68.5z" />
<glyph unicode="h" horiz-adv-x="870" d="M27 0l252 1434h102l-80 -447q90 43 150.5 50t95.5 7q57 0 102 -22.5t76 -62t43 -91.5q7 -29 7 -60q0 -25 -5 -52l-133 -756h-102l133 762q3 16 3 32q-1 20 -5 38q-8 32 -26.5 55.5t-47.5 38t-64 14.5q-18 0 -45.5 -3t-60.5 -11t-70 -22.5t-69 -35.5l-152 -868h-104z" />
<glyph unicode="i" horiz-adv-x="372" d="M27 0l180 1024h108l-180 -1024h-108zM250 1274l29 160h108l-29 -160h-108z" />
<glyph unicode="j" horiz-adv-x="374" d="M-231 -500l20 111h27q59 0 107 30.5t65 116.5l217 1268h112l-221 -1257q-27 -143 -107.5 -206t-183.5 -63h-36zM250 1280l26 152h113l-27 -152h-112z" />
<glyph unicode="k" horiz-adv-x="686" d="M27 0l252 1434h104l-145 -820h65l291 408h117l-334 -473l158 -549h-117l-133 489h-68l-86 -489h-104z" />
<glyph unicode="l" horiz-adv-x="432" d="M83 148q-4 22 -4 47q0 34 7 75l205 1164h106l-207 -1174q-4 -24 -5 -43q-1 -15 3 -27q6 -28 23.5 -45.5t42.5 -24.5t53 -7h27l-19 -111h-36q-51 0 -92.5 15.5t-68 47t-35.5 83.5z" />
<glyph unicode="m" horiz-adv-x="1415" d="M29 0l161 926l-36 45l86 71l51 -63q59 29 115.5 47t107.5 18q90 0 163 -38.5t89 -120.5q37 49 79 79.5t85 48t84 24.5t78 7q74 0 122 -26.5t72.5 -68.5t30.5 -92q3 -21 3 -43q0 -28 -5 -56l-133 -758h-107l131 743q4 26 4 50q0 12 -1 24q-3 35 -18 61.5t-46 43t-80 16.5 q-129 0 -199.5 -72.5t-93.5 -203.5l-115 -662h-106l135 770q2 12 2 24q0 24 -8 44q-12 30 -38 52.5t-60.5 36t-71.5 13.5q-18 0 -49 -6t-62.5 -16.5t-62.5 -22.5t-51 -27l-152 -868h-104z" />
<glyph unicode="n" horiz-adv-x="888" d="M29 0l161 924l-36 43l86 73l51 -61q121 63 223 63q92 0 165.5 -38t98.5 -130q12 -39 12 -78q0 -12 -1 -25q-5 -52 -15 -107l-117 -664h-108l127 727q5 30 5 55q0 64 -32 104q-45 56 -114 56q-39 0 -101.5 -12t-148.5 -62l-152 -868h-104z" />
<glyph unicode="o" d="M61 281l82 473q16 94 61.5 151.5t99.5 88t109.5 40.5t94.5 10t91 -10t95 -40q44 -30 68 -88q15 -35 14 -83q0 -31 -6 -69l-82 -473q-16 -94 -61 -151.5t-100.5 -89.5t-111 -42t-93.5 -10q-39 0 -90.5 10t-95.5 42t-68 89q-14 34 -13 81q0 33 6 71zM156 295q-5 -28 -4 -51 q0 -33 9 -57q17 -40 48 -62.5t67.5 -29.5t63.5 -7t65.5 7t77.5 29.5t70 62.5t43 108l78 444q5 28 5 51q-1 34 -11 57q-18 40 -48 61.5t-66 28.5t-62 7q-27 0 -67 -7t-78 -28.5t-69.5 -61.5t-44.5 -108z" />
<glyph unicode="p" d="M-61 -512l254 1440l-37 43l84 73l53 -61q76 35 143.5 48t114.5 13q57 0 102 -22.5t76 -61t43 -92.5q7 -29 7 -60q0 -25 -5 -52l-86 -488q-10 -59 -41 -111.5t-75 -92t-97 -62t-110 -22.5q-35 0 -93.5 7t-132.5 50l-98 -549h-102zM162 156q20 -16 51 -28.5t62.5 -23 t60.5 -15.5t47 -5q35 0 68.5 14.5t61.5 38t46.5 56t24.5 69.5l88 502q3 17 3 33q0 19 -4 35q-7 32 -25.5 55.5t-47.5 38t-63 14.5q-39 0 -110 -15.5t-138 -58.5z" />
<glyph unicode="q" horiz-adv-x="858" d="M57 268l84 486q10 59 41 112.5t75 92t97.5 61t110.5 22.5q45 0 109.5 -13t127.5 -48l74 61l60 -73l-54 -43l-254 -1438h-102l96 545l-41 -19q-63 -29 -112.5 -30.5t-83.5 -3.5q-57 0 -103.5 22.5t-78 62t-43.5 91.5q-7 30 -7 61q0 25 4 51zM158 262q-3 -17 -3 -33 q0 -53 31 -92q39 -51 111 -51q18 0 48 4t63.5 12.5t69.5 21.5t65 34l125 706q-70 51 -127.5 62.5t-96.5 11.5q-35 0 -67.5 -14.5t-60 -38t-46 -55t-24.5 -68.5z" />
<glyph unicode="r" horiz-adv-x="679" d="M33 2l160 905l-46 54l86 73l60 -69q70 53 125 66t94 13q41 0 88 -16t125 -65l-72 -86q-31 20 -51 31.5t-38.5 17.5t-36 7t-38.5 1q-31 0 -87 -17.5t-117 -66.5l-150 -848h-102z" />
<glyph unicode="s" horiz-adv-x="745" d="M4 76l57 90l156 -68q29 -12 57.5 -17t55.5 -5q72 0 131 55t78 160q3 17 3 32q0 23 -8 41q-12 30 -35.5 50t-53 29.5t-56.5 9.5q-74 0 -131 13t-93 47q-37 34 -49 89q-6 25 -5 56q0 37 8 83q27 150 121 226.5t213 76.5q35 0 70.5 -9t76.5 -23l62 -25l-54 -88 q-47 18 -73.5 27.5t-44 13.5t-26.5 5t-20 1h-10q-72 0 -136.5 -56t-82.5 -159q-2 -13 -2 -27q0 -26 8 -48q12 -32 37 -56.5t54.5 -35.5t58.5 -11q63 0 118.5 -11.5t92 -41t52.5 -82.5q8 -28 8 -64q0 -32 -7 -71q-27 -152 -116 -227.5t-208 -75.5q-37 0 -75.5 6t-73.5 22z " />
<glyph unicode="t" horiz-adv-x="546" d="M94 924l19 102h174l71 408h109l-72 -408h189l-19 -102h-188l-117 -668q-5 -25 -5 -44q0 -14 3 -26q6 -28 23.5 -45.5t42 -24.5t53.5 -7h45l-21 -111h-55q-51 0 -92 15.5t-67.5 47t-36.5 82.5q-5 23 -5 51q0 33 7 72l116 658h-174z" />
<glyph unicode="u" horiz-adv-x="884" d="M67 255q5 52 15 107l117 662h106l-129 -725q-5 -28 -5 -52q0 -22 4 -41q9 -40 29.5 -66.5t51.5 -41t66 -14.5q33 0 67.5 6t67 17.5t62.5 24.5t50 26l154 866h104l-163 -922l38 -43l-88 -73l-49 61q-66 -33 -136.5 -48t-123.5 -15q-74 0 -139 38t-88 130q-12 39 -12 78 q0 13 1 25z" />
<glyph unicode="v" horiz-adv-x="747" d="M119 1024h102l45 -614q2 -31 3 -77t1 -89t1 -74l1 -31h41q20 55 41 107q16 43 35 89t31 77l244 612h104l-412 -1024h-174z" />
<glyph unicode="w" horiz-adv-x="1095" d="M117 0l16 1024h103l-35 -889h18l307 887h179l-7 -889h17l286 891h103l-344 -1024h-152l-4 893h-22l-316 -893h-149z" />
<glyph unicode="x" horiz-adv-x="747" d="M-53 0l305 510l-125 514h104l121 -451h33l270 451h109l-301 -514l127 -508h-109l-116 449h-43l-271 -451h-104z" />
<glyph unicode="y" horiz-adv-x="770" d="M51 -512l176 512h-14l-92 1024h104q14 -225 27.5 -382t23.5 -257q12 -117 23 -192h25q29 76 82 192q43 100 113.5 257t174.5 382h105l-455 -1024h-12l-176 -512h-105z" />
<glyph unicode="z" horiz-adv-x="833" d="M-33 0l19 106l653 771l6 38h-500l19 105h645l-18 -107l-654 -772l-8 -37h553l-16 -104h-699z" />
<glyph unicode="{" horiz-adv-x="481" d="M36 -30.5q-5 38.5 7 110.5l225 1274q12 72 30.5 110.5t53.5 67.5q31 27 76 40t115 13h47l-19 -100h-36q-47 0 -73 -3t-44 -20q-23 -18 -32 -51t-19 -82l-217 -1233q-10 -49 -10.5 -78.5t16.5 -46.5q12 -16 36.5 -19t71.5 -3h37l-18 -101h-47q-70 0 -109 13.5t-61 40.5 q-25 29 -30 67.5z" />
<glyph unicode="|" horiz-adv-x="387" d="M33 -20l256 1454h102l-256 -1454h-102z" />
<glyph unicode="}" horiz-adv-x="489" d="M-66 -147l17 100h43h26q35 0 55.5 3t37.5 17q20 16 30.5 46t20.5 79l219 1243q10 49 9 79t-15 46t-39 19.5t-72 3.5h-43l17 100h53q70 0 110.5 -13t63.5 -40q23 -29 29 -67.5t-9 -110.5l-223 -1274q-12 -72 -31.5 -111t-54.5 -67q-33 -27 -77 -40t-113 -13h-54z" />
<glyph unicode="~" horiz-adv-x="944" d="M84 539q43 37 74.5 59.5t59.5 34.5t53.5 17t54.5 5q43 0 78.5 -15t70.5 -33.5t71 -34t79 -15.5q37 0 69.5 13.5t91.5 64.5l60 -55q-43 -37 -76 -59.5t-60.5 -35t-52 -17.5t-53.5 -5q-39 0 -75.5 15.5t-73.5 33.5t-74 33.5t-78 15.5q-37 0 -69.5 -13t-92.5 -65z" />
<glyph unicode="&#xa1;" horiz-adv-x="395" d="M39 2l201 1145h106l-201 -1145h-106zM256 1249l33 185h108l-32 -185h-109z" />
<glyph unicode="&#xa2;" horiz-adv-x="733" d="M56.5 194.5q-9.5 51.5 0.5 110.5l76 428q10 59 37 110.5t66.5 91.5t90 66.5t105.5 38.5l47 265h103l-45 -258q29 -4 59.5 -12.5t54.5 -16.5q29 -10 56 -21l-39 -88q-29 10 -60 19q-27 8 -57.5 14t-58.5 6q-45 0 -87.5 -15t-77 -44t-59 -68t-32.5 -88l-76 -428 q-10 -49 1 -89t36.5 -68.5t62.5 -44t82 -15.5q20 0 52 5t63 11q37 8 73 19l17 -94q-35 -10 -70 -19q-29 -8 -63.5 -14t-65.5 -8l-45 -256h-102l47 262q-51 12 -91 39.5t-65.5 68.5t-35 92.5z" />
<glyph unicode="&#xa3;" horiz-adv-x="1030" d="M74 0l114 662h-79l22 120h80l51 295q14 82 53 150.5t96.5 119t131 78t159.5 27.5q84 0 150 -27.5t106.5 -78t57 -119t2.5 -150.5h-113q14 84 -4 136.5t-55 81t-83 37.5t-83 9q-41 0 -88 -10t-90 -39.5t-77 -80t-48 -130.5l-53 -299h452l-22 -120h-453l-96 -551h641 l-19 -111h-753z" />
<glyph unicode="&#xa5;" horiz-adv-x="989" d="M98 360l23 132h289l28 161h-24l-27 107h-219l22 131h166l-131 545h115l164 -660h35l397 660h115l-322 -545h164l-23 -131h-219l-61 -107h-29l-29 -161h291l-22 -132h-291l-64 -358h-122l63 358h-289z" />
<glyph unicode="&#xa6;" horiz-adv-x="393" d="M37 0l113 639h106l-113 -639h-106zM176 795l113 639h106l-112 -639h-107z" />
<glyph unicode="&#xa8;" horiz-adv-x="923" d="M428 1229l29 157h118l-28 -157h-119zM834 1229l28 157h119l-29 -157h-118z" />
<glyph unicode="&#xa9;" horiz-adv-x="1642" d="M106 715q27 152 109 286t198.5 233t261 157.5t296.5 58.5t275.5 -58.5t205.5 -157.5t116 -233t7 -286t-108 -286t-197.5 -234.5t-261 -157.5t-295.5 -57q-152 0 -276 57t-207 157.5t-116.5 234.5t-7.5 286zM209 715q-23 -133 7 -248t100.5 -201t177 -135t237.5 -49 t254 49t224.5 135t171 201t92.5 248q23 131 -6 246.5t-100 201.5t-176.5 135.5t-236.5 49.5t-255 -49.5t-225 -135.5t-172 -201.5t-93 -246.5zM580 555l61 346q10 55 38 100.5t67.5 78t89 51t102.5 18.5q25 0 52.5 -6t49.5 -15q27 -8 54 -20l-31 -70q-25 6 -47 15 q-20 6 -44 11t-46 5q-72 0 -131.5 -46t-73.5 -122l-62 -346q-14 -78 30 -125t116 -47q16 0 40.5 4t49.5 10q29 6 59 15l13 -74q-33 -10 -64 -19q-29 -6 -58.5 -11t-51.5 -5q-53 0 -96.5 18.5t-73 52.5t-42 80t-1.5 101z" />
<glyph unicode="&#xad;" horiz-adv-x="745" d="M135 662l25 131h491l-24 -131h-492z" />
<glyph unicode="&#xae;" horiz-adv-x="1640" d="M106 723q27 152 109 286t198.5 233t261 157.5t296.5 58.5t275.5 -58.5t205.5 -157.5t116 -233t7 -286t-109 -286t-198.5 -234.5t-261 -157.5t-295.5 -57q-152 0 -276 57t-206 157.5t-115.5 234.5t-7.5 286zM209 723q-25 -133 5 -248t100.5 -201t177 -135t237.5 -49 t254 49t224.5 135t171 201t94.5 248q23 131 -7 246.5t-101 201.5t-176.5 135.5t-236.5 49.5t-255 -49.5t-224 -135.5t-171 -201.5t-93 -246.5zM553 301l145 815q35 12 72 23q33 10 71 17t77 7q49 0 92 -16.5t72.5 -47t43 -76.5t2.5 -103q-8 -41 -25.5 -80t-42 -73t-54 -58.5 t-62.5 -36.5l84 -371h-70l-86 352q-12 -4 -24 -4h-25h-145l-62 -348h-63zM692 721h137q86 0 148.5 51t79.5 148q16 96 -31 134t-133 38q-23 0 -46.5 -5.5t-45.5 -11.5q-25 -8 -49 -14z" />
<glyph unicode="&#xb0;" horiz-adv-x="675" d="M184 1200q8 53 37 99.5t70 81t90 55t102 20.5t97.5 -19.5t73 -54t39.5 -82t3 -100.5q-10 -53 -37.5 -99t-68.5 -81t-92.5 -55.5t-104.5 -20.5t-95 20.5t-70.5 55.5t-41 81t-2.5 99zM276 1200q-12 -66 28 -113t106 -47q33 0 65.5 12.5t58 34t44 51t24.5 62.5 q12 68 -27.5 115t-107.5 47q-33 0 -64.5 -12.5t-57.5 -35t-44 -52t-25 -62.5z" />
<glyph unicode="&#xb4;" horiz-adv-x="948" d="M633 1208l250 301h125l-269 -301h-106z" />
<glyph unicode="&#xb8;" horiz-adv-x="806" d="M238 -381q39 16 66.5 62.5t39.5 119.5l18 105h99l-19 -107q-20 -115 -61 -172t-98 -82z" />
<glyph unicode="&#xbf;" horiz-adv-x="858" d="M-57 -156q10 66 37.5 113t56.5 82l371 440q25 29 44 60.5t29 78.5l6 44h119l-6 -41q-12 -72 -37.5 -119t-56.5 -82l-352 -418q-29 -35 -58.5 -76t-38.5 -80q-10 -53 9.5 -96t54.5 -72.5t78 -46t80 -16.5q25 0 51 6t53 17l215 75l18 -110l-184 -72q-37 -14 -88 -25.5 t-84 -11.5q-74 0 -138.5 25.5t-108.5 72t-64 110.5t-6 142zM492 764l32 184h142l-33 -184h-141z" />
<glyph unicode="&#xc0;" horiz-adv-x="946" d="M-45 2l580 1434h174l75 -1434h-108l-23 399h-428l-159 -399h-111zM279 522h364l-31 778h-26zM418 1917h125l145 -301h-106z" />
<glyph unicode="&#xc1;" horiz-adv-x="946" d="M-45 2l580 1434h174l75 -1434h-108l-23 399h-428l-159 -399h-111zM279 522h364l-31 778h-26zM606 1618l250 301h125l-269 -301h-106z" />
<glyph unicode="&#xc2;" horiz-adv-x="946" d="M-45 2l580 1434h174l75 -1434h-108l-23 399h-428l-159 -399h-111zM279 522h364l-31 778h-26zM406 1692l249 256h113l160 -256h-100l-132 166l-188 -166h-102z" />
<glyph unicode="&#xc3;" horiz-adv-x="946" d="M-45 2l580 1434h174l75 -1434h-108l-23 399h-428l-159 -399h-111zM279 522h364l-31 778h-26zM377 1751h561l29 -102h-557z" />
<glyph unicode="&#xc4;" horiz-adv-x="946" d="M-45 2l580 1434h174l75 -1434h-108l-23 399h-428l-159 -399h-111zM279 522h364l-31 778h-26zM399 1639l29 157h118l-28 -157h-119zM805 1639l28 157h119l-29 -157h-118z" />
<glyph unicode="&#xc6;" horiz-adv-x="1507" d="M-72 2l908 1432h725l-21 -117h-465l-94 -537h365l-23 -118h-365l-94 -541h469l-20 -119h-580l70 399h-512l-252 -399h-111zM371 522l452 -2l140 778l-107 2z" />
<glyph unicode="&#xc7;" horiz-adv-x="894" d="M98 375l4 20l113 641q14 86 57 161t86 114q45 41 71 60.5t52 33.5q23 10 68 29.5t125 19.5q29 0 67.5 -10t69.5 -21l150 -63l-58 -107l-166 70q-18 8 -39.5 14t-42.5 6q-55 0 -109 -25.5t-98.5 -68.5t-76 -98t-41.5 -115l-119 -651q-12 -66 0 -119t43 -90t77 -58.5 t99 -23.5q16 0 33.5 3t47.5 13.5t77 28t123 45.5l24 -116l-176 -60q-37 -12 -79 -20t-70 -8q-78 0 -141.5 27.5t-106.5 78.5t-61.5 124t-2.5 165zM218 -381q39 16 66.5 62.5t39.5 119.5l18 105h99l-19 -107q-20 -115 -61 -172t-98 -82z" />
<glyph unicode="&#xc8;" horiz-adv-x="833" d="M57 2l252 1432h578l-21 -117h-460l-95 -537h361l-23 -118h-360l-94 -541h464l-20 -119h-582zM401 1917h125l145 -301h-106z" />
<glyph unicode="&#xc9;" horiz-adv-x="833" d="M57 2l252 1432h578l-21 -117h-460l-95 -537h361l-23 -118h-360l-94 -541h464l-20 -119h-582zM545 1605l250 301h125l-269 -301h-106z" />
<glyph unicode="&#xca;" horiz-adv-x="833" d="M57 2l252 1432h578l-21 -117h-460l-95 -537h361l-23 -118h-360l-94 -541h464l-20 -119h-582zM334 1692l249 256h113l160 -256h-100l-132 166l-188 -166h-102z" />
<glyph unicode="&#xcb;" horiz-adv-x="833" d="M57 2l252 1432h578l-21 -117h-460l-95 -537h361l-23 -118h-360l-94 -541h464l-20 -119h-582zM365 1639l29 157h118l-28 -157h-119zM771 1639l28 157h119l-29 -157h-118z" />
<glyph unicode="&#xcc;" horiz-adv-x="432" d="M57 0l252 1434h107l-252 -1434h-107zM178 1917h125l145 -301h-106z" />
<glyph unicode="&#xcd;" horiz-adv-x="432" d="M57 0l252 1434h107l-252 -1434h-107zM365 1618l250 301h125l-269 -301h-106z" />
<glyph unicode="&#xce;" horiz-adv-x="432" d="M57 0l252 1434h107l-252 -1434h-107zM152 1692l249 256h113l160 -256h-100l-132 166l-188 -166h-102z" />
<glyph unicode="&#xcf;" horiz-adv-x="432" d="M57 0l252 1434h107l-252 -1434h-107zM139 1639l29 157h118l-28 -157h-119zM545 1639l28 157h119l-29 -157h-118z" />
<glyph unicode="&#xd1;" horiz-adv-x="1140" d="M57 0l252 1434h148l307 -1293h27l227 1293h106l-252 -1434h-198l-279 1192h-24l-209 -1192h-105zM467 1751h561l29 -102h-557z" />
<glyph unicode="&#xd2;" horiz-adv-x="1067" d="M95 243.5q-7 63.5 1 108.5l127 717q6 45 36 110.5t85 126t139 103.5t201 43q115 0 182.5 -43t102.5 -102.5t42 -125t-1 -110.5l-127 -719q-8 -45 -37 -108.5t-84 -122t-139 -99t-201 -40.5q-115 0 -183.5 40.5t-102.5 99t-41 122zM207 350q-14 -82 8.5 -130t63 -73.5 t88 -33t79.5 -7.5q33 0 82.5 8.5t97.5 34t89 73.5t55 130l127 719q14 82 -9.5 132t-62.5 78t-85 37t-78 9q-33 0 -83.5 -10t-100.5 -38t-90 -78t-54 -132zM504 1917h125l145 -301h-106z" />
<glyph unicode="&#xd3;" horiz-adv-x="1067" d="M95 243.5q-7 63.5 1 108.5l127 717q6 45 36 110.5t85 126t139 103.5t201 43q115 0 182.5 -43t102.5 -102.5t42 -125t-1 -110.5l-127 -719q-8 -45 -37 -108.5t-84 -122t-139 -99t-201 -40.5q-115 0 -183.5 40.5t-102.5 99t-41 122zM207 350q-14 -82 8.5 -130t63 -73.5 t88 -33t79.5 -7.5q33 0 82.5 8.5t97.5 34t89 73.5t55 130l127 719q14 82 -9.5 132t-62.5 78t-85 37t-78 9q-33 0 -83.5 -10t-100.5 -38t-90 -78t-54 -132zM672 1618l250 301h125l-269 -301h-106z" />
<glyph unicode="&#xd4;" horiz-adv-x="1067" d="M95 243.5q-7 63.5 1 108.5l127 717q6 45 36 110.5t85 126t139 103.5t201 43q115 0 182.5 -43t102.5 -102.5t42 -125t-1 -110.5l-127 -719q-8 -45 -37 -108.5t-84 -122t-139 -99t-201 -40.5q-115 0 -183.5 40.5t-102.5 99t-41 122zM207 350q-14 -82 8.5 -130t63 -73.5 t88 -33t79.5 -7.5q33 0 82.5 8.5t97.5 34t89 73.5t55 130l127 719q14 82 -9.5 132t-62.5 78t-85 37t-78 9q-33 0 -83.5 -10t-100.5 -38t-90 -78t-54 -132zM463 1692l249 256h113l160 -256h-100l-132 166l-188 -166h-102z" />
<glyph unicode="&#xd5;" horiz-adv-x="1067" d="M95 243.5q-7 63.5 1 108.5l127 717q6 45 36 110.5t85 126t139 103.5t201 43q115 0 182.5 -43t102.5 -102.5t42 -125t-1 -110.5l-127 -719q-8 -45 -37 -108.5t-84 -122t-139 -99t-201 -40.5q-115 0 -183.5 40.5t-102.5 99t-41 122zM207 350q-14 -82 8.5 -130t63 -73.5 t88 -33t79.5 -7.5q33 0 82.5 8.5t97.5 34t89 73.5t55 130l127 719q14 82 -9.5 132t-62.5 78t-85 37t-78 9q-33 0 -83.5 -10t-100.5 -38t-90 -78t-54 -132zM434 1751h561l29 -102h-557z" />
<glyph unicode="&#xd6;" horiz-adv-x="1067" d="M95 243.5q-7 63.5 1 108.5l127 717q6 45 36 110.5t85 126t139 103.5t201 43q115 0 182.5 -43t102.5 -102.5t42 -125t-1 -110.5l-127 -719q-8 -45 -37 -108.5t-84 -122t-139 -99t-201 -40.5q-115 0 -183.5 40.5t-102.5 99t-41 122zM207 350q-14 -82 8.5 -130t63 -73.5 t88 -33t79.5 -7.5q33 0 82.5 8.5t97.5 34t89 73.5t55 130l127 719q14 82 -9.5 132t-62.5 78t-85 37t-78 9q-33 0 -83.5 -10t-100.5 -38t-90 -78t-54 -132zM459 1639l29 157h118l-28 -157h-119zM865 1639l28 157h119l-29 -157h-118z" />
<glyph unicode="&#xd7;" horiz-adv-x="927" d="M55 274l328 279l-229 278l84 72l229 -278l328 278l59 -72l-328 -278l230 -279l-84 -71l-230 278l-327 -278z" />
<glyph unicode="&#xd8;" horiz-adv-x="1067" d="M95 243.5q-7 63.5 1 108.5l127 717q8 45 37 110.5t84 126t139 103.5t201 43q115 0 182.5 -43t102.5 -102.5t42 -125t-1 -110.5l-127 -719q-8 -45 -37 -108.5t-84 -122t-139 -99t-201 -40.5q-115 0 -183.5 40.5t-102.5 99t-41 122zM207 350q-14 -82 9.5 -130t63 -73.5 t87 -33t79.5 -7.5q33 0 82.5 8.5t98.5 34t89 73.5t54 130l127 719q14 82 -8.5 132t-62.5 78t-86 37t-78 9q-33 0 -83.5 -10t-100.5 -38t-90 -78t-54 -132zM217 -135l551 1704h123l-551 -1704h-123z" />
<glyph unicode="&#xd9;" horiz-adv-x="1095" d="M110.5 230.5q-6.5 64.5 4.5 123.5l190 1082h107l-191 -1082q-14 -82 5.5 -133t56 -80.5t84 -41t90.5 -11.5q37 0 88 11.5t100 41t88 80.5t53 133l191 1082h106l-190 -1082q-10 -59 -40 -123.5t-84 -119t-136 -90t-195 -35.5t-181.5 35.5t-104 90t-42 119zM520 1917h125 l145 -301h-106z" />
<glyph unicode="&#xda;" horiz-adv-x="1095" d="M110.5 230.5q-6.5 64.5 4.5 123.5l190 1082h107l-191 -1082q-14 -82 5.5 -133t56 -80.5t84 -41t90.5 -11.5q37 0 88 11.5t100 41t88 80.5t53 133l191 1082h106l-190 -1082q-10 -59 -40 -123.5t-84 -119t-136 -90t-195 -35.5t-181.5 35.5t-104 90t-42 119zM664 1618 l250 301h125l-269 -301h-106z" />
<glyph unicode="&#xdb;" horiz-adv-x="1095" d="M110.5 230.5q-6.5 64.5 4.5 123.5l190 1082h107l-191 -1082q-14 -82 5.5 -133t56 -80.5t84 -41t90.5 -11.5q37 0 88 11.5t100 41t88 80.5t53 133l191 1082h106l-190 -1082q-10 -59 -40 -123.5t-84 -119t-136 -90t-195 -35.5t-181.5 35.5t-104 90t-42 119zM478 1692 l249 256h113l160 -256h-100l-132 166l-188 -166h-102z" />
<glyph unicode="&#xdc;" horiz-adv-x="1095" d="M110.5 230.5q-6.5 64.5 4.5 123.5l190 1082h107l-191 -1082q-14 -82 5.5 -133t56 -80.5t84 -41t90.5 -11.5q37 0 88 11.5t100 41t88 80.5t53 133l191 1082h106l-190 -1082q-10 -59 -40 -123.5t-84 -119t-136 -90t-195 -35.5t-181.5 35.5t-104 90t-42 119zM463 1639 l29 157h118l-28 -157h-119zM869 1639l28 157h119l-29 -157h-118z" />
<glyph unicode="&#xdd;" horiz-adv-x="892" d="M176 1434h115l164 -660h34l398 660h114l-460 -783h-29l-115 -651h-123l115 651h-24zM555 1618l250 301h125l-269 -301h-106z" />
<glyph unicode="&#xde;" horiz-adv-x="882" d="M-33 -510l342 1944h2h101h2l-80 -447q90 43 150.5 50t95.5 7q57 0 102 -22.5t75.5 -62t43 -92t2.5 -111.5l-86 -484q-10 -59 -41 -111t-75 -91t-97 -61.5t-111 -22.5q-43 0 -105.5 10t-121.5 43l-96 -549h-103zM188 145q100 -59 226 -59q35 0 67.5 14.5t60 39t46 56 t24.5 68.5l88 498q6 37 -1 69.5t-26.5 56t-48 38t-63.5 14.5q-49 0 -120.5 -17.5t-125.5 -54.5z" />
<glyph unicode="&#xdf;" horiz-adv-x="1038" d="M27 0l190 1081q8 45 33.5 109.5t78 123t134.5 100.5t203 42q117 0 183 -42t96 -101.5t33 -125t-5 -110.5q-14 -86 -66.5 -166t-138.5 -108q63 -25 98 -67t48.5 -89t12.5 -93t-7 -79l-17 -94q-8 -47 -33.5 -112.5t-77 -125t-132 -101.5t-197.5 -42h-107l19 111h102 q37 0 84 9t93 38.5t83 83t54 139.5l16 88q14 88 -1 141.5t-48 82t-74 37.5t-78 9h-47l21 111h45h8q94 0 151.5 60.5t75.5 164.5q14 88 -4 141.5t-53 82t-79 38t-79 9.5q-37 0 -85 -9.5t-94 -38t-85 -82t-53 -141.5l-189 -1075h-112z" />
<glyph unicode="&#xe0;" horiz-adv-x="827" d="M37 272l20 115q10 59 40 111.5t74 91.5t98.5 61.5t111.5 22.5q14 0 43 -2t62.5 -8.5t65.5 -17.5t54 -30l12 70q8 47 0 93t-31.5 83t-58 59.5t-79.5 22.5q-16 0 -60.5 -10t-91.5 -21q-55 -12 -119 -28l-12 96q70 16 129 31q51 12 100 22t70 10q66 0 118 -30.5t85.5 -80.5 t48 -114.5t2.5 -132.5l-103 -586l33 -37l-86 -73l-47 55q-72 -37 -144.5 -51t-113.5 -14q-57 0 -103 23.5t-76 63t-41 93t-1 112.5zM137 264q-12 -72 28 -124t109 -52q31 0 73 11.5t81 25.5q45 16 94 37l60 336q0 2 -16.5 13t-45 24.5t-69.5 24.5t-89 11q-35 0 -68.5 -14 t-61 -38.5t-47 -56.5t-25.5 -69zM315 1507h125l145 -301h-106z" />
<glyph unicode="&#xe1;" horiz-adv-x="827" d="M37 272l20 115q10 59 40 111.5t74 91.5t98.5 61.5t111.5 22.5q14 0 43 -2t62.5 -8.5t65.5 -17.5t54 -30l12 70q8 47 0 93t-31.5 83t-58 59.5t-79.5 22.5q-16 0 -60.5 -10t-91.5 -21q-55 -12 -119 -28l-12 96q70 16 129 31q51 12 100 22t70 10q66 0 118 -30.5t85.5 -80.5 t48 -114.5t2.5 -132.5l-103 -586l33 -37l-86 -73l-47 55q-72 -37 -144.5 -51t-113.5 -14q-57 0 -103 23.5t-76 63t-41 93t-1 112.5zM137 264q-12 -72 28 -124t109 -52q31 0 73 11.5t81 25.5q45 16 94 37l60 336q0 2 -16.5 13t-45 24.5t-69.5 24.5t-89 11q-35 0 -68.5 -14 t-61 -38.5t-47 -56.5t-25.5 -69zM465 1208l250 301h125l-269 -301h-106z" />
<glyph unicode="&#xe2;" horiz-adv-x="827" d="M37 272l20 115q10 59 40 111.5t74 91.5t98.5 61.5t111.5 22.5q14 0 43 -2t62.5 -8.5t65.5 -17.5t54 -30l12 70q8 47 0 93t-31.5 83t-58 59.5t-79.5 22.5q-16 0 -60.5 -10t-91.5 -21q-55 -12 -119 -28l-12 96q70 16 129 31q51 12 100 22t70 10q66 0 118 -30.5t85.5 -80.5 t48 -114.5t2.5 -132.5l-103 -586l33 -37l-86 -73l-47 55q-72 -37 -144.5 -51t-113.5 -14q-57 0 -103 23.5t-76 63t-41 93t-1 112.5zM137 264q-12 -72 28 -124t109 -52q31 0 73 11.5t81 25.5q45 16 94 37l60 336q0 2 -16.5 13t-45 24.5t-69.5 24.5t-89 11q-35 0 -68.5 -14 t-61 -38.5t-47 -56.5t-25.5 -69zM281 1282l249 256h113l160 -256h-100l-132 166l-188 -166h-102z" />
<glyph unicode="&#xe3;" horiz-adv-x="827" d="M37 272l20 115q10 59 40 111.5t74 91.5t98.5 61.5t111.5 22.5q14 0 43 -2t62.5 -8.5t65.5 -17.5t54 -30l12 70q8 47 0 93t-31.5 83t-58 59.5t-79.5 22.5q-16 0 -60.5 -10t-91.5 -21q-55 -12 -119 -28l-12 96q70 16 129 31q51 12 100 22t70 10q66 0 118 -30.5t85.5 -80.5 t48 -114.5t2.5 -132.5l-103 -586l33 -37l-86 -73l-47 55q-72 -37 -144.5 -51t-113.5 -14q-57 0 -103 23.5t-76 63t-41 93t-1 112.5zM137 264q-12 -72 28 -124t109 -52q31 0 73 11.5t81 25.5q45 16 94 37l60 336q0 2 -16.5 13t-45 24.5t-69.5 24.5t-89 11q-35 0 -68.5 -14 t-61 -38.5t-47 -56.5t-25.5 -69zM243 1341h561l29 -102h-557z" />
<glyph unicode="&#xe4;" horiz-adv-x="827" d="M37 272l20 115q10 59 40 111.5t74 91.5t98.5 61.5t111.5 22.5q14 0 43 -2t62.5 -8.5t65.5 -17.5t54 -30l12 70q8 47 0 93t-31.5 83t-58 59.5t-79.5 22.5q-16 0 -60.5 -10t-91.5 -21q-55 -12 -119 -28l-12 96q70 16 129 31q51 12 100 22t70 10q66 0 118 -30.5t85.5 -80.5 t48 -114.5t2.5 -132.5l-103 -586l33 -37l-86 -73l-47 55q-72 -37 -144.5 -51t-113.5 -14q-57 0 -103 23.5t-76 63t-41 93t-1 112.5zM137 264q-12 -72 28 -124t109 -52q31 0 73 11.5t81 25.5q45 16 94 37l60 336q0 2 -16.5 13t-45 24.5t-69.5 24.5t-89 11q-35 0 -68.5 -14 t-61 -38.5t-47 -56.5t-25.5 -69zM256 1229l29 157h118l-28 -157h-119zM662 1229l28 157h119l-29 -157h-118z" />
<glyph unicode="&#xe6;" horiz-adv-x="1320" d="M37 272l20 115q10 59 40 111.5t74 91.5t98.5 61.5t111.5 22.5q14 0 42 -2t60.5 -8.5t64.5 -16.5t54 -29l16 97q2 43 -9 85t-33.5 73.5t-54.5 51t-72 19.5q-16 0 -60.5 -10t-91.5 -21q-55 -12 -119 -28l-12 96q70 16 129 31q51 12 100 22t70 10q76 0 133 -39.5t90 -103.5 q47 66 118 104.5t148 38.5h70q57 0 105.5 -22.5t79 -61t44 -92t0.5 -114.5l-10 -68q-16 -86 -57 -144.5t-100.5 -95t-133 -52t-153.5 -15.5q-33 0 -66 2t-65 6l-23 -123q0 -82 54.5 -130t134.5 -48q8 0 53 9t96 20q59 12 133 28l4 -108q-78 -16 -141 -27q-53 -10 -103.5 -18 t-60.5 -8q-76 0 -142.5 33.5t-90.5 74.5q-10 -4 -19 -12q-10 -6 -20.5 -13.5t-26.5 -15.5q-72 -41 -144.5 -55t-113.5 -14q-57 0 -103 23.5t-76 63t-41 93t-1 112.5zM137 264q-12 -72 28 -124t109 -52q31 0 73 11.5t81 25.5q45 16 94 37l19 98q0 10 1 20.5t3 20.5l37 199 q-6 4 -23.5 15t-46.5 23.5t-67 22.5t-83 10q-35 0 -68.5 -14t-61 -38.5t-47 -56.5t-25.5 -69zM686 496h242q37 -2 71.5 12t62.5 39.5t47 59.5t26 71l14 86q8 49 -3 83t-39 54.5t-65.5 29.5t-80.5 9q-39 0 -77 -12.5t-69 -35t-52.5 -55t-29.5 -73.5z" />
<glyph unicode="&#xe7;" horiz-adv-x="706" d="M61 303l74 428q12 70 48 128.5t87.5 99t113.5 64.5t130 24q33 0 67.5 -8.5t63.5 -18.5q35 -10 66 -25l-39 -88q-29 10 -60 19q-27 8 -57.5 14t-58.5 6q-45 0 -87 -15.5t-77 -44t-60.5 -67.5t-33.5 -88l-74 -428q-10 -49 1 -89t36.5 -68.5t62.5 -44t82 -15.5q20 0 52 5 t63 11q37 8 74 19l16 -94q-43 -14 -82 -23q-35 -8 -74 -14t-67 -6q-68 0 -122 23.5t-90 66.5t-51.5 101t-3.5 128zM136 -381q39 16 66.5 62.5t39.5 119.5l18 105h99l-19 -107q-20 -115 -61 -172t-98 -82z" />
<glyph unicode="&#xe8;" horiz-adv-x="837" d="M61 301l80 453q10 61 41 114.5t76 92t99.5 61t113.5 22.5h70q57 0 105 -22.5t79 -61t44 -92t1 -114.5l-10 -68q-16 -86 -57 -144.5t-100.5 -95t-133.5 -52t-154 -15.5q-33 0 -65.5 2t-65.5 6l-22 -123q0 -82 54 -130t134 -48q8 0 53.5 9t96.5 20q59 12 133 28l4 -108 q-78 -16 -141 -27q-53 -10 -103.5 -18t-60.5 -8q-66 0 -121 23.5t-92 66.5t-53.5 101t-4.5 128zM203 496l241 -2h5q37 0 70.5 15t61 40.5t46 58.5t24.5 70l15 86q8 49 -3.5 83t-39 54.5t-65.5 29.5t-81 9q-39 0 -77 -12.5t-68.5 -35t-52 -55t-29.5 -73.5zM328 1507h125 l145 -301h-106z" />
<glyph unicode="&#xe9;" horiz-adv-x="837" d="M61 301l80 453q10 61 41 114.5t76 92t99.5 61t113.5 22.5h70q57 0 105 -22.5t79 -61t44 -92t1 -114.5l-10 -68q-16 -86 -57 -144.5t-100.5 -95t-133.5 -52t-154 -15.5q-33 0 -65.5 2t-65.5 6l-22 -123q0 -82 54 -130t134 -48q8 0 53.5 9t96.5 20q59 12 133 28l4 -108 q-78 -16 -141 -27q-53 -10 -103.5 -18t-60.5 -8q-66 0 -121 23.5t-92 66.5t-53.5 101t-4.5 128zM203 496l241 -2h5q37 0 70.5 15t61 40.5t46 58.5t24.5 70l15 86q8 49 -3.5 83t-39 54.5t-65.5 29.5t-81 9q-39 0 -77 -12.5t-68.5 -35t-52 -55t-29.5 -73.5zM486 1208l250 301 h125l-269 -301h-106z" />
<glyph unicode="&#xea;" horiz-adv-x="837" d="M61 301l80 453q10 61 41 114.5t76 92t99.5 61t113.5 22.5h70q57 0 105 -22.5t79 -61t44 -92t1 -114.5l-10 -68q-16 -86 -57 -144.5t-100.5 -95t-133.5 -52t-154 -15.5q-33 0 -65.5 2t-65.5 6l-22 -123q0 -82 54 -130t134 -48q8 0 53.5 9t96.5 20q59 12 133 28l4 -108 q-78 -16 -141 -27q-53 -10 -103.5 -18t-60.5 -8q-66 0 -121 23.5t-92 66.5t-53.5 101t-4.5 128zM203 496l241 -2h5q37 0 70.5 15t61 40.5t46 58.5t24.5 70l15 86q8 49 -3.5 83t-39 54.5t-65.5 29.5t-81 9q-39 0 -77 -12.5t-68.5 -35t-52 -55t-29.5 -73.5zM281 1282l249 256 h113l160 -256h-100l-132 166l-188 -166h-102z" />
<glyph unicode="&#xeb;" horiz-adv-x="837" d="M61 301l80 453q10 61 41 114.5t76 92t99.5 61t113.5 22.5h70q57 0 105 -22.5t79 -61t44 -92t1 -114.5l-10 -68q-16 -86 -57 -144.5t-100.5 -95t-133.5 -52t-154 -15.5q-33 0 -65.5 2t-65.5 6l-22 -123q0 -82 54 -130t134 -48q8 0 53.5 9t96.5 20q59 12 133 28l4 -108 q-78 -16 -141 -27q-53 -10 -103.5 -18t-60.5 -8q-66 0 -121 23.5t-92 66.5t-53.5 101t-4.5 128zM203 496l241 -2h5q37 0 70.5 15t61 40.5t46 58.5t24.5 70l15 86q8 49 -3.5 83t-39 54.5t-65.5 29.5t-81 9q-39 0 -77 -12.5t-68.5 -35t-52 -55t-29.5 -73.5zM285 1229l29 157 h118l-28 -157h-119zM691 1229l28 157h119l-29 -157h-118z" />
<glyph unicode="&#xec;" horiz-adv-x="372" d="M27 0l180 1024h108l-180 -1024h-108zM68 1507h125l145 -301h-107z" />
<glyph unicode="&#xed;" horiz-adv-x="372" d="M27 0l180 1024h108l-180 -1024h-108zM242 1208l250 301h124l-268 -301h-106z" />
<glyph unicode="&#xee;" horiz-adv-x="372" d="M27 0l180 1024h108l-180 -1024h-108zM47 1282l249 256h113l160 -256h-100l-132 166l-188 -166h-102zM250 1274l29 160h108l-29 -160h-108z" />
<glyph unicode="&#xef;" horiz-adv-x="372" d="M27 0l180 1024h108l-180 -1024h-108zM35 1229l28 157h119l-28 -157h-119zM440 1229l29 157h119l-29 -157h-119z" />
<glyph unicode="&#xf1;" horiz-adv-x="888" d="M29 0l161 924l-36 43l86 73l51 -61q121 63 223 63q92 0 165.5 -38t98.5 -130q16 -51 11 -103t-15 -107l-117 -664h-108l127 727q18 104 -27 159.5t-114 55.5q-39 0 -101.5 -12t-148.5 -62l-152 -868h-104zM260 1341h561l29 -102h-557z" />
<glyph unicode="&#xf2;" d="M61 281l82 473q16 94 61.5 151.5t99.5 88t109.5 40.5t94.5 10t91 -10t95 -40.5t67.5 -88t8.5 -151.5l-82 -473q-16 -94 -61 -151.5t-100.5 -89.5t-111 -42t-93.5 -10q-39 0 -90.5 10t-95.5 42t-67.5 89t-7.5 152zM156 295q-12 -68 5 -108t48 -62.5t67.5 -29.5t63.5 -7 t65.5 7t77.5 29.5t70 62.5t43 108l78 444q12 68 -5.5 108t-48 61.5t-66.5 28.5t-62 7q-27 0 -67 -7t-78 -28.5t-69.5 -61.5t-44.5 -108zM322 1507h125l145 -301h-106z" />
<glyph unicode="&#xf3;" d="M63 281l82 473q16 94 61.5 151.5t99.5 88t109.5 40.5t94.5 10t91 -10t95 -40.5t67.5 -88t8.5 -151.5l-82 -473q-16 -94 -61 -151.5t-100.5 -89.5t-111 -42t-93.5 -10q-39 0 -90.5 10t-95.5 42t-67.5 89t-7.5 152zM158 295q-12 -68 5 -108t48 -62.5t67.5 -29.5t63.5 -7 t65.5 7t77.5 29.5t70 62.5t43 108l78 444q12 68 -5.5 108t-48 61.5t-66.5 28.5t-62 7q-27 0 -67 -7t-78 -28.5t-69.5 -61.5t-44.5 -108zM477 1208l250 301h125l-269 -301h-106z" />
<glyph unicode="&#xf4;" d="M63 281l82 473q16 94 61.5 151.5t99.5 88t109.5 40.5t94.5 10t91 -10t95 -40.5t67.5 -88t8.5 -151.5l-82 -473q-16 -94 -61 -151.5t-100.5 -89.5t-111 -42t-93.5 -10q-39 0 -90.5 10t-95.5 42t-67.5 89t-7.5 152zM158 295q-12 -68 5 -108t48 -62.5t67.5 -29.5t63.5 -7 t65.5 7t77.5 29.5t70 62.5t43 108l78 444q12 68 -5.5 108t-48 61.5t-66.5 28.5t-62 7q-27 0 -67 -7t-78 -28.5t-69.5 -61.5t-44.5 -108zM293 1282l249 256h113l160 -256h-100l-132 166l-188 -166h-102z" />
<glyph unicode="&#xf5;" d="M63 281l82 473q16 94 61.5 151.5t99.5 88t109.5 40.5t94.5 10t91 -10t95 -40.5t67.5 -88t8.5 -151.5l-82 -473q-16 -94 -61 -151.5t-100.5 -89.5t-111 -42t-93.5 -10q-39 0 -90.5 10t-95.5 42t-67.5 89t-7.5 152zM158 295q-12 -68 5 -108t48 -62.5t67.5 -29.5t63.5 -7 t65.5 7t77.5 29.5t70 62.5t43 108l78 444q12 68 -5.5 108t-48 61.5t-66.5 28.5t-62 7q-27 0 -67 -7t-78 -28.5t-69.5 -61.5t-44.5 -108zM262 1341h561l29 -102h-557z" />
<glyph unicode="&#xf6;" d="M63 281l82 473q16 94 61.5 151.5t99.5 88t109.5 40.5t94.5 10t91 -10t95 -40.5t67.5 -88t8.5 -151.5l-82 -473q-16 -94 -61 -151.5t-100.5 -89.5t-111 -42t-93.5 -10q-39 0 -90.5 10t-95.5 42t-67.5 89t-7.5 152zM158 295q-12 -68 5 -108t48 -62.5t67.5 -29.5t63.5 -7 t65.5 7t77.5 29.5t70 62.5t43 108l78 444q12 68 -5.5 108t-48 61.5t-66.5 28.5t-62 7q-27 0 -67 -7t-78 -28.5t-69.5 -61.5t-44.5 -108zM281 1229l29 157h118l-28 -157h-119zM687 1229l28 157h119l-29 -157h-118z" />
<glyph unicode="&#xf7;" horiz-adv-x="929" d="M74 369l23 131h702l-23 -131h-702zM296 2l31 180h142l-31 -180h-142zM413 657l33 185h141l-32 -185h-142z" />
<glyph unicode="&#xf8;" d="M61 281l82 473q16 94 61.5 151.5t99.5 88t109.5 40.5t94.5 10t91 -10t95 -40.5t67.5 -88t8.5 -151.5l-82 -473q-16 -94 -61 -151.5t-100.5 -89.5t-111 -42t-93.5 -10q-39 0 -90.5 10t-95.5 42t-67.5 89t-7.5 152zM127 -180l459 1430h123l-459 -1430h-123zM156 295 q-12 -68 5 -108t48 -62.5t67.5 -29.5t63.5 -7t65.5 7t77.5 29.5t70 62.5t43 108l78 444q12 68 -5.5 108t-48 61.5t-66.5 28.5t-62 7q-27 0 -67 -7t-78 -28.5t-69.5 -61.5t-44.5 -108z" />
<glyph unicode="&#xf9;" horiz-adv-x="884" d="M67 255q5 52 15 107l117 662h106l-129 -725q-10 -53 -1 -93t29.5 -66.5t51.5 -41t66 -14.5q33 0 67.5 6t67 17.5t62.5 24.5t50 26l154 866h104l-163 -922l38 -43l-88 -73l-49 61q-66 -33 -136.5 -48t-123.5 -15q-74 0 -139 38t-88 130q-16 51 -11 103zM324 1507h125 l145 -301h-106z" />
<glyph unicode="&#xfa;" horiz-adv-x="884" d="M67 255q5 52 15 107l117 662h106l-129 -725q-10 -53 -1 -93t29.5 -66.5t51.5 -41t66 -14.5q33 0 67.5 6t67 17.5t62.5 24.5t50 26l154 866h104l-163 -922l38 -43l-88 -73l-49 61q-66 -33 -136.5 -48t-123.5 -15q-74 0 -139 38t-88 130q-16 51 -11 103zM473 1208l250 301 h125l-269 -301h-106z" />
<glyph unicode="&#xfb;" horiz-adv-x="884" d="M67 255q5 52 15 107l117 662h106l-129 -725q-10 -53 -1 -93t29.5 -66.5t51.5 -41t66 -14.5q33 0 67.5 6t67 17.5t62.5 24.5t50 26l154 866h104l-163 -922l38 -43l-88 -73l-49 61q-66 -33 -136.5 -48t-123.5 -15q-74 0 -139 38t-88 130q-16 51 -11 103zM297 1282l249 256 h113l160 -256h-100l-132 166l-188 -166h-102z" />
<glyph unicode="&#xfc;" horiz-adv-x="884" d="M67 255q5 52 15 107l117 662h106l-129 -725q-10 -53 -1 -93t29.5 -66.5t51.5 -41t66 -14.5q33 0 67.5 6t67 17.5t62.5 24.5t50 26l154 866h104l-163 -922l38 -43l-88 -73l-49 61q-66 -33 -136.5 -48t-123.5 -15q-74 0 -139 38t-88 130q-16 51 -11 103zM291 1229l29 157 h118l-28 -157h-119zM697 1229l28 157h119l-29 -157h-118z" />
<glyph unicode="&#xfd;" horiz-adv-x="770" d="M51 -512l176 512h-14l-92 1024h104q14 -225 27.5 -382t23.5 -257q12 -117 23 -192h25q29 76 82 192q43 100 113.5 257t174.5 382h105l-455 -1024h-12l-176 -512h-105zM424 1208l250 301h125l-269 -301h-106z" />
<glyph unicode="&#xfe;" horiz-adv-x="860" d="M-66 -512l345 1944h2h100h2l-80 -447q90 43 150.5 50t95.5 7q57 0 102 -22.5t76 -62t42 -92t1 -111.5l-84 -484q-10 -59 -41 -111.5t-75 -91t-97 -61t-111 -22.5q-43 0 -105 10t-122 43l-98 -549h-103zM158 143q100 -59 225 -59q35 0 67.5 14.5t60.5 39t46 56t25 68.5 l88 498q12 74 -28 126t-112 52q-49 0 -120.5 -17.5t-124.5 -54.5z" />
<glyph unicode="&#xff;" horiz-adv-x="770" d="M51 -512l176 512h-14l-92 1024h104q14 -225 27.5 -382t23.5 -257q12 -117 23 -192h25q29 76 82 192q43 100 113.5 257t174.5 382h105l-455 -1024h-12l-176 -512h-105zM235 1229l29 157h118l-28 -157h-119zM641 1229l28 157h119l-29 -157h-118z" />
<glyph unicode="&#x152;" horiz-adv-x="1482" d="M99 264.5q-7 63.5 1 108.5l125 717q8 45 38 110.5t85 125.5t138 103.5t200 43.5q96 0 158.5 -31t101.5 -78l17 90h577l-20 -117h-461l-96 -536h360l-20 -119h-361l-94 -541h465l-23 -118h-581l14 79q-53 -43 -126 -71.5t-171 -28.5q-115 0 -183.5 41t-102.5 99.5t-41 122 zM209 371q-14 -82 9.5 -130t63.5 -74t87 -33t80 -7q31 0 76.5 7t92 28.5t87 62.5t59.5 111l141 792q4 70 -21.5 113t-63.5 66.5t-81 32t-73 8.5q-33 0 -83.5 -10.5t-100.5 -38t-91 -78t-55 -131.5z" />
<glyph unicode="&#x153;" horiz-adv-x="1372" d="M59 276l84 474q16 94 61.5 151t99.5 88t109.5 41t94.5 10t91 -10t95 -41t67.5 -88t8.5 -151l-84 -474q-16 -94 -60 -151t-99.5 -89t-111 -42t-93.5 -10q-39 0 -90.5 10t-95.5 42t-68.5 89t-8.5 151zM156 291q-12 -68 5 -108t48 -62.5t67.5 -29.5t63.5 -7t65.5 7 t76.5 29.5t70 62.5t44 108l78 444q12 68 -5.5 108t-48 61.5t-67.5 28.5t-64 7t-65.5 -7t-77.5 -28.5t-69.5 -61.5t-43.5 -108zM596 301l80 453q10 61 41 114.5t76 92t99 61t114 22.5h69q57 0 105.5 -22.5t79 -61t44 -92t1.5 -114.5l-11 -68q-16 -86 -57 -144.5t-100.5 -95 t-133 -52t-153.5 -15.5q-33 0 -65.5 2t-65.5 6l-23 -123q0 -82 54.5 -130t134.5 -48q20 0 67 8t95 19q55 12 120 28l4 -106q-68 -16 -127 -27q-51 -10 -101 -18t-77 -8q-66 0 -121 23.5t-92 66.5t-53 101t-4 128zM737 496l242 -2h4q37 0 70.5 15t61.5 40.5t46.5 58.5 t24.5 70l14 86q8 49 -3 83t-39 54.5t-65.5 29.5t-80.5 9q-39 0 -77 -12.5t-68.5 -35t-52 -55t-30.5 -73.5z" />
<glyph unicode="&#x178;" horiz-adv-x="892" d="M176 1434h115l164 -660h34l398 660h114l-460 -783h-29l-115 -651h-123l115 651h-24zM369 1639l29 157h118l-28 -157h-119zM775 1639l28 157h119l-29 -157h-118z" />
<glyph unicode="&#x2c6;" horiz-adv-x="811" d="M369 1282l249 256h113l160 -256h-100l-132 166l-188 -166h-102z" />
<glyph unicode="&#x2dc;" horiz-adv-x="1017" d="M440 1341h561l29 -102h-557z" />
<glyph unicode="&#x2000;" horiz-adv-x="974" />
<glyph unicode="&#x2001;" horiz-adv-x="1948" />
<glyph unicode="&#x2002;" horiz-adv-x="974" />
<glyph unicode="&#x2003;" horiz-adv-x="1948" />
<glyph unicode="&#x2004;" horiz-adv-x="649" />
<glyph unicode="&#x2005;" horiz-adv-x="487" />
<glyph unicode="&#x2006;" horiz-adv-x="324" />
<glyph unicode="&#x2007;" horiz-adv-x="324" />
<glyph unicode="&#x2008;" horiz-adv-x="243" />
<glyph unicode="&#x2009;" horiz-adv-x="389" />
<glyph unicode="&#x200a;" horiz-adv-x="108" />
<glyph unicode="&#x2010;" horiz-adv-x="745" d="M135 662l25 131h491l-24 -131h-492z" />
<glyph unicode="&#x2011;" horiz-adv-x="745" d="M135 662l25 131h491l-24 -131h-492z" />
<glyph unicode="&#x2012;" horiz-adv-x="745" d="M135 662l25 131h491l-24 -131h-492z" />
<glyph unicode="&#x2013;" horiz-adv-x="952" d="M92 428l21 111h702l-20 -111h-703z" />
<glyph unicode="&#x2014;" horiz-adv-x="1507" d="M92 428l21 111h1257l-20 -111h-1258z" />
<glyph unicode="&#x201a;" horiz-adv-x="389" d="M113 756q39 16 70.5 54t45.5 112l19 104h119l-19 -106q-20 -115 -78.5 -184.5t-144.5 -102.5z" />
<glyph unicode="&#x201c;" horiz-adv-x="651" d="M178 1044l21 107q20 115 78.5 184.5t142.5 102.5l14 -123q-39 -16 -71.5 -54t-47.5 -112l-18 -105h-119zM446 1044l21 107q20 115 78.5 184.5t142.5 102.5l14 -123q-39 -16 -71.5 -54t-46.5 -112l-19 -105h-119z" />
<glyph unicode="&#x201d;" horiz-adv-x="643" d="M176 1163q39 16 71 54t46 112l18 105h119l-18 -107q-20 -115 -79 -184.5t-145 -102.5zM444 1163q39 16 71 54t46 112l19 105h118l-18 -107q-20 -115 -78.5 -184.5t-144.5 -102.5z" />
<glyph unicode="&#x2022;" horiz-adv-x="610" d="M76 506q8 43 30.5 82t56.5 68.5t76 46t85 16.5t78.5 -16.5t60 -46t35 -68.5t2.5 -82t-32 -82t-57.5 -68.5t-75.5 -46t-85 -16.5t-79 16.5t-59.5 46t-33.5 68.5t-2 82z" />
<glyph unicode="&#x2026;" horiz-adv-x="1032" d="M12 10l33 180h141l-32 -180h-142zM342 10l33 180h141l-33 -180h-141zM672 10l33 180h141l-33 -180h-141z" />
<glyph unicode="&#x202f;" horiz-adv-x="389" />
<glyph unicode="&#x205f;" horiz-adv-x="487" />
<glyph unicode="&#x20ac;" horiz-adv-x="954" d="M72 512l14 90h147l29 156h-147l14 90h147l41 231q10 59 41 110.5t75 89.5t97.5 59.5t110.5 21.5h68q55 0 101 -21.5t75.5 -59.5t41 -89t1.5 -111l-8 -47h-105l8 47q14 82 -35 126t-124 44q-43 0 -82 -8t-72 -28.5t-56.5 -52.5t-31.5 -81l-41 -231h313l-14 -90h-313 l-29 -156h313l-14 -90h-313l-41 -225q-12 -74 26.5 -126t110.5 -52h65q35 0 68 14t60.5 37.5t46 56.5t24.5 70l8 47h105l-9 -53q-10 -59 -40.5 -110.5t-73.5 -89.5t-96.5 -59.5t-110.5 -21.5h-68q-57 0 -102 21.5t-76 59.5t-42 89t-1 111l41 231h-147z" />
<glyph unicode="&#x2122;" horiz-adv-x="1144" d="M254 1384l8 50h348l-8 -50h-147l-105 -591h-49l105 591h-152zM608 793l113 641h80l49 -400h14l191 400h80l-113 -641h-49l94 532h-12l-168 -344h-80l-45 344h-12l-95 -532h-47z" />
<glyph unicode="&#xe000;" horiz-adv-x="1024" d="M0 0v1024h1024v-1024h-1024z" />
<glyph unicode="&#xfb01;" horiz-adv-x="952" d="M109 924l18 100h182l27 160q27 143 106.5 205.5t182.5 62.5h37l-21 -111h-27q-57 0 -106 -30.5t-64 -112.5l-30 -174h479l-180 -1024h-109l162 924h-369l-161 -924h-109l162 924h-180zM827 1274l29 160h109l-29 -160h-109z" />
<glyph unicode="&#xfb02;" horiz-adv-x="997" d="M109 924l18 100h182l27 160q27 143 106.5 205.5t182.5 62.5h37l-21 -111h-27q-57 0 -106 -30.5t-64 -112.5l-30 -174h370l72 410h107l-207 -1174q-8 -43 -2 -70.5t23.5 -45t42 -24.5t52.5 -7h27l-18 -111h-37q-51 0 -92 15.5t-68 47t-36 82.5t3 123l115 654h-369 l-161 -924h-109l162 924h-180z" />
</font>
</defs>
</svg>
