<svg width="135px" height="29px" viewBox="15 16 135 29" version="1.1" xmlns="http://www.w3.org/2000/svg" xmlns:xlink="http://www.w3.org/1999/xlink">
    <!-- Generator: Sketch Beta 39.1 (31721) - http://www.bohemiancoding.com/sketch -->
    <desc>Created with Sketch Beta.</desc>
    <defs>
        <polygon id="path-1" points="7.874 9.09 7.874 0.037 0.1984 0.037 0.1984 9.09 7.874 9.09"></polygon>
    </defs>
    <g id="Page-1" stroke="none" stroke-width="1" fill="none" fill-rule="evenodd" transform="translate(15.000000, 16.000000)">
        <path d="M15.6048,7.5081 C15.3318,7.4451 15.0508,7.5781 14.9268,7.8301 L12.3608,13.0541 C12.2688,13.2421 12.2808,13.4631 12.3898,13.6401 C12.4998,13.8161 12.6948,13.9241 12.9018,13.9241 L15.4688,13.9241 C15.6278,13.9241 15.7828,13.8601 15.8948,13.7481 C16.0068,13.6351 16.0718,13.4791 16.0718,13.3211 L16.0718,8.0961 C16.0718,7.8151 15.8788,7.5721 15.6048,7.5081" id="Fill-1" fill="#00BF9A"></path>
        <path d="M20.2939,1.3738 L20.2939,13.3218 C20.2939,13.4798 20.3579,13.6348 20.4699,13.7478 C20.5829,13.8598 20.7379,13.9238 20.8969,13.9238 L28.3839,13.9238 C28.2809,8.3838 25.0039,3.6198 20.2939,1.3738" id="Fill-3" fill="#00BF9A"></path>
        <path d="M27.8289,18.1468 L20.8969,18.1468 C20.7379,18.1468 20.5829,18.2108 20.4699,18.3228 C20.3579,18.4348 20.2939,18.5908 20.2939,18.7498 L20.2939,27.0138 C23.9189,25.2858 26.6949,22.0648 27.8289,18.1468" id="Fill-5" fill="#00BF9A"></path>
        <path d="M15.4684,18.1468 L10.2364,18.1468 C10.0054,18.1468 9.7964,18.2758 9.6944,18.4828 L6.0794,25.8428 C8.3794,27.4478 11.1754,28.3888 14.1924,28.3888 C14.8294,28.3888 15.4574,28.3468 16.0724,28.2648 L16.0724,18.7498 C16.0724,18.5908 16.0074,18.4348 15.8954,18.3228 C15.7834,18.2108 15.6274,18.1468 15.4684,18.1468" id="Fill-7" fill="#00BF9A"></path>
        <path d="M4.1877,18.1468 L0.5547,18.1468 C1.0457,19.8408 1.8427,21.4048 2.8837,22.7738 L4.7297,19.0158 C4.8207,18.8288 4.8097,18.6068 4.6997,18.4308 C4.5907,18.2548 4.3957,18.1468 4.1877,18.1468" id="Fill-9" fill="#00BF9A"></path>
        <path d="M0,13.9243 L6.854,13.9243 C7.085,13.9243 7.294,13.7943 7.395,13.5863 L14.069,0.0003 C6.376,0.0653 0.143,6.2503 0,13.9243" id="Fill-11" fill="#00BF9A"></path>
        <path d="M43.8567,16.1907 L47.0687,16.1907 L45.4797,11.2677 L43.8567,16.1907 Z M44.2097,8.7797 L46.8217,8.7797 L50.5797,20.2317 L48.3737,20.2317 L47.5797,17.7607 L43.3277,17.7607 L42.5157,20.2317 L40.3097,20.2317 L44.2097,8.7797 Z" id="Fill-13" fill="#00BF9A"></path>
        <path d="M56.6148,18.5905 C56.8618,18.5905 57.1178,18.5375 57.3828,18.4315 C57.6468,18.3255 57.8858,18.1615 58.0968,17.9375 C58.5678,17.4435 58.8028,16.7815 58.8028,15.9525 C58.8028,15.1235 58.5998,14.4735 58.1938,14.0025 C57.7878,13.5325 57.2938,13.2965 56.7118,13.2965 C56.1298,13.2965 55.6528,13.4645 55.2828,13.7995 C54.9118,14.1345 54.7148,14.6145 54.6918,15.2375 L54.6918,16.7725 C54.6918,17.3265 54.8858,17.7735 55.2738,18.1145 C55.6378,18.4315 56.0858,18.5905 56.6148,18.5905 L56.6148,18.5905 Z M54.5148,12.8205 C55.0558,11.8915 55.8798,11.4265 56.9858,11.4265 C58.0438,11.4265 58.9498,11.8265 59.7028,12.6265 C60.5028,13.4735 60.9028,14.5795 60.9028,15.9435 C60.9028,17.3205 60.4968,18.4315 59.6848,19.2785 C58.9318,20.0785 58.0318,20.4785 56.9858,20.4785 C55.9378,20.4785 55.1738,20.1675 54.6918,19.5435 L54.6918,24.4135 L52.6088,24.4135 L52.6088,11.6555 L54.3208,11.6555 L54.5148,12.8205 Z" id="Fill-15" fill="#00BF9A"></path>
        <path d="M68.8082,15.9437 C68.8082,15.0377 68.6312,14.3587 68.2792,13.9057 C67.9262,13.4527 67.4342,13.2257 66.8052,13.2257 C66.1762,13.2257 65.6612,13.4527 65.2612,13.9057 C64.8612,14.3587 64.6612,15.0377 64.6612,15.9437 C64.6612,16.8497 64.8402,17.5287 65.1992,17.9817 C65.5582,18.4347 66.0492,18.6617 66.6732,18.6617 C67.2962,18.6617 67.8082,18.4347 68.2082,17.9817 C68.6082,17.5287 68.8082,16.8497 68.8082,15.9437 M66.7432,11.4267 C67.3202,11.4267 67.8612,11.5177 68.3672,11.6997 C68.8732,11.8827 69.3082,12.1617 69.6732,12.5377 C70.4842,13.3617 70.8902,14.5027 70.8902,15.9617 C70.8902,17.3967 70.4842,18.5257 69.6732,19.3497 C68.9432,20.1027 67.9672,20.4787 66.7432,20.4787 C65.5202,20.4787 64.5312,20.1027 63.7792,19.3497 C62.9672,18.5377 62.5612,17.4087 62.5612,15.9617 C62.5612,14.4907 62.9672,13.3497 63.7792,12.5377 C64.5202,11.7967 65.5082,11.4267 66.7432,11.4267" id="Fill-17" fill="#00BF9A"></path>
        <path d="M74.5254,17.62 C74.5484,18.432 75.1434,18.838 76.3074,18.838 C76.7544,18.838 77.1224,18.741 77.4104,18.546 C77.6984,18.352 77.8434,18.126 77.8434,17.867 C77.8434,17.608 77.7544,17.408 77.5784,17.267 C77.4014,17.126 77.1254,16.997 76.7484,16.879 L74.8784,16.208 C73.4904,15.726 72.7964,14.938 72.7964,13.844 C72.7964,13.114 73.1224,12.529 73.7754,12.088 C74.4284,11.647 75.3044,11.426 76.4044,11.426 C77.5044,11.426 78.3514,11.667 78.9454,12.15 C79.5394,12.632 79.8484,13.238 79.8724,13.967 L77.9134,13.967 C77.8894,13.685 77.7544,13.462 77.5074,13.297 C77.2604,13.132 76.9074,13.05 76.4484,13.05 C75.9904,13.05 75.6344,13.141 75.3814,13.323 C75.1284,13.506 75.0014,13.714 75.0014,13.95 C75.0014,14.362 75.3484,14.667 76.0434,14.867 L78.0724,15.626 C78.7424,15.85 79.2574,16.135 79.6164,16.482 C79.9754,16.829 80.1544,17.279 80.1544,17.832 C80.1544,18.538 79.8194,19.149 79.1484,19.667 C78.4544,20.208 77.5364,20.479 76.3964,20.479 C75.2544,20.479 74.3374,20.229 73.6434,19.729 C72.9484,19.229 72.5964,18.526 72.5844,17.62 L74.5254,17.62 Z" id="Fill-19" fill="#00BF9A"></path>
        <path d="M87.76,20.02 C86.984,20.326 86.372,20.479 85.925,20.479 C85.478,20.479 85.087,20.426 84.751,20.32 C84.416,20.214 84.119,20.055 83.86,19.843 C83.319,19.361 83.048,18.697 83.048,17.849 L83.048,13.05 L81.849,13.05 L81.849,11.656 L83.048,11.656 L83.048,9.397 L85.131,9.397 L85.131,11.656 L87.46,11.656 L87.46,13.05 L85.131,13.05 L85.131,17.779 C85.131,18.485 85.466,18.838 86.137,18.838 C86.478,18.838 86.919,18.744 87.46,18.555 L87.76,20.02 Z" id="Fill-21" fill="#00BF9A"></path>
        <path d="M92.3302,13.3497 C92.8482,12.1147 93.6242,11.4967 94.6592,11.4967 C94.8592,11.4967 95.1122,11.5387 95.4182,11.6207 L95.3832,13.7027 C95.0532,13.6317 94.7302,13.5967 94.4122,13.5967 C93.0242,13.5967 92.3302,14.5557 92.3302,16.4727 L92.3302,20.2317 L90.2482,20.2317 L90.2482,11.6377 L92.3302,11.6377 L92.3302,13.3497 Z" id="Fill-23" fill="#00BF9A"></path>
        <path d="M103.0236,15.9437 C103.0236,15.0377 102.8466,14.3587 102.4946,13.9057 C102.1416,13.4527 101.6496,13.2257 101.0206,13.2257 C100.3916,13.2257 99.8766,13.4527 99.4766,13.9057 C99.0766,14.3587 98.8766,15.0377 98.8766,15.9437 C98.8766,16.8497 99.0556,17.5287 99.4146,17.9817 C99.7736,18.4347 100.2646,18.6617 100.8886,18.6617 C101.5116,18.6617 102.0236,18.4347 102.4236,17.9817 C102.8236,17.5287 103.0236,16.8497 103.0236,15.9437 M100.9586,11.4267 C101.5356,11.4267 102.0766,11.5177 102.5826,11.6997 C103.0886,11.8827 103.5236,12.1617 103.8886,12.5377 C104.6996,13.3617 105.1056,14.5027 105.1056,15.9617 C105.1056,17.3967 104.6996,18.5257 103.8886,19.3497 C103.1586,20.1027 102.1826,20.4787 100.9586,20.4787 C99.7356,20.4787 98.7466,20.1027 97.9946,19.3497 C97.1826,18.5377 96.7766,17.4087 96.7766,15.9617 C96.7766,14.4907 97.1826,13.3497 97.9946,12.5377 C98.7356,11.7967 99.7236,11.4267 100.9586,11.4267" id="Fill-25" fill="#00BF9A"></path>
        <path d="M111.1408,18.5905 C111.3878,18.5905 111.6438,18.5375 111.9088,18.4315 C112.1728,18.3255 112.4118,18.1615 112.6228,17.9375 C113.0938,17.4435 113.3288,16.7815 113.3288,15.9525 C113.3288,15.1235 113.1258,14.4735 112.7198,14.0025 C112.3138,13.5325 111.8198,13.2965 111.2378,13.2965 C110.6558,13.2965 110.1788,13.4645 109.8088,13.7995 C109.4378,14.1345 109.2408,14.6145 109.2178,15.2375 L109.2178,16.7725 C109.2178,17.3265 109.4118,17.7735 109.7998,18.1145 C110.1638,18.4315 110.6118,18.5905 111.1408,18.5905 L111.1408,18.5905 Z M109.0408,12.8205 C109.5818,11.8915 110.4058,11.4265 111.5118,11.4265 C112.5698,11.4265 113.4758,11.8265 114.2288,12.6265 C115.0288,13.4735 115.4288,14.5795 115.4288,15.9435 C115.4288,17.3205 115.0228,18.4315 114.2108,19.2785 C113.4578,20.0785 112.5578,20.4785 111.5118,20.4785 C110.4638,20.4785 109.6998,20.1675 109.2178,19.5435 L109.2178,24.4135 L107.1348,24.4135 L107.1348,11.6555 L108.8468,11.6555 L109.0408,12.8205 Z" id="Fill-27" fill="#00BF9A"></path>
        <path d="M119.5401,13.0497 C120.1281,11.9677 120.9871,11.4267 122.1161,11.4267 C123.2461,11.4267 124.0781,11.7737 124.6131,12.4677 C125.1491,13.1617 125.4161,14.0787 125.4161,15.2197 L125.4161,20.2317 L123.3341,20.2317 L123.3341,15.2197 C123.3341,14.5847 123.1811,14.1057 122.8751,13.7817 C122.5691,13.4587 122.1401,13.2967 121.5871,13.2967 C121.0341,13.2967 120.5601,13.5437 120.1661,14.0377 C119.7721,14.5317 119.5631,15.2727 119.5401,16.2617 L119.5401,20.2317 L117.4581,20.2317 L117.4581,8.1267 L119.5401,8.1267 L119.5401,13.0497 Z" id="Fill-29" fill="#00BF9A"></path>
        <g id="Group-33" transform="translate(127.000000, 11.388900)">
            <mask id="mask-2" fill="white">
                <use xlink:href="#path-1"></use>
            </mask>
            <g id="Clip-32"></g>
            <path d="M4.2394,1.696 C3.6514,1.696 3.1924,1.887 2.8634,2.27 C2.5334,2.652 2.3394,3.143 2.2804,3.743 L5.9334,3.743 C5.9334,2.814 5.6394,2.19 5.0514,1.873 C4.8274,1.755 4.5574,1.696 4.2394,1.696 M7.6544,2.596 C7.8004,3.09 7.8744,3.543 7.8744,3.955 C7.8744,4.367 7.8504,4.737 7.8034,5.067 L2.2634,5.067 C2.2864,5.761 2.4574,6.325 2.7744,6.761 C3.0924,7.196 3.5744,7.413 4.2214,7.413 C5.0804,7.413 5.5924,7.037 5.7574,6.284 L7.8564,6.284 C7.7154,7.143 7.3214,7.819 6.6744,8.313 C6.0044,8.831 5.1864,9.09 4.2214,9.09 C3.0924,9.09 2.1454,8.678 1.3804,7.855 C0.5924,6.996 0.1984,5.896 0.1984,4.555 C0.1984,3.178 0.5924,2.073 1.3804,1.237 C2.1334,0.437 3.0804,0.037 4.2214,0.037 C5.4094,0.037 6.3334,0.455 6.9924,1.29 C7.2864,1.667 7.5064,2.102 7.6544,2.596" id="Fill-31" fill="#00BF9A" mask="url(#mask-2)"></path>
        </g>
    </g>
</svg>