<?xml version="1.0" encoding="UTF-8" standalone="no"?>
<svg width="135px" height="135px" viewBox="0 0 135 135" version="1.1" xmlns="http://www.w3.org/2000/svg" xmlns:xlink="http://www.w3.org/1999/xlink">
    <!-- Generator: Sketch 41.1 (35376) - http://www.bohemiancoding.com/sketch -->
    <title>Page 1</title>
    <desc>Created with Sketch.</desc>
    <defs></defs>
    <g id="Page-1" stroke="none" stroke-width="1" fill="none" fill-rule="evenodd">
        <g id="Support-Copy-2" transform="translate(-750.000000, -297.000000)" fill="#6666FF">
            <g id="Page-1" transform="translate(750.000000, 297.000000)">
                <g id="Group-3">
                    <path d="M116.45287,126.818182 C114.043414,126.818182 111.680167,125.829052 109.966483,124.10571 L75.5211693,89.4675906 C74.6405627,88.582021 73.552677,86.9224078 73.0892694,85.7593509 L70.8395639,80.1020613 C70.6085202,79.5192052 70.1503936,79.0584965 69.5721242,78.8261507 C69.5721242,78.8261507 69.0387434,78.6123925 68.3825793,78.3481821 C67.7264152,78.0852993 66.6187257,77.6391953 65.9084314,77.3537418 C65.1981371,77.0682884 65.3367633,76.1189896 66.2173698,75.23342 L73.3678421,68.0413202 C74.2484486,67.1557506 75.3363343,67.3801303 75.799742,68.5431872 L76.9417579,71.4149819 C77.1728016,71.9978381 77.6309283,72.4585467 78.2091976,72.6908925 L83.8361017,74.9532773 C84.9913202,75.4192967 86.6429525,76.5133137 87.5235591,77.3988833 L122.287053,112.356976 C123.922843,114.003312 124.80609,116.192674 124.771763,118.520116 C124.736116,120.848885 123.786857,123.011693 122.098257,124.612888 C120.595813,126.034844 118.590354,126.818182 116.45287,126.818182 M37.5641489,107.344086 C40.0333108,113.743798 38.5004508,121.004648 33.65977,125.843879 C30.393414,129.110593 26.0476356,130.909091 21.4249793,130.909091 C20.3094425,130.909091 19.199256,130.802117 18.1118082,130.590844 C16.8732145,130.35149 16.6271009,129.288437 17.5192629,128.396542 L21.9426205,123.97451 C22.5258029,123.39284 22.7531905,122.545072 22.5405162,121.749454 L20.9193763,115.701419 C20.7053645,114.905801 20.0847301,114.285353 19.2888734,114.071405 L13.2403632,112.452088 C12.4445066,112.242152 11.5964845,112.466797 11.0133022,113.048467 L6.59128211,117.4705 C5.69912016,118.362394 4.63708629,118.115017 4.40033566,116.876795 C3.34097694,111.340897 5.02097007,105.455998 9.14471115,101.33483 C12.4124048,98.0681153 16.7608583,96.2696173 21.3848521,96.2696173 C23.5396841,96.2696173 25.6477009,96.661409 27.6500494,97.4316208 C28.5007466,97.7578911 29.4637999,97.555978 30.1085107,96.9114604 L58.8596669,68.1689209 C59.7518288,67.2770264 61.1977465,67.2770264 62.0899084,68.1689209 L62.7399694,68.8187871 C63.6321314,69.7106817 63.6321314,71.156166 62.7399694,72.0480606 L58.2978857,76.4901502 C57.7494803,77.0370541 57.5140673,77.823312 57.6705634,78.5828264 C57.8270596,79.3410036 58.3527263,79.9708122 59.0723411,80.2583045 C59.0723411,80.2583045 59.6555235,80.4909726 60.3751384,80.7784649 C61.0934157,81.0659572 60.9529704,82.022036 60.062146,82.9139306 L38.0844653,104.885025 C37.4397545,105.530879 37.2364433,106.493644 37.5641489,107.344086 M89.769799,35.0450068 C85.8264759,26.7773956 87.5183928,16.8791344 93.9794174,10.4143871 C98.057233,6.33641651 103.479975,4.09090909 109.249707,4.09090909 C110.56101,4.09090909 111.873658,4.21199697 113.166132,4.44879104 C114.414223,4.67751259 114.672449,5.70675954 113.776728,6.60415526 L104.625852,15.7570534 C104.040809,16.3436569 103.812171,17.1953083 104.026015,17.9958337 L106.424018,26.9509549 C106.639206,27.7514803 107.263252,28.377101 108.063483,28.591023 L117.013965,30.9899083 C117.814196,31.2024848 118.665534,30.9737633 119.251922,30.3885052 L128.404143,21.2342617 C129.301209,20.336866 130.331422,20.5951868 130.558715,21.8437373 C131.810841,28.7228742 129.680478,35.9504751 124.592623,41.0402022 C120.516152,45.1181728 115.093411,47.3623348 109.325023,47.3623348 C106.10258,47.3623348 102.868033,46.6317713 99.9724077,45.250024 C99.0861014,44.8262165 98.0303345,45.0091937 97.3363527,45.7034309 L80.9578438,62.0879661 C80.0607781,62.9853618 79.3304833,63.7024711 79.3251036,63.6917078 L79.317034,63.6715265 L78.2854758,61.0910093 C78.0689427,60.5488046 77.6587403,60.1155791 77.1449785,59.8653308 C76.9741729,59.7832602 76.791263,59.7200254 76.6002835,59.6810082 C75.8350206,59.5249394 75.046894,59.7630789 74.4954743,60.313356 L70.028975,64.7814987 C69.1332543,65.6788944 67.6780444,65.6788944 66.7809787,64.7814987 L66.1273447,64.1276241 C65.230279,63.2302284 65.230279,61.7758285 66.1273447,60.8784328 L89.3165589,37.6820317 C90.0105407,36.9877945 90.1921057,35.9302937 89.769799,35.0450068 M88.3168963,71.573841 L83.0928306,69.4840743 C81.9206273,69.0158167 80.9638632,68.6171288 80.9544963,68.5957228 C80.9464675,68.5729788 81.6623679,67.8317939 82.5549017,66.9394288 L97.5192273,51.9765921 C98.4104229,51.0842269 100.081749,50.752433 101.290082,51.1176739 C103.756259,51.8628724 106.338853,52.2495194 108.914756,52.2495194 C115.886422,52.2495194 122.439252,49.537639 127.366253,44.6115692 C135.158193,36.8197629 137.212225,24.884546 132.475239,14.9133352 C132.154087,14.2363685 131.523827,13.7574079 130.785179,13.6303094 C130.04653,13.5045488 129.291824,13.7413533 128.761924,14.2724912 L118.087648,24.9447506 C117.195114,25.8371157 115.483644,26.2946703 114.264606,25.9682279 L112.345725,25.4544824 C111.126687,25.12804 109.874196,23.8757854 109.547692,22.6569778 L109.032512,20.7371217 C108.706007,19.5183141 109.164987,17.8071671 110.05752,16.9148019 L120.730458,6.24254256 C121.260358,5.71274255 121.499884,4.95951678 121.372761,4.22100767 C121.245639,3.48249856 120.766588,2.85235764 120.089493,2.53126672 C116.60366,0.874972747 112.713712,0 108.839821,0 C101.866817,0 95.3139864,2.71321824 90.3869859,7.63928805 C83.514342,14.5079579 81.1057052,24.5888748 83.8742994,33.7118705 C84.2409475,34.919975 83.9090909,36.5896478 83.0165571,37.482013 L62.6756187,57.8191089 C61.7830849,58.711474 60.3352265,58.711474 59.4440309,57.8191089 L21.8171086,20.2006323 C20.9245748,19.3082671 20.7051212,18.0814322 21.3260143,17.4619943 C21.9455692,16.8412186 21.6003313,15.7682397 20.5525742,15.0645155 L10.8417532,8.54101837 C9.7939962,7.83729412 8.22035345,7.9898123 7.32781967,8.88217747 L7.19133025,9.01864111 C6.30013461,9.91100628 6.14624947,11.4830139 6.85010669,12.530573 L13.3748364,22.2408975 C14.0786936,23.2871187 15.1518751,23.6336293 15.7727682,23.0128535 C16.3936612,22.3934157 17.6193898,22.6128278 18.5119235,23.505193 L56.1375077,61.1236696 C57.0300415,62.0160347 57.0300415,63.4636196 56.1375077,64.3546469 L30.0104883,90.4767308 C29.1179546,91.369096 27.4171893,91.7784869 26.1794176,91.534993 C24.7797319,91.2593899 23.3519455,91.1202505 21.9081015,91.1202505 C16.0497614,91.1202505 10.5420118,93.399996 6.40183261,97.5393931 C-0.47750192,104.417428 -1.98959062,115.167284 2.72866138,123.681545 C3.07925186,124.3157 3.70683558,124.747835 4.42407411,124.848176 C5.14532704,124.949854 5.86390371,124.70636 6.37506998,124.195291 L12.2374245,118.335381 C13.1299583,117.443016 14.6313419,116.927933 15.5934585,117.184806 C16.554237,117.443016 17.5417781,118.430371 17.7986994,119.390968 C18.0556207,120.352903 17.5417781,121.855341 16.6492444,122.747706 L10.7868898,128.607615 C10.2757236,129.118685 10.0335218,129.841139 10.1338816,130.558242 C10.2342415,131.275345 10.666458,131.902811 11.2993942,132.254673 C14.5430252,134.050106 18.2242253,135 21.9482455,135 C27.8039093,135 33.3103209,132.720254 37.4491619,128.580857 C42.6732276,123.357779 44.8557203,115.908469 43.4533583,108.805671 C43.2084803,107.568133 43.6179485,105.869027 44.5104823,104.976661 L65.2608889,84.2301746 C66.1520846,83.3378094 66.8947476,82.6220443 66.9161577,82.6314094 C66.938906,82.6407746 67.3376692,83.5973579 67.8060152,84.7693398 L69.8961768,89.9910808 C70.0112561,90.2827384 70.1852132,90.5449626 70.4060049,90.7657126 L107.267516,127.62026 C109.862153,130.214407 113.447008,131.703467 117.102783,131.703467 C120.44945,131.703467 123.604765,130.468604 125.985301,128.22632 C128.614729,125.751244 130.090688,122.403871 130.144214,118.800963 C130.199077,115.198056 128.824816,111.810546 126.275675,109.261887 L89.0916745,72.0849107 C88.8708828,71.8641607 88.6072709,71.6902365 88.3168963,71.573841" id="Fill-1"></path>
                </g>
                <path d="M81.8864254,80.6668728 C80.9973069,79.7777091 79.5572785,79.7777091 78.6668389,80.6668728 C77.7777204,81.5560364 77.7777204,82.996138 78.6668389,83.8866229 L113.113905,118.332797 C113.557804,118.778039 114.140421,119 114.723038,119 C115.305655,119 115.888272,118.778039 116.33217,118.332797 C117.22261,117.443633 117.22261,116.003532 116.33217,115.114368 L81.8864254,80.6668728 Z" id="Fill-4"></path>
            </g>
        </g>
    </g>
</svg>