<?xml version="1.0" encoding="UTF-8" standalone="no"?>
<svg width="135px" height="135px" viewBox="0 0 135 135" version="1.1" xmlns="http://www.w3.org/2000/svg" xmlns:xlink="http://www.w3.org/1999/xlink">
    <!-- Generator: Sketch 41.1 (35376) - http://www.bohemiancoding.com/sketch -->
    <title>Group</title>
    <desc>Created with Sketch.</desc>
    <defs></defs>
    <g id="Page-1" stroke="none" stroke-width="1" fill="none" fill-rule="evenodd">
        <g id="Support-Copy-2" transform="translate(-227.000000, -297.000000)" fill="#CC9300">
            <g id="Group" transform="translate(227.000000, 297.000000)">
                <path d="M67.1361,8.1052 C64.6041,8.1052 62.0581,8.2672 59.5061,8.5952 C43.9011,10.6022 30.0121,18.5642 20.3961,31.0172 C0.5471,56.7222 5.3111,93.7852 31.0171,113.6342 C43.4691,123.2512 58.9201,127.4402 74.5251,125.4352 C90.1291,123.4282 104.0191,115.4662 113.6341,103.0132 C123.2501,90.5622 127.4411,75.1102 125.4351,59.5052 C123.4291,43.9012 115.4661,30.0122 103.0141,20.3962 C92.5991,12.3532 80.0821,8.1052 67.1361,8.1052 M66.8851,130.9252 C52.8381,130.9262 39.2611,126.3182 27.9611,117.5912 C0.0731,96.0572 -5.0949,55.8482 16.4391,27.9602 C26.8711,14.4522 41.9391,5.8132 58.8681,3.6362 C75.7971,1.4592 92.5601,6.0062 106.0701,16.4392 C119.5791,26.8712 128.2181,41.9392 130.3941,58.8692 C132.5701,75.7972 128.0241,92.5602 117.5921,106.0702 C107.1601,119.5792 92.0921,128.2172 75.1631,130.3942 C72.3951,130.7502 69.6301,130.9252 66.8851,130.9252" id="Fill-1"></path>
                <path d="M29.8915,14.3669 C21.0885,14.3669 13.1485,15.7819 8.4855,21.8199 C1.7465,30.5479 6.0845,43.4589 10.2805,55.9439 C12.3895,62.2199 14.3815,68.1459 15.0935,73.6899 C15.8065,79.2329 15.3785,85.4709 14.9255,92.0759 C14.0235,105.2179 13.0915,118.8049 21.8195,125.5459 C30.5475,132.2849 43.4585,127.9449 55.9455,123.7509 C62.2195,121.6409 68.1465,119.6499 73.6895,118.9369 C79.2335,118.2229 85.4715,118.6519 92.0755,119.1059 C105.2175,120.0059 118.8055,120.9399 125.5455,112.2119 C132.2845,103.4839 127.9465,90.5729 123.7505,78.0869 C121.6415,71.8109 119.6495,65.8849 118.9375,60.3409 C118.2245,54.7979 118.6525,48.5589 119.1055,41.9549 C120.0075,28.8129 120.9395,15.2249 112.2115,8.4849 C103.4845,1.7449 90.5735,6.0839 78.0875,10.2809 C71.8125,12.3889 65.8845,14.3819 60.3415,15.0939 C54.7975,15.8049 48.5595,15.3779 41.9545,14.9259 C37.9045,14.6469 33.8125,14.3669 29.8915,14.3669 M33.1165,134.0309 C27.9445,134.0319 23.0435,132.8079 18.7635,129.5029 C7.9205,121.1299 8.9915,105.5129 9.9375,91.7329 C10.3735,85.3819 10.7845,79.3829 10.1345,74.3269 C9.4845,69.2719 7.5695,63.5719 5.5415,57.5369 C1.1415,44.4449 -3.8445,29.6069 4.5285,18.7629 C12.9005,7.9209 28.5175,8.9899 42.2965,9.9369 C48.6485,10.3729 54.6485,10.7819 59.7035,10.1349 C64.7595,9.4849 70.4595,7.5689 76.4945,5.5409 C89.5865,1.1419 104.4255,-3.8451 115.2675,4.5279 C126.1105,12.9009 125.0395,28.5179 124.0935,42.2979 C123.6585,48.6489 123.2465,54.6479 123.8965,59.7039 C124.5465,64.7589 126.4615,70.4589 128.4895,76.4939 C132.8895,89.5859 137.8755,104.4249 129.5035,115.2679 C121.1295,126.1099 105.5125,125.0379 91.7325,124.0949 C85.3815,123.6589 79.3825,123.2479 74.3275,123.8959 C69.2725,124.5469 63.5725,126.4619 57.5375,128.4899 C49.6135,131.1529 41.0475,134.0309 33.1165,134.0309" id="Fill-3"></path>
                <path d="M67.0711,39.7156 C65.8981,39.7156 64.7181,39.7906 63.5351,39.9436 C56.3041,40.8726 49.8681,44.5626 45.4121,50.3336 C36.2131,62.2456 38.4211,79.4206 50.3331,88.6196 C62.2451,97.8176 79.4211,95.6096 88.6191,83.6966 C93.0751,77.9276 95.0171,70.7676 94.0881,63.5356 C93.1581,56.3046 89.4681,49.8676 83.6981,45.4116 L83.6981,45.4116 C78.8711,41.6846 73.0711,39.7156 67.0711,39.7156 M66.9791,99.2976 C60.0861,99.2976 53.1431,97.1066 47.2771,92.5766 C33.1831,81.6936 30.5711,61.3716 41.4541,47.2776 C46.7261,40.4496 54.3421,36.0836 62.8981,34.9846 C71.4541,33.8876 79.9261,36.1826 86.7541,41.4546 C93.5811,46.7266 97.9471,54.3416 99.0471,62.8986 C100.1471,71.4536 97.8491,79.9266 92.5771,86.7536 C86.2221,94.9826 76.6501,99.2976 66.9791,99.2976" id="Fill-6"></path>
                <path d="M90.0376,50.6042 C89.3156,50.6042 88.6006,50.2932 88.1056,49.6932 C86.7916,48.0962 85.3086,46.6562 83.6976,45.4122 C82.0856,44.1672 80.3176,43.0962 78.4416,42.2302 C77.1916,41.6522 76.6436,40.1712 77.2176,38.9192 L90.3836,10.1702 C90.6606,9.5672 91.1656,9.0982 91.7876,8.8682 C92.4106,8.6352 93.0996,8.6642 93.7026,8.9412 C98.0696,10.9522 102.2306,13.4742 106.0696,16.4392 C109.9076,19.4022 113.4016,22.7902 116.4526,26.5082 C116.8736,27.0222 117.0736,27.6812 117.0076,28.3422 C116.9416,29.0022 116.6156,29.6102 116.1016,30.0302 L91.6186,50.0402 C91.1536,50.4192 90.5936,50.6042 90.0376,50.6042" id="Fill-8"></path>
                <path d="M40.0261,56.8962 C39.6781,56.8962 39.3241,56.8232 38.9871,56.6682 L10.2401,43.5022 C9.6351,43.2252 9.1651,42.7182 8.9351,42.0942 C8.7051,41.4702 8.7331,40.7812 9.0131,40.1772 C11.0141,35.8612 13.5131,31.7502 16.4391,27.9602 C19.4541,24.0562 22.9121,20.5052 26.7171,17.4102 C27.7861,16.5412 29.3581,16.7012 30.2311,17.7672 L50.2391,42.2502 C50.6601,42.7652 50.8581,43.4262 50.7901,44.0882 C50.7221,44.7502 50.3931,45.3572 49.8751,45.7762 C48.2071,47.1252 46.7051,48.6582 45.4121,50.3332 C44.1971,51.9062 43.1471,53.6292 42.2911,55.4562 C41.8661,56.3632 40.9661,56.8962 40.0261,56.8962" id="Fill-10"></path>
                <path d="M41.4625,125.3601 C41.1065,125.3601 40.7505,125.2841 40.4205,125.1321 C36.0165,123.1121 31.8245,120.5751 27.9605,117.5911 C24.0965,114.6081 20.5815,111.1941 17.5145,107.4451 C17.0945,106.9311 16.8955,106.2721 16.9615,105.6131 C17.0275,104.9531 17.3535,104.3461 17.8675,103.9261 L42.3515,83.9171 C43.4205,83.0421 44.9945,83.2021 45.8685,84.2691 C47.1985,85.8951 48.7005,87.3591 50.3335,88.6201 C51.9675,89.8811 53.7635,90.9641 55.6705,91.8391 C56.9255,92.4141 57.4775,93.8971 56.9025,95.1521 L43.7355,123.9011 C43.4595,124.5041 42.9545,124.9721 42.3325,125.2041 C42.0515,125.3081 41.7565,125.3601 41.4625,125.3601" id="Fill-12"></path>
                <path d="M106.0604,116.9167 C105.9794,116.9167 105.8974,116.9127 105.8164,116.9047 C105.1544,116.8397 104.5454,116.5137 104.1244,115.9987 L84.1164,91.5167 C83.2474,90.4537 83.3984,88.8907 84.4524,88.0127 C86.0024,86.7227 87.4044,85.2707 88.6194,83.6967 C89.9134,82.0217 91.0174,80.1827 91.9004,78.2267 C92.1744,77.6197 92.6784,77.1477 93.3014,76.9147 C93.9244,76.6817 94.6144,76.7067 95.2194,76.9817 L123.9664,90.1477 C125.2204,90.7227 125.7724,92.2027 125.2004,93.4577 C123.1684,97.9207 120.6084,102.1637 117.5914,106.0697 C114.6654,109.8587 111.3214,113.3167 107.6514,116.3457 C107.2014,116.7167 106.6384,116.9167 106.0604,116.9167" id="Fill-14"></path>
            </g>
        </g>
    </g>
</svg>