<?xml version="1.0" encoding="UTF-8" standalone="no"?>
<svg width="108px" height="135px" viewBox="0 0 108 135" version="1.1" xmlns="http://www.w3.org/2000/svg" xmlns:xlink="http://www.w3.org/1999/xlink">
    <!-- Generator: Sketch 41.1 (35376) - http://www.bohemiancoding.com/sketch -->
    <title>Page 1</title>
    <desc>Created with Sketch.</desc>
    <defs>
        <polygon id="path-1" points="107.522124 0 107.522124 135 0 135 0 1.86086059e-14 107.522124 0"></polygon>
    </defs>
    <g id="Page-1" stroke="none" stroke-width="1" fill="none" fill-rule="evenodd">
        <g id="Support-Copy-2" transform="translate(-1055.000000, -297.000000)">
            <g id="Page-1" transform="translate(1055.000000, 297.000000)">
                <mask id="mask-2" fill="white">
                    <use xlink:href="#path-1"></use>
                </mask>
                <g id="Clip-2"></g>
                <path d="M45.4485967,11.0950473 C45.4485967,15.046995 48.6855072,18.2617172 52.6647316,18.2617172 C56.643956,18.2617172 59.8808665,15.046995 59.8808665,11.0950473 C59.8808665,7.14309964 56.643956,3.92837743 52.6647316,3.92837743 C48.6855072,3.92837743 45.4485967,7.14309964 45.4485967,11.0950473 L45.4485967,11.0950473 Z M41.4931052,11.0950473 C41.4931052,4.97725421 46.5047129,0 52.6647316,0 C58.8247502,0 63.8363579,4.97725421 63.8363579,11.0950473 C63.8363579,17.2128405 58.8247502,22.1900947 52.6647316,22.1900947 C46.5047129,22.1900947 41.4931052,17.2128405 41.4931052,11.0950473 L41.4931052,11.0950473 Z M76.1168403,118.029409 C75.344201,117.262066 74.0929472,117.262066 73.3203079,118.029409 L67.8617297,123.449261 L62.40447,118.029409 C61.6318307,117.262066 60.3805769,117.262066 59.6079375,118.029409 C58.8352982,118.796753 58.8352982,120.039429 59.6079375,120.806772 L65.0651972,126.226624 L59.6079375,131.646475 C58.8352982,132.413818 58.8352982,133.656495 59.6079375,134.423838 C59.9942572,134.80751 60.5005601,135 61.0055445,135 C61.5118474,135 62.0181503,134.80751 62.40447,134.423838 L67.8617297,129.003987 L73.3203079,134.423838 C73.7066275,134.80751 74.211612,135 74.7179149,135 C75.2242178,135 75.7305207,134.80751 76.1168403,134.423838 C76.8894797,133.656495 76.8894797,132.413818 76.1168403,131.646475 L70.6582621,126.226624 L76.1168403,120.806772 C76.8894797,120.039429 76.8894797,118.796753 76.1168403,118.029409 L76.1168403,118.029409 Z M33.3566593,13.0592361 L38.6306479,13.0592361 L38.6306479,9.13085862 L33.3566593,9.13085862 L33.3566593,13.0592361 Z M32.5128212,41.8424575 L43.3337273,41.8424575 L43.3337273,37.9140801 L32.5128212,37.9140801 L32.5128212,41.8424575 Z M13.9879362,37.6692112 C10.9000159,37.0537654 8.17600081,35.3095658 6.31955683,32.75743 L3.11429026,35.0594591 C5.55614698,38.4142935 9.14114072,40.7097754 13.2087044,41.52164 L13.9879362,37.6692112 Z M18.4497306,13.0592361 L29.2693182,13.0592361 L29.2693182,9.13085862 L18.4497306,9.13085862 L18.4497306,13.0592361 Z M4.68989435,29.6932956 C4.20205041,28.3471716 3.95549144,26.9329557 3.95549144,25.4860033 C3.95549144,23.8020389 4.28907122,22.1691433 4.9456828,20.6331477 L1.30399368,19.0971522 C0.43905955,21.121576 0,23.2703985 0,25.4860033 C0,27.3860286 0.324350298,29.2493889 0.967776906,31.0223966 L4.68989435,29.6932956 Z M17.6348993,41.8424575 L28.4558054,41.8424575 L28.4558054,37.9140801 L17.6348993,37.9140801 L17.6348993,41.8424575 Z M14.6801472,13.1849441 L14.119786,9.29585047 C10.0126673,9.87855979 6.30241637,11.9710755 3.67465155,15.1871072 L6.74543141,17.6619849 C8.74427308,15.2172247 11.560583,13.6275413 14.6801472,13.1849441 L14.6801472,13.1849441 Z M27.730632,70.6243695 L37.901519,70.6243695 L37.901519,66.6959921 L27.730632,66.6959921 L27.730632,70.6243695 Z M3.95549144,83.0524463 C3.95549144,82.4055734 4.00559433,81.7600101 4.10448162,81.1301602 L0.195137578,80.5264996 C0.0659248574,81.3566967 0,82.2052262 0,83.0524463 C0,86.0589645 0.829334706,89.0000097 2.39834631,91.5547645 L5.77501751,89.5106988 C4.58441458,87.5713898 3.95549144,85.3374525 3.95549144,83.0524463 L3.95549144,83.0524463 Z M5.10785795,94.8938853 C7.92548635,97.5599441 11.6120044,99.1535559 15.4897045,99.3774734 L15.72176,95.4569527 C12.7775559,95.2841041 9.97706792,94.0754733 7.83714705,92.04974 L5.10785795,94.8938853 Z M1.41738443,76.4043222 L5.03006662,78.0031718 C6.23253602,75.3227089 8.35795342,73.1424595 11.0160437,71.8631179 L9.2901309,68.3275782 C5.79347647,70.0102332 2.99826251,72.8792582 1.41738443,76.4043222 L1.41738443,76.4043222 Z M41.7172498,70.6243695 L51.8881367,70.6243695 L51.8881367,66.6959921 L41.7172498,66.6959921 L41.7172498,70.6243695 Z M33.4054437,99.407591 L43.5763307,99.407591 L43.5763307,95.4792135 L33.4054437,95.4792135 L33.4054437,99.407591 Z M19.4201445,99.407591 L29.5910315,99.407591 L29.5910315,95.4792135 L19.4201445,95.4792135 L19.4201445,99.407591 Z M23.9175383,66.6959921 L16.4693479,66.6959921 C15.4382831,66.6959921 14.4045813,66.7928921 13.395931,66.9814542 L14.1303339,70.8417397 C14.8963808,70.6976992 15.6835236,70.6243695 16.4693479,70.6243695 L23.9175383,70.6243695 L23.9175383,66.6959921 Z M47.390743,95.4792135 L47.390743,99.407591 L52.6647316,99.407591 L57.9387202,99.407591 L57.9387202,95.4792135 L52.6647316,95.4792135 L47.390743,95.4792135 Z M79.1032364,128.189503 L84.377225,128.189503 L84.377225,124.261126 L79.1032364,124.261126 L79.1032364,128.189503 Z M99.9038474,103.050506 C101.933014,105.067073 103.210638,107.733132 103.500708,110.558945 L107.435103,110.15956 C107.054057,106.439387 105.372974,102.927417 102.701698,100.273143 L99.9038474,103.050506 Z M61.6476526,99.407591 L71.5376997,99.407591 L71.5376997,95.4792135 L61.6476526,95.4792135 L61.6476526,99.407591 Z M99.4489659,121.050332 L102.103101,123.963878 C104.906226,121.443169 106.76267,118.021553 107.33226,114.326259 L103.421598,113.733074 C102.990449,116.536626 101.578339,119.135902 99.4489659,121.050332 L99.4489659,121.050332 Z M88.8456118,95.4792135 L88.8456118,99.407591 L91.052776,99.407591 C93.2810362,99.407591 95.468423,99.9955381 97.3776068,101.109888 L99.3790855,97.7210076 C96.8647114,96.2544134 93.9851137,95.4792135 91.052776,95.4792135 L88.8456118,95.4792135 Z M91.052776,124.261126 L88.1164829,124.261126 L88.1164829,128.189503 L91.052776,128.189503 C93.6963628,128.189503 96.3254461,127.551796 98.6552306,126.345785 L96.8277935,122.862623 C95.0333189,123.79103 93.0911726,124.261126 91.052776,124.261126 L91.052776,124.261126 Z M75.2466322,99.407591 L85.1366793,99.407591 L85.1366793,95.4792135 L75.2466322,95.4792135 L75.2466322,99.407591 Z M66.2795331,70.6243695 L66.2795331,66.6959921 L61.0055445,66.6959921 L55.7315559,66.6959921 L55.7315559,70.6243695 L61.0055445,70.6243695 L66.2795331,70.6243695 Z M104.210059,44.4299488 L101.052258,46.7961415 C102.697743,48.9619869 103.566632,51.5468592 103.566632,54.2692248 C103.566632,54.5533774 103.556084,54.8349112 103.537626,55.1138259 L107.483887,55.3783367 C107.508939,55.0129976 107.522124,54.6424207 107.522124,54.2705343 C107.522124,50.6865446 106.377668,47.2832603 104.210059,44.4299488 L104.210059,44.4299488 Z M70.1875587,70.6243695 L80.5272133,70.6243695 L80.5272133,66.6959921 L70.1875587,66.6959921 L70.1875587,70.6243695 Z M76.0350935,41.8424575 L86.3747481,41.8424575 L86.3747481,37.9140801 L76.0350935,37.9140801 L76.0350935,41.8424575 Z M61.8164203,41.8424575 L72.1560749,41.8424575 L72.1560749,37.9140801 L61.8164203,37.9140801 L61.8164203,41.8424575 Z M98.704015,44.4351866 L101.124776,41.3291495 C98.218808,39.0952122 94.7353386,37.9140801 91.052776,37.9140801 L90.2511298,37.9140801 L90.2511298,41.8424575 L91.052776,41.8424575 C93.850627,41.8424575 96.4968507,42.739437 98.704015,44.4351866 L98.704015,44.4351866 Z M84.4049134,66.6959921 L84.4049134,70.6243695 L91.0540945,70.6243695 C92.458294,70.6243695 93.853264,70.4475925 95.200768,70.1018953 L94.2079397,66.2979165 C93.1847859,66.5624273 92.1220772,66.6959921 91.052776,66.6959921 L84.4049134,66.6959921 Z M99.2683317,68.446739 C102.70038,66.4812408 105.307049,63.3594902 106.607087,59.6537208 L102.871784,58.3612846 C101.88423,61.1766218 99.9025289,63.5493618 97.2919045,65.0447641 L99.2683317,68.446739 Z M52.6647316,41.8424575 L47.390743,41.8424575 L47.390743,37.9140801 L52.6647316,37.9140801 L57.9387202,37.9140801 L57.9387202,41.8424575 L52.6647316,41.8424575 Z" id="Fill-1" fill="#B327BF" mask="url(#mask-2)"></path>
            </g>
        </g>
    </g>
</svg>