<?xml version="1.0" encoding="UTF-8" standalone="no"?>
<svg width="133px" height="134px" viewBox="0 0 133 134" version="1.1" xmlns="http://www.w3.org/2000/svg" xmlns:xlink="http://www.w3.org/1999/xlink">
    <!-- Generator: Sketch 41.1 (35376) - http://www.bohemiancoding.com/sketch -->
    <title>Group 2</title>
    <desc>Created with Sketch.</desc>
    <defs>
        <polygon id="path-1" points="0.000293478261 133.043478 132.450946 133.043478 132.450946 0.592336957 0.000293478261 0.592336957 0.000293478261 133.043478"></polygon>
    </defs>
    <g id="Page-1" stroke="none" stroke-width="1" fill="none" fill-rule="evenodd">
        <g id="Support-Copy-2" transform="translate(-502.000000, -297.000000)">
            <g id="Group-2" transform="translate(502.000000, 297.000000)">
                <g id="Group-5" transform="translate(0.978261, 0.030326)"></g>
                <path d="M65.0717609,90.5583913 L67.3794783,90.5583913 L67.3794783,72.6679565 C67.3794783,71.469587 68.2471957,70.4473043 69.429913,70.254587 C78.9816522,68.6913261 85.9136087,60.5228478 85.9136087,50.8302391 C85.9136087,39.9735 77.0818696,31.1417609 66.2251304,31.1417609 C56.1979565,31.1417609 47.8964348,38.6782826 46.6882826,48.384587 L49.9762174,48.384587 C51.159913,40.4792609 57.996,34.3983913 66.2251304,34.3983913 C75.2857826,34.3983913 82.656,41.769587 82.656,50.8302391 C82.656,59.192413 76.397087,66.2085 68.0965435,67.1515435 C68.004587,67.1623043 67.9126304,67.1671957 67.8206739,67.1671957 L65.0717609,67.1671957 L65.0717609,90.5583913 Z M69.8251304,95.4496957 L62.6261087,95.4496957 C61.2751304,95.4496957 60.1804565,94.3550217 60.1804565,93.0040435 L60.1804565,64.7215435 C60.1804565,63.3705652 61.2751304,62.2758913 62.6261087,62.2758913 L67.674913,62.2758913 C73.4368696,61.5558913 77.7646957,56.6587174 77.7646957,50.8302391 C77.7646957,44.4666522 72.5887174,39.2896957 66.2251304,39.2896957 C59.8625217,39.2896957 54.6855652,44.4666522 54.6855652,50.8302391 C54.6855652,52.1812174 53.5908913,53.2758913 52.239913,53.2758913 L44.0919783,53.2758913 C42.741,53.2758913 41.6463261,52.1812174 41.6463261,50.8302391 C41.6463261,37.2764348 52.6723043,26.2504565 66.2251304,26.2504565 C79.7789348,26.2504565 90.804913,37.2764348 90.804913,50.8302391 C90.804913,62.2250217 83.1265435,71.9352391 72.2707826,74.6577391 L72.2707826,93.0040435 C72.2707826,94.3550217 71.1751304,95.4496957 69.8251304,95.4496957 L69.8251304,95.4496957 Z" id="Fill-1" fill="#00BF9A"></path>
                <path d="M66.2253261,102.114098 C64.9653261,102.114098 63.9401087,103.139315 63.9401087,104.400293 C63.9401087,105.661272 64.9653261,106.686489 66.2253261,106.686489 C67.4853261,106.686489 68.5115217,105.661272 68.5115217,104.400293 C68.5115217,103.139315 67.4853261,102.114098 66.2253261,102.114098 M66.2253261,111.577793 C62.2682609,111.577793 59.0488043,108.358337 59.0488043,104.400293 C59.0488043,100.44225 62.2682609,97.2227935 66.2253261,97.2227935 C70.1823913,97.2227935 73.4028261,100.44225 73.4028261,104.400293 C73.4028261,108.358337 70.1823913,111.577793 66.2253261,111.577793" id="Fill-3" fill="#00BF9A"></path>
                <g id="Group-7" transform="translate(0.000000, 0.386413)">
                    <mask id="mask-2" fill="white">
                        <use xlink:href="#path-1"></use>
                    </mask>
                    <g id="Clip-6"></g>
                    <path d="M66.2256196,5.4836413 C32.406163,5.4836413 4.89159783,32.9982065 4.89159783,66.817663 C4.89159783,100.638098 32.406163,128.152663 66.2256196,128.152663 C100.045076,128.152663 127.559641,100.638098 127.559641,66.817663 C127.559641,32.9982065 100.045076,5.4836413 66.2256196,5.4836413 M66.2256196,133.043967 C29.7090978,133.043967 0.000293478261,103.334185 0.000293478261,66.817663 C0.000293478261,30.3011413 29.7090978,0.592336957 66.2256196,0.592336957 C102.742141,0.592336957 132.450946,30.3011413 132.450946,66.817663 C132.450946,103.334185 102.742141,133.043967 66.2256196,133.043967" id="Fill-5" fill="#00BF9A" mask="url(#mask-2)"></path>
                </g>
            </g>
        </g>
    </g>
</svg>