<?xml version="1.0" encoding="UTF-8" standalone="no"?>
<svg width="466px" height="284px" viewBox="0 0 466 284" version="1.1" xmlns="http://www.w3.org/2000/svg" xmlns:xlink="http://www.w3.org/1999/xlink">
    <!-- Generator: Sketch 40.1 (33804) - http://www.bohemiancoding.com/sketch -->
    <title>Page 1</title>
    <desc>Created with Sketch.</desc>
    <defs>
        <polygon id="path-1" points="376 3.51801921e-15 -6.46399601e-13 3.51801921e-15 -6.46399601e-13 237 376 237 376 4.98559617e-14"></polygon>
        <polygon id="path-3" points="0 284 466 284 466 -2.73114864e-14 0 -2.73114864e-14"></polygon>
    </defs>
    <g id="Page-1" stroke="none" stroke-width="1" fill="none" fill-rule="evenodd" opacity="0.5">
        <g id="Support-Copy" transform="translate(-826.000000, -143.000000)">
            <g id="Page-1" transform="translate(826.000000, 143.000000)">
                <g id="Group-3" transform="translate(45.000000, 0.000000)">
                    <mask id="mask-2" fill="white">
                        <use xlink:href="#path-1"></use>
                    </mask>
                    <g id="Clip-2"></g>
                    <path d="M2,235 L374,235 L374,12.9425352 C374,6.90860651 369.50767,2 363.98555,2 L12.0144497,2 C6.49233002,2 2,6.90860651 2,12.9425352 L2,235 Z M374.980619,237 L1.01938126,237 C0.456275051,237 -6.46399601e-13,236.543904 -6.46399601e-13,235.981019 L-6.46399601e-13,12.9769323 C-6.46399601e-13,5.82123712 5.40598268,-5.8598959e-15 12.0511252,-5.8598959e-15 L363.948875,-5.8598959e-15 C370.594017,-5.8598959e-15 376,5.82123712 376,12.9769323 L376,235.981019 C376,236.543904 375.543725,237 374.980619,237 L374.980619,237 Z" id="Fill-1" fill="#231F1F" mask="url(#mask-2)"></path>
                </g>
                <mask id="mask-4" fill="white">
                    <use xlink:href="#path-3"></use>
                </mask>
                <g id="Clip-5"></g>
                <path d="M72,210 L393,210 L393,25 L72,25 L72,210 Z M393.980552,212 L71.0194479,212 C70.4567127,212 70,211.542976 70,210.979856 L70,24.0201438 C70,23.4566164 70.4567127,23 71.0194479,23 L393.980552,23 C394.543695,23 395,23.4566164 395,24.0201438 L395,210.979856 C395,211.542976 394.543695,212 393.980552,212 L393.980552,212 Z" id="Fill-4" fill="#231F1F" mask="url(#mask-4)"></path>
                <path d="M4,264 L461,264 L419.218441,237 L45.781559,237 L4,264 Z M464.979896,266 L1.0200526,266 C0.569264736,266 0.171918693,265.707646 0.0425976498,265.282184 C-0.0863154402,264.855918 0.0842088371,264.397481 0.461565193,264.153383 L45.3690113,235.164072 C45.535048,235.057104 45.7292336,235 45.9274987,235 L420.072449,235 C420.271123,235 420.465308,235.057104 420.631345,235.164072 L465.538791,264.153383 C465.916147,264.397481 466.086264,264.855918 465.957351,265.282184 C465.828437,265.707646 465.431091,266 464.979896,266 L464.979896,266 Z" id="Fill-6" fill="#231F1F" mask="url(#mask-4)"></path>
                <polygon id="Fill-7" fill="#231F1F" mask="url(#mask-4)" points="42 253 424 253 414.768768 246 51.2312319 246"></polygon>
                <path d="M2,267 L2,277.767637 C2,280.101032 3.93117475,282 6.3050549,282 L459.695353,282 C462.068825,282 464,280.101032 464,277.767637 L464,267 L2,267 Z M459.656328,284 L6.3440796,284 C2.84588125,284 4.54301324e-13,281.203359 4.54301324e-13,277.765688 L4.54301324e-13,266.002237 C4.54301324e-13,265.448601 0.456499587,265 1.0198829,265 L464.980117,265 C465.5435,265 466,265.448601 466,266.002237 L466,277.765688 C466,281.203359 463.154527,284 459.656328,284 L459.656328,284 Z" id="Fill-8" fill="#231F1F" mask="url(#mask-4)"></path>
                <path d="M135.228785,105.502537 L141.899513,107.629855 C142.159422,107.712711 142.375676,107.898423 142.498152,108.144542 L144.417356,112 L145.717709,109.201671 L140.905553,104.667039 C140.701021,104.473572 140.584608,104.20378 140.584608,103.920926 L140.584608,101.339737 L134.818508,101.339737 C134.26029,101.339737 133.807976,100.883008 133.807976,100.319343 L133.807976,93.1161753 C133.807976,92.7210786 134.033931,92.3614917 134.388426,92.1933307 L140.451621,89.3121454 C140.823902,89.135005 141.264898,89.2035755 141.56725,89.4856124 L145.092796,92.7720983 L147.066972,87.3615597 C147.11952,87.2166637 147.204001,87.0860533 147.313947,86.9791159 L156.943918,77.6155699 C157.132282,77.4327152 157.383702,77.3302676 157.645228,77.3302676 L161.274253,77.3302676 L164.571823,70.0050612 C164.735529,69.6409845 165.095279,69.4067019 165.491408,69.4067019 L170,69.4067019 L166.351573,61.1182433 C166.217778,60.814574 166.239202,60.4635583 166.408163,60.1786642 L169.999596,54.1342567 L162.148161,52 L156.373978,52 L149.746096,54.1134406 C149.585624,54.1648685 149.415046,54.1750724 149.249723,54.1420117 L139.395817,52.2163236 L139.395817,54.5807812 C139.395817,54.8889403 139.25798,55.1807731 139.020707,55.374648 C138.78303,55.5681147 138.471382,55.6432157 138.173477,55.5787268 L128.29168,53.4403886 L118.558634,53.4403886 L109.069328,56.2799418 C108.975955,56.3076965 108.879348,56.321982 108.782337,56.321982 L102.183559,56.321982 L100,57.1236038 L102.685187,59.5884682 C102.896187,59.7815268 103.016238,60.0558088 103.016238,60.3431518 L103.016238,64.4247289 L109.953746,62.5974068 C110.055204,62.5704684 110.160299,62.5586319 110.264991,62.5659787 L116.684702,62.926382 C116.957142,62.9414838 117.211796,63.0671964 117.391267,63.2753568 C117.570333,63.4831091 117.658452,63.7553503 117.635816,64.0300404 L117.299106,68.1112094 L119.350487,73.2895063 C119.442244,73.521748 119.44669,73.7797037 119.362614,74.0148025 L116.212581,82.8354988 L116.212581,88.1044067 L120.657712,94.3198324 C120.714302,94.3986068 120.759574,94.4855444 120.791507,94.5773799 L122.747898,100.17363 L128.273491,101.486674 C128.369693,101.509939 128.462258,101.547081 128.548355,101.597284 L135.228785,105.502537 Z M144.694461,115 C144.310324,115 143.958334,114.78377 143.785391,114.441371 L141.105793,109.126895 L134.693476,107.1078 C134.622671,107.085488 134.554715,107.055467 134.490014,107.018144 L127.798546,103.155615 L121.840764,101.758435 C121.50383,101.679327 121.22997,101.434293 121.11481,101.108528 L119.008976,95.1611826 L114.427005,88.8361448 C114.302079,88.6637286 114.23453,88.4556121 114.23453,88.2426273 L114.23453,82.4997477 C114.23453,82.3825047 114.254876,82.2660731 114.294755,82.1561324 L117.395113,73.5848156 L115.384499,68.5733864 C115.325902,68.4273397 115.3023,68.2691225 115.315322,68.1121223 L115.587554,64.856093 L110.327647,64.5644053 L102.223745,66.6723456 C101.918551,66.7518599 101.594233,66.6853275 101.344788,66.4934384 C101.09575,66.3015493 100.949664,66.0049934 100.949664,65.6909931 L100.949664,60.7700317 L97.3329187,57.492501 C97.0692315,57.2535524 96.9504096,56.894521 97.0191798,56.5460374 C97.0879501,56.1971482 97.3345463,55.9103287 97.6694453,55.7890289 L101.619055,54.3569601 C101.730552,54.3167973 101.848154,54.2961074 101.966975,54.2961074 L108.641352,54.2961074 L118.194313,51.4737555 C118.288312,51.4461689 118.385567,51.4319699 118.483229,51.4319699 L128.537114,51.4319699 C128.608733,51.4319699 128.679945,51.4396779 128.749936,51.4546883 L137.573281,53.339096 L137.573281,51.0145198 C137.573281,50.7118787 137.708787,50.4250592 137.943175,50.2319531 C138.177564,50.040064 138.486013,49.960144 138.783881,50.0189684 L149.660975,52.1175779 L156.236876,50.0473663 C156.336165,50.0161286 156.439524,50.0003068 156.54329,50.0003068 L162.647158,50.0003068 C162.736681,50.0003068 162.825391,50.0120717 162.911659,50.0351958 L172.247322,52.5411132 C172.555364,52.623873 172.806436,52.8457828 172.926072,53.1407159 C173.045301,53.4356491 173.019258,53.769528 172.85486,54.0421484 L168.818576,60.7493417 L172.912237,69.9324318 C173.052219,70.2460264 173.023327,70.6091147 172.835735,70.8971512 C172.648143,71.1851877 172.327079,71.3584152 171.982821,71.3584152 L166.533694,71.3584152 L163.214411,78.6392474 C163.0492,79.0011186 162.687037,79.2339819 162.288251,79.2339819 L158.389913,79.2339819 L149.15883,88.0953636 L146.726235,94.6788229 C146.608634,94.9964744 146.340063,95.2350173 146.009641,95.314126 C145.679625,95.3940459 145.331297,95.3035781 145.081446,95.0735546 L140.917387,91.2406409 L136.017201,93.5396589 L136.017201,99.0411558 L141.82198,99.0411558 C142.383943,99.0411558 142.839292,99.4951176 142.839292,100.055369 L142.839292,103.194155 L147.90184,107.904566 C148.224938,108.205179 148.316496,108.679019 148.128904,109.077402 L145.615331,114.416625 C145.450119,114.767948 145.097723,114.994726 144.708296,115 L144.694461,115 Z" id="Fill-9" fill="#231F1F" mask="url(#mask-4)"></path>
                <path d="M177.930727,54.8115883 L181.218558,59 L183.622086,56.5504299 C183.811032,56.3582746 184.067258,56.2498792 184.334362,56.2498792 L189.89237,56.2498792 L190.453166,53.1076466 C190.516417,52.7537194 190.756125,52.4597382 191.085674,52.3320452 L198.104492,49.6069703 L200,43.8115158 L188.955695,43.8115158 C188.859409,43.8115158 188.763928,43.7975558 188.671671,43.7696358 L182.767596,42 L168.151437,42 L162,44.1617477 L165.512229,44.6499372 L172.503652,43.9375664 C172.702268,43.9158052 172.901689,43.9572747 173.077743,44.0529417 L178.409741,46.9508743 C178.786022,47.1557579 178.995113,47.5794851 178.931862,48.0093711 L177.930727,54.8115883 Z M181.608817,61 C181.590179,61 181.571541,60.9996011 181.552903,60.9984045 C181.265228,60.982848 180.997812,60.8476266 180.817915,60.6258476 L176.527919,55.3466294 C176.351668,55.1300359 176.275089,54.8500199 176.316822,54.5755884 L177.283571,48.2329477 L172.823401,45.8911049 L165.97918,46.5648185 C165.899766,46.5723973 165.820352,46.5712006 165.741343,46.5608297 L157.87608,45.504986 C157.411344,45.4419625 157.051143,45.0741923 157.004953,44.61428 C156.958763,44.1547667 157.23955,43.7243718 157.682812,43.5739928 L168.050842,40.054647 C168.156998,40.0183486 168.268421,40 168.38106,40 L183.39645,40 C183.493287,40 183.589313,40.013562 183.682504,40.0402872 L189.619942,41.7598724 L201.987107,41.7598724 C202.312463,41.7598724 202.61837,41.9142401 202.808803,42.173913 C202.999235,42.4339848 203.051097,42.7682489 202.947778,43.0725967 L200.445415,50.4635022 C200.349389,50.7471081 200.128973,50.9736737 199.844945,51.0797766 L192.871069,53.6952533 L192.258444,57.013562 C192.170521,57.4878341 191.751164,57.8324691 191.261712,57.8324691 L185.246075,57.8324691 L182.325167,60.7080176 C182.134734,60.8958915 181.876638,61 181.608817,61 L181.608817,61 Z" id="Fill-10" fill="#231F1F" mask="url(#mask-4)"></path>
                <path d="M159.297859,165.847502 L165.399632,169 L162.862876,162.951318 C162.790984,162.77949 162.767568,162.591336 162.795503,162.407264 L163.882919,155.205169 C163.925232,154.924775 164.082984,154.674583 164.318378,154.514183 L170.948043,150.007874 L174.456778,141.292385 C174.593989,140.951994 174.904562,140.710781 175.270184,140.66058 L179.820735,140.036937 L181.295957,133.524605 L183,125.397658 L178.209535,120.003638 L171.785686,120.003638 C171.416368,120.003638 171.074984,119.806097 170.892584,119.486929 L168.161103,114.709613 L163.580151,112.715018 L159.954335,111 L152.337903,111 L148.421232,115.789152 L145,126.744122 L148.259784,131.601842 L152.837449,135.100445 C153.028476,135.246153 153.161578,135.454306 153.214162,135.687763 L156.838746,151.893904 C156.842443,151.909005 156.845319,151.924515 156.848195,151.939616 L159.297859,165.847502 Z M167.4197,172 C167.259359,172 167.098201,171.9622 166.949284,171.885382 L157.949355,167.223036 C157.667432,167.077122 157.469963,166.808867 157.415292,166.496716 L154.899196,152.174765 L151.38474,136.418466 L146.997994,133.057154 C146.909868,132.989684 146.833165,132.907582 146.77115,132.815319 L143.171423,127.436001 C143.000882,127.181159 142.954779,126.863318 143.045761,126.571083 L146.645896,115.011342 C146.684247,114.888189 146.746262,114.772351 146.828269,114.671959 L151.148512,109.375556 C151.341901,109.137785 151.6328,109 151.940019,109 L160.219839,109 C160.371613,109 160.521346,109.033735 160.658432,109.098766 L164.438492,110.892008 L169.269543,113.000245 C169.470683,113.088444 169.638369,113.238829 169.746895,113.429453 L172.333574,117.966207 L178.579954,117.966207 C178.872485,117.966207 179.151145,118.090986 179.344534,118.309654 L184.744736,124.40635 C184.9573,124.646559 185.044203,124.972529 184.978516,125.286306 L183.178449,133.893214 L181.555042,141.082031 C181.461612,141.494981 181.120529,141.807538 180.699072,141.86566 L176.066714,142.502155 L172.686896,150.919659 C172.611825,151.106624 172.482899,151.266764 172.31603,151.380976 L165.842805,155.792951 L164.870965,162.247319 L168.361349,170.592883 C168.526586,170.987949 168.425812,171.443168 168.110025,171.732152 C167.917452,171.90855 167.6698,172 167.4197,172 L167.4197,172 Z" id="Fill-11" fill="#231F1F" mask="url(#mask-4)"></path>
                <path d="M231.291444,150.168631 L236.931242,158 L239.994916,155.493978 L247.295154,147.847336 L249.030069,139.86908 C249.082975,139.624947 249.223787,139.409297 249.426051,139.26241 L252.956928,136.694948 L252.956928,119.621122 C252.956928,119.160932 253.265818,118.75852 253.709823,118.638895 L262.569979,116.253719 L265,110.585365 L259.001661,110.585365 C258.686666,110.585365 258.389171,110.439292 258.196674,110.18987 L252.092115,102.291364 C251.991187,102.16116 251.92363,102.008577 251.895142,101.846229 L250.911901,96.275935 L244.942864,93.6234335 C244.57537,93.4606784 244.338513,93.0961069 244.338513,92.6941018 L244.338513,88.6850363 L242.145349,88.6850363 L233.542398,89.0430976 C233.30839,89.0467595 233.076824,88.9812506 232.889211,88.8400605 L228.622531,85.636226 L224.359922,83 L219.032271,84.3459848 L212.909806,85.7062107 L204,97.6980079 L204,104.795352 L205.640091,112.639742 L210.996637,113.853081 L218.264317,113.853081 L222.421928,112.518896 C222.867968,112.375671 223.353484,112.555516 223.598887,112.953045 L228.267246,120.523193 C228.36614,120.683506 228.418639,120.86864 228.418639,121.057029 L228.418639,130.212412 L231.229992,137.942466 C231.270689,138.05436 231.291444,138.171951 231.291444,138.290355 L231.291444,150.168631 Z M236.987389,161 C236.942756,161 236.898531,160.997137 236.853898,160.991412 C236.573812,160.954608 236.321571,160.804118 236.15655,160.575112 L229.652744,151.55431 C229.527442,151.380101 229.459878,151.171133 229.459878,150.956849 L229.459878,138.86859 L226.631174,131.099552 C226.590226,130.987503 226.569343,130.869319 226.569343,130.750318 L226.569343,121.65836 L222.445447,114.978329 L218.873124,116.123769 C218.771982,116.156485 218.666336,116.172842 218.56028,116.172842 L210.972574,116.172842 C210.89682,116.172842 210.820656,116.164663 210.74654,116.147897 L204.604307,114.757502 C204.213251,114.668762 203.910235,114.36083 203.828338,113.969475 L202.021703,105.340028 C202.007371,105.271326 202,105.200989 202,105.130651 L202,97.5534063 C202,97.3338056 202.07084,97.1199302 202.201875,96.9436771 L211.596216,84.3143907 C211.74281,84.1172818 211.955741,83.9790601 212.196107,83.9263069 L218.699504,82.4827496 L224.45191,81.0306045 C224.72094,80.9639473 225.00553,81.006886 225.241392,81.1524686 L229.938153,84.054714 C229.96436,84.0706626 229.989748,84.088247 230.014316,84.1066493 L234.052221,87.1348482 L242.3643,86.7892941 C242.378632,86.7888852 242.392554,86.7884762 242.406886,86.7884762 L245.658585,86.7884762 C246.22408,86.7884762 246.68229,87.2460798 246.68229,87.8108256 L246.68229,92.1979313 L252.578015,94.8151457 C252.889222,94.9525495 253.111161,95.2367626 253.170536,95.5712753 L254.210621,101.457554 L259.891368,108.799249 L266.976229,108.799249 C267.320194,108.799249 267.641228,108.971822 267.830818,109.258898 C268.020408,109.545565 268.052758,109.908294 267.917219,110.223996 L264.665111,117.801649 C264.541857,118.089952 264.293301,118.305054 263.990285,118.386433 L255.353895,120.708802 L255.353895,137.605784 C255.353895,137.932935 255.197063,138.240458 254.932538,138.43266 L251.273405,141.090359 L249.549485,149.009069 C249.509355,149.192683 249.419679,149.361575 249.289873,149.497752 L241.702167,157.43609 C241.673094,157.466761 241.642383,157.494977 241.610034,157.52115 L237.635599,160.768949 C237.451742,160.919439 237.222022,161 236.987389,161 L236.987389,161 Z" id="Fill-12" fill="#231F1F" mask="url(#mask-4)"></path>
                <path d="M257,148.448111 L259.019918,150 L262,144.705489 L262,143 L258.865845,144.759269 L257,148.448111 Z M259.499847,152 C259.258362,152 259.022251,151.919578 258.834107,151.769326 L255.368126,149.000447 C255.011686,148.715635 254.90004,148.240163 255.095214,147.839229 L257.284298,143.339115 C257.369893,143.163755 257.50759,143.016249 257.681261,142.915035 L262.42414,140.145372 C262.743364,139.95942 263.143635,139.951182 263.470303,140.12458 C263.797384,140.297978 264,140.625552 264,140.980586 L264,144.615671 C264,144.771415 263.960717,144.925198 263.885873,145.063681 L260.419478,151.467252 C260.275579,151.733234 260.012177,151.921932 259.703704,151.980777 C259.63589,151.994115 259.567662,152 259.499847,152 L259.499847,152 Z" id="Fill-13" fill="#231F1F" mask="url(#mask-4)"></path>
                <path d="M213.268207,77.6039278 L213,84 L217.653208,82.9728394 L218.954033,78.126157 C219.030723,77.8411549 219.226386,77.6022804 219.491691,77.4704875 L223.881252,75.2897275 C224.060748,75.2007673 224.262629,75.1657599 224.462437,75.1879999 L230.863344,75.9149199 C231.068541,75.9383955 231.262131,76.0220016 231.419242,76.15503 L237.236477,81.095203 L245.56831,75.811133 L248,72.4895411 L244.816335,66.4797867 L241.242174,65 L235.283581,68.382958 C235.126885,68.4719181 234.949462,68.5184575 234.769137,68.5184575 L228.36823,68.5184575 C228.074321,68.5184575 227.794507,68.3949017 227.598015,68.1778553 L225.036574,65.3504866 L222.151378,68.2169813 C222.046914,68.3211801 221.920894,68.4014913 221.782438,68.4529729 L216.60235,70.3833265 L216.60235,76.5742961 C216.60235,77.1430646 216.13848,77.6039278 215.566001,77.6039278 L213.268207,77.6039278 Z M212.026406,86 C211.787894,86 211.553897,85.9181749 211.36752,85.7650047 C211.12326,85.5642711 210.987378,85.2631707 211.000925,84.949978 L211.363004,76.4143672 C211.385994,75.8746438 211.838388,75.4485888 212.388486,75.4485888 L214.62213,75.4485888 L214.62213,69.6986601 C214.62213,69.2786513 214.887737,68.9029813 215.287995,68.7554542 L220.875595,66.6977335 L224.340802,63.2957428 C224.539904,63.0998462 224.808385,62.9902085 225.093697,63.0006886 C225.374904,63.007944 225.640922,63.1284648 225.829351,63.3336323 L228.783459,66.5566557 L234.393227,66.5566557 L240.49562,63.1328987 C240.771901,62.9781162 241.105655,62.9575591 241.399587,63.0780799 L245.746183,64.8564665 C245.966633,64.9463532 246.148083,65.1096004 246.259334,65.3171863 L249.88177,72.0748136 C250.064042,72.4146096 250.033663,72.8261537 249.803771,73.136928 L246.905904,77.0492173 C246.830369,77.1511964 246.735949,77.2378585 246.627982,77.3055759 L237.572301,82.9813379 C237.191748,83.2191547 236.69666,83.1861022 236.353465,82.8974973 L230.252713,77.7783881 L224.52841,77.1358794 L220.867795,78.9332108 L219.538118,83.8294171 C219.439593,84.1925917 219.142786,84.4719257 218.769212,84.5533478 L212.248909,85.9758152 C212.175015,85.9919384 212.1003,86 212.026406,86 L212.026406,86 Z" id="Fill-14" fill="#231F1F" mask="url(#mask-4)"></path>
                <path d="M212.760801,64.5983047 C213.108436,64.5983047 213.440864,64.7555042 213.639392,65.0271356 L214.349867,66 L216.574222,65.5195399 L217,64.1598415 L215.476828,62.4233267 C215.359401,62.2900154 215.28337,62.1305042 215.256336,61.96059 L214.783249,59 L213.589126,59.34214 L213.987026,61.3992184 C214.038137,61.6635293 213.966329,61.9347754 213.788921,62.1486129 C213.611513,62.3616799 213.344557,62.4984588 213.052257,62.525044 L210.920408,62.7196169 L210,65.0575738 L210.048154,65.1388705 L212.525525,64.6221929 C212.603669,64.6063959 212.682657,64.5983047 212.760801,64.5983047 M213.858406,69 C213.523845,69 213.204325,68.8327072 213.013264,68.543225 L212.325849,67.5033852 L209.870504,68.0696386 C209.424558,68.1717365 208.96601,67.9622104 208.749339,67.5562792 L208.121681,66.380309 C207.984686,66.1240394 207.962327,65.8218462 208.059891,65.5479452 L209.315206,62.0204445 C209.44773,61.648546 209.780665,61.3861259 210.170511,61.3471729 L211.770957,61.1852104 L211.423388,59.198198 C211.334361,58.6913991 211.632336,58.1964911 212.11934,58.0423193 L215.257628,57.047173 C215.541781,56.9573761 215.850731,56.9967391 216.103177,57.1570614 C216.355215,57.3169737 216.525138,57.5798038 216.568229,57.8774867 L217.156048,61.9437686 L218.777226,63.9877755 C218.982922,64.2469153 219.051216,64.5905217 218.96097,64.9095262 L218.243473,67.4422905 C218.142657,67.7990179 217.858504,68.0729189 217.500365,68.1582054 L214.092965,68.9721179 C214.014914,68.9909793 213.936457,69 213.858406,69" id="Fill-15" fill="#231F1F" mask="url(#mask-4)"></path>
                <path d="M224,59.9755936 L228.040146,60.0458364 C228.288537,60.0502017 228.526145,60.1466367 228.707047,60.3152986 L231.577519,63 L232.223655,57.7655268 C232.257599,57.4924929 232.403359,57.246048 232.626991,57.0845294 L236.860817,54.0204379 C237.204651,53.771215 237.669086,53.766056 238.018111,54.0077386 C238.367536,54.2486276 238.524477,54.6827833 238.409866,55.0895562 L237.248179,59.2140353 L238.0253,62.3039222 L240.262016,60.3982406 L241,57.6135326 L239.393446,51 L230.716937,51 L224,55.6880085 L224,59.9755936 Z M232.312975,66 C232.063277,66 231.817569,65.9069654 231.629299,65.7311893 L227.609413,61.9757574 L222.979643,61.8953914 C222.435973,61.8858899 222,61.4452621 222,60.9056613 L222,55.1418691 C222,54.819613 222.158354,54.5171514 222.424007,54.3322699 L229.815205,49.179735 C229.982733,49.0625509 230.182969,49 230.388391,49 L240.154904,49 C240.615607,49 241.01608,49.3131506 241.124176,49.7573415 L242.972175,57.3549056 C243.010866,57.5144501 243.009271,57.6811206 242.96699,57.8394774 L242.087066,61.1578445 C242.035611,61.3522275 241.925521,61.5260241 241.771953,61.6570643 L238.076354,64.8012389 C237.813893,65.024522 237.453706,65.0965744 237.124234,64.9924548 C236.79516,64.888731 236.543468,64.6226916 236.459704,64.2897464 L235.227971,59.3992921 C235.186088,59.2326215 235.188482,59.0580331 235.23515,58.8925502 L235.692663,57.2705806 L234.135445,58.3961016 L233.302589,65.131017 C233.256719,65.5007801 233.005426,65.8143266 232.651622,65.941408 C232.541133,65.9806013 232.426655,66 232.312975,66 L232.312975,66 Z" id="Fill-16" fill="#231F1F" mask="url(#mask-4)"></path>
                <path d="M257.961052,66.6109191 L270.403904,66.6109191 C270.492175,66.6109191 270.580445,66.6225294 270.666274,66.6461645 L286.458922,70.9448514 C286.474379,70.9489979 286.489837,70.9539737 286.505294,70.9585349 L295.865195,74 L320.769611,70.9174845 C320.785882,70.9154112 320.80134,70.9137526 320.817204,70.9125086 L327.278017,70.4248791 C327.582692,70.4016586 327.880451,70.5194195 328.090754,70.7454043 L330.137241,72.9430546 L331.161908,68.4105045 L325.196141,66.9161023 C324.844687,66.8281963 324.565232,66.5561852 324.463132,66.2020733 C324.361031,65.8479613 324.451335,65.4652384 324.700282,65.1969592 L327.332118,62.3615757 C327.391507,62.2981341 327.458625,62.2417415 327.531845,62.1953006 L333.513884,58.3838286 C333.764457,58.2246026 334.070352,58.1839668 334.352248,58.2722875 C334.634143,58.3610228 334.864785,58.5695923 334.983563,58.8449205 L337.691467,65.1136144 L339.975104,66.0888735 L339.975104,60.9700069 C339.975104,60.598065 340.170763,60.2547339 340.487641,60.0702142 L345,57.4417415 L345,53.8537664 L342.923818,51.8435384 C342.689516,51.6167243 342.574805,51.2895646 342.615483,50.9628196 C342.655754,50.63566 342.846124,50.3474775 343.12802,50.1870076 L343.787809,49.8109191 L331.276619,49.8109191 L326.998969,53.0236351 C326.824463,53.1550795 326.612939,53.2259848 326.396128,53.2259848 L323.28511,53.2259848 C323.04918,53.2259848 322.820166,53.1422253 322.638337,52.9888044 L320.445818,51.1452661 L313.522501,49.7922598 C313.458637,49.7798203 313.396401,49.761161 313.336198,49.7371113 L308.550486,47.7857636 C308.511028,47.7695923 308.471978,47.7505183 308.434555,47.7293711 L305.005845,45.7875605 L303.58986,48.3131997 C303.430404,48.5984796 303.147695,48.7892191 302.82797,48.8281963 L296.845931,49.5600553 C296.668577,49.5812025 296.488782,49.5550795 296.324445,49.4833449 L291.49114,47.3723566 L287.153694,47.3723566 C287.029627,47.3723566 286.907188,47.3491361 286.791257,47.3039392 L281.941274,45.4205943 L276.146759,45.4205943 C275.920592,45.4205943 275.700526,45.3438839 275.522359,45.2024879 L274.005493,44 L269.607845,47.6290256 C269.55049,47.6758811 269.48866,47.7169316 269.422762,47.7505183 L262.842764,51.1046303 C262.701612,51.1759502 262.545818,51.2136835 262.387989,51.2136835 L258.145321,51.2136835 L255.925548,52.0624741 C255.811244,52.1064271 255.690025,52.1284036 255.568399,52.1284036 L250.815636,52.1284036 L247.940954,53.8185211 C247.645229,53.9926745 247.283199,54.0038701 246.978117,53.848376 L244.54316,52.6077402 L242,63.8049758 L249.977272,69.3343469 L257.631971,66.666897 C257.738139,66.6299931 257.849189,66.6109191 257.961052,66.6109191 M330.973186,75.999691 C330.697887,75.999691 330.429511,75.8875726 330.234847,75.6809311 L327.213073,72.4822838 L321.250159,72.9258471 L296.120154,75.9923256 C295.974767,76.0107392 295.827344,75.9955991 295.688065,75.9514065 L286.128751,72.8898382 L270.470502,68.6882635 L258.316209,68.6882635 L250.331313,71.4310718 C250.027914,71.5362339 249.693971,71.4899953 249.42926,71.3091328 L240.445794,65.1712655 C240.098004,64.9339346 239.93144,64.5059207 240.026329,64.0946836 L243.020818,51.0971357 C243.091272,50.7918791 243.296931,50.5357254 243.579154,50.4023291 C243.861376,50.2681144 244.18921,50.2722063 244.468174,50.4125589 L247.571806,51.9715772 L250.211582,50.4412023 C250.366336,50.3515894 250.54186,50.3045324 250.720234,50.3045324 L255.566476,50.3045324 L257.789231,49.4669181 C257.903668,49.4239531 258.02462,49.4018567 258.146794,49.4018567 L262.338183,49.4018567 L268.612233,46.2498573 L273.556622,42.2279174 C273.924773,41.9287987 274.449308,41.9234792 274.822346,42.2156417 L276.702607,43.6850471 L282.342574,43.6850471 C282.466377,43.6850471 282.588958,43.7079618 282.704616,43.7525637 L287.560632,45.6111099 L291.924694,45.6111099 C292.06275,45.6111099 292.199178,45.6389349 292.325832,45.6937665 L297.105693,47.7515888 L302.314792,47.1238896 L303.977175,44.200628 C304.253696,43.7145089 304.868232,43.5418302 305.355707,43.8139423 L309.611441,46.189297 L314.252023,48.0543903 L321.343011,49.4202703 C321.51039,49.4525964 321.667587,49.52666 321.799128,49.6355049 L323.912741,51.3876614 L326.326496,51.3876614 L330.6087,48.2172483 C330.783817,48.0875348 330.995178,48.0175631 331.212648,48.0175631 L347.981867,48.0175631 C348.445314,48.0175631 348.850118,48.3322311 348.966998,48.7827505 C349.083878,49.23327 348.883105,49.706295 348.478708,49.9338052 L345.61291,51.5427449 L347.006103,52.8726161 C347.208504,53.0653452 347.322941,53.3337746 347.322941,53.6140705 L347.322941,58.1876 C347.322941,58.5546445 347.127462,58.8934548 346.810217,59.075954 L342.292216,61.6698168 L342.292216,67.6652856 C342.292216,68.0077786 342.121987,68.3273569 341.838135,68.5172216 C341.554284,68.7066771 341.195092,68.7406399 340.880697,68.6088804 L336.808225,66.8935511 C336.567542,66.7924808 336.374914,66.6022069 336.269844,66.3624209 L333.869122,60.8849881 L328.987856,63.9502391 L327.645162,65.3762702 L332.89295,66.6717694 C333.433367,66.8051658 333.76731,67.3497992 333.642285,67.895251 L331.965241,75.2066786 C331.880941,75.573723 331.602791,75.8642487 331.241155,75.9636822 C331.152783,75.9878245 331.062374,75.999691 330.973186,75.999691" id="Fill-17" fill="#231F1F" mask="url(#mask-4)"></path>
                <path d="M341.939242,72.5224422 L344.136956,78.5815279 C344.252857,78.9016274 344.209144,79.2602882 344.019451,79.5401679 L341,84 L344.412873,82.5806987 L345,78.446771 L342.697614,72 L341.939242,72.5224422 Z M338.024464,87 C337.718871,87 337.420651,86.8605357 337.221975,86.6061695 C336.940141,86.2456439 336.925394,85.7394093 337.185107,85.3622313 L341.936136,78.4643691 L339.595441,72.1206172 C339.428307,71.6680868 339.590116,71.1576891 339.98624,70.8891684 L342.51619,69.1752147 C342.777132,68.9982823 343.103207,68.9520718 343.401426,69.0515702 C343.699236,69.150236 343.936419,69.3817051 344.044974,69.6806166 L346.936638,77.63924 C346.996036,77.8028504 347.01406,77.9789501 346.989072,78.151303 L346.266463,83.1557813 C346.213619,83.5221353 345.973159,83.8318709 345.635205,83.9700862 L338.40625,86.9246477 C338.282129,86.9754376 338.152682,87 338.024464,87 L338.024464,87 Z" id="Fill-18" fill="#231F1F" mask="url(#mask-4)"></path>
                <path d="M309.881375,114.31994 L311.798285,115 L310.738428,109.935656 C310.655683,109.542388 310.811032,109.136882 311.134708,108.900676 C311.457573,108.663655 311.889141,108.641217 312.235937,108.841523 L316.126541,111.09139 L318.684719,106.589207 L316.084763,101.686821 C315.950912,101.43389 315.928604,101.136491 316.023922,100.866017 C316.11924,100.595952 316.322856,100.378512 316.585285,100.267549 L326.702397,95.9705665 L326.702397,88.4303483 L323.897609,85.6093448 C323.626662,85.3368313 323.531749,84.9333646 323.652215,84.5670217 L324.606614,81.6721784 C324.702337,81.381715 324.922989,81.1491811 325.207727,81.0402573 C325.492059,80.9317414 325.810056,80.9562187 326.074108,81.1087936 L329.565592,83.1261273 L329.565592,78.8887066 C329.565592,78.8536225 329.567215,78.8185385 329.570865,78.7834544 L330,74.6312962 L327.328252,71.7996858 L296.334432,75.283207 C296.202609,75.2983013 296.069569,75.2864707 295.942208,75.2497548 L270.787944,68 L258.691865,68 L251.085474,70.6153946 L247.339673,76.7808071 C247.258956,76.9133922 247.149848,77.0251716 247.019647,77.1088023 L241,80.9733528 L250.64985,80.9733528 C250.982855,80.9733528 251.294769,81.1377583 251.483782,81.4135354 C251.673202,81.6893125 251.715791,82.040969 251.598164,82.3542779 L249.256582,88.5763959 L254.560329,92.203925 C254.747315,92.3320227 254.886439,92.5188657 254.955392,92.7354894 L257.073078,99.3618901 L259.944792,104.631843 L269.195928,99.6694876 L262.374797,95.0959126 C262.092898,94.9066219 261.923354,94.5884176 261.923354,94.2473678 L261.923354,89.6876633 C261.923354,89.2968431 262.145627,88.9398832 262.495668,88.7697663 C262.845709,88.5988334 263.261458,88.6449323 263.566477,88.887665 L268.469887,92.7872996 L274.386915,93.4738866 C274.473715,93.4840854 274.558893,93.505707 274.640421,93.5375275 L280.128314,95.6976451 C280.303537,95.7665894 280.456857,95.8836723 280.569617,96.0354313 L287.670618,105.557491 L291.390055,108.9737 L291.390055,103.96647 C291.390055,103.633987 291.551487,103.321902 291.82284,103.130979 L300.173523,97.2515428 C300.584405,96.9618953 301.144552,97.018193 301.490131,97.3845359 L306.023626,102.184118 C306.050396,102.212674 306.075949,102.242863 306.099475,102.274683 L309.678571,107.073857 C309.809988,107.250501 309.881375,107.465085 309.881375,107.685788 L309.881375,114.31994 Z M313.003655,118 C312.889967,118 312.775464,117.980687 312.665036,117.941239 L308.350182,116.406872 C307.943105,116.261818 307.670497,115.873911 307.670497,115.438339 L307.670497,108.370964 L304.314047,103.858676 L300.405048,99.7088173 L293.168529,104.817347 L293.168529,111.655019 C293.168529,112.061827 292.930151,112.430421 292.56097,112.594788 C292.191789,112.759566 291.761078,112.687655 291.462799,112.413573 L285.94994,107.337095 C285.90308,107.293948 285.859886,107.246282 285.82199,107.194917 L278.804698,97.7602453 L273.684655,95.7393517 L267.583796,95.0296967 C267.395538,95.0079181 267.21706,94.933131 267.068735,94.8147867 L263.565591,92.0217786 L263.565591,93.9428192 L271.381552,99.1972247 C271.679831,99.3973417 271.851789,99.7412799 271.834267,100.102066 C271.816338,100.463262 271.612188,100.788298 271.29598,100.958418 L259.610545,107.243406 C259.117897,107.507626 258.506262,107.323945 258.23773,106.830433 L254.822194,100.545446 C254.791226,100.488739 254.765554,100.428334 254.745587,100.366286 L252.695532,93.9346009 L246.992786,90.0243074 C246.603231,89.7567999 246.446349,89.2554802 246.61301,88.8112781 L248.727448,83.1767737 L237.018786,83.1767737 C236.566071,83.1767737 236.167958,82.87516 236.040823,82.4371217 C235.914096,81.9990833 236.089314,81.5289934 236.47072,81.2832646 L245.260977,75.6253378 L249.093369,69.3013134 C249.217244,69.0970872 249.408354,68.9425821 249.633286,68.8653296 L257.782977,66.0554739 C257.888923,66.0189022 258.000166,66 258.112632,66 L270.57677,66 C270.671714,66 270.76625,66.0131494 270.857527,66.039859 L296.071857,73.3262529 L327.512551,69.7833199 C327.829574,69.7463373 328.144967,69.8630379 328.364194,70.0972611 L331.720236,73.6623836 C331.925201,73.8801701 332.025442,74.1772636 331.994474,74.4760008 L331.520569,79.0758143 L331.520569,85.0653517 C331.520569,85.4323013 331.326606,85.7708975 331.012028,85.9549887 C330.69745,86.1378471 330.309932,86.1390799 329.994539,85.9562215 L326.042347,83.6665876 L325.673981,84.7875713 L328.345857,87.4815482 C328.536967,87.6742686 328.644136,87.9356123 328.644136,88.2080508 L328.644136,96.9100564 C328.644136,97.3230288 328.39883,97.6957312 328.021907,97.8559891 L318.262651,102.011601 L320.614245,106.457731 C320.778868,106.769617 320.773571,107.144374 320.599983,107.450919 L317.24394,113.372655 C317.109877,113.609755 316.887391,113.783162 316.626193,113.854662 C316.364996,113.924518 316.086684,113.889179 315.851973,113.753576 L313.031364,112.118123 L314.00077,116.761083 C314.076562,117.124334 313.95228,117.500735 313.67519,117.745231 C313.486525,117.912064 313.246924,118 313.003655,118 L313.003655,118 Z" id="Fill-19" fill="#231F1F" mask="url(#mask-4)"></path>
                <path d="M339.44567,157.313742 L342.856336,160 L348.766834,156.992136 L354,150.50952 L354,144.245861 L348.262976,135.536838 L346.235952,137.39404 C345.967255,137.640728 345.588016,137.728063 345.239,137.622517 C344.889571,137.517384 344.620874,137.235927 344.532688,136.88245 L343.311754,132 L333.948361,133.915149 L329.556476,139.692467 C329.360646,139.949917 329.05593,140.100993 328.732169,140.100993 L321,140.100993 L321,152.104305 L324.761338,154.281457 L330.94343,152.908113 C331.017125,152.891556 331.092062,152.883692 331.167827,152.883692 L335.307991,152.883692 C335.617261,152.883692 335.910384,153.021937 336.107042,153.260762 L339.44567,157.313742 Z M342.71651,162 C342.489248,162 342.263636,161.926243 342.078032,161.781582 L338.074754,158.665865 C338.017011,158.620226 337.964217,158.569289 337.917197,158.513054 L334.829567,154.80932 L331.304737,154.80932 L324.864682,156.223333 C324.61226,156.278345 324.347877,156.23841 324.124327,156.110049 L319.51433,153.473955 C319.195916,153.291397 319,152.95562 319,152.591726 L319,139.16839 C319,138.605638 319.461536,138.14965 320.031135,138.14965 L328.253815,138.14965 L332.554472,132.559208 C332.70543,132.362795 332.92403,132.227099 333.168616,132.177792 L343.844159,130.020099 C344.385299,129.913335 344.916952,130.241777 345.050999,130.771114 L346.086671,134.864007 L347.721226,133.383573 C347.943951,133.18227 348.245455,133.085693 348.544484,133.123183 C348.844338,133.160265 349.112845,133.324894 349.279064,133.574281 L355.829657,143.402277 C355.940607,143.568535 356,143.763319 356,143.962584 L356,150.793852 C356,151.02694 355.919159,151.252285 355.771088,151.434029 L350.191,158.265297 C350.099435,158.37695 349.985598,158.46823 349.856087,158.533429 L343.184233,161.889161 C343.036162,161.963733 342.875718,162 342.71651,162 L342.71651,162 Z" id="Fill-20" fill="#231F1F" mask="url(#mask-4)"></path>
                <path d="M355,161.308316 L357.138808,162 L361,159.711178 L361,156 L358.932472,158.715485 C358.856607,158.815799 358.764485,158.900343 358.660692,158.966927 L355,161.308316 Z M357.499873,164 C357.402634,164 357.305001,163.984858 357.210517,163.953732 L352.694594,162.468953 C352.324533,162.346554 352.055649,162.004592 352.00762,161.593649 C351.959591,161.183126 352.141471,160.780595 352.472558,160.565239 L357.650259,157.197778 L361.247329,152.394328 C361.50834,152.045637 361.947295,151.91188 362.341371,152.059096 C362.73584,152.206733 363,152.604637 363,153.051333 L363,160.226643 C363,160.60646 362.808671,160.956413 362.499237,161.142747 L357.983314,163.864561 C357.834502,163.954153 357.667581,164 357.499873,164 L357.499873,164 Z" id="Fill-21" fill="#231F1F" mask="url(#mask-4)"></path>
                <path d="M350.823933,131 L355,131 L355,126.547074 L352.701821,126.547074 C352.563994,126.547074 352.426969,126.515458 352.300761,126.453562 L347.254864,124 L346,125.33187 L349.29622,128.079326 C349.412011,128.175509 349.507368,128.298855 349.57588,128.440013 L350.823933,131 Z M355.965241,133 L350.000062,133 C349.620513,133 349.271178,132.78864 349.090302,132.449539 L347.615564,129.685887 L343.414028,126.486908 C343.170653,126.3016 343.019992,126.017125 343.00178,125.708699 C342.983983,125.400693 343.10029,125.09983 343.320486,124.886368 L345.998442,122.291216 C346.300592,121.997917 346.745952,121.918079 347.127985,122.08868 L352.772803,124.596011 L355.965241,124.596011 C356.536428,124.596011 357,125.066214 357,125.646509 L357,131.949501 C357,132.529797 356.536428,133 355.965241,133 L355.965241,133 Z" id="Fill-22" fill="#231F1F" mask="url(#mask-4)"></path>
                <path d="M326,120.175099 L328.769617,121 L330,120.26716 L328.791058,117 L326,120.175099 Z M328.640674,123 C328.525603,123 328.410101,122.983066 328.298479,122.948803 L323.735302,121.551527 C323.40345,121.449922 323.146589,121.207722 323.04574,120.901723 C322.944892,120.595331 323.012986,120.264127 323.228474,120.012082 L328.045495,114.37887 C328.29029,114.092563 328.687219,113.951575 329.079407,114.01498 C329.471165,114.077597 329.793535,114.332006 329.917656,114.677386 L331.94583,120.310598 C332.097103,120.730017 331.923851,121.19 331.522181,121.436138 L329.240593,122.833414 C329.061306,122.94329 328.851852,123 328.640674,123 L328.640674,123 Z" id="Fill-23" fill="#231F1F" mask="url(#mask-4)"></path>
                <path d="M324,127 L326.703458,131 L333,129.269105 L327.4084,127 L324,127 Z M326.490312,133 C326.198127,133 325.916305,132.860975 325.724571,132.611852 L321.230972,126.77063 C320.983431,126.44854 320.930017,126.00081 321.094247,125.621296 C321.258078,125.242647 321.610056,125 321.996713,125 L327.74117,125 C327.847201,125 327.952436,125.018134 328.052887,125.053969 L337.31513,128.355605 C337.740852,128.508014 338.021079,128.948837 337.998757,129.434562 C337.976833,129.919855 337.65794,130.32916 337.22026,130.43494 L326.707159,132.974526 C326.63501,132.991797 326.562462,133 326.490312,133 L326.490312,133 Z" id="Fill-24" fill="#231F1F" mask="url(#mask-4)"></path>
                <path d="M367.9628,155 L368,154.9 L367.915,154.95 L367.9628,155 Z M366.040889,159 C365.809825,159 365.580009,158.923177 365.390994,158.7712 C365.045855,158.494804 364.912628,158.02969 365.058345,157.611337 L366.772801,152.699245 C366.89437,152.351453 367.189966,152.093427 367.55051,152.020779 C367.911054,151.947296 368.282839,152.071716 368.528891,152.346442 L370.732955,154.80228 C370.938623,155.031497 371.032714,155.340042 370.989832,155.646083 C370.947366,155.951288 370.771673,156.222257 370.511049,156.385506 L366.592529,158.841343 C366.423082,158.947393 366.231569,159 366.040889,159 L366.040889,159 Z" id="Fill-25" fill="#231F1F" mask="url(#mask-4)"></path>
                <path d="M341,165 L341.477764,166 L343,165 L341,165 Z M340.937478,168 C340.84058,168 340.743256,167.988023 340.648482,167.963681 C340.376486,167.893749 340.146139,167.727996 340.008865,167.50313 L338.13379,164.434974 C337.951042,164.135538 337.955717,163.771192 338.14654,163.476006 C338.337787,163.181207 338.685858,163 339.062403,163 L343.937514,163 C344.524431,163 345,163.432347 345,163.965922 L345,165.500193 C345,165.849084 344.793028,166.17093 344.458557,166.341705 L341.458521,167.875976 C341.297874,167.958272 341.118526,168 340.937478,168 L340.937478,168 Z" id="Fill-26" fill="#231F1F" mask="url(#mask-4)"></path>
                <path d="M119.912932,209 L318.985959,209 L328,196.085784 L326.508465,192.85523 L319.252625,188.015199 L297.454522,189.982249 C297.429242,189.984649 297.403554,189.986249 297.378273,189.986649 L273.321258,190.386618 C273.242155,190.385018 273.163868,190.379819 273.086804,190.36342 L262.030363,188 L242.09566,190.374619 L230.264093,192.765637 C230.204562,192.777636 230.144216,192.784435 230.083462,192.786035 L213.623162,193.186005 C213.599921,193.186805 213.576679,193.186405 213.55303,193.185205 L204.532465,192.793235 L193.290091,196.338165 C193.232599,196.356163 193.173884,196.369362 193.114353,196.376962 L178.02775,198.376809 C177.54294,198.442404 177.079332,198.158426 176.924389,197.702461 L175.435708,193.321195 L169.139702,190.576204 L158.815572,200.499848 C158.624747,200.683034 158.368683,200.785826 158.102017,200.785826 L124.317404,200.785826 L115,205.525065 L119.912932,209 Z M319.345807,211 L119.538564,211 C119.324639,211 119.116011,210.934039 118.942426,210.810912 L112.422805,206.199254 C112.135942,205.995775 111.977026,205.661573 112.002697,205.315379 C112.028775,204.969185 112.235773,204.661368 112.549938,204.501063 L123.551799,198.90439 C123.696453,198.831234 123.857406,198.792457 124.020804,198.792457 L157.61519,198.792457 L168.130117,188.684065 C168.42839,188.397436 168.874984,188.317883 169.256789,188.484984 L176.591363,191.683083 C176.852963,191.797015 177.053441,192.013686 177.143901,192.279928 L178.507317,196.291943 L192.658155,194.415858 L203.981922,190.845181 C204.096831,190.808802 204.217851,190.792412 204.338464,190.798409 L213.50057,191.196572 L229.823257,190.799608 L241.599323,188.419423 C241.626624,188.413426 241.653924,188.409029 241.68204,188.405831 L261.816261,186.007257 C261.929947,185.993665 262.044448,185.999261 262.156096,186.023247 L273.258196,188.396636 L297.142829,187.999672 L319.252495,186.004458 C319.488424,185.983271 319.723538,186.042436 319.918719,186.173158 L327.708852,191.370069 C327.863693,191.473207 327.98675,191.616722 328.064171,191.784223 L329.909224,195.781846 C330.056323,196.100057 330.02291,196.470237 329.821616,196.758466 L320.186431,210.565059 C319.996547,210.837297 319.681975,211 319.345807,211 L319.345807,211 Z" id="Fill-27" fill="#231F1F" mask="url(#mask-4)"></path>
                <path d="M106,153 L110,153 L110,145 L106,153 Z M110.021696,155 L105.978825,155 C105.29981,155 104.656532,154.647736 104.299156,154.080715 C103.938083,153.508437 103.901523,152.803908 104.202212,152.196444 L108.247548,144.089509 C108.652986,143.27376 109.566965,142.845866 110.468211,143.050915 L110.469443,143.050915 C111.370689,143.257582 112,144.037741 112,144.948128 L112,153.05385 C112,153.564654 111.78886,154.065347 111.421215,154.428935 C111.052337,154.792119 110.542562,155 110.021696,155 L110.021696,155 Z" id="Fill-28" fill="#231F1F" mask="url(#mask-4)"></path>
                <path d="M118,154 L129,154 C128.507716,146.868814 124.401389,140.54409 118,137 L118,154 Z M129.959378,156 L118.003832,156 C117.476749,156 116.96049,155.787604 116.587452,155.417464 C116.213581,155.045667 116,154.532274 116,154.007701 L116,135.034905 C116,134.67967 116.183188,134.349276 116.485449,134.159652 C116.787294,133.970027 117.166577,133.948084 117.488823,134.100446 C125.654449,137.972842 130.831605,145.959841 130.999805,154.945473 C131.005217,155.223285 130.897802,155.491575 130.702124,155.689894 C130.506445,155.888213 130.23874,156 129.959378,156 L129.959378,156 Z" id="Fill-29" fill="#231F1F" mask="url(#mask-4)"></path>
                <path d="M118,162 L118,173 C122.171726,170.537026 125.365881,166.635407 127,162 L118,162 Z M117.032439,176 C116.840405,176 116.649198,175.946678 116.48153,175.841674 C116.181709,175.653815 116,175.326497 116,174.974569 L116,161.974159 C116,161.45283 116.212269,160.943806 116.582296,160.576292 C116.950257,160.210829 117.46276,160 117.987652,160 L128.967435,160 C129.292034,160 129.598049,160.151354 129.792973,160.409352 C129.987898,160.66694 130.049431,161.00082 129.959403,161.3105 C128.094818,167.708778 123.545478,173.026251 117.476801,175.900328 C117.335976,175.966776 117.184001,176 117.032439,176 L117.032439,176 Z" id="Fill-30" fill="#231F1F" mask="url(#mask-4)"></path>
                <path d="M110,162 L109.999,162 L110,162 Z M96,172.680804 C99.5779018,174.854943 103.699614,176 107.978417,176 C108.650561,176 109.327856,175.971006 110,175.913018 L110,162 L101.513643,162 L96,172.680804 Z M107.966042,178 C103.099536,178 98.4237179,176.564325 94.4445988,173.847436 C94.0241699,173.560463 93.8804264,173.016598 94.1064277,172.566222 L99.8665536,161.092202 C100.206386,160.417858 100.894361,160 101.662101,160 L109.999639,160 C110.528499,160 111.04448,160.209335 111.415471,160.573538 C111.786462,160.937335 112,161.441366 112,161.956372 L112,176.790732 C112,177.300454 111.614468,177.730913 111.098072,177.797981 C110.063617,177.932118 109.009637,178 107.966042,178 L107.966042,178 Z" id="Fill-31" fill="#231F1F" mask="url(#mask-4)"></path>
                <path d="M92,162 L91.999,162 L92,162 Z M88,162 C88.5143193,163.40317 89.1851707,164.741399 90.0058847,166 L92,162 L88,162 Z M89.8408181,169 C89.5117431,169 89.1991854,168.856772 88.9980135,168.609487 C87.1959362,166.39381 85.8652367,163.922539 85.0419139,161.264123 C84.9491631,160.965006 85.0122676,160.643338 85.212169,160.394865 C85.4124939,160.145997 85.7258986,160 86.0587853,160 L91.9596882,160 C92.6589196,160 93.3225753,160.343826 93.6910376,160.897745 C94.0637351,161.456807 94.1014284,162.145646 93.7922589,162.739922 L90.7911968,168.447268 C90.6294122,168.754693 90.3083841,168.962413 89.9428864,168.995252 C89.9090048,168.998417 89.8746997,169 89.8408181,169 L89.8408181,169 Z" id="Fill-32" fill="#231F1F" mask="url(#mask-4)"></path>
                <path d="M86,153 L95.4766733,153 L105,133 C100.151264,133.436018 95.6355362,135.586239 92.1421616,139.156112 C88.4987723,142.878653 86.3402481,147.760729 86,153 M95.7184135,155 L85.0177969,155 C84.7442571,155 84.4829289,154.889052 84.2912068,154.692223 C84.0998917,154.495394 83.995279,154.22912 84.0001637,153.953395 C84.1133245,147.831969 86.5507595,142.08571 90.863489,137.77314 C95.1794749,133.457693 100.901016,131.052597 106.973844,131 C107.324724,131.015204 107.656065,131.17916 107.843717,131.480362 C108.031775,131.781974 108.051314,132.160429 107.895819,132.480122 L97.4768837,153.893812 C97.1459493,154.575934 96.4718691,155 95.7184135,155" id="Fill-33" fill="#231F1F" mask="url(#mask-4)"></path>
            </g>
        </g>
    </g>
</svg>