<?xml version="1.0" encoding="UTF-8" standalone="no"?>
<svg width="84px" height="66px" viewBox="0 0 84 66" version="1.1" xmlns="http://www.w3.org/2000/svg" xmlns:xlink="http://www.w3.org/1999/xlink">
    <!-- Generator: Sketch 40.1 (33804) - http://www.bohemiancoding.com/sketch -->
    <title>Group</title>
    <desc>Created with Sketch.</desc>
    <defs></defs>
    <g id="Page-1" stroke="none" stroke-width="1" fill="none" fill-rule="evenodd">
        <g id="Docs" transform="translate(-388.000000, -1027.000000)" fill="#6666FF">
            <g id="Group" transform="translate(388.000000, 1027.000000)">
                <path d="M45.907866,61.2992991 C45.730296,60.8055296 45.4686137,60.3514798 45.1352804,59.9581776 C49.8447819,58.3577103 54.7497664,57.5461838 59.7583333,57.5461838 C65.7365265,57.5461838 71.569081,58.6996106 77.0955607,60.9745327 C77.5815421,61.2634735 78.0698598,61.6178349 78.5496106,62.0298287 C67.7084891,60.4535047 56.7521028,60.2081776 45.907866,61.2992991 L45.907866,61.2992991 Z M5.06362928,62.0298287 C5.54338006,61.6178349 6.03247664,61.2634735 6.51845794,60.9745327 C12.0449377,58.6996106 17.8774922,57.5461838 23.8556854,57.5461838 C28.8642523,57.5461838 33.7692368,58.3577103 38.4787383,59.9581776 C38.145405,60.3514798 37.8837227,60.8047508 37.7061526,61.2992991 C26.8619159,60.2073988 15.9055296,60.4542835 5.06362928,62.0298287 L5.06362928,62.0298287 Z M2.86814642,13.257243 C2.86814642,11.7619159 3.20459502,10.0897975 3.66876947,9.56098131 C4.13372274,9.03294393 4.55038941,9.85303738 4.55038941,11.3483645 L4.55038941,56.3094237 C4.55038941,57.8047508 4.14774143,59.2852804 3.68356698,59.6583333 C3.21939252,60.0306075 2.86814642,59.1505452 2.86814642,57.6552181 L2.86814642,13.257243 Z M9.80584112,5.90911215 C14.3393302,4.4355919 19.0503894,3.6902648 23.8556854,3.6902648 C28.6609813,3.6902648 33.3712617,4.4355919 37.9047508,5.90911215 C39.3268692,6.37172897 40.4530374,8.03372274 40.4530374,9.52904984 L40.4530374,55.0734424 C40.4530374,56.5687695 39.3159657,57.3553738 37.8860592,56.9200156 C33.3463396,55.536838 28.645405,54.8382399 23.8556854,54.8382399 C19.0659657,54.8382399 14.3642523,55.536838 9.82453271,56.9200156 C8.39462617,57.3553738 7.25755452,56.5687695 7.25755452,55.0734424 L7.25755452,9.52904984 C7.25755452,8.03372274 8.38372274,6.37172897 9.80584112,5.90911215 L9.80584112,5.90911215 Z M45.7084891,5.90911215 C50.2419782,4.4355919 54.9530374,3.6902648 59.7583333,3.6902648 C64.5636293,3.6902648 69.2739097,4.4355919 73.8081776,5.90911215 C75.230296,6.37172897 76.3564642,8.03372274 76.3564642,9.52904984 L76.3564642,55.0734424 C76.3564642,56.5687695 75.2193925,57.3553738 73.7887072,56.9200156 C69.2489875,55.536838 64.548053,54.8382399 59.7583333,54.8382399 C54.9686137,54.8382399 50.2676791,55.536838 45.7279595,56.9200156 C44.2972741,57.3553738 43.1609813,56.5687695 43.1609813,55.0734424 L43.1609813,9.52904984 C43.1609813,8.03372274 44.2863707,6.37172897 45.7084891,5.90911215 L45.7084891,5.90911215 Z M79.9444704,9.56098131 C80.4094237,10.0897975 80.7458723,11.7619159 80.7458723,13.257243 L80.7458723,57.6552181 C80.7458723,59.1505452 80.3946262,60.0306075 79.9304517,59.6583333 C79.4662773,59.2852804 79.0636293,57.8047508 79.0636293,56.3094237 L79.0636293,11.3483645 C79.0636293,9.85303738 79.480296,9.03294393 79.9444704,9.56098131 L79.9444704,9.56098131 Z M78.4211059,4.75724299 C78.4148754,4.75257009 78.4086449,4.74867601 78.4016355,4.74478193 C78.3985202,4.74244548 78.3946262,4.74010903 78.3915109,4.73777259 C78.3440031,4.71051402 78.2949377,4.68714953 78.2458723,4.66534268 C78.2396417,4.66300623 78.23419,4.65989097 78.2279595,4.6567757 C72.3424455,2.219081 66.128271,0.982320872 59.7583333,0.982320872 C53.5745327,0.982320872 47.5387072,2.15132399 41.8066199,4.44961059 C36.0753115,2.15132399 30.039486,0.982320872 23.8556854,0.982320872 C17.4849688,0.982320872 11.2707944,2.219081 5.38528037,4.6567757 L5.38372274,4.65755452 C5.32842679,4.680919 5.27468847,4.70739875 5.22250779,4.73777259 C5.21939252,4.74010903 5.21549844,4.74244548 5.21238318,4.74478193 C5.20537383,4.74867601 5.1991433,4.75257009 5.19291277,4.75724299 C3.48886293,5.75724299 1.79104361,7.3779595 0.410202492,9.32655763 C0.247429907,9.55475078 0.160202492,9.82889408 0.160202492,10.1092679 L0.160202492,63.9628505 C0.160202492,64.0399533 0.167990654,64.1162773 0.180451713,64.1902648 L0.180451713,64.1957165 C0.182788162,64.2097352 0.189018692,64.2221963 0.19135514,64.236215 C0.203816199,64.2961838 0.218613707,64.3553738 0.238862928,64.4122274 C0.248208723,64.439486 0.260669782,64.4644081 0.271573209,64.4908879 C0.290264798,64.5337227 0.308956386,64.5765576 0.331542056,64.6170561 C0.34711838,64.6443146 0.36347352,64.6700156 0.380607477,64.6964953 C0.404750779,64.7338785 0.429672897,64.769704 0.456931464,64.803972 C0.476401869,64.8281153 0.495872274,64.8507009 0.516121495,64.8725078 C0.546495327,64.9067757 0.579205607,64.9387072 0.61347352,64.969081 C0.634501558,64.9877726 0.654750779,65.0064642 0.677336449,65.0235981 C0.714719626,65.0531931 0.753660436,65.0796729 0.794158879,65.1053738 C0.817523364,65.1201713 0.840109034,65.1349688 0.86347352,65.1474299 C0.905529595,65.1707944 0.949143302,65.189486 0.992757009,65.2081776 C1.01923676,65.219081 1.04493769,65.2307632 1.07141745,65.240109 C1.08232087,65.2440031 1.09244548,65.2502336 1.10334891,65.2533489 C1.13917445,65.2650312 1.17655763,65.2704829 1.21316199,65.2790498 C1.23886293,65.2852804 1.26456386,65.2922897 1.29182243,65.2969626 C1.36191589,65.3086449 1.43123053,65.3148754 1.50132399,65.3156542 L1.51222741,65.316433 L1.51300623,65.316433 L1.51456386,65.316433 C1.5838785,65.316433 1.65319315,65.3094237 1.72250779,65.2985202 C1.73029595,65.2977414 1.73886293,65.2977414 1.74665109,65.2969626 C13.9771807,63.163785 26.3930685,62.7665888 38.6508567,64.1162773 C38.6757788,64.1193925 38.6999221,64.1154984 38.7240654,64.1170561 C38.7497664,64.1186137 38.7731308,64.1240654 38.7988318,64.1240654 L44.8151869,64.1240654 C44.8408879,64.1240654 44.8650312,64.1178349 44.8899533,64.1170561 C44.9148754,64.1154984 44.9382399,64.1193925 44.963162,64.1162773 C57.2209502,62.7650312 69.636838,63.163785 81.8665888,65.2969626 C81.8751558,65.2977414 81.8837227,65.2977414 81.8915109,65.2985202 C81.9600467,65.3094237 82.0293614,65.316433 82.0994548,65.316433 L82.1002336,65.316433 L82.1017913,65.316433 L82.1126947,65.3156542 C82.1820093,65.3148754 82.2521028,65.3086449 82.3221963,65.2969626 C82.348676,65.2922897 82.3743769,65.2852804 82.4008567,65.2790498 C82.4374611,65.2704829 82.4740654,65.2650312 82.5106698,65.2533489 C82.5215732,65.2502336 82.5316978,65.2440031 82.5426012,65.240109 C82.569081,65.2307632 82.5947819,65.219081 82.6204829,65.2081776 C82.6648754,65.189486 82.7084891,65.1707944 82.7497664,65.1474299 C82.7739097,65.1349688 82.7964953,65.1201713 82.8198598,65.1053738 C82.8595794,65.0796729 82.8992991,65.0531931 82.9366822,65.0235981 C82.9584891,65.0064642 82.9795171,64.9877726 83.0005452,64.969081 C83.0348131,64.9387072 83.0675234,64.9067757 83.0978972,64.8725078 C83.1181464,64.8507009 83.1376168,64.8281153 83.1563084,64.8047508 C83.1843458,64.769704 83.2092679,64.7338785 83.2334112,64.6964953 C83.2505452,64.6700156 83.2669003,64.6443146 83.2816978,64.6170561 C83.3050623,64.5765576 83.3237539,64.5337227 83.3424455,64.490109 C83.3533489,64.4644081 83.36581,64.439486 83.3751558,64.4122274 C83.395405,64.3553738 83.4102025,64.2961838 83.4226636,64.2354361 C83.425,64.2221963 83.4304517,64.2097352 83.4327882,64.1957165 C83.433567,64.1941589 83.433567,64.1918224 83.433567,64.1902648 C83.446028,64.1162773 83.4530374,64.0399533 83.4530374,63.9628505 L83.4530374,10.1092679 C83.4530374,9.82889408 83.36581,9.55475078 83.2038162,9.32655763 C81.8221963,7.3779595 80.1251558,5.75724299 78.4211059,4.75724299 L78.4211059,4.75724299 Z" id="Fill-5"></path>
                <path d="M49.3063863,14.0169782 C56.0454829,11.2249221 63.4707165,11.2249221 70.2105919,14.0169782 C70.3803738,14.0878505 70.5556075,14.1197819 70.7285047,14.1197819 C71.2596573,14.1197819 71.7635514,13.8051402 71.9792835,13.284891 C72.2658879,12.5933022 71.9380062,11.8020249 71.2471963,11.5154206 C63.8390966,8.44766355 55.6786604,8.44610592 48.2697819,11.5154206 C47.5797508,11.8020249 47.2510903,12.5933022 47.5376947,13.284891 C47.8235202,13.9749221 48.6147975,14.3028037 49.3063863,14.0169782" id="Fill-7"></path>
                <path d="M49.3063863,20.2498442 C56.0454829,17.4577882 63.4707165,17.4577882 70.2105919,20.2498442 C70.3803738,20.3207165 70.5556075,20.352648 70.7285047,20.352648 C71.2596573,20.352648 71.7635514,20.0380062 71.9792835,19.517757 C72.2658879,18.8261682 71.9380062,18.034891 71.2471963,17.7482866 C63.8390966,14.6797508 55.6786604,14.6797508 48.2697819,17.7482866 C47.5797508,18.034891 47.2510903,18.8261682 47.5376947,19.517757 C47.8235202,20.2077882 48.6147975,20.5356698 49.3063863,20.2498442" id="Fill-9"></path>
                <path d="M49.3063863,26.4827882 C56.0454829,23.6915109 63.4707165,23.6899533 70.2105919,26.4827882 C70.3803738,26.5536604 70.5556075,26.5855919 70.7285047,26.5855919 C71.2596573,26.5855919 71.7635514,26.2709502 71.9792835,25.7507009 C72.2658879,25.0591121 71.9380062,24.2678349 71.2471963,23.9812305 C63.8390966,20.9126947 55.6786604,20.9126947 48.2697819,23.9812305 C47.5797508,24.2678349 47.2510903,25.0591121 47.5376947,25.7507009 C47.8235202,26.4407321 48.6147975,26.7693925 49.3063863,26.4827882" id="Fill-11"></path>
                <path d="M49.3063863,32.7165888 C56.0454829,29.9245327 63.4707165,29.9245327 70.2105919,32.7165888 C70.3803738,32.7874611 70.5556075,32.8193925 70.7285047,32.8193925 C71.2596573,32.8193925 71.7635514,32.5047508 71.9792835,31.9845016 C72.2658879,31.2929128 71.9380062,30.5016355 71.2471963,30.2150312 C63.8390966,27.1464953 55.6786604,27.1464953 48.2697819,30.2150312 C47.5797508,30.5016355 47.2510903,31.2929128 47.5376947,31.9845016 C47.8235202,32.6745327 48.6147975,33.0024143 49.3063863,32.7165888" id="Fill-13"></path>
                <path d="M49.3063863,38.9495327 C56.0454829,36.1582555 63.4707165,36.1566978 70.2105919,38.9495327 C70.3803738,39.020405 70.5556075,39.0523364 70.7285047,39.0523364 C71.2596573,39.0523364 71.7635514,38.7376947 71.9792835,38.2174455 C72.2658879,37.5258567 71.9380062,36.7345794 71.2471963,36.4479751 C63.8390966,33.3794393 55.6786604,33.3794393 48.2697819,36.4479751 C47.5797508,36.7345794 47.2510903,37.5258567 47.5376947,38.2174455 C47.8235202,38.9074766 48.6147975,39.2361371 49.3063863,38.9495327" id="Fill-15"></path>
                <path d="M49.3063863,45.1823988 C56.0454829,42.3903427 63.4707165,42.3903427 70.2105919,45.1823988 C70.3803738,45.253271 70.5556075,45.2852025 70.7285047,45.2852025 C71.2596573,45.2852025 71.7635514,44.9705607 71.9792835,44.4503115 C72.2658879,43.7587227 71.9380062,42.9674455 71.2471963,42.6808411 C63.8390966,39.6130841 55.6786604,39.6115265 48.2697819,42.6808411 C47.5797508,42.9674455 47.2510903,43.7587227 47.5376947,44.4503115 C47.8235202,45.1403427 48.6147975,45.4690031 49.3063863,45.1823988" id="Fill-17"></path>
                <path d="M49.3063863,51.4161994 C56.0454829,48.6241433 63.4707165,48.6241433 70.2105919,51.4161994 C70.3803738,51.4870717 70.5556075,51.5190031 70.7285047,51.5190031 C71.2596573,51.5190031 71.7635514,51.2043614 71.9792835,50.6841121 C72.2658879,49.9925234 71.9380062,49.2012461 71.2471963,48.9146417 C63.8390966,45.8461059 55.6786604,45.8461059 48.2697819,48.9146417 C47.5797508,49.2012461 47.2510903,49.9925234 47.5376947,50.6841121 C47.8235202,51.3741433 48.6147975,51.7020249 49.3063863,51.4161994" id="Fill-19"></path>
                <path d="M13.403271,38.9495327 C20.1431464,36.1566978 27.5683801,36.1582555 34.3074766,38.9495327 C34.4772586,39.020405 34.6524922,39.0523364 34.8253894,39.0523364 C35.3565421,39.0523364 35.8604361,38.7376947 36.0761682,38.2174455 C36.3627726,37.5258567 36.034891,36.7345794 35.344081,36.4479751 C27.9352025,33.3794393 19.7747664,33.3794393 12.3666667,36.4479751 C11.6766355,36.7345794 11.3487539,37.5258567 11.6345794,38.2174455 C11.920405,38.9074766 12.7116822,39.2361371 13.403271,38.9495327" id="Fill-21"></path>
                <path d="M13.403271,45.1823988 C20.1431464,42.3903427 27.5683801,42.3903427 34.3074766,45.1823988 C34.4772586,45.253271 34.6524922,45.2852025 34.8253894,45.2852025 C35.3565421,45.2852025 35.8604361,44.9705607 36.0761682,44.4503115 C36.3627726,43.7587227 36.034891,42.9674455 35.344081,42.6808411 C27.9352025,39.6115265 19.7747664,39.6130841 12.3666667,42.6808411 C11.6766355,42.9674455 11.3487539,43.7587227 11.6345794,44.4503115 C11.920405,45.1403427 12.7116822,45.4690031 13.403271,45.1823988" id="Fill-23"></path>
                <path d="M13.403271,51.4161994 C20.1431464,48.6241433 27.5683801,48.6241433 34.3074766,51.4161994 C34.4772586,51.4870717 34.6524922,51.5190031 34.8253894,51.5190031 C35.3565421,51.5190031 35.8604361,51.2043614 36.0761682,50.6841121 C36.3627726,49.9925234 36.034891,49.2012461 35.344081,48.9146417 C27.9352025,45.8461059 19.7747664,45.8461059 12.3666667,48.9146417 C11.6766355,49.2012461 11.3487539,49.9925234 11.6345794,50.6841121 C11.920405,51.3741433 12.7116822,51.7020249 13.403271,51.4161994" id="Fill-25"></path>
                <path d="M14.238785,14.7704829 C14.238785,13.2751558 15.370405,11.621729 16.8158879,11.2385514 C21.4140187,10.0173676 26.2964174,10.0173676 30.8945483,11.2385514 C32.3400312,11.621729 33.4716511,13.2751558 33.4716511,14.7704829 L33.4716511,26.803972 C33.4716511,28.2985202 32.3252336,29.1084891 30.8711838,28.7603583 C26.2753894,27.659891 21.4342679,27.659891 16.8392523,28.7603583 C15.3852025,29.1092679 14.238785,28.2985202 14.238785,26.803972 L14.238785,14.7704829 Z M12.132866,32.5913551 C12.5090343,32.8413551 12.9856698,32.8880841 13.4031153,32.7167445 C20.0643302,29.9558411 27.6461059,29.9558411 34.3073209,32.7167445 C34.4739875,32.7852804 34.65,32.8195483 34.8260125,32.8195483 C35.0900312,32.8195483 35.3517134,32.7424455 35.5783489,32.5913551 C35.9537383,32.3405763 36.179595,31.9176791 36.179595,31.4659657 L36.179595,11.142757 C36.179595,10.5952492 35.8493769,10.1022586 35.3439252,9.89197819 C31.6827103,8.37640187 27.8174455,7.60693146 23.8556075,7.60693146 C19.8929907,7.60693146 16.0277259,8.37640187 12.3665109,9.89197819 C11.8610592,10.1022586 11.5316199,10.5952492 11.5316199,11.142757 L11.5316199,31.4659657 C11.5316199,31.9176791 11.7566978,32.3405763 12.132866,32.5913551 L12.132866,32.5913551 Z" id="Fill-27"></path>
            </g>
        </g>
    </g>
</svg>