<?xml version="1.0" encoding="UTF-8" standalone="no"?>
<svg width="66px" height="66px" viewBox="0 0 66 66" version="1.1" xmlns="http://www.w3.org/2000/svg" xmlns:xlink="http://www.w3.org/1999/xlink">
    <!-- Generator: Sketch 40.1 (33804) - http://www.bohemiancoding.com/sketch -->
    <title>Page 1</title>
    <desc>Created with Sketch.</desc>
    <defs></defs>
    <g id="Page-1" stroke="none" stroke-width="1" fill="none" fill-rule="evenodd">
        <g id="Docs" transform="translate(-977.000000, -1029.000000)" fill="#6666FF">
            <g id="Page-1" transform="translate(977.000000, 1029.000000)">
                <g id="Group-3">
                    <path d="M56.9325142,62 C55.7545581,62 54.5991929,61.5164256 53.7613918,60.6739027 L36.9214605,43.739711 C36.4909418,43.3067658 35.9590865,42.4953994 35.7325317,41.9267938 L34.6326757,39.1610078 C34.519721,38.8760559 34.295748,38.6508205 34.0130385,38.5372292 C34.0130385,38.5372292 33.7522745,38.4327252 33.4314832,38.3035557 C33.1106919,38.1750352 32.5691548,37.9569399 32.2218998,37.8173849 C31.8746448,37.6778299 31.9424176,37.2137283 32.3729364,36.7807831 L35.8687228,33.2646454 C36.2992415,32.8317003 36.8310968,32.941397 37.0576516,33.5100026 L37.6159705,34.9139912 C37.7289252,35.1989431 37.9528983,35.4241784 38.2356077,35.5377697 L40.9865386,36.6438245 C41.5513121,36.8716562 42.3587768,37.4065089 42.7892955,37.8394541 L59.7847816,54.9300772 C60.5845008,55.7349527 61.0163105,56.8053074 60.9995286,57.9431677 C60.9821013,59.0816771 60.5180189,60.1390499 59.6924814,60.9218562 C58.9579532,61.617035 57.9775065,62 56.9325142,62 M18.364695,52.4793311 C19.5718408,55.6080788 18.8224426,59.1578281 16.4558876,61.523674 C14.8590024,63.1207343 12.7343996,64 10.4744343,64 C9.92906078,64 9.38630292,63.9477017 8.85466178,63.8444125 C8.24912711,63.7273949 8.12880488,63.2076803 8.56497295,62.7716429 L10.7275034,60.6097606 C11.0126147,60.3253884 11.123782,59.9109241 11.0198079,59.5219553 L10.2272506,56.5651383 C10.1226226,56.1761695 9.81920136,55.8728391 9.4301159,55.7682425 L6.47306644,54.9765765 C6.08398098,54.873941 5.66939245,54.9837675 5.38428109,55.2681397 L3.22240459,57.430022 C2.78623652,57.8660593 2.26701996,57.7451194 2.15127521,57.1397662 C1.63336651,54.4333275 2.45469648,51.5562655 4.47074767,49.5414723 C6.06828678,47.9444119 8.1941974,47.0651462 10.4548166,47.0651462 C11.50829,47.0651462 12.538876,47.2566889 13.5178019,47.6332369 C13.9336983,47.7927468 14.4045244,47.6940337 14.7197163,47.3789362 L28.7758371,33.327028 C29.2120052,32.8909907 29.9188983,32.8909907 30.3550663,33.327028 L30.672874,33.6447404 C31.109042,34.0807777 31.109042,34.7874589 30.672874,35.2234963 L28.5011886,37.3951845 C28.2330793,37.6625598 28.1179884,38.0469525 28.1944977,38.4182707 C28.2710069,38.7889351 28.5279995,39.0968415 28.8798112,39.2373933 C28.8798112,39.2373933 29.1649226,39.3511422 29.5167343,39.4916939 C29.8678921,39.6322457 29.79923,40.0996621 29.3637158,40.5356994 L18.6190719,51.2771232 C18.30388,51.5928744 18.2044834,52.0635593 18.364695,52.4793311 M43.8874573,17.1331144 C41.9596105,13.0911712 42.7867698,8.25202125 45.9454929,5.09147815 C47.9390917,3.09780363 50.5902099,2 53.410968,2 C54.0520494,2 54.6937883,2.05919852 55.3256644,2.17496451 C55.9358424,2.28678393 56.0620861,2.78997133 55.6241782,3.22869813 L51.1504164,7.70344831 C50.8643954,7.99023224 50.7526171,8.40659515 50.8571627,8.79796313 L52.0295198,13.1760224 C52.1347229,13.5673904 52.4398119,13.8732494 52.8310359,13.9778334 L57.2068274,15.1506219 C57.5980514,15.2545481 58.0142612,15.1427287 58.3009396,14.8566026 L62.775359,10.3811946 C63.2139245,9.94246781 63.7175843,10.068758 63.8287051,10.6791605 C64.4408556,14.0422941 63.3993449,17.5757878 60.9119491,20.0640988 C58.9190079,22.0577734 56.2678897,23.1549192 53.4477891,23.1549192 C51.8723726,23.1549192 50.2910385,22.7977548 48.8753993,22.122234 C48.442094,21.9150392 47.9259413,22.0044947 47.5866613,22.3438995 L39.5793903,30.3541168 C39.1408249,30.7928436 38.7837918,31.1434303 38.7811618,31.1381682 L38.7772166,31.1283018 L38.2728993,29.8667156 C38.1670387,29.6016378 37.9664952,29.3898387 37.7153228,29.2674951 C37.6318179,29.2273716 37.5423952,29.1964569 37.4490275,29.1773818 C37.074899,29.1010815 36.6895926,29.2175052 36.4200097,29.4865296 L34.2363878,31.6709549 C33.7984799,32.1096817 33.0870439,32.1096817 32.6484785,31.6709549 L32.3289241,31.3512829 C31.8903586,30.9125561 31.8903586,30.2015161 32.3289241,29.7627893 L43.6658732,18.4223266 C44.0051532,18.0829218 44.0939184,17.5659214 43.8874573,17.1331144 M43.1771493,34.9916556 L40.6231616,33.9699919 C40.0500845,33.7410659 39.5823331,33.5461519 39.5777537,33.5356867 C39.5738286,33.5245674 39.9238243,33.1622104 40.3601742,32.725943 L47.6760667,25.4107783 C48.1117623,24.9745109 48.9288552,24.8123006 49.5195957,24.9908628 C50.725282,25.3551821 51.9878835,25.5442095 53.247214,25.5442095 C56.6555839,25.5442095 59.8591899,24.2184013 62.2679457,21.8101005 C66.0773387,18.000773 67.0815321,12.1657781 64.7656724,7.29096387 C64.6086649,6.96000238 64.3005378,6.72584385 63.9394207,6.66370682 C63.5783036,6.60222385 63.2093361,6.71799497 62.9502739,6.97766238 L57.731739,12.1952114 C57.2953892,12.6314788 56.4586704,12.8551721 55.8626963,12.6955781 L54.9245769,12.4444136 C54.3286028,12.2848195 53.7162738,11.6726062 53.5566495,11.0767447 L53.3047834,10.1381484 C53.1451592,9.54228688 53.369549,8.70572612 53.8058988,8.2694587 L59.0237794,3.0519097 C59.2828417,2.79289636 59.3999431,2.42465265 59.3377943,2.06360375 C59.2756455,1.70255485 59.0414428,1.39448596 58.7104188,1.23750818 C57.0062338,0.427764454 55.1044812,0 53.210579,0 C49.8015549,0 46.5979489,1.32646225 44.1891931,3.73476305 C40.8292339,7.09277942 39.6516781,12.0212277 41.0052131,16.4813589 C41.1844632,17.0719878 41.0222222,17.8882723 40.5858724,18.3245397 L30.6414136,28.2671199 C30.2050637,28.7033873 29.4972219,28.7033873 29.0615262,28.2671199 L10.666142,9.87586467 C10.2297921,9.43959725 10.1225037,8.83981131 10.4260514,8.53697501 C10.728945,8.23348463 10.560162,7.70891721 10.0479252,7.36487424 L5.3004127,4.17560898 C4.78817592,3.83156601 4.01883946,3.90613046 3.58248962,4.34239788 L3.51576146,4.40911343 C3.08006581,4.84538085 3.00483308,5.6139179 3.34894105,6.12605792 L6.53880888,10.8733277 C6.88291686,11.3848136 7.40758339,11.5542188 7.7111311,11.2507284 C8.01467882,10.9478921 8.61392389,11.0551602 9.05027373,11.4914277 L27.4450038,29.8826829 C27.8813536,30.3189503 27.8813536,31.0266585 27.4450038,31.4622718 L14.6717943,44.2330684 C14.2354445,44.6693358 13.4039592,44.8694825 12.7988264,44.750441 C12.1145356,44.6157017 11.4165067,44.547678 10.7106274,44.547678 C7.84655002,44.547678 5.15387242,45.6622203 3.12978483,47.6859255 C-0.233445383,51.0485204 -0.972688749,56.3040057 1.33401223,60.4665332 C1.50541202,60.7765643 1.81223073,60.9878303 2.16288068,61.0368858 C2.51549322,61.0865954 2.86679737,60.967554 3.11670088,60.7176977 L5.98274086,57.8528532 C6.41909071,57.4165857 7.15310049,57.1647672 7.62346862,57.2903494 C8.09318254,57.4165857 8.57598042,57.8992924 8.70158638,58.3689176 C8.82719233,58.8391969 8.57598042,59.5737221 8.13963058,60.0099895 L5.27359059,62.874834 C5.02368708,63.1246903 4.9052773,63.4778903 4.95434213,63.828474 C5.00340695,64.1790577 5.2147128,64.4858185 5.5241483,64.65784 C7.10992345,65.5356074 8.90962123,66 10.7302533,66 C13.5930223,66 16.2850458,64.8854578 18.3084791,62.8617525 C20.8624668,60.3082473 21.9294632,56.6663628 21.2438641,53.1938834 C21.1241459,52.5888649 21.3243304,51.7581908 21.7606802,51.3219234 L31.9053235,41.1791965 C32.3410191,40.7429291 32.7040988,40.3929994 32.714566,40.3975779 C32.7256874,40.4021565 32.9206383,40.8698194 33.1496075,41.4427883 L34.1714642,43.9956395 C34.2277252,44.1382277 34.3127709,44.2664262 34.4207135,44.3743484 L52.4418967,62.3921273 C53.710386,63.660377 55.4629815,64.3883614 57.2502496,64.3883614 C58.8863979,64.3883614 60.428996,63.7846511 61.5928137,62.6884229 C62.8783121,61.4783858 63.5998921,59.8418925 63.62606,58.0804709 C63.6528821,56.3190494 62.9810211,54.6629338 61.7347746,53.4169227 L43.5559298,35.2415119 C43.4479872,35.1335897 43.3191102,35.04856 43.1771493,34.9916556" id="Fill-1"></path>
                </g>
                <path d="M39.8933867,39.3248867 C39.4602265,38.8917044 38.7586741,38.8917044 38.3248702,39.3248867 C37.8917099,39.758069 37.8917099,40.459657 38.3248702,40.893483 L55.1067742,57.6749524 C55.3230325,57.8918653 55.6068716,58 55.8907106,58 C56.1745497,58 56.4583887,57.8918653 56.6746471,57.6749524 C57.108451,57.2417701 57.108451,56.5401821 56.6746471,56.1069998 L39.8933867,39.3248867 Z" id="Fill-4"></path>
            </g>
        </g>
    </g>
</svg>