<?xml version="1.0" encoding="UTF-8" standalone="no"?>
<svg width="466px" height="284px" viewBox="0 0 466 284" version="1.1" xmlns="http://www.w3.org/2000/svg" xmlns:xlink="http://www.w3.org/1999/xlink">
    <!-- Generator: Sketch 40.1 (33804) - http://www.bohemiancoding.com/sketch -->
    <title>Page 1</title>
    <desc>Created with Sketch.</desc>
    <defs>
        <polygon id="path-1" points="376 -1.43565715e-14 -1.13069917e-12 3.1981371e-14 -1.13649368e-12 237 376 237 376 7.83193136e-14"></polygon>
        <polygon id="path-3" points="0 284 466 284 466 1.11022302e-15 0 1.11022302e-15"></polygon>
    </defs>
    <g id="Page-1" stroke="none" stroke-width="1" fill="none" fill-rule="evenodd" opacity="0.5">
        <g id="Support" transform="translate(-826.000000, -143.000000)">
            <g id="Page-1" transform="translate(826.000000, 143.000000)">
                <g id="Group-3" transform="translate(45.000000, 0.000000)">
                    <mask id="mask-2" fill="white">
                        <use xlink:href="#path-1"></use>
                    </mask>
                    <g id="Clip-2"></g>
                    <path d="M2,235 L374,235 L374,12.9425352 C374,6.90860651 369.50767,2 363.98555,2 L12.0144497,2 C6.49233002,2 2,6.90860651 2,12.9425352 L2,235 Z M374.980619,237 L1.01938126,237 C0.456275051,237 -1.13649368e-12,236.543904 -1.13649368e-12,235.981019 L-1.13649368e-12,12.9769323 C-1.13649368e-12,5.82123712 5.40598268,-5.8598959e-15 12.0511252,-5.8598959e-15 L363.948875,-5.8598959e-15 C370.594017,-5.8598959e-15 376,5.82123712 376,12.9769323 L376,235.981019 C376,236.543904 375.543725,237 374.980619,237 L374.980619,237 Z" id="Fill-1" fill="#231F1F" mask="url(#mask-2)"></path>
                </g>
                <mask id="mask-4" fill="white">
                    <use xlink:href="#path-3"></use>
                </mask>
                <g id="Clip-5"></g>
                <path d="M72,210 L393,210 L393,25 L72,25 L72,210 Z M393.980552,212 L71.0194479,212 C70.4567127,212 70,211.542976 70,210.979856 L70,24.0201438 C70,23.4566164 70.4567127,23 71.0194479,23 L393.980552,23 C394.543695,23 395,23.4566164 395,24.0201438 L395,210.979856 C395,211.542976 394.543695,212 393.980552,212 L393.980552,212 Z" id="Fill-4" fill="#231F1F" mask="url(#mask-4)"></path>
                <path d="M4,264 L461,264 L419.218033,237 L45.781559,237 L4,264 Z M464.980303,266 L1.01969727,266 C0.568909062,266 0.171562715,265.708052 0.042649526,265.282193 C-0.0862636626,264.855933 0.083852792,264.397099 0.461209436,264.153407 L45.3686898,235.16407 C45.5347267,235.057103 45.7289124,235 45.9271776,235 L420.072414,235 C420.271088,235 420.465273,235.057103 420.63131,235.16407 L465.538791,264.153407 C465.916147,264.397099 466.086264,264.855933 465.95735,265.282193 C465.828437,265.708052 465.431091,266 464.980303,266 L464.980303,266 Z" id="Fill-6" fill="#231F1F" mask="url(#mask-4)"></path>
                <polygon id="Fill-7" fill="#231F1F" mask="url(#mask-4)" points="42 253 424 253 414.768768 246 51.2312319 246"></polygon>
                <path d="M2,267 L2,277.767523 C2,280.100981 3.93117475,282 6.30464687,282 L459.695353,282 C462.069233,282 464,280.100981 464,277.767523 L464,267 L2,267 Z M459.656328,284 L6.34367165,284 C2.84588125,284 4.54301324e-13,281.2033 4.54301324e-13,277.765556 L4.54301324e-13,266.002258 C4.54301324e-13,265.448611 0.456499587,265 1.0198829,265 L464.980117,265 C465.5435,265 466,265.448611 466,266.002258 L466,277.765556 C466,281.2033 463.154527,284 459.656328,284 L459.656328,284 Z" id="Fill-8" fill="#231F1F" mask="url(#mask-4)"></path>
                <path d="M169,187 L297,187 L297,48 L169,48 L169,187 Z M297.984469,189 L168.015531,189 C167.454552,189 167,188.542252 167,187.978242 L167,47.0217585 C167,46.4573391 167.454552,46 168.015531,46 L297.984469,46 C298.545042,46 299,46.4573391 299,47.0217585 L299,187.978242 C299,188.542252 298.545042,189 297.984469,189 L297.984469,189 Z" id="Fill-9" fill="#231F1F" mask="url(#mask-4)"></path>
                <path d="M278.752177,158.009765 C278.607359,157.970277 278.458461,158.053241 278.39285,158.209995 L277.032373,161.45914 C276.9841,161.575609 276.99022,161.713616 277.048011,161.823303 C277.106142,161.932991 277.209827,162 277.31963,162 L278.679768,162 C278.764075,162 278.846683,161.960114 278.905834,161.890312 C278.965325,161.820112 279,161.723587 279,161.625068 L279,158.375523 C279,158.200821 278.897335,158.049252 278.752177,158.009765" id="Fill-10" fill="#231F1F" mask="url(#mask-4)"></path>
                <path d="M282,154 L282,161.615719 C282,161.716286 282.039638,161.815627 282.109006,161.887577 C282.178373,161.95871 282.274695,162 282.372602,162 L287,162 C286.936182,158.468292 284.910655,155.431652 282,154" id="Fill-11" fill="#231F1F" mask="url(#mask-4)"></path>
                <path d="M287,165 L282.400034,165 C282.294919,165 282.191506,165.042966 282.117031,165.118915 C282.042557,165.194864 282,165.300759 282,165.407957 L282,171 C284.405311,169.83038 286.247596,167.651284 287,165" id="Fill-12" fill="#231F1F" mask="url(#mask-4)"></path>
                <path d="M278.637636,165 L275.496117,165 C275.357487,165 275.231949,165.088541 275.170721,165.229681 L273,170.259862 C274.380913,171.356105 276.059881,172 277.871318,172 C278.254092,172 278.630704,171.970632 279,171.914966 L279,165.412023 C279,165.303757 278.961106,165.196807 278.893717,165.1201 C278.826327,165.043394 278.733137,165 278.637636,165" id="Fill-13" fill="#231F1F" mask="url(#mask-4)"></path>
                <path d="M271.572767,165 L269,165 C269.347033,166.098545 269.912097,167.112266 270.64886,168 L271.956592,165.56341 C272.021093,165.441996 272.013371,165.298129 271.935698,165.1842 C271.858024,165.069854 271.719938,165 271.572767,165" id="Fill-14" fill="#231F1F" mask="url(#mask-4)"></path>
                <path d="M269,162 L273.38471,162 C273.532412,162 273.666165,161.915849 273.73099,161.781954 L278,153 C273.078638,153.042283 269.091493,157.039657 269,162" id="Fill-15" fill="#231F1F" mask="url(#mask-4)"></path>
                <path d="M214.726209,111.862539 C215.280476,111.954316 215.844103,112 216.413835,112 C220.35719,112 223.901327,109.799401 225.663019,106.257232 C225.835159,105.910928 226.187578,105.692296 226.573368,105.692296 L246.764652,105.692296 C251.857238,105.692296 256,101.539507 256,96.4355041 L256,83.256792 C256,78.1523814 251.857238,74 246.764652,74 L218.235348,74 C213.142762,74 209,78.1523814 209,83.256792 L209,96.4355041 C209,101.455072 212.92016,105.517717 217.924437,105.684138 C218.270345,105.695559 218.586953,105.882784 218.764384,106.180548 C218.941815,106.47872 218.955651,106.846642 218.801417,107.157459 C217.856883,109.061109 216.449239,110.675562 214.726209,111.862539 M216.435729,114 C214.802013,114 213.211781,113.68366 211.708924,113.059121 C211.329349,112.901562 211.081853,112.530666 211.081853,112.119057 C211.081853,111.707448 211.328943,111.336552 211.708518,111.178585 C213.543807,110.416029 215.110875,109.142118 216.234156,107.522145 C210.94124,106.574752 207,101.982726 207,96.4290575 L207,83.2750749 C207,77.0581906 212.048672,72 218.254763,72 L246.745237,72 C252.951328,72 258,77.0581906 258,83.2750749 L258,96.4290575 C258,102.645942 252.951328,107.704132 246.745237,107.704132 L227.19225,107.704132 C225.001769,111.604036 220.936578,114 216.435729,114" id="Fill-16" fill="#231F1F" mask="url(#mask-4)"></path>
                <path d="M214,97 C213.4476,97 213,96.5317861 213,95.9539457 L213,83.0460543 C213,82.4686323 213.4476,82 214,82 C214.5524,82 215,82.4686323 215,83.0460543 L215,95.9539457 C215,96.5317861 214.5524,97 214,97" id="Fill-17" fill="#231F1F" mask="url(#mask-4)"></path>
                <path d="M221,97 C220.4476,97 220,96.5317861 220,95.9539457 L220,83.0460543 C220,82.4686323 220.4476,82 221,82 C221.5524,82 222,82.4686323 222,83.0460543 L222,95.9539457 C222,96.5317861 221.5524,97 221,97" id="Fill-18" fill="#231F1F" mask="url(#mask-4)"></path>
                <path d="M221.009901,93 L213.990099,93 C213.443168,93 213,92.5524 213,92 C213,91.4476 213.443168,91 213.990099,91 L221.009901,91 C221.556832,91 222,91.4476 222,92 C222,92.5524 221.556832,93 221.009901,93" id="Fill-19" fill="#231F1F" mask="url(#mask-4)"></path>
                <path d="M224,97 C223.4476,97 223,96.5317861 223,95.9539457 L223,83.0460543 C223,82.4686323 223.4476,82 224,82 C224.5524,82 225,82.4686323 225,83.0460543 L225,95.9539457 C225,96.5317861 224.5524,97 224,97" id="Fill-20" fill="#231F1F" mask="url(#mask-4)"></path>
                <path d="M231.009901,93 L223.990099,93 C223.443168,93 223,92.5524 223,92 C223,91.4476 223.443168,91 223.990099,91 L231.009901,91 C231.556832,91 232,91.4476 232,92 C232,92.5524 231.556832,93 231.009901,93" id="Fill-21" fill="#231F1F" mask="url(#mask-4)"></path>
                <path d="M231.009901,97 L223.990099,97 C223.443168,97 223,96.5524 223,96 C223,95.4476 223.443168,95 223.990099,95 L231.009901,95 C231.556832,95 232,95.4476 232,96 C232,96.5524 231.556832,97 231.009901,97" id="Fill-22" fill="#231F1F" mask="url(#mask-4)"></path>
                <path d="M231.009901,84 L223.990099,84 C223.443168,84 223,83.5524 223,83 C223,82.4476 223.443168,82 223.990099,82 L231.009901,82 C231.556832,82 232,82.4476 232,83 C232,83.5524 231.556832,84 231.009901,84" id="Fill-23" fill="#231F1F" mask="url(#mask-4)"></path>
                <path d="M234,97 C233.4476,97 233,96.5317861 233,95.9539457 L233,83.0460543 C233,82.4686323 233.4476,82 234,82 C234.5524,82 235,82.4686323 235,83.0460543 L235,95.9539457 C235,96.5317861 234.5524,97 234,97" id="Fill-24" fill="#231F1F" mask="url(#mask-4)"></path>
                <path d="M241.009901,97 L233.990099,97 C233.443168,97 233,96.5524 233,96 C233,95.4476 233.443168,95 233.990099,95 L241.009901,95 C241.556832,95 242,95.4476 242,96 C242,96.5524 241.556832,97 241.009901,97" id="Fill-25" fill="#231F1F" mask="url(#mask-4)"></path>
                <path d="M243,97 C242.4476,97 242,96.5317861 242,95.9539457 L242,83.0460543 C242,82.4686323 242.4476,82 243,82 C243.5524,82 244,82.4686323 244,83.0460543 L244,95.9539457 C244,96.5317861 243.5524,97 243,97" id="Fill-26" fill="#231F1F" mask="url(#mask-4)"></path>
                <path d="M244,90 L245.982318,90 C247.646365,90 249,88.6542969 249,87 C249,85.3457031 247.646365,84 245.982318,84 L244,84 L244,90 Z M245.978218,92 L242.990099,92 C242.443168,92 242,91.5587539 242,91.0141956 L242,82.9858044 C242,82.4412461 242.443168,82 242.990099,82 L245.978218,82 C248.747327,82 251,84.2429022 251,87 C251,89.7570978 248.747327,92 245.978218,92 L245.978218,92 Z" id="Fill-27" fill="#231F1F" mask="url(#mask-4)"></path>
                <path d="M186,99 C179.382992,99 174,104.383306 174,111.000202 C174,117.616694 179.382992,123 186,123 C192.617008,123 198,117.616694 198,111.000202 C198,104.383306 192.617008,99 186,99 M186,125 C178.280193,125 172,118.719494 172,111.000202 C172,103.280506 178.280193,97 186,97 C193.719807,97 200,103.280506 200,111.000202 C200,118.719494 193.719807,125 186,125" id="Fill-28" fill="#231F1F" mask="url(#mask-4)"></path>
                <path d="M186.5,107 C184.018596,107 182,109.018989 182,111.5 C182,113.981404 184.018596,116 186.5,116 C188.981404,116 191,113.981404 191,111.5 C191,109.018989 188.981404,107 186.5,107 M186.5,118 C182.915796,118 180,115.084204 180,111.5 C180,107.915796 182.915796,105 186.5,105 C190.084204,105 193,107.915796 193,111.5 C193,115.084204 190.084204,118 186.5,118" id="Fill-29" fill="#231F1F" mask="url(#mask-4)"></path>
                <path d="M179,120.835513 C181.028013,122.23721 183.477943,123 185.999799,123 C188.521656,123 190.971585,122.23721 193,120.835513 C191.172096,119.02317 188.671135,118 185.999799,118 C183.328464,118 180.827904,119.02317 179,120.835513 M186.499851,125 C183.141679,125 179.892173,123.831954 177.349609,121.711141 C176.942007,121.370672 176.882624,120.781774 177.214684,120.372275 C179.468413,117.593535 182.852843,116 186.499851,116 C190.147263,116 193.531694,117.593535 195.785018,120.372275 C196.117482,120.781774 196.058099,121.370672 195.650093,121.711141 C193.107933,123.831954 189.858023,125 186.499851,125" id="Fill-30" fill="#231F1F" mask="url(#mask-4)"></path>
                <path d="M278,150 C271.382992,150 266,155.383306 266,162.000202 C266,168.616694 271.382992,174 278,174 C284.617008,174 290,168.616694 290,162.000202 C290,155.383306 284.617008,150 278,150 M278,176 C270.280193,176 264,169.719494 264,162.000202 C264,154.280506 270.280193,148 278,148 C285.719807,148 292,154.280506 292,162.000202 C292,169.719494 285.719807,176 278,176" id="Fill-31" fill="#231F1F" mask="url(#mask-4)"></path>
                <path d="M218.235348,124 C213.142762,124 209,128.152789 209,133.256792 L209,146.435504 C209,151.539915 213.142762,155.692296 218.235348,155.692296 L238.426632,155.692296 C238.812422,155.692296 239.165248,155.910928 239.336981,156.257232 C241.098673,159.799809 244.64281,162 248.586165,162 C249.155897,162 249.719524,161.954316 250.273791,161.862539 C248.551168,160.675562 247.143117,159.061109 246.198583,157.157459 C246.044349,156.846642 246.058185,156.47872 246.235616,156.180956 C246.413047,155.882784 246.729655,155.695559 247.075563,155.684138 C252.080247,155.518532 256,151.455888 256,146.435504 L256,133.256792 C256,128.152789 251.857238,124 246.764652,124 L218.235348,124 Z M248.564271,164 C244.063422,164 239.998231,161.604036 237.80775,157.704132 L218.254763,157.704132 C212.048672,157.704132 207,152.645942 207,146.429057 L207,133.275075 C207,127.058191 212.048672,122 218.254763,122 L246.745237,122 C252.951328,122 258,127.058191 258,133.275075 L258,146.429057 C258,151.98354 254.05876,156.575159 248.765844,157.522145 C249.889125,159.142118 251.456193,160.416029 253.291482,161.178585 C253.671057,161.336552 253.918147,161.707448 253.918147,162.119057 C253.918147,162.530666 253.670651,162.901562 253.291482,163.059528 C251.788219,163.68366 250.197987,164 248.564271,164 L248.564271,164 Z" id="Fill-32" fill="#231F1F" mask="url(#mask-4)"></path>
                <path d="M215.5,135 C214.121719,135 213,136.214515 213,137.707764 L213,143.292236 C213,144.785059 214.121719,146 215.5,146 C216.878281,146 218,144.785059 218,143.292236 L218,137.707764 C218,136.214515 216.878281,135 215.5,135 M215.5,148 C213.018921,148 211,145.867305 211,143.245474 L211,137.754526 C211,135.133114 213.018921,133 215.5,133 C217.981079,133 220,135.133114 220,137.754526 L220,143.245474 C220,145.867305 217.981079,148 215.5,148" id="Fill-33" fill="#231F1F" mask="url(#mask-4)"></path>
                <path d="M239.009901,148 C238.46297,148 238.019802,147.531786 238.019802,146.953946 L238.019802,137.754944 C238.019802,136.286703 236.889505,135.092109 235.499802,135.092109 C234.110495,135.092109 232.980198,136.286703 232.980198,137.754944 L232.980198,146.953946 C232.980198,147.531786 232.53703,148 231.990099,148 C231.443168,148 231,147.531786 231,146.953946 L231,137.754944 C231,135.133114 233.018614,133 235.499802,133 C237.981386,133 240,135.133114 240,137.754944 L240,146.953946 C240,147.531786 239.556832,148 239.009901,148" id="Fill-34" fill="#231F1F" mask="url(#mask-4)"></path>
                <path d="M222,148 C221.4476,148 221,147.531786 221,146.953946 L221,134.046054 C221,133.468632 221.4476,133 222,133 C222.5524,133 223,133.468632 223,134.046054 L223,146.953946 C223,147.531786 222.5524,148 222,148" id="Fill-35" fill="#231F1F" mask="url(#mask-4)"></path>
                <path d="M245.500198,143 C243.01901,143 241,140.989748 241,138.519322 L241,133.985804 C241,133.441246 241.443564,133 241.990099,133 C242.53703,133 242.980198,133.441246 242.980198,133.985804 L242.980198,138.519322 C242.980198,139.902997 244.110891,141.028391 245.500198,141.028391 C246.889505,141.028391 248.019802,139.902997 248.019802,138.519322 L248.019802,133.985804 C248.019802,133.441246 248.463366,133 249.009901,133 C249.556832,133 250,133.441246 250,133.985804 L250,138.519322 C250,140.989748 247.981386,143 245.500198,143" id="Fill-36" fill="#231F1F" mask="url(#mask-4)"></path>
                <path d="M221.989706,143 C221.759212,143 221.527531,142.920346 221.340205,142.757884 C220.927534,142.400231 220.884366,141.777198 221.243176,141.366705 L228.263331,133.338244 C228.62214,132.928146 229.247879,132.88477 229.660154,133.242029 C230.072428,133.599682 230.115596,134.222321 229.756787,134.632814 L222.737028,142.661669 C222.54099,142.885251 222.26614,143 221.989706,143" id="Fill-37" fill="#231F1F" mask="url(#mask-4)"></path>
                <path d="M229.918303,147 C229.498505,147 229.099481,146.778729 228.923339,146.409423 L225.088031,138.357947 C224.852166,137.863592 225.106641,137.290935 225.65584,137.079013 C226.20504,136.867091 226.841228,137.096154 227.076661,137.590509 L230.911969,145.641985 C231.147834,146.13634 230.893359,146.708997 230.34416,146.920919 C230.205237,146.974678 230.060688,147 229.918303,147" id="Fill-38" fill="#231F1F" mask="url(#mask-4)"></path>
                <path d="M239.009901,143 L231.990099,143 C231.443168,143 231,142.5524 231,142 C231,141.4476 231.443168,141 231.990099,141 L239.009901,141 C239.556832,141 240,141.4476 240,142 C240,142.5524 239.556832,143 239.009901,143" id="Fill-39" fill="#231F1F" mask="url(#mask-4)"></path>
                <path d="M246,147 C245.4476,147 245,146.566503 245,146.031508 L245,141.968492 C245,141.433497 245.4476,141 246,141 C246.5524,141 247,141.433497 247,141.968492 L247,146.031508 C247,146.566503 246.5524,147 246,147" id="Fill-40" fill="#231F1F" mask="url(#mask-4)"></path>
                <path d="M252,143 C251.4476,143 251,142.561434 251,142.020184 L251,133.979816 C251,133.438566 251.4476,133 252,133 C252.5524,133 253,133.438566 253,133.979816 L253,142.020184 C253,142.561434 252.5524,143 252,143" id="Fill-41" fill="#231F1F" mask="url(#mask-4)"></path>
                <path d="M252,147 C251.736,147 251.476,146.891277 251.292,146.702421 C251.108,146.517189 251,146.259073 251,145.993305 C251,145.727941 251.108,145.469824 251.292,145.280566 C251.664,144.906478 252.336,144.906478 252.708,145.280566 C252.892,145.469824 253,145.727941 253,145.993305 C253,146.259073 252.892,146.517189 252.704,146.706448 C252.52,146.891277 252.264,147 252,147" id="Fill-42" fill="#231F1F" mask="url(#mask-4)"></path>
                <path d="M169,53 L297,53 L297,48 L169,48 L169,53 Z M297.984469,55 L168.015531,55 C167.454552,55 167,54.558115 167,54.0127682 L167,46.9872318 C167,46.441885 167.454552,46 168.015531,46 L297.984469,46 C298.545042,46 299,46.441885 299,46.9872318 L299,54.0127682 C299,54.558115 298.545042,55 297.984469,55 L297.984469,55 Z" id="Fill-43" fill="#231F1F" mask="url(#mask-4)"></path>
                <path d="M312,113 L385,113 L385,40 L312,40 L312,113 Z M385.979273,115 L311.020727,115 C310.457286,115 310,114.546511 310,113.986842 L310,39.0131579 C310,38.4534895 310.457286,38 311.020727,38 L385.979273,38 C386.543122,38 387,38.4534895 387,39.0131579 L387,113.986842 C387,114.546511 386.543122,115 385.979273,115 L385.979273,115 Z" id="Fill-44" fill="#231F1F" mask="url(#mask-4)"></path>
                <path d="M312,38 L385,38 L385,33 L312,33 L312,38 Z M385.979273,40 L311.020727,40 C310.457286,40 310,39.558115 310,39.0127682 L310,31.9872318 C310,31.441885 310.457286,31 311.020727,31 L385.979273,31 C386.543122,31 387,31.441885 387,31.9872318 L387,39.0127682 C387,39.558115 386.543122,40 385.979273,40 L385.979273,40 Z" id="Fill-45" fill="#231F1F" mask="url(#mask-4)"></path>
                <path d="M312,202 L385,202 L385,131 L312,131 L312,202 Z M385.979273,204 L311.020727,204 C310.457286,204 310,203.542124 310,202.977042 L310,130.022958 C310,129.457876 310.457286,129 311.020727,129 L385.979273,129 C386.543122,129 387,129.457876 387,130.022958 L387,202.977042 C387,203.542124 386.543122,204 385.979273,204 L385.979273,204 Z" id="Fill-46" fill="#231F1F" mask="url(#mask-4)"></path>
                <path d="M312,129 L385,129 L385,124 L312,124 L312,129 Z M385.979273,131 L311.020727,131 C310.457286,131 310,130.558115 310,130.012768 L310,122.987232 C310,122.44228 310.457286,122 311.020727,122 L385.979273,122 C386.543122,122 387,122.44228 387,122.987232 L387,130.012768 C387,130.558115 386.543122,131 385.979273,131 L385.979273,131 Z" id="Fill-47" fill="#231F1F" mask="url(#mask-4)"></path>
                <path d="M80,110 L153,110 L153,40 L80,40 L80,110 Z M153.979273,112 L79.0207274,112 C78.4568776,112 78,111.546316 78,110.986407 L78,39.0135931 C78,38.4536843 78.4568776,38 79.0207274,38 L153.979273,38 C154.543122,38 155,38.4536843 155,39.0135931 L155,110.986407 C155,111.546316 154.543122,112 153.979273,112 L153.979273,112 Z" id="Fill-48" fill="#231F1F" mask="url(#mask-4)"></path>
                <path d="M80,38 L153,38 L153,33 L80,33 L80,38 Z M153.979273,40 L79.0207274,40 C78.4568776,40 78,39.558115 78,39.0127682 L78,31.9872318 C78,31.441885 78.4568776,31 79.0207274,31 L153.979273,31 C154.543122,31 155,31.441885 155,31.9872318 L155,39.0127682 C155,39.558115 154.543122,40 153.979273,40 L153.979273,40 Z" id="Fill-49" fill="#231F1F" mask="url(#mask-4)"></path>
                <path d="M116.042385,144 C115.010553,144 113.973017,144.065999 112.933035,144.199626 C106.573743,145.01728 100.913748,148.261006 96.9954788,153.33437 C88.9062796,163.80661 90.8476874,178.90611 101.323302,186.99261 C106.397696,190.910585 112.69423,192.617187 119.053523,191.800348 C125.412408,190.982695 131.07281,187.738969 134.991079,182.665605 C138.909756,177.593057 140.617657,171.297898 139.800179,164.940407 C138.982702,158.583323 135.737649,152.924932 130.663256,149.007365 C126.418973,145.730639 121.318091,144 116.042385,144 M115.939648,194 C110.22346,194.000407 104.698532,192.125789 100.100189,188.575487 C88.7516432,179.815065 86.6486137,163.457314 95.4115079,152.111969 C99.6566325,146.616669 105.788298,143.102167 112.677266,142.216524 C119.566234,141.330881 126.387651,143.180683 131.885315,147.425017 C137.382573,151.668944 140.898067,157.79888 141.783553,164.686311 C142.669039,171.572929 140.819122,178.392422 136.573997,183.888535 C132.328872,189.384241 126.197207,192.898336 119.308239,193.783979 C118.181848,193.928807 117.056679,194 115.939648,194" id="Fill-50" fill="#231F1F" mask="url(#mask-4)"></path>
                <path d="M101.238618,146.856957 C97.6197749,146.856957 94.3557039,147.438649 92.4387816,149.920805 C89.6684322,153.508792 91.4517496,158.816365 93.1766919,163.948814 C94.043685,166.52881 94.8625804,168.964924 95.155278,171.244003 C95.4483866,173.522671 95.2724392,176.087045 95.0862145,178.802289 C94.7154095,184.204824 94.3322717,189.790293 97.9202832,192.561446 C101.508295,195.331776 106.815904,193.547649 111.949211,191.82354 C114.528402,190.956142 116.964945,190.137664 119.243628,189.844557 C121.522723,189.551039 124.087115,189.727397 126.801967,189.914031 C132.204539,190.284011 137.790458,190.667969 140.561218,187.079982 C143.331568,183.491995 141.54825,178.184422 139.823308,173.051562 C138.956315,170.471566 138.13742,168.035452 137.844722,165.756373 C137.551613,163.477706 137.727561,160.91292 137.913785,158.198087 C138.284591,152.795552 138.667728,147.209672 135.079717,144.43893 C131.492116,141.668189 126.184507,143.451905 121.051611,145.177247 C118.472009,146.043823 116.035055,146.863124 113.756372,147.155819 C111.477277,147.448104 108.912885,147.272568 106.197622,147.086756 C104.532699,146.972062 102.85051,146.856957 101.238618,146.856957 M102.589433,196 C100.467086,196.00041 98.4559444,195.498139 96.6996322,194.141924 C92.2501713,190.706043 92.6896597,184.29757 93.0778539,178.642914 C93.256768,176.036766 93.4254232,173.575062 93.1586935,171.50032 C92.8919639,169.425989 92.1061373,167.08698 91.2739408,164.610503 C89.4683863,159.23817 87.4223647,153.149361 90.8582529,148.699499 C94.2937308,144.250458 100.702218,144.689125 106.356477,145.077729 C108.963041,145.256643 111.425161,145.424477 113.499497,145.158979 C115.574243,144.89225 117.913257,144.106014 120.389739,143.27382 C125.762084,141.468679 131.850907,139.422252 136.300368,142.858133 C140.749829,146.294013 140.31034,152.702487 139.922146,158.357143 C139.743642,160.963291 139.574577,163.424995 139.841306,165.499737 C140.108036,167.574068 140.893863,169.913077 141.726059,172.389554 C143.531614,177.761887 145.577635,183.851107 142.141747,188.300558 C138.705859,192.749598 132.297371,192.309701 126.642703,191.922738 C124.036549,191.743825 121.574839,191.57517 119.500503,191.841078 C117.426167,192.108218 115.087154,192.894042 112.610671,193.726237 C109.359032,194.819006 105.843945,196 102.589433,196" id="Fill-51" fill="#231F1F" mask="url(#mask-4)"></path>
                <path d="M116.019309,157 C115.546531,157 115.070932,157.030229 114.594124,157.091895 C111.679669,157.466328 109.085639,158.953579 107.289648,161.279574 C103.581991,166.080694 104.471926,173.003061 109.273058,176.710709 C114.07419,180.417954 120.996977,179.528022 124.704231,174.726499 C126.500222,172.401309 127.282945,169.515478 126.908512,166.600628 C126.533675,163.68618 125.046421,161.091754 122.720822,159.295767 L122.720822,159.295767 C120.775299,157.793604 118.437609,157 116.019309,157 M115.981649,181 C113.206631,181 110.411483,180.117912 108.049919,178.294152 C102.375885,173.912699 101.324333,165.731143 105.705666,160.056954 C107.828094,157.308029 110.894182,155.550295 114.3387,155.107841 C117.783218,154.666194 121.193918,155.590152 123.942769,157.712638 C126.691217,159.835124 128.448903,162.900893 128.891747,166.345907 C129.334591,169.790116 128.40945,173.201312 126.287022,175.949835 C123.728594,179.262798 119.87505,181 115.981649,181" id="Fill-52" fill="#231F1F" mask="url(#mask-4)"></path>
                <path d="M122,155.673583 C122.545806,155.985235 123.067033,156.336792 123.557829,156.724262 C124.047845,157.111333 124.512112,157.538308 124.945168,158 L133,151.26656 C132.061713,150.194733 131.02277,149.206305 129.901507,148.32083 C128.780245,147.435355 127.582905,146.656824 126.331725,146 L122,155.673583 Z M125.215183,161 C124.927001,161 124.640817,160.874202 124.443366,160.630317 C123.917763,159.982256 123.325011,159.397906 122.681497,158.893092 C122.036784,158.387872 121.330118,157.953261 120.580684,157.601839 C120.080662,157.367287 119.861627,156.766705 120.091054,156.258644 L125.353878,144.592329 C125.464195,144.347226 125.666042,144.156907 125.915054,144.063573 C126.163667,143.969022 126.439058,143.98079 126.680076,144.093196 C128.425958,144.909258 130.089101,145.932683 131.623542,147.135877 C133.157583,148.338259 134.553728,149.713107 135.773207,151.222273 C135.94188,151.430448 136.02142,151.697869 135.995039,151.966508 C135.969059,152.234336 135.838758,152.480656 135.633313,152.651091 L125.847106,160.771129 C125.661646,160.925333 125.437815,161 125.215183,161 L125.215183,161 Z" id="Fill-53" fill="#231F1F" mask="url(#mask-4)"></path>
                <path d="M95,156.672489 L104.639279,161 C104.942221,160.47465 105.281739,159.972294 105.654651,159.498778 C106.061357,158.982391 106.511794,158.495235 107,158.043543 L100.294328,150 C99.1954678,150.955996 98.1852637,152.016439 97.2827988,153.161842 C96.4145243,154.263986 95.6492181,155.441736 95,156.672489 M105.640202,164 C105.499017,164 105.35581,163.970834 105.219479,163.909304 L93.5901202,158.648959 C93.3453725,158.537887 93.1556424,158.33532 93.0625978,158.086007 C92.9695533,157.836694 92.9804759,157.561411 93.0937476,157.320088 C93.9036399,155.595673 94.914185,153.953563 96.0982784,152.439306 C97.3179715,150.879102 98.7168766,149.460335 100.256158,148.223758 C100.688613,147.876558 101.324552,147.940484 101.677312,148.366394 L109.771786,158.148335 C109.942098,158.354098 110.022198,158.618194 109.994689,158.88269 C109.966775,159.147185 109.833681,159.389706 109.624533,159.557114 C108.949353,160.096093 108.342136,160.708588 107.818659,161.377818 C107.327546,162.006295 106.902777,162.694702 106.556489,163.424662 C106.384559,163.787045 106.020472,164 105.640202,164" id="Fill-54" fill="#231F1F" mask="url(#mask-4)"></path>
                <path d="M98,183.707215 C98.9399189,184.786126 99.9822896,185.779964 101.107321,186.670046 C102.232351,187.55973 103.434609,188.341284 104.691974,189 L109,179.363745 C108.445052,179.048897 107.915329,178.692705 107.417816,178.299145 C106.920303,177.905585 106.449568,177.470682 106.011431,177 L98,183.707215 Z M105.761291,192 C105.619133,192 105.477771,191.969244 105.346365,191.907733 C103.592285,191.090279 101.923022,190.063605 100.384768,188.856039 C98.8457168,187.648877 97.4464348,186.267298 96.2251492,184.750152 C96.0579044,184.542146 95.9786622,184.275462 96.0049435,184.008778 C96.0312249,183.741284 96.1610387,183.496048 96.3657146,183.326082 L106.115293,175.228429 C106.540971,174.874333 107.167741,174.939487 107.515769,175.371281 C108.045378,176.029291 108.643478,176.621743 109.293343,177.13164 C109.944404,177.642347 110.659574,178.080615 111.418946,178.434306 C111.918689,178.666997 112.138098,179.267543 111.909531,179.775417 L106.666404,191.409571 C106.556501,191.653189 106.355409,191.842984 106.107727,191.936465 C105.995832,191.978957 105.878363,192 105.761291,192 L105.761291,192 Z" id="Fill-55" fill="#231F1F" mask="url(#mask-4)"></path>
                <path d="M125,176.977289 L131.734238,185 C132.788907,184.076081 133.760575,183.055807 134.632083,181.956273 C135.538308,180.81439 136.332402,179.591693 137,178.31227 L127.330008,174 C127.005986,174.57541 126.638069,175.124011 126.229449,175.639199 C125.855148,176.110872 125.443735,176.558844 125,176.977289 M132.137789,188 C132.104905,188 132.072021,187.998406 132.038731,187.995219 C131.769976,187.969323 131.522737,187.839048 131.351821,187.634272 L123.229068,177.880323 C122.876682,177.457226 122.937578,176.834133 123.365476,176.484341 C123.995144,175.970409 124.564321,175.391937 125.057175,174.765259 C125.582507,174.097944 126.030704,173.364894 126.38918,172.58563 C126.500417,172.344202 126.705028,172.156158 126.957951,172.063332 C127.210874,171.970107 127.490997,171.980465 127.736612,172.090025 L139.407588,177.335317 C139.916275,177.563996 140.140373,178.154022 139.908561,178.65401 C139.083214,180.432055 138.043917,182.122452 136.819496,183.67859 C135.631612,185.188116 134.273625,186.565772 132.783696,187.772117 C132.601413,187.920321 132.372443,188 132.137789,188" id="Fill-56" fill="#231F1F" mask="url(#mask-4)"></path>
                <path d="M80,201 L153,201 L153,128 L80,128 L80,201 Z M153.979273,203 L79.0207274,203 C78.4568776,203 78,202.546511 78,201.986842 L78,127.013158 C78,126.453489 78.4568776,126 79.0207274,126 L153.979273,126 C154.543122,126 155,126.453489 155,127.013158 L155,201.986842 C155,202.546511 154.543122,203 153.979273,203 L153.979273,203 Z" id="Fill-57" fill="#231F1F" mask="url(#mask-4)"></path>
                <path d="M80,126 L153,126 L153,121 L80,121 L80,126 Z M153.979273,128 L79.0207274,128 C78.4568776,128 78,127.55772 78,127.012768 L78,119.987232 C78,119.441885 78.4568776,119 79.0207274,119 L153.979273,119 C154.543122,119 155,119.441885 155,119.987232 L155,127.012768 C155,127.55772 154.543122,128 153.979273,128 L153.979273,128 Z" id="Fill-58" fill="#231F1F" mask="url(#mask-4)"></path>
                <path d="M327,153.116081 C327.705108,160.992023 332.62008,170.172607 340.223837,177.776291 C347.827595,185.379975 357.00786,190.294899 364.884287,191 L369,186.883919 L360.964211,178.847801 L354.379396,181.691438 C353.995866,181.856505 353.549977,181.77173 353.254891,181.476647 L336.523445,164.744956 C336.227952,164.449873 336.142768,164.003988 336.308652,163.620462 L339.15191,157.036119 L331.116121,149 L327,153.116081 Z M365.74991,194 C365.726444,194 365.702567,193.999177 365.678689,193.99753 C357.140494,193.407593 347.164721,188.1772 338.993742,180.005766 C330.822764,171.834743 325.592399,161.858916 325.002465,153.320676 C324.981881,153.023854 325.090976,152.732385 325.301343,152.522017 L330.522239,147.301504 C330.924037,146.899293 331.575722,146.899705 331.977931,147.301504 L341.316428,156.640051 C341.614894,156.938518 341.700935,157.388896 341.533794,157.775875 L338.661518,164.426564 L354.572861,180.338815 L361.223925,177.466113 C361.611314,177.298559 362.061689,177.3846 362.359744,177.683068 L371.698652,187.022026 C372.100449,187.424237 372.100449,188.075515 371.698652,188.477314 L366.477756,193.69865 C366.283855,193.89214 366.022028,194 365.74991,194 L365.74991,194 Z" id="Fill-59" fill="#231F1F" mask="url(#mask-4)"></path>
                <path d="M340.001352,149 C339.745006,149 339.48866,148.902272 339.293196,148.706815 C338.902268,148.315902 338.902268,147.68187 339.293196,147.290556 L345.290492,141.293485 C345.68182,140.902172 346.315476,140.902172 346.706804,141.293485 C347.097732,141.683998 347.097732,142.31803 346.706804,142.709344 L340.709508,148.706815 C340.514044,148.902272 340.257698,149 340.001352,149" id="Fill-60" fill="#231F1F" mask="url(#mask-4)"></path>
                <path d="M338,147 C337.4476,147 337,146.529742 337,145.949379 L337,137.050621 C337,136.470258 337.4476,136 338,136 C338.5524,136 339,136.470258 339,137.050621 L339,145.949379 C339,146.529742 338.5524,147 338,147" id="Fill-61" fill="#231F1F" mask="url(#mask-4)"></path>
                <path d="M351.949379,152 L343.050621,152 C342.470258,152 342,151.5524 342,151 C342,150.4476 342.470258,150 343.050621,150 L351.949379,150 C352.529742,150 353,150.4476 353,151 C353,151.5524 352.529742,152 351.949379,152" id="Fill-62" fill="#231F1F" mask="url(#mask-4)"></path>
                <path d="M114.550411,92 L117.413127,92 L117.413127,79.0936436 C117.413127,78.593128 117.77289,78.1665661 118.262299,78.0856665 C125.063781,76.9632858 130,71.0976516 130,64.1378291 C130,56.3424519 123.711425,50 115.981769,50 C108.592835,50 102.520604,55.7957663 102,63.1163687 L105.519852,63.1163687 C106.031138,57.7492072 110.528186,53.5379302 115.981769,53.5379302 C121.777289,53.5379302 126.491897,58.2930327 126.491897,64.1378291 C126.491897,69.5319571 122.488309,74.058661 117.179361,74.6670428 C117.141278,74.6715372 117.103195,74.6735802 117.064707,74.6735802 L114.550411,74.6735802 L114.550411,92 Z M118.437343,94 L113.562253,94 C113.00428,94 112.552165,93.5436459 112.552165,92.9804422 L112.552165,73.6471798 C112.552165,73.0839761 113.00428,72.627622 113.562253,72.627622 L117.021199,72.627622 C121.266398,72.1121336 124.461105,68.4780219 124.461105,64.1506108 C124.461105,59.4410696 120.665598,55.6095714 115.999798,55.6095714 C111.334402,55.6095714 107.538491,59.4410696 107.538491,64.1506108 C107.538491,64.7134067 107.086375,65.1701686 106.528402,65.1701686 L101.010088,65.1701686 C100.452116,65.1701686 100,64.7134067 100,64.1506108 C100,55.2453854 107.177283,48 115.999798,48 C124.822313,48 132,55.2453854 132,64.1506108 C132,71.8091211 126.771379,78.3081902 119.447431,79.9215384 L119.447431,92.9804422 C119.447431,93.5436459 118.995316,94 118.437343,94 L118.437343,94 Z" id="Fill-63" fill="#231F1F" mask="url(#mask-4)"></path>
                <path d="M116.5,98 C115.12134,98 114,99.1219041 114,100.50023 C114,101.878556 115.12134,103 116.5,103 C117.87866,103 119,101.878556 119,100.50023 C119,99.1219041 117.87866,98 116.5,98 M116.5,105 C114.01855,105 112,102.981784 112,100.500216 C112,98.0186472 114.01855,96 116.5,96 C118.98145,96 121,98.0186472 121,100.500216 C121,102.981784 118.98145,105 116.5,105" id="Fill-64" fill="#231F1F" mask="url(#mask-4)"></path>
                <path d="M349.117647,66 L347.882353,66 C347.394941,66 347,65.5524 347,65 C347,64.4476 347.394941,64 347.882353,64 L349.117647,64 C349.605059,64 350,64.4476 350,65 C350,65.5524 349.605059,66 349.117647,66" id="Fill-65" fill="#231F1F" mask="url(#mask-4)"></path>
                <path d="M356.903989,66 L354.096011,66 C353.490574,66 353,65.5524 353,65 C353,64.4476 353.490574,64 354.096011,64 L356.903989,64 C357.509426,64 358,64.4476 358,65 C358,65.5524 357.509426,66 356.903989,66 M364.903034,66 C364.832333,66 364.760754,65.994696 364.688736,65.9818147 C364.347528,65.9238492 363.995341,65.8942982 363.642277,65.8942982 L362.097838,65.8942982 C361.491392,65.8942982 361,65.4703542 361,64.9471491 C361,64.4239439 361.491392,64 362.097838,64 L363.642277,64 C364.13806,64 364.633844,64.0416746 365.115136,64.1238871 C365.709725,64.2254215 366.096604,64.7236219 365.978915,65.2369767 C365.875719,65.6878197 365.416822,66 364.903034,66 M368.8973,72 C368.32398,72 367.840557,71.5460242 367.799134,70.9518434 C367.743608,70.1457771 367.521507,69.379383 367.138559,68.6747512 C366.843306,68.1301606 367.035441,67.4440124 367.567338,67.141963 C368.099235,66.8394627 368.769945,67.0364711 369.065198,67.5801601 C369.605027,68.57512 369.918789,69.6561865 369.99723,70.7936055 C370.039975,71.4143847 369.582994,71.9531147 368.975741,71.9972951 C368.949741,71.9990984 368.9233,72 368.8973,72 M364.962407,77 C364.565658,77 364.194307,76.7692428 364.055003,76.4006772 C363.878371,75.9334207 364.141202,75.4209459 364.642237,75.2562218 C365.281422,75.0459205 365.877508,74.6996052 366.365844,74.254958 C366.746045,73.9090016 367.355214,73.9161791 367.72618,74.2700307 C368.097531,74.6246002 368.09022,75.1927008 367.710018,75.5390161 C367.023115,76.1645368 366.183439,76.6522492 365.282192,76.9483219 C365.176367,76.9834917 365.068232,77 364.962407,77 M359.903989,78 L357.096011,78 C356.490574,78 356,77.552 356,77 C356,76.4476 356.490574,76 357.096011,76 L359.903989,76 C360.509426,76 361,76.4476 361,77 C361,77.552 360.509426,78 359.903989,78" id="Fill-66" fill="#231F1F" mask="url(#mask-4)"></path>
                <path d="M352.117647,78 L350.882353,78 C350.394941,78 350,77.5524 350,77 C350,76.4476 350.394941,76 350.882353,76 L352.117647,76 C352.605059,76 353,76.4476 353,77 C353,77.5524 352.605059,78 352.117647,78" id="Fill-67" fill="#231F1F" mask="url(#mask-4)"></path>
                <path d="M349.117647,90 L347.882353,90 C347.394941,90 347,89.5524 347,89 C347,88.4476 347.394941,88 347.882353,88 L349.117647,88 C349.605059,88 350,88.4476 350,89 C350,89.5524 349.605059,90 349.117647,90" id="Fill-68" fill="#231F1F" mask="url(#mask-4)"></path>
                <path d="M356.909535,90 L354.090465,90 C353.488092,90 353,89.5524 353,89 C353,88.4476 353.488092,88 354.090465,88 L356.909535,88 C357.511908,88 358,88.4476 358,89 C358,89.5524 357.511908,90 356.909535,90 M364.907852,90 C364.829599,90 364.749597,89.9925262 364.670032,89.9772048 C364.289695,89.9050822 363.897555,89.8684604 363.504103,89.8684604 L362.092922,89.8684604 C361.489629,89.8684604 361,89.450299 361,88.9342302 C361,88.4181614 361.489629,88 362.092922,88 L363.504103,88 C364.056684,88 364.608391,88.0515695 365.143923,88.1532138 C365.733227,88.2653214 366.10482,88.7642003 365.97367,89.2679372 C365.860443,89.7032885 365.408848,90 364.907852,90 M368.865894,96 C368.258403,96 367.755636,95.5264567 367.733875,94.9239275 C367.704407,94.1147531 367.499945,93.3421768 367.125931,92.6271755 C366.839412,92.0790971 367.058381,91.4060497 367.614643,91.1239767 C368.171359,90.8419038 368.85456,91.0574754 369.141531,91.6051075 C369.669232,92.6151249 369.958017,93.7050333 369.999272,94.8444829 C370.021487,95.4604016 369.53232,95.9772378 368.906695,95.9991074 C368.893095,95.9995537 368.879494,96 368.865894,96 M364.944155,102 C364.538498,102 364.163435,101.742387 364.040302,101.343621 C363.889975,100.856405 364.173255,100.342653 364.672584,100.195972 C365.316574,100.007277 365.922416,99.6748491 366.425522,99.2348062 C366.813805,98.8961133 367.41096,98.9270711 367.758828,99.3066725 C368.107074,99.6851683 368.074213,100.267838 367.685931,100.607637 C366.97773,101.226792 366.124112,101.694476 365.216482,101.960934 C365.125832,101.987101 365.034427,102 364.944155,102" id="Fill-69" fill="#231F1F" mask="url(#mask-4)"></path>
                <path d="M360.117647,102 L358.882353,102 C358.394941,102 358,101.5524 358,101 C358,100.4476 358.394941,100 358.882353,100 L360.117647,100 C360.605059,100 361,100.4476 361,101 C361,101.5524 360.605059,102 360.117647,102" id="Fill-70" fill="#231F1F" mask="url(#mask-4)"></path>
                <path d="M347.117647,90 L345.882353,90 C345.394941,90 345,89.5524 345,89 C345,88.4476 345.394941,88 345.882353,88 L347.117647,88 C347.605059,88 348,88.4476 348,89 C348,89.5524 347.605059,90 347.117647,90" id="Fill-71" fill="#231F1F" mask="url(#mask-4)"></path>
                <path d="M343.970431,78 L341.029569,78 C340.460835,78 340,77.5524 340,77 C340,76.4476 340.460835,76 341.029569,76 L343.970431,76 C344.539165,76 345,76.4476 345,77 C345,77.5524 344.539165,78 343.970431,78 M332.028553,78 C331.493151,78 331.041354,77.6007144 331.002641,77.0783886 C330.96228,76.5318516 331.389366,76.0571542 331.95648,76.0178607 C332.126161,76.0063505 332.297902,76.0003969 332.470878,76 L334.970381,76 C335.538731,76 336,76.4441357 336,76.9922604 C336,77.540385 335.538731,77.9845207 334.970381,77.9845207 L332.47376,77.9845207 C332.350618,77.9849176 332.22624,77.9892836 332.103098,77.9976186 C332.077975,77.9992062 332.053264,78 332.028553,78 M327.072806,84 C327.056944,84 327.041082,83.9995756 327.02522,83.9991511 C326.4336,83.9736855 325.975309,83.4783794 326.001032,82.8926703 C326.053335,81.7089438 326.400161,80.5443165 327.003355,79.5248432 C327.302166,79.0189264 327.95895,78.84958 328.469543,79.14583 C328.980565,79.4420799 329.152049,80.0918775 328.85281,80.5973699 C328.425386,81.3201688 328.179735,82.145679 328.142866,82.9851954 C328.117572,83.5547762 327.642991,84 327.072806,84 M331.914252,90 C331.856417,90 331.797713,89.9957604 331.738575,89.9876666 C330.54319,89.8157698 329.399551,89.3817881 328.431154,88.7319718 C327.952392,88.4109179 327.85803,87.8069665 328.220255,87.3822348 C328.58248,86.9578886 329.264315,86.8738673 329.743077,87.1956921 C330.429696,87.6558823 331.240244,87.9634465 332.086884,88.0852389 C332.679576,88.1708019 333.082241,88.6656798 332.985706,89.1910057 C332.899172,89.6639147 332.437803,90 331.914252,90 M340.970431,90 L338.029569,90 C337.460835,90 337,89.552 337,89 C337,88.4476 337.460835,88 338.029569,88 L340.970431,88 C341.539165,88 342,88.4476 342,89 C342,89.552 341.539165,90 340.970431,90" id="Fill-72" fill="#231F1F" mask="url(#mask-4)"></path>
                <path d="M351.117647,78 L349.882353,78 C349.394941,78 349,77.5524 349,77 C349,76.4476 349.394941,76 349.882353,76 L351.117647,76 C351.605059,76 352,76.4476 352,77 C352,77.5524 351.605059,78 351.117647,78" id="Fill-73" fill="#231F1F" mask="url(#mask-4)"></path>
                <path d="M347.117647,66 L345.882353,66 C345.394941,66 345,65.5524 345,65 C345,64.4476 345.394941,64 345.882353,64 L347.117647,64 C347.605059,64 348,64.4476 348,65 C348,65.5524 347.605059,66 347.117647,66" id="Fill-74" fill="#231F1F" mask="url(#mask-4)"></path>
                <path d="M332.0371,54 C331.529122,54 331.085107,53.6517181 331.010759,53.1675403 C330.928934,52.6371578 331.32269,52.1452145 331.89048,52.0683362 C332.228994,52.0229082 332.574569,52 332.918068,52 L334.961613,52 C335.535218,52 336,52.4344787 336,52.9706853 C336,53.5065036 335.535218,53.9413706 334.961613,53.9413706 L332.918068,53.9413706 C332.673424,53.9413706 332.427119,53.9576781 332.186213,53.9902931 C332.13637,53.9968938 332.086528,54 332.0371,54 M327.135845,60 C326.511789,60 326.004091,59.5498359 326,58.9646652 L326,58.9088738 C326,57.7568456 326.294074,56.6048173 326.851315,55.5814074 C327.136299,55.0575646 327.820806,54.8493051 328.379865,55.1163372 C328.938924,55.3837951 329.16073,56.0247572 328.875746,56.5486 C328.475314,57.2845353 328.272598,58.079669 328.272598,58.9127068 C328.272598,59.4991552 327.766264,59.9978706 327.139935,59.9995741 C327.138572,59.9995741 327.137208,60 327.135845,60 M332.915125,66 C332.868635,66 332.821276,65.9972057 332.773917,65.9920164 C331.59081,65.8511064 330.446373,65.4447425 329.465303,64.8168345 C328.97303,64.5018825 328.852242,63.8799622 329.195052,63.4276928 C329.537862,62.9750242 330.214792,62.8644518 330.707065,63.1790045 C331.403112,63.6244879 332.214298,63.9126949 333.053291,64.0124895 C333.648103,64.0831442 334.067817,64.5837142 333.990913,65.1301897 C333.919657,65.6331548 333.452584,66 332.915125,66 M340.962311,66 L338.037689,66 C337.46447,66 337,65.5524 337,65 C337,64.4476 337.46447,64 338.037689,64 L340.962311,64 C341.53553,64 342,64.4476 342,65 C342,65.5524 341.53553,66 340.962311,66" id="Fill-75" fill="#231F1F" mask="url(#mask-4)"></path>
                <path d="M341.117647,54 L339.882353,54 C339.394941,54 339,53.5524 339,53 C339,52.4476 339.394941,52 339.882353,52 L341.117647,52 C341.605059,52 342,52.4476 342,53 C342,53.5524 341.605059,54 341.117647,54" id="Fill-76" fill="#231F1F" mask="url(#mask-4)"></path>
                <path d="M351.055632,105 C350.78539,105 350.515148,104.896963 350.309089,104.690889 C349.89697,104.278318 349.89697,103.609843 350.309089,103.197695 L356.197825,97.3089531 C356.610366,96.8968045 357.278792,96.8972268 357.690911,97.3089531 C358.10303,97.7215239 358.10303,98.3899985 357.690911,98.8017248 L351.802175,104.690889 C351.596115,104.896963 351.325874,105 351.055632,105" id="Fill-77" fill="#231F1F" mask="url(#mask-4)"></path>
                <path d="M356.944368,105 C356.674126,105 356.403885,104.896965 356.197825,104.690895 L350.309089,98.8018475 C349.89697,98.3901293 349.89697,97.721668 350.309089,97.3091053 C350.721208,96.8969649 351.389634,96.8969649 351.802175,97.3091053 L357.690911,103.19773 C358.10303,103.609871 358.10303,104.278332 357.690911,104.690895 C357.484852,104.896965 357.21461,105 356.944368,105" id="Fill-78" fill="#231F1F" mask="url(#mask-4)"></path>
                <path d="M348,50 C346.346081,50 345,51.3457412 345,53.000219 C345,54.6542588 346.346081,56 348,56 C349.654357,56 351,54.6542588 351,53.000219 C351,51.3457412 349.654357,50 348,50 M348,58 C345.242849,58 343,55.7570567 343,53.000211 C343,50.2429433 345.242849,48 348,48 C350.757151,48 353,50.2429433 353,53.000211 C353,55.7570567 350.757151,58 348,58" id="Fill-79" fill="#231F1F" mask="url(#mask-4)"></path>
            </g>
        </g>
    </g>
</svg>