<?xml version="1.0" encoding="UTF-8" standalone="no"?>
<svg width="42px" height="66px" viewBox="0 0 42 66" version="1.1" xmlns="http://www.w3.org/2000/svg" xmlns:xlink="http://www.w3.org/1999/xlink">
    <!-- Generator: Sketch 40.1 (33804) - http://www.bohemiancoding.com/sketch -->
    <title>Fill 1</title>
    <desc>Created with Sketch.</desc>
    <defs></defs>
    <g id="Page-1" stroke="none" stroke-width="1" fill="none" fill-rule="evenodd">
        <g id="Support" transform="translate(-409.000000, -897.000000)" fill="#B327BF">
            <path d="M438.854524,929.523172 C439.242359,930.62621 439.556291,930.940142 440.659328,931.327976 C439.556291,931.71581 439.242359,932.029742 438.854524,933.13278 C438.46669,932.029742 438.152758,931.71581 437.049721,931.327976 C438.152758,930.940142 438.46669,930.62621 438.854524,929.523172 L438.854524,929.523172 Z M450.389999,941.561305 C448.910121,942.081675 448.488084,942.503101 447.967715,943.98359 C447.447345,942.503101 447.025918,942.081675 445.54543,941.561305 C447.025918,941.040935 447.447345,940.618898 447.967715,939.13902 C448.488084,940.618898 448.910121,941.040935 450.389999,941.561305 L450.389999,941.561305 Z M445.944868,937.971242 C445.103237,935.577052 444.421626,934.89483 442.026826,934.053199 C444.421626,933.211568 445.103237,932.529346 445.944868,930.135156 C446.786499,932.529346 447.468721,933.211568 449.862911,934.053199 C447.468721,934.89483 446.786499,935.577052 445.944868,937.971242 L445.944868,937.971242 Z M421.354341,947.40325 L415.765251,947.40325 C415.881907,941.144765 420.964063,936.102308 427.237818,936.048561 L421.795922,947.127796 C421.712858,947.296367 421.542456,947.40325 421.354341,947.40325 L421.354341,947.40325 Z M419.597787,951.077599 C419.687569,951.221128 419.69612,951.401914 419.622218,951.554604 L418.116688,954.619411 C417.268338,953.502937 416.617876,952.227665 416.217826,950.84612 L419.180026,950.84612 C419.349207,950.84612 419.508616,950.934069 419.597787,951.077599 L419.597787,951.077599 Z M428.726857,950.989649 C428.818472,951.081263 428.870997,951.208913 428.870997,951.337784 L428.870997,959.096913 C428.369561,959.163486 427.857742,959.198299 427.337983,959.198299 C424.877831,959.198299 422.597854,958.430571 420.722812,957.121706 L423.670353,951.120352 C423.753417,950.951781 423.923819,950.84612 424.112545,950.84612 L428.378723,950.84612 C428.508815,950.84612 428.635243,950.898034 428.726857,950.989649 L428.726857,950.989649 Z M432.805531,950.84612 L438.458139,950.84612 C437.533445,954.041019 435.269958,956.667299 432.313867,958.076328 L432.313867,951.337784 C432.313867,951.208913 432.365781,951.081263 432.458007,950.989649 C432.549621,950.898034 432.676049,950.84612 432.805531,950.84612 L432.805531,950.84612 Z M438.910714,947.40325 L432.805531,947.40325 C432.676049,947.40325 432.549621,947.350114 432.458007,947.25911 C432.365781,947.167496 432.313867,947.040457 432.313867,946.911586 L432.313867,937.1687 C436.154342,939.000377 438.826429,942.884828 438.910714,947.40325 L438.910714,947.40325 Z M428.870997,942.650295 L428.870997,946.911586 C428.870997,947.040457 428.818472,947.167496 428.726857,947.25911 C428.635243,947.350114 428.508815,947.40325 428.378723,947.40325 L426.28625,947.40325 C426.117068,947.40325 425.95827,947.31469 425.868488,947.17116 C425.779317,947.02702 425.770155,946.846235 425.844668,946.693544 L427.937752,942.433474 C428.038528,942.227647 428.267564,942.119542 428.490492,942.170846 C428.71342,942.222761 428.870997,942.421259 428.870997,942.650295 L428.870997,942.650295 Z M427.337983,961.171063 C419.867744,961.171063 413.790045,955.093974 413.790045,947.623125 C413.790045,941.850196 417.42164,936.911569 422.519065,934.964457 C422.85926,934.835586 423.212281,934.716487 423.571409,934.612658 C423.600726,934.604107 423.630653,934.595556 423.65997,934.587006 C424.342803,934.394616 425.036629,934.256583 425.734731,934.17413 C425.751832,934.171687 425.768323,934.169244 425.784813,934.167412 C426.131727,934.127712 426.479861,934.101449 426.827385,934.088623 C426.85487,934.087402 426.882354,934.087402 426.909227,934.086791 C427.608551,934.064804 428.308485,934.095953 429.002311,934.181459 C429.028574,934.185124 429.054226,934.188178 429.079878,934.191232 C429.770651,934.280403 430.454094,934.423321 431.124712,934.618155 C431.154028,934.626705 431.183345,934.634645 431.212661,934.643196 C431.529647,934.737864 431.842969,934.844748 432.153236,934.962625 C437.252494,936.909126 440.885921,941.848363 440.885921,947.623125 C440.885921,955.093974 434.808221,961.171063 427.337983,961.171063 L427.337983,961.171063 Z M412.933145,900.885731 L423.949471,929.527448 L423.607444,930.440538 L422.665648,932.955659 L411.040391,901.910591 C411.658483,901.544744 412.292455,901.208214 412.933145,900.885731 L412.933145,900.885731 Z M426.359541,923.090009 L424.91753,926.941478 L414.596862,900.107619 C415.501402,899.71551 416.419989,899.356381 417.35751,899.049167 L426.359541,923.090009 Z M437.318456,899.049167 C438.155201,899.3234 438.975455,899.642218 439.785937,899.984245 L428.092275,932.262443 C427.842473,932.250228 427.590839,932.243509 427.337983,932.243509 C426.948316,932.243509 426.563536,932.263054 426.181198,932.291149 C426.117679,932.296035 426.05416,932.30031 425.99003,932.305807 C425.600974,932.34001 425.216193,932.387649 424.835688,932.449947 C424.827137,932.451779 424.818587,932.451779 424.810036,932.453612 L437.318456,899.049167 Z M432.006042,932.967874 C431.997492,932.965431 431.98833,932.963599 431.979779,932.961155 C431.643249,932.854272 431.301222,932.760825 430.95553,932.677151 C430.886514,932.66066 430.817498,932.64478 430.748482,932.629511 C430.489518,932.570267 430.228112,932.518353 429.964873,932.472545 L441.458206,900.747088 C442.196618,901.109881 442.926479,901.490997 443.635575,901.910591 L432.006042,932.967874 Z M433.713735,933.632994 L445.6175,901.842796 C445.770801,901.434196 445.614446,900.974902 445.244324,900.744034 C442.680953,899.145668 439.91603,897.899101 437.025901,897.038537 C436.564775,896.900504 436.075554,897.144199 435.906373,897.594941 L427.337983,920.477166 L418.769593,897.594941 C418.600412,897.144199 418.111191,896.900504 417.650065,897.038537 C414.759936,897.899101 411.994402,899.146279 409.431642,900.744034 C409.06152,900.974902 408.905165,901.434196 409.058466,901.842796 L420.962231,933.632994 C415.655925,936.060776 411.957757,941.416554 411.957757,947.623125 C411.957757,956.103565 418.857543,963.003351 427.337983,963.003351 C435.818423,963.003351 442.718209,956.103565 442.718209,947.623125 C442.718209,941.416554 439.020041,936.060776 433.713735,933.632994 L433.713735,933.632994 Z" id="Fill-1"></path>
        </g>
    </g>
</svg>