<?xml version="1.0" encoding="UTF-8" standalone="no"?>
<svg width="467px" height="284px" viewBox="0 0 467 284" version="1.1" xmlns="http://www.w3.org/2000/svg" xmlns:xlink="http://www.w3.org/1999/xlink">
    <!-- Generator: Sketch 40.1 (33804) - http://www.bohemiancoding.com/sketch -->
    <title>Page 1</title>
    <desc>Created with Sketch.</desc>
    <defs>
        <polygon id="path-1" points="0 284 467 284 467 0 0 0"></polygon>
    </defs>
    <g id="Page-1" stroke="none" stroke-width="1" fill="none" fill-rule="evenodd" opacity="0.5">
        <g id="Docs" transform="translate(-824.000000, -143.000000)">
            <g id="Page-1" transform="translate(824.000000, 143.000000)">
                <path d="M47.0446011,235.953023 L419.955399,235.953023 L419.955399,13.0321705 C419.955399,6.97496448 415.452345,2.04697711 409.916804,2.04697711 L57.0831959,2.04697711 C51.5476555,2.04697711 47.0446011,6.97496448 47.0446011,13.0321705 L47.0446011,235.953023 L47.0446011,235.953023 Z M420.978236,238 L46.0228366,238 C45.4578105,238 45,237.541657 45,236.975975 L45,13.0321705 C45,5.84574586 50.4208197,0 57.0831959,0 L409.916804,0 C416.57918,0 422,5.84574586 422,13.0321705 L422,236.975975 C422,237.541657 421.542189,238 420.978236,238 L420.978236,238 Z" id="Fill-1" fill="#231F1F"></path>
                <mask id="mask-2" fill="white">
                    <use xlink:href="#path-1"></use>
                </mask>
                <g id="Clip-4"></g>
                <path d="M72.0455853,209.960355 L393.954415,209.960355 L393.954415,25.0407155 L72.0455853,25.0407155 L72.0455853,209.960355 Z M394.976671,212 L71.0222563,212 C70.4580309,212 70,211.54413 70,210.980177 L70,24.0198227 C70,23.4569405 70.4580309,23 71.0222563,23 L394.976671,23 C395.541969,23 396,23.4569405 396,24.0198227 L396,210.980177 C396,211.54413 395.541969,212 394.976671,212 L394.976671,212 Z" id="Fill-3" fill="#231F1F" mask="url(#mask-2)"></path>
                <path d="M4.44843052,264.988944 L462.551569,264.988944 L420.668595,238.011056 L46.3314048,238.011056 L4.44843052,264.988944 Z M465.978115,267 L1.02188538,267 C0.570516329,267 0.171681914,266.707885 0.0430256513,266.281841 C-0.0867027472,265.855797 0.0837668012,265.397061 0.462230641,265.153456 L45.4661914,236.164512 C45.6323724,236.056947 45.8275011,236 46.0258462,236 L420.974154,236 C421.172499,236 421.367628,236.056947 421.533809,236.164512 L466.537769,265.153456 C466.916233,265.397061 467.086703,265.855797 466.956974,266.281841 C466.828318,266.707885 466.429484,267 465.978115,267 L465.978115,267 Z" id="Fill-5" fill="#231F1F" mask="url(#mask-2)"></path>
                <polygon id="Fill-6" fill="#231F1F" mask="url(#mask-2)" points="42 254 425 254 415.745038 247 51.2549616 247"></polygon>
                <path d="M2.04455898,267.004925 L2.04455898,277.766545 C2.04455898,280.09844 3.97976032,281.996127 6.35775288,281.996127 L460.642247,281.996127 C463.02024,281.996127 464.955441,280.09844 464.955441,277.766545 L464.955441,267.004925 L2.04455898,267.004925 Z M460.642247,284 L6.35775288,284 C2.85187566,284 0,281.203409 0,277.766545 L0,266.002988 C0,265.448927 0.457801093,265 1.02281556,265 L465.977184,265 C466.542199,265 467,265.448927 467,266.002988 L467,277.766545 C467,281.203409 464.148124,284 460.642247,284 L460.642247,284 Z" id="Fill-7" fill="#231F1F" mask="url(#mask-2)"></path>
                <polygon id="Fill-8" fill="#231F1F" mask="url(#mask-2)" points="131 211 132 211 132 24 131 24"></polygon>
                <polygon id="Fill-9" fill="#231F1F" mask="url(#mask-2)" points="139 211 140 211 140 24 139 24"></polygon>
                <polygon id="Fill-10" fill="#231F1F" mask="url(#mask-2)" points="135 31 137 31 137 30 135 30"></polygon>
                <polygon id="Fill-11" fill="#231F1F" mask="url(#mask-2)" points="135 38 137 38 137 37 135 37"></polygon>
                <polygon id="Fill-12" fill="#231F1F" mask="url(#mask-2)" points="135 45 137 45 137 44 135 44"></polygon>
                <polygon id="Fill-13" fill="#231F1F" mask="url(#mask-2)" points="135 52 137 52 137 51 135 51"></polygon>
                <polygon id="Fill-14" fill="#231F1F" mask="url(#mask-2)" points="135 59 137 59 137 58 135 58"></polygon>
                <polygon id="Fill-15" fill="#231F1F" mask="url(#mask-2)" points="135 66 137 66 137 65 135 65"></polygon>
                <polygon id="Fill-16" fill="#231F1F" mask="url(#mask-2)" points="135 73 137 73 137 72 135 72"></polygon>
                <polygon id="Fill-17" fill="#231F1F" mask="url(#mask-2)" points="135 80 137 80 137 79 135 79"></polygon>
                <polygon id="Fill-18" fill="#231F1F" mask="url(#mask-2)" points="135 87 137 87 137 86 135 86"></polygon>
                <polygon id="Fill-19" fill="#231F1F" mask="url(#mask-2)" points="135 94 137 94 137 93 135 93"></polygon>
                <polygon id="Fill-20" fill="#231F1F" mask="url(#mask-2)" points="135 101 137 101 137 100 135 100"></polygon>
                <polygon id="Fill-21" fill="#231F1F" mask="url(#mask-2)" points="135 108 137 108 137 107 135 107"></polygon>
                <polygon id="Fill-22" fill="#231F1F" mask="url(#mask-2)" points="135 115 137 115 137 114 135 114"></polygon>
                <polygon id="Fill-23" fill="#231F1F" mask="url(#mask-2)" points="135 122 137 122 137 121 135 121"></polygon>
                <polygon id="Fill-24" fill="#231F1F" mask="url(#mask-2)" points="135 128 137 128 137 127 135 127"></polygon>
                <polygon id="Fill-25" fill="#231F1F" mask="url(#mask-2)" points="135 135 137 135 137 134 135 134"></polygon>
                <polygon id="Fill-26" fill="#231F1F" mask="url(#mask-2)" points="135 142 137 142 137 141 135 141"></polygon>
                <polygon id="Fill-27" fill="#231F1F" mask="url(#mask-2)" points="135 149 137 149 137 148 135 148"></polygon>
                <polygon id="Fill-28" fill="#231F1F" mask="url(#mask-2)" points="135 156 137 156 137 155 135 155"></polygon>
                <polygon id="Fill-29" fill="#231F1F" mask="url(#mask-2)" points="135 163 137 163 137 162 135 162"></polygon>
                <polygon id="Fill-30" fill="#231F1F" mask="url(#mask-2)" points="135 170 137 170 137 169 135 169"></polygon>
                <polygon id="Fill-31" fill="#231F1F" mask="url(#mask-2)" points="135 177 137 177 137 176 135 176"></polygon>
                <polygon id="Fill-32" fill="#231F1F" mask="url(#mask-2)" points="135 184 137 184 137 183 135 183"></polygon>
                <polygon id="Fill-33" fill="#231F1F" mask="url(#mask-2)" points="135 191 137 191 137 190 135 190"></polygon>
                <polygon id="Fill-34" fill="#231F1F" mask="url(#mask-2)" points="135 198 137 198 137 197 135 197"></polygon>
                <polygon id="Fill-35" fill="#231F1F" mask="url(#mask-2)" points="135 205 137 205 137 204 135 204"></polygon>
                <polygon id="Fill-36" fill="#231F1F" mask="url(#mask-2)" points="155 31 166 31 166 30 155 30"></polygon>
                <polygon id="Fill-37" fill="#231F1F" mask="url(#mask-2)" points="155 38 171 38 171 37 155 37"></polygon>
                <polygon id="Fill-38" fill="#231F1F" mask="url(#mask-2)" points="155 45 164 45 164 44 155 44"></polygon>
                <path d="M152.096426,34 L150.18764,31.9789499 C149.937453,31.7140492 149.937453,31.2859508 150.18764,31.0222327 L152.096426,29 L153,29.9567171 L151.542442,31.5 L153,33.0432829 L152.096426,34 Z" id="Fill-39" fill="#231F1F" mask="url(#mask-2)"></path>
                <path d="M152.096426,41 L150.18764,38.9789499 C149.937453,38.7152318 149.937453,38.2859508 150.18764,38.0222327 L152.096426,36 L153,36.9567171 L151.542442,38.5 L153,40.0432829 L152.096426,41 Z" id="Fill-40" fill="#231F1F" mask="url(#mask-2)"></path>
                <path d="M152.096426,47 L150.18764,44.9784717 C149.937453,44.7146913 149.937453,44.2853087 150.18764,44.0215283 L152.096426,42 L153,42.9557606 L151.542442,44.4994086 L153,46.0430565 L152.096426,47 Z" id="Fill-41" fill="#231F1F" mask="url(#mask-2)"></path>
                <path d="M169.903574,34 L169,33.0432829 L170.457558,31.5 L169,29.9567171 L169.903574,29 L171.81236,31.0222327 C172.062547,31.2859508 172.062547,31.7140492 171.81236,31.9789499 L169.903574,34 Z" id="Fill-42" fill="#231F1F" mask="url(#mask-2)"></path>
                <path d="M173.903574,41 L173,40.0432829 L174.457558,38.5 L173,36.9567171 L173.903574,36 L175.813477,38.0222327 C175.932986,38.1487701 176,38.3214286 176,38.5 C176,38.679754 175.932986,38.8524125 175.813477,38.9789499 L173.903574,41 Z" id="Fill-43" fill="#231F1F" mask="url(#mask-2)"></path>
                <polygon id="Fill-44" fill="#231F1F" mask="url(#mask-2)" points="170 52 186 52 186 51 170 51"></polygon>
                <polygon id="Fill-45" fill="#231F1F" mask="url(#mask-2)" points="199 52 209 52 209 51 199 51"></polygon>
                <polygon id="Fill-46" fill="#231F1F" mask="url(#mask-2)" points="159 52 167 52 167 51 159 51"></polygon>
                <polygon id="Fill-47" fill="#231F1F" mask="url(#mask-2)" points="188 53 191 53 191 52 188 52"></polygon>
                <polygon id="Fill-48" fill="#231F1F" mask="url(#mask-2)" points="188 51 191 51 191 50 188 50"></polygon>
                <polygon id="Fill-49" fill="#231F1F" mask="url(#mask-2)" points="194 52 195 52 195 50 194 50"></polygon>
                <polygon id="Fill-50" fill="#231F1F" mask="url(#mask-2)" points="195 52 196 52 196 50 195 50"></polygon>
                <polygon id="Fill-51" fill="#231F1F" mask="url(#mask-2)" points="211 52 212 52 212 50 211 50"></polygon>
                <polygon id="Fill-52" fill="#231F1F" mask="url(#mask-2)" points="212 52 213 52 213 50 212 50"></polygon>
                <path d="M156.096426,54 L154.18764,51.9784717 C153.937453,51.7146913 153.937453,51.2853087 154.18764,51.0215283 L156.096426,49 L157,49.9557606 L155.542442,51.4994086 L157,53.0430565 L156.096426,54 Z" id="Fill-53" fill="#231F1F" mask="url(#mask-2)"></path>
                <path d="M216.903574,54 L216,53.0430565 L217.457558,51.4994086 L216,49.9557606 L216.903574,49 L218.81236,51.0215283 C219.062547,51.2853087 219.062547,51.7146913 218.81236,51.9784717 L216.903574,54 Z" id="Fill-54" fill="#231F1F" mask="url(#mask-2)"></path>
                <polygon id="Fill-55" fill="#231F1F" mask="url(#mask-2)" points="175 59 191 59 191 58 175 58"></polygon>
                <polygon id="Fill-56" fill="#231F1F" mask="url(#mask-2)" points="203 59 221 59 221 58 203 58"></polygon>
                <polygon id="Fill-57" fill="#231F1F" mask="url(#mask-2)" points="163 59 171 59 171 58 163 58"></polygon>
                <polygon id="Fill-58" fill="#231F1F" mask="url(#mask-2)" points="192 60 195 60 195 59 192 59"></polygon>
                <polygon id="Fill-59" fill="#231F1F" mask="url(#mask-2)" points="192 58 195 58 195 57 192 57"></polygon>
                <polygon id="Fill-60" fill="#231F1F" mask="url(#mask-2)" points="198 59 199 59 199 57 198 57"></polygon>
                <polygon id="Fill-61" fill="#231F1F" mask="url(#mask-2)" points="200 59 201 59 201 57 200 57"></polygon>
                <polygon id="Fill-62" fill="#231F1F" mask="url(#mask-2)" points="223 59 224 59 224 57 223 57"></polygon>
                <polygon id="Fill-63" fill="#231F1F" mask="url(#mask-2)" points="225 59 226 59 226 57 225 57"></polygon>
                <path d="M160.096426,61 L158.186523,58.9789499 C158.067014,58.8512299 158,58.679754 158,58.5 C158,58.320246 158.067014,58.1487701 158.186523,58.0222327 L160.096426,56 L161,56.9567171 L159.542442,58.5 L161,60.0432829 L160.096426,61 Z" id="Fill-64" fill="#231F1F" mask="url(#mask-2)"></path>
                <path d="M229.903574,61 L229,60.0432829 L230.457558,58.5 L229,56.9567171 L229.903574,56 L231.813477,58.0222327 C231.932986,58.1487701 232,58.320246 232,58.5 C232,58.679754 231.932986,58.8512299 231.813477,58.9789499 L229.903574,61 Z" id="Fill-65" fill="#231F1F" mask="url(#mask-2)"></path>
                <polygon id="Fill-66" fill="#231F1F" mask="url(#mask-2)" points="179 66 195 66 195 65 179 65"></polygon>
                <polygon id="Fill-67" fill="#231F1F" mask="url(#mask-2)" points="207 66 217 66 217 65 207 65"></polygon>
                <polygon id="Fill-68" fill="#231F1F" mask="url(#mask-2)" points="234 66 239 66 239 65 234 65"></polygon>
                <polygon id="Fill-69" fill="#231F1F" mask="url(#mask-2)" points="267 66 280 66 280 65 267 65"></polygon>
                <polygon id="Fill-70" fill="#231F1F" mask="url(#mask-2)" points="241 66 253 66 253 65 241 65"></polygon>
                <polygon id="Fill-71" fill="#231F1F" mask="url(#mask-2)" points="167 66 175 66 175 65 167 65"></polygon>
                <polygon id="Fill-72" fill="#231F1F" mask="url(#mask-2)" points="197 67 200 67 200 66 197 66"></polygon>
                <polygon id="Fill-73" fill="#231F1F" mask="url(#mask-2)" points="197 65 200 65 200 64 197 64"></polygon>
                <polygon id="Fill-74" fill="#231F1F" mask="url(#mask-2)" points="256 67 259 67 259 66 256 66"></polygon>
                <polygon id="Fill-75" fill="#231F1F" mask="url(#mask-2)" points="256 65 259 65 259 64 256 64"></polygon>
                <polygon id="Fill-76" fill="#231F1F" mask="url(#mask-2)" points="202 66 203 66 203 64 202 64"></polygon>
                <polygon id="Fill-77" fill="#231F1F" mask="url(#mask-2)" points="204 66 205 66 205 64 204 64"></polygon>
                <polygon id="Fill-78" fill="#231F1F" mask="url(#mask-2)" points="219 66 220 66 220 64 219 64"></polygon>
                <polygon id="Fill-79" fill="#231F1F" mask="url(#mask-2)" points="221 66 222 66 222 64 221 64"></polygon>
                <polygon id="Fill-80" fill="#231F1F" mask="url(#mask-2)" points="262 66 263 66 263 64 262 64"></polygon>
                <polygon id="Fill-81" fill="#231F1F" mask="url(#mask-2)" points="264 66 265 66 265 64 264 64"></polygon>
                <polygon id="Fill-82" fill="#231F1F" mask="url(#mask-2)" points="283 66 284 66 284 64 283 64"></polygon>
                <polygon id="Fill-83" fill="#231F1F" mask="url(#mask-2)" points="284 66 285 66 285 64 284 64"></polygon>
                <path d="M164.096426,68 L162.186523,65.9784717 C162.067014,65.8519044 162,65.6792051 162,65.4994086 C162,65.3207949 162.067014,65.1480956 162.186523,65.0215283 L164.096426,63 L165,63.9557606 L163.542442,65.4994086 L165,67.0430565 L164.096426,68 Z" id="Fill-84" fill="#231F1F" mask="url(#mask-2)"></path>
                <path d="M231.096426,68 L229.186523,65.9784717 C229.067014,65.8519044 229,65.6792051 229,65.4994086 C229,65.3207949 229.067014,65.1480956 229.186523,65.0215283 L231.096426,63 L232,63.9557606 L230.542442,65.4994086 L232,67.0430565 L231.096426,68 Z" id="Fill-85" fill="#231F1F" mask="url(#mask-2)"></path>
                <path d="M225.903574,68 L225,67.0430565 L226.457558,65.4994086 L225,63.9557606 L225.903574,63 L227.81236,65.0215283 C228.062547,65.2853087 228.062547,65.7146913 227.81236,65.9784717 L225.903574,68 Z" id="Fill-86" fill="#231F1F" mask="url(#mask-2)"></path>
                <polygon id="Fill-87" fill="#231F1F" mask="url(#mask-2)" points="179 73 195 73 195 72 179 72"></polygon>
                <polygon id="Fill-88" fill="#231F1F" mask="url(#mask-2)" points="207 73 221 73 221 72 207 72"></polygon>
                <polygon id="Fill-89" fill="#231F1F" mask="url(#mask-2)" points="167 73 175 73 175 72 167 72"></polygon>
                <polygon id="Fill-90" fill="#231F1F" mask="url(#mask-2)" points="197 74 200 74 200 73 197 73"></polygon>
                <polygon id="Fill-91" fill="#231F1F" mask="url(#mask-2)" points="197 72 200 72 200 71 197 71"></polygon>
                <polygon id="Fill-92" fill="#231F1F" mask="url(#mask-2)" points="205 88 208 88 208 87 205 87"></polygon>
                <polygon id="Fill-93" fill="#231F1F" mask="url(#mask-2)" points="205 86 208 86 208 85 205 85"></polygon>
                <polygon id="Fill-94" fill="#231F1F" mask="url(#mask-2)" points="202 73 203 73 203 71 202 71"></polygon>
                <polygon id="Fill-95" fill="#231F1F" mask="url(#mask-2)" points="204 73 205 73 205 71 204 71"></polygon>
                <polygon id="Fill-96" fill="#231F1F" mask="url(#mask-2)" points="223 73 224 73 224 71 223 71"></polygon>
                <polygon id="Fill-97" fill="#231F1F" mask="url(#mask-2)" points="225 73 226 73 226 71 225 71"></polygon>
                <path d="M164.096426,75 L162.186523,72.9789499 C162.067014,72.8524125 162,72.679754 162,72.5 C162,72.3214286 162.067014,72.1487701 162.186523,72.0222327 L164.096426,70 L165,70.9567171 L163.542442,72.5 L165,74.0432829 L164.096426,75 Z" id="Fill-98" fill="#231F1F" mask="url(#mask-2)"></path>
                <polygon id="Fill-99" fill="#231F1F" mask="url(#mask-2)" points="167 80 171 80 171 79 167 79"></polygon>
                <path d="M164.096426,82 L162.186523,79.9784717 C162.067014,79.8519044 162,79.6792051 162,79.4994086 C162,79.3207949 162.067014,79.1480956 162.186523,79.0215283 L164.096426,77 L165,77.9557606 L163.542442,79.4994086 L165,81.0430565 L164.096426,82 Z" id="Fill-100" fill="#231F1F" mask="url(#mask-2)"></path>
                <path d="M172.903574,82 L172,81.0430565 L173.457558,79.4994086 L172,77.9557606 L172.903574,77 L174.813477,79.0215283 C174.932986,79.1480956 175,79.3207949 175,79.4994086 C175,79.6792051 174.932986,79.8519044 174.813477,79.9784717 L172.903574,82 Z" id="Fill-101" fill="#231F1F" mask="url(#mask-2)"></path>
                <polygon id="Fill-102" fill="#231F1F" mask="url(#mask-2)" points="169 122 173 122 173 121 169 121"></polygon>
                <path d="M164.096426,124 L162.186523,121.978472 C162.067014,121.851904 162,121.679205 162,121.499409 C162,121.320795 162.067014,121.148096 162.186523,121.021528 L164.096426,119 L165,119.955761 L163.542442,121.499409 L165,123.043057 L164.096426,124 Z" id="Fill-103" fill="#231F1F" mask="url(#mask-2)"></path>
                <path d="M174.903574,124 L174,123.043057 L175.457558,121.499409 L174,119.955761 L174.903574,119 L176.813477,121.021528 C176.932986,121.148096 177,121.320795 177,121.499409 C177,121.679205 176.932986,121.851904 176.813477,121.978472 L174.903574,124 Z" id="Fill-104" fill="#231F1F" mask="url(#mask-2)"></path>
                <path d="M229.903574,75 L229,74.0432829 L230.457558,72.5 L229,70.9567171 L229.903574,70 L231.813477,72.0222327 C231.932986,72.1487701 232,72.3214286 232,72.5 C232,72.679754 231.932986,72.8524125 231.813477,72.9789499 L229.903574,75 Z" id="Fill-105" fill="#231F1F" mask="url(#mask-2)"></path>
                <polygon id="Fill-106" fill="#231F1F" mask="url(#mask-2)" points="215 87 229 87 229 86 215 86"></polygon>
                <polygon id="Fill-107" fill="#231F1F" mask="url(#mask-2)" points="232 87 242 87 242 86 232 86"></polygon>
                <polygon id="Fill-108" fill="#231F1F" mask="url(#mask-2)" points="259 87 269 87 269 86 259 86"></polygon>
                <polygon id="Fill-109" fill="#231F1F" mask="url(#mask-2)" points="276 87 294 87 294 86 276 86"></polygon>
                <polygon id="Fill-110" fill="#231F1F" mask="url(#mask-2)" points="210 87 211 87 211 85 210 85"></polygon>
                <polygon id="Fill-111" fill="#231F1F" mask="url(#mask-2)" points="212 87 213 87 213 85 212 85"></polygon>
                <polygon id="Fill-112" fill="#231F1F" mask="url(#mask-2)" points="243 87 244 87 244 85 243 85"></polygon>
                <polygon id="Fill-113" fill="#231F1F" mask="url(#mask-2)" points="245 87 246 87 246 85 245 85"></polygon>
                <path d="M249.903574,89 L249,88.0430565 L250.457558,86.4994086 L249,84.9557606 L249.903574,84 L251.813477,86.0215283 C251.932986,86.1480956 252,86.3207949 252,86.4994086 C252,86.6792051 251.932986,86.8519044 251.813477,86.9784717 L249.903574,89 Z" id="Fill-114" fill="#231F1F" mask="url(#mask-2)"></path>
                <path d="M271.903574,89 L271,88.0430565 L272.457558,86.4994086 L271,84.9557606 L271.903574,84 L273.813477,86.0215283 C273.932986,86.1480956 274,86.3207949 274,86.4994086 C274,86.6792051 273.932986,86.8519044 273.813477,86.9784717 L271.903574,89 Z" id="Fill-115" fill="#231F1F" mask="url(#mask-2)"></path>
                <polygon id="Fill-116" fill="#231F1F" mask="url(#mask-2)" points="171 87 179 87 179 86 171 86"></polygon>
                <polygon id="Fill-117" fill="#231F1F" mask="url(#mask-2)" points="190 87 194 87 194 86 190 86"></polygon>
                <polygon id="Fill-118" fill="#231F1F" mask="url(#mask-2)" points="197 87 203 87 203 86 197 86"></polygon>
                <path d="M168.096426,89 L166.186523,86.9784717 C166.067014,86.8519044 166,86.6792051 166,86.4994086 C166,86.3207949 166.067014,86.1480956 166.186523,86.0215283 L168.096426,84 L169,84.9557606 L167.542442,86.4994086 L169,88.0430565 L168.096426,89 Z" id="Fill-119" fill="#231F1F" mask="url(#mask-2)"></path>
                <path d="M187.096426,89 L185.186523,86.9784717 C185.067014,86.8519044 185,86.6792051 185,86.4994086 C185,86.3207949 185.067014,86.1480956 185.186523,86.0215283 L187.096426,84 L188,84.9557606 L186.542442,86.4994086 L188,88.0430565 L187.096426,89 Z" id="Fill-120" fill="#231F1F" mask="url(#mask-2)"></path>
                <path d="M256.096426,89 L254.18764,86.9784717 C253.937453,86.7146913 253.937453,86.2853087 254.18764,86.0215283 L256.096426,84 L257,84.9557606 L255.542442,86.4994086 L257,88.0430565 L256.096426,89 Z" id="Fill-121" fill="#231F1F" mask="url(#mask-2)"></path>
                <polygon id="Fill-122" fill="#231F1F" mask="url(#mask-2)" points="306 87 316 87 316 86 306 86"></polygon>
                <path d="M317.903574,89 L317,88.0430565 L318.457558,86.4994086 L317,84.9557606 L317.903574,84 L319.81236,86.0215283 C320.062547,86.2853087 320.062547,86.7146913 319.81236,86.9784717 L317.903574,89 Z" id="Fill-123" fill="#231F1F" mask="url(#mask-2)"></path>
                <path d="M299.096426,89 L297.18764,86.9784717 C296.937453,86.7146913 296.937453,86.2853087 297.18764,86.0215283 L299.096426,84 L300,84.9557606 L298.542442,86.4994086 L300,88.0430565 L299.096426,89 Z" id="Fill-124" fill="#231F1F" mask="url(#mask-2)"></path>
                <path d="M180.903574,89 L180,88.0430565 L181.457558,86.4994086 L180,84.9557606 L180.903574,84 L182.813477,86.0215283 C182.932986,86.1480956 183,86.3207949 183,86.4994086 C183,86.6792051 182.932986,86.8519044 182.813477,86.9784717 L180.903574,89 Z" id="Fill-125" fill="#231F1F" mask="url(#mask-2)"></path>
                <path d="M288.903574,68 L288,67.0430565 L289.457558,65.4994086 L288,63.9557606 L288.903574,63 L290.81236,65.0215283 C291.062547,65.2853087 291.062547,65.7146913 290.81236,65.9784717 L288.903574,68 Z" id="Fill-126" fill="#231F1F" mask="url(#mask-2)"></path>
                <polygon id="Fill-127" fill="#231F1F" mask="url(#mask-2)" points="170 150 182 150 182 149 170 149"></polygon>
                <polygon id="Fill-128" fill="#231F1F" mask="url(#mask-2)" points="194 150 208 150 208 149 194 149"></polygon>
                <polygon id="Fill-129" fill="#231F1F" mask="url(#mask-2)" points="159 150 167 150 167 149 159 149"></polygon>
                <polygon id="Fill-130" fill="#231F1F" mask="url(#mask-2)" points="184 151 187 151 187 150 184 150"></polygon>
                <polygon id="Fill-131" fill="#231F1F" mask="url(#mask-2)" points="184 149 187 149 187 148 184 148"></polygon>
                <polygon id="Fill-132" fill="#231F1F" mask="url(#mask-2)" points="189 150 190 150 190 148 189 148"></polygon>
                <polygon id="Fill-133" fill="#231F1F" mask="url(#mask-2)" points="191 150 192 150 192 148 191 148"></polygon>
                <polygon id="Fill-134" fill="#231F1F" mask="url(#mask-2)" points="210 150 211 150 211 148 210 148"></polygon>
                <polygon id="Fill-135" fill="#231F1F" mask="url(#mask-2)" points="212 150 213 150 213 148 212 148"></polygon>
                <path d="M156.096426,152 L154.18764,149.978472 C153.937453,149.713508 153.937453,149.285309 154.18764,149.021528 L156.096426,147 L157,147.955761 L155.542442,149.499409 L157,151.043057 L156.096426,152 Z" id="Fill-136" fill="#231F1F" mask="url(#mask-2)"></path>
                <path d="M216.903574,152 L216,151.043057 L217.457558,149.499409 L216,147.955761 L216.903574,147 L218.81236,149.021528 C219.062547,149.285309 219.062547,149.713508 218.81236,149.978472 L216.903574,152 Z" id="Fill-137" fill="#231F1F" mask="url(#mask-2)"></path>
                <polygon id="Fill-138" fill="#231F1F" mask="url(#mask-2)" points="175 157 199 157 199 156 175 156"></polygon>
                <polygon id="Fill-139" fill="#231F1F" mask="url(#mask-2)" points="211 157 229 157 229 156 211 156"></polygon>
                <polygon id="Fill-140" fill="#231F1F" mask="url(#mask-2)" points="163 157 171 157 171 156 163 156"></polygon>
                <polygon id="Fill-141" fill="#231F1F" mask="url(#mask-2)" points="201 158 204 158 204 157 201 157"></polygon>
                <polygon id="Fill-142" fill="#231F1F" mask="url(#mask-2)" points="201 156 204 156 204 155 201 155"></polygon>
                <polygon id="Fill-143" fill="#231F1F" mask="url(#mask-2)" points="206 157 207 157 207 155 206 155"></polygon>
                <polygon id="Fill-144" fill="#231F1F" mask="url(#mask-2)" points="208 157 209 157 209 155 208 155"></polygon>
                <polygon id="Fill-145" fill="#231F1F" mask="url(#mask-2)" points="231 157 232 157 232 155 231 155"></polygon>
                <polygon id="Fill-146" fill="#231F1F" mask="url(#mask-2)" points="233 157 234 157 234 155 233 155"></polygon>
                <path d="M160.096426,159 L158.186523,156.97895 C158.067014,156.85123 158,156.679754 158,156.5 C158,156.320246 158.067014,156.14877 158.186523,156.022233 L160.096426,154 L161,154.956717 L159.542442,156.5 L161,158.043283 L160.096426,159 Z" id="Fill-147" fill="#231F1F" mask="url(#mask-2)"></path>
                <path d="M237.903574,159 L237,158.043283 L238.457558,156.5 L237,154.956717 L237.903574,154 L239.81236,156.022233 C240.062547,156.285951 240.062547,156.714049 239.81236,156.97895 L237.903574,159 Z" id="Fill-148" fill="#231F1F" mask="url(#mask-2)"></path>
                <polygon id="Fill-149" fill="#231F1F" mask="url(#mask-2)" points="186 164 194 164 194 163 186 163"></polygon>
                <polygon id="Fill-150" fill="#231F1F" mask="url(#mask-2)" points="207 164 217 164 217 163 207 163"></polygon>
                <polygon id="Fill-151" fill="#231F1F" mask="url(#mask-2)" points="234 164 239 164 239 163 234 163"></polygon>
                <polygon id="Fill-152" fill="#231F1F" mask="url(#mask-2)" points="271 164 277 164 277 163 271 163"></polygon>
                <polygon id="Fill-153" fill="#231F1F" mask="url(#mask-2)" points="241 164 258 164 258 163 241 163"></polygon>
                <polygon id="Fill-154" fill="#231F1F" mask="url(#mask-2)" points="167 164 182 164 182 163 167 163"></polygon>
                <polygon id="Fill-155" fill="#231F1F" mask="url(#mask-2)" points="197 165 200 165 200 164 197 164"></polygon>
                <polygon id="Fill-156" fill="#231F1F" mask="url(#mask-2)" points="197 163 200 163 200 162 197 162"></polygon>
                <polygon id="Fill-157" fill="#231F1F" mask="url(#mask-2)" points="260 165 263 165 263 164 260 164"></polygon>
                <polygon id="Fill-158" fill="#231F1F" mask="url(#mask-2)" points="260 163 263 163 263 162 260 162"></polygon>
                <polygon id="Fill-159" fill="#231F1F" mask="url(#mask-2)" points="202 164 203 164 203 162 202 162"></polygon>
                <polygon id="Fill-160" fill="#231F1F" mask="url(#mask-2)" points="204 164 205 164 205 162 204 162"></polygon>
                <polygon id="Fill-161" fill="#231F1F" mask="url(#mask-2)" points="219 164 220 164 220 162 219 162"></polygon>
                <polygon id="Fill-162" fill="#231F1F" mask="url(#mask-2)" points="221 164 222 164 222 162 221 162"></polygon>
                <polygon id="Fill-163" fill="#231F1F" mask="url(#mask-2)" points="266 164 267 164 267 162 266 162"></polygon>
                <polygon id="Fill-164" fill="#231F1F" mask="url(#mask-2)" points="268 164 269 164 269 162 268 162"></polygon>
                <polygon id="Fill-165" fill="#231F1F" mask="url(#mask-2)" points="279 164 280 164 280 162 279 162"></polygon>
                <polygon id="Fill-166" fill="#231F1F" mask="url(#mask-2)" points="281 164 282 164 282 162 281 162"></polygon>
                <path d="M164.096426,166 L162.186523,163.978472 C162.067014,163.850722 162,163.679205 162,163.499409 C162,163.319612 162.067014,163.148096 162.186523,163.021528 L164.096426,161 L165,161.955761 L163.542442,163.499409 L165,165.043057 L164.096426,166 Z" id="Fill-167" fill="#231F1F" mask="url(#mask-2)"></path>
                <path d="M231.096426,166 L229.186523,163.978472 C229.067014,163.850722 229,163.679205 229,163.499409 C229,163.319612 229.067014,163.148096 229.186523,163.021528 L231.096426,161 L232,161.955761 L230.542442,163.499409 L232,165.043057 L231.096426,166 Z" id="Fill-168" fill="#231F1F" mask="url(#mask-2)"></path>
                <path d="M225.903574,166 L225,165.043057 L226.457558,163.499409 L225,161.955761 L225.903574,161 L227.813477,163.021528 C227.932986,163.148096 228,163.319612 228,163.499409 C228,163.679205 227.932986,163.850722 227.813477,163.978472 L225.903574,166 Z" id="Fill-169" fill="#231F1F" mask="url(#mask-2)"></path>
                <polygon id="Fill-170" fill="#231F1F" mask="url(#mask-2)" points="183 171 188 171 188 170 183 170"></polygon>
                <polygon id="Fill-171" fill="#231F1F" mask="url(#mask-2)" points="200 171 238 171 238 170 200 170"></polygon>
                <polygon id="Fill-172" fill="#231F1F" mask="url(#mask-2)" points="167 171 179 171 179 170 167 170"></polygon>
                <polygon id="Fill-173" fill="#231F1F" mask="url(#mask-2)" points="190 172 193 172 193 171 190 171"></polygon>
                <polygon id="Fill-174" fill="#231F1F" mask="url(#mask-2)" points="190 170 193 170 193 169 190 169"></polygon>
                <polygon id="Fill-175" fill="#231F1F" mask="url(#mask-2)" points="195 171 196 171 196 169 195 169"></polygon>
                <polygon id="Fill-176" fill="#231F1F" mask="url(#mask-2)" points="197 171 198 171 198 169 197 169"></polygon>
                <polygon id="Fill-177" fill="#231F1F" mask="url(#mask-2)" points="239 171 240 171 240 169 239 169"></polygon>
                <polygon id="Fill-178" fill="#231F1F" mask="url(#mask-2)" points="241 171 242 171 242 169 241 169"></polygon>
                <path d="M164.096426,173 L162.186523,170.978472 C162.067014,170.850722 162,170.679205 162,170.499409 C162,170.319612 162.067014,170.148096 162.186523,170.021528 L164.096426,168 L165,168.955761 L163.542442,170.499409 L165,172.043057 L164.096426,173 Z" id="Fill-179" fill="#231F1F" mask="url(#mask-2)"></path>
                <path d="M245.903574,173 L245,172.043057 L246.457558,170.499409 L245,168.955761 L245.903574,168 L247.81236,170.021528 C248.062547,170.285309 248.062547,170.713508 247.81236,170.978472 L245.903574,173 Z" id="Fill-180" fill="#231F1F" mask="url(#mask-2)"></path>
                <path d="M285.903574,166 L285,165.043057 L286.457558,163.499409 L285,161.955761 L285.903574,161 L287.813477,163.021528 C287.932986,163.148096 288,163.319612 288,163.499409 C288,163.679205 287.932986,163.850722 287.813477,163.978472 L285.903574,166 Z" id="Fill-181" fill="#231F1F" mask="url(#mask-2)"></path>
                <path d="M166.903574,47 L166,46.0430565 L167.457558,44.4994086 L166,42.9557606 L166.903574,42 L168.813477,44.0215283 C168.932986,44.1480956 169,44.3207949 169,44.4994086 C169,44.6792051 168.932986,44.8519044 168.813477,44.9784717 L166.903574,47 Z" id="Fill-182" fill="#231F1F" mask="url(#mask-2)"></path>
                <polygon id="Fill-183" fill="#231F1F" mask="url(#mask-2)" points="155 142 172 142 172 141 155 141"></polygon>
                <path d="M152.096426,144 L150.18764,141.97895 C149.937453,141.714049 149.937453,141.285951 150.18764,141.022233 L152.096426,139 L153,139.956717 L151.542442,141.5 L153,143.043283 L152.096426,144 Z" id="Fill-184" fill="#231F1F" mask="url(#mask-2)"></path>
                <path d="M174.903574,144 L174,143.043283 L175.457558,141.5 L174,139.956717 L174.903574,139 L176.81236,141.022233 C177.062547,141.285951 177.062547,141.714049 176.81236,141.97895 L174.903574,144 Z" id="Fill-185" fill="#231F1F" mask="url(#mask-2)"></path>
                <polygon id="Fill-186" fill="#231F1F" mask="url(#mask-2)" points="157 181 174 181 174 180 157 180"></polygon>
                <path d="M152.096426,183 L150.18764,180.97895 C149.937453,180.714049 149.937453,180.285951 150.18764,180.022233 L152.096426,178 L153,178.956717 L151.542442,180.5 L153,182.043283 L152.096426,183 Z" id="Fill-187" fill="#231F1F" mask="url(#mask-2)"></path>
                <path d="M176.903574,183 L176,182.043283 L177.457558,180.5 L176,178.956717 L176.903574,178 L178.81236,180.022233 C179.062547,180.285951 179.062547,180.714049 178.81236,180.97895 L176.903574,183 Z" id="Fill-188" fill="#231F1F" mask="url(#mask-2)"></path>
                <path d="M82.3477765,39 L77.6522235,39 C77.2919042,39 77,38.7202797 77,38.375 L77,36.1252185 L78.304447,36.1252185 L78.304447,37.75 L81.695553,37.75 L81.695553,36.0006556 L80,36.0006556 C79.8278221,36.0006556 79.6613455,35.9340035 79.5393387,35.8170892 L78.9475485,35.25 L78.304447,35.25 L78.304447,35.3756556 L77,35.3756556 L77,34.625 C77,34.2797203 77.2919042,34 77.6522235,34 L79.2166477,34 C79.3899658,34 79.5564424,34.0655594 79.6784493,34.1835664 L80.2702395,34.7506556 L82.3477765,34.7506556 C82.7080958,34.7506556 83,35.0303759 83,35.3756556 L83,38.375 C83,38.7202797 82.7080958,39 82.3477765,39" id="Fill-189" fill="#231F1F" mask="url(#mask-2)"></path>
                <polygon id="Fill-190" fill="#231F1F" mask="url(#mask-2)" points="86 37 119 37 119 36 86 36"></polygon>
                <path d="M82.3477765,59 L77.6522235,59 C77.2919042,59 77,58.7202797 77,58.375 L77,56.1252185 L78.304447,56.1252185 L78.304447,57.75 L81.695553,57.75 L81.695553,56.0006556 L80,56.0006556 C79.8278221,56.0006556 79.6613455,55.9340035 79.5393387,55.8170892 L78.9475485,55.25 L78.304447,55.25 L78.304447,55.3756556 L77,55.3756556 L77,54.625 C77,54.2797203 77.2919042,54 77.6522235,54 L79.2166477,54 C79.3899658,54 79.5564424,54.0655594 79.6784493,54.1835664 L80.2702395,54.7506556 L82.3477765,54.7506556 C82.7080958,54.7506556 83,55.0303759 83,55.3756556 L83,58.375 C83,58.7202797 82.7080958,59 82.3477765,59" id="Fill-191" fill="#231F1F" mask="url(#mask-2)"></path>
                <polygon id="Fill-192" fill="#231F1F" mask="url(#mask-2)" points="86 57 119 57 119 56 86 56"></polygon>
                <path d="M82.3477765,113 L77.6522235,113 C77.2919042,113 77,112.72028 77,112.375 L77,110.125219 L78.304447,110.125219 L78.304447,111.75 L81.695553,111.75 L81.695553,109.999563 L80,109.999563 C79.8278221,109.999563 79.6613455,109.934003 79.5393387,109.817089 L78.9475485,109.25 L78.304447,109.25 L78.304447,109.374563 L77,109.374563 L77,108.625 C77,108.27972 77.2919042,108 77.6522235,108 L79.2166477,108 C79.3899658,108 79.5564424,108.065559 79.6784493,108.183566 L80.2702395,108.749563 L82.3477765,108.749563 C82.7080958,108.749563 83,109.029283 83,109.374563 L83,112.375 C83,112.72028 82.7080958,113 82.3477765,113" id="Fill-193" fill="#231F1F" mask="url(#mask-2)"></path>
                <polygon id="Fill-194" fill="#231F1F" mask="url(#mask-2)" points="86 111 119 111 119 110 86 110"></polygon>
                <path d="M82.3477765,144 L77.6522235,144 C77.2919042,144 77,143.72028 77,143.375 L77,141.125219 L78.304447,141.125219 L78.304447,142.75 L81.695553,142.75 L81.695553,141.000656 L80,141.000656 C79.8278221,141.000656 79.6613455,140.934003 79.5393387,140.817089 L78.9475485,140.25 L78.304447,140.25 L78.304447,140.375656 L77,140.375656 L77,139.625 C77,139.27972 77.2919042,139 77.6522235,139 L79.2166477,139 C79.3899658,139 79.5564424,139.065559 79.6784493,139.183566 L80.2702395,139.750656 L82.3477765,139.750656 C82.7080958,139.750656 83,140.030376 83,140.375656 L83,143.375 C83,143.72028 82.7080958,144 82.3477765,144" id="Fill-195" fill="#231F1F" mask="url(#mask-2)"></path>
                <polygon id="Fill-196" fill="#231F1F" mask="url(#mask-2)" points="86 142 119 142 119 141 86 141"></polygon>
                <path d="M82.3477765,191 L77.6522235,191 C77.2919042,191 77,190.72028 77,190.375 L77,188.125219 L78.304447,188.125219 L78.304447,189.75 L81.695553,189.75 L81.695553,187.999563 L80,187.999563 C79.8278221,187.999563 79.6613455,187.934003 79.5393387,187.817089 L78.9475485,187.25 L78.304447,187.25 L78.304447,187.374563 L77,187.374563 L77,186.625 C77,186.27972 77.2919042,186 77.6522235,186 L79.2166477,186 C79.3899658,186 79.5564424,186.065559 79.6784493,186.183566 L80.2702395,186.749563 L82.3477765,186.749563 C82.7080958,186.749563 83,187.029283 83,187.374563 L83,190.375 C83,190.72028 82.7080958,191 82.3477765,191" id="Fill-197" fill="#231F1F" mask="url(#mask-2)"></path>
                <polygon id="Fill-198" fill="#231F1F" mask="url(#mask-2)" points="86 188 119 188 119 187 86 187"></polygon>
                <polygon id="Fill-199" fill="#231F1F" mask="url(#mask-2)" points="89 42 118 42 118 41 89 41"></polygon>
                <polygon id="Fill-200" fill="#231F1F" mask="url(#mask-2)" points="89 65 122 65 122 64 89 64"></polygon>
                <polygon id="Fill-201" fill="#231F1F" mask="url(#mask-2)" points="89 73 115 73 115 72 89 72"></polygon>
                <polygon id="Fill-202" fill="#231F1F" mask="url(#mask-2)" points="89 80 118 80 118 79 89 79"></polygon>
                <polygon id="Fill-203" fill="#231F1F" mask="url(#mask-2)" points="89 96 115 96 115 95 89 95"></polygon>
                <polygon id="Fill-204" fill="#231F1F" mask="url(#mask-2)" points="89 103 118 103 118 102 89 102"></polygon>
                <polygon id="Fill-205" fill="#231F1F" mask="url(#mask-2)" points="89 119 115 119 115 118 89 118"></polygon>
                <polygon id="Fill-206" fill="#231F1F" mask="url(#mask-2)" points="89 127 111 127 111 126 89 126"></polygon>
                <polygon id="Fill-207" fill="#231F1F" mask="url(#mask-2)" points="89 134 115 134 115 133 89 133"></polygon>
                <polygon id="Fill-208" fill="#231F1F" mask="url(#mask-2)" points="89 150 122 150 122 149 89 149"></polygon>
                <polygon id="Fill-209" fill="#231F1F" mask="url(#mask-2)" points="89 158 118 158 118 157 89 157"></polygon>
                <polygon id="Fill-210" fill="#231F1F" mask="url(#mask-2)" points="89 165 126 165 126 164 89 164"></polygon>
                <polygon id="Fill-211" fill="#231F1F" mask="url(#mask-2)" points="89 173 122 173 122 172 89 172"></polygon>
                <polygon id="Fill-212" fill="#231F1F" mask="url(#mask-2)" points="89 181 118 181 118 180 89 180"></polygon>
                <polygon id="Fill-213" fill="#231F1F" mask="url(#mask-2)" points="89 196 118 196 118 195 89 195"></polygon>
                <polygon id="Fill-214" fill="#231F1F" mask="url(#mask-2)" points="89 204 122 204 122 203 89 203"></polygon>
                <polygon id="Fill-215" fill="#231F1F" mask="url(#mask-2)" points="89 88 122 88 122 87 89 87"></polygon>
                <polygon id="Fill-216" fill="#231F1F" mask="url(#mask-2)" points="89 49 115 49 115 48 89 48"></polygon>
                <polygon id="Fill-217" fill="#231F1F" mask="url(#mask-2)" points="302.326827 88 301 87.5642429 302.673173 84 304 84.4357571"></polygon>
                <polygon id="Fill-218" fill="#231F1F" mask="url(#mask-2)" points="330 87 334 87 334 86 330 86"></polygon>
                <path d="M335.903574,89 L335,88.0430565 L336.457558,86.4994086 L335,84.9557606 L335.903574,84 L337.81236,86.0215283 C338.062547,86.2853087 338.062547,86.7146913 337.81236,86.9784717 L335.903574,89 Z" id="Fill-219" fill="#231F1F" mask="url(#mask-2)"></path>
                <path d="M323.096426,89 L321.18764,86.9784717 C320.937453,86.7146913 320.937453,86.2853087 321.18764,86.0215283 L323.096426,84 L324,84.9557606 L322.542442,86.4994086 L324,88.0430565 L323.096426,89 Z" id="Fill-220" fill="#231F1F" mask="url(#mask-2)"></path>
                <polygon id="Fill-221" fill="#231F1F" mask="url(#mask-2)" points="327.326827 88 326 87.5642429 327.673173 84 329 84.4357571"></polygon>
                <polygon id="Fill-222" fill="#231F1F" mask="url(#mask-2)" points="348 87 352 87 352 86 348 86"></polygon>
                <path d="M353.903574,89 L353,88.0430565 L354.457558,86.4994086 L353,84.9557606 L353.903574,84 L355.81236,86.0215283 C356.062547,86.2853087 356.062547,86.7146913 355.81236,86.9784717 L353.903574,89 Z" id="Fill-223" fill="#231F1F" mask="url(#mask-2)"></path>
                <path d="M342.096426,89 L340.18764,86.9784717 C339.937453,86.7146913 339.937453,86.2853087 340.18764,86.0215283 L342.096426,84 L343,84.9557606 L341.542442,86.4994086 L343,88.0430565 L342.096426,89 Z" id="Fill-224" fill="#231F1F" mask="url(#mask-2)"></path>
                <polygon id="Fill-225" fill="#231F1F" mask="url(#mask-2)" points="345.326827 88 344 87.5642429 345.673173 84 347 84.4357571"></polygon>
                <polygon id="Fill-226" fill="#231F1F" mask="url(#mask-2)" points="205 95 208 95 208 94 205 94"></polygon>
                <polygon id="Fill-227" fill="#231F1F" mask="url(#mask-2)" points="205 93 208 93 208 92 205 92"></polygon>
                <polygon id="Fill-228" fill="#231F1F" mask="url(#mask-2)" points="215 94 223 94 223 93 215 93"></polygon>
                <polygon id="Fill-229" fill="#231F1F" mask="url(#mask-2)" points="225 94 235 94 235 93 225 93"></polygon>
                <polygon id="Fill-230" fill="#231F1F" mask="url(#mask-2)" points="251 94 261 94 261 93 251 93"></polygon>
                <polygon id="Fill-231" fill="#231F1F" mask="url(#mask-2)" points="269 94 285 94 285 93 269 93"></polygon>
                <polygon id="Fill-232" fill="#231F1F" mask="url(#mask-2)" points="210 94 211 94 211 92 210 92"></polygon>
                <polygon id="Fill-233" fill="#231F1F" mask="url(#mask-2)" points="212 94 213 94 213 92 212 92"></polygon>
                <polygon id="Fill-234" fill="#231F1F" mask="url(#mask-2)" points="235 94 236 94 236 92 235 92"></polygon>
                <polygon id="Fill-235" fill="#231F1F" mask="url(#mask-2)" points="237 94 238 94 238 92 237 92"></polygon>
                <path d="M241.903574,96 L241,95.0430565 L242.457558,93.4994086 L241,91.9557606 L241.903574,91 L243.81236,93.0215283 C244.062547,93.2853087 244.062547,93.7146913 243.81236,93.9784717 L241.903574,96 Z" id="Fill-236" fill="#231F1F" mask="url(#mask-2)"></path>
                <path d="M263.903574,96 L263,95.0430565 L264.457558,93.4994086 L263,91.9557606 L263.903574,91 L265.81236,93.0215283 C266.062547,93.2853087 266.062547,93.7146913 265.81236,93.9784717 L263.903574,96 Z" id="Fill-237" fill="#231F1F" mask="url(#mask-2)"></path>
                <polygon id="Fill-238" fill="#231F1F" mask="url(#mask-2)" points="171 94 179 94 179 93 171 93"></polygon>
                <polygon id="Fill-239" fill="#231F1F" mask="url(#mask-2)" points="190 94 194 94 194 93 190 93"></polygon>
                <polygon id="Fill-240" fill="#231F1F" mask="url(#mask-2)" points="197 94 203 94 203 93 197 93"></polygon>
                <path d="M168.096426,96 L166.186523,93.9784717 C166.067014,93.8519044 166,93.6792051 166,93.4994086 C166,93.3207949 166.067014,93.1480956 166.186523,93.0215283 L168.096426,91 L169,91.9557606 L167.542442,93.4994086 L169,95.0430565 L168.096426,96 Z" id="Fill-241" fill="#231F1F" mask="url(#mask-2)"></path>
                <path d="M187.096426,96 L185.186523,93.9784717 C185.067014,93.8519044 185,93.6792051 185,93.4994086 C185,93.3207949 185.067014,93.1480956 185.186523,93.0215283 L187.096426,91 L188,91.9557606 L186.542442,93.4994086 L188,95.0430565 L187.096426,96 Z" id="Fill-242" fill="#231F1F" mask="url(#mask-2)"></path>
                <path d="M248.096426,96 L246.18764,93.9784717 C245.937453,93.7146913 245.937453,93.2853087 246.18764,93.0215283 L248.096426,91 L249,91.9557606 L247.542442,93.4994086 L249,95.0430565 L248.096426,96 Z" id="Fill-243" fill="#231F1F" mask="url(#mask-2)"></path>
                <polygon id="Fill-244" fill="#231F1F" mask="url(#mask-2)" points="295 94 305 94 305 93 295 93"></polygon>
                <path d="M306.903574,96 L306,95.0430565 L307.457558,93.4994086 L306,91.9557606 L306.903574,91 L308.81236,93.0215283 C309.062547,93.2853087 309.062547,93.7146913 308.81236,93.9784717 L306.903574,96 Z" id="Fill-245" fill="#231F1F" mask="url(#mask-2)"></path>
                <path d="M288.096426,96 L286.186523,93.9784717 C286.067014,93.8519044 286,93.6792051 286,93.4994086 C286,93.3207949 286.067014,93.1480956 286.186523,93.0215283 L288.096426,91 L289,91.9557606 L287.542442,93.4994086 L289,95.0430565 L288.096426,96 Z" id="Fill-246" fill="#231F1F" mask="url(#mask-2)"></path>
                <path d="M180.903574,96 L180,95.0430565 L181.457558,93.4994086 L180,91.9557606 L180.903574,91 L182.813477,93.0215283 C182.932986,93.1480956 183,93.3207949 183,93.4994086 C183,93.6792051 182.932986,93.8519044 182.813477,93.9784717 L180.903574,96 Z" id="Fill-247" fill="#231F1F" mask="url(#mask-2)"></path>
                <polygon id="Fill-248" fill="#231F1F" mask="url(#mask-2)" points="291.326827 95 290 94.5642429 291.673173 91 293 91.4357571"></polygon>
                <polygon id="Fill-249" fill="#231F1F" mask="url(#mask-2)" points="319 94 323 94 323 93 319 93"></polygon>
                <path d="M324.903574,96 L324,95.0430565 L325.457558,93.4994086 L324,91.9557606 L324.903574,91 L326.81236,93.0215283 C327.062547,93.2853087 327.062547,93.7146913 326.81236,93.9784717 L324.903574,96 Z" id="Fill-250" fill="#231F1F" mask="url(#mask-2)"></path>
                <path d="M312.096426,96 L310.186523,93.9784717 C310.067014,93.8519044 310,93.6792051 310,93.4994086 C310,93.3207949 310.067014,93.1480956 310.186523,93.0215283 L312.096426,91 L313,91.9557606 L311.542442,93.4994086 L313,95.0430565 L312.096426,96 Z" id="Fill-251" fill="#231F1F" mask="url(#mask-2)"></path>
                <polygon id="Fill-252" fill="#231F1F" mask="url(#mask-2)" points="316.326827 95 315 94.5642429 316.673173 91 318 91.4357571"></polygon>
                <polygon id="Fill-253" fill="#231F1F" mask="url(#mask-2)" points="337 94 341 94 341 93 337 93"></polygon>
                <path d="M342.903574,96 L342,95.0430565 L343.457558,93.4994086 L342,91.9557606 L342.903574,91 L344.81236,93.0215283 C345.062547,93.2853087 345.062547,93.7146913 344.81236,93.9784717 L342.903574,96 Z" id="Fill-254" fill="#231F1F" mask="url(#mask-2)"></path>
                <path d="M331.096426,96 L329.186523,93.9784717 C329.067014,93.8519044 329,93.6792051 329,93.4994086 C329,93.3207949 329.067014,93.1480956 329.186523,93.0215283 L331.096426,91 L332,91.9557606 L330.542442,93.4994086 L332,95.0430565 L331.096426,96 Z" id="Fill-255" fill="#231F1F" mask="url(#mask-2)"></path>
                <polygon id="Fill-256" fill="#231F1F" mask="url(#mask-2)" points="334.326827 95 333 94.5642429 334.673173 91 336 91.4357571"></polygon>
                <polygon id="Fill-257" fill="#231F1F" mask="url(#mask-2)" points="205 102 208 102 208 101 205 101"></polygon>
                <polygon id="Fill-258" fill="#231F1F" mask="url(#mask-2)" points="205 100 208 100 208 99 205 99"></polygon>
                <polygon id="Fill-259" fill="#231F1F" mask="url(#mask-2)" points="215 101 227 101 227 100 215 100"></polygon>
                <polygon id="Fill-260" fill="#231F1F" mask="url(#mask-2)" points="229 101 239 101 239 100 229 100"></polygon>
                <polygon id="Fill-261" fill="#231F1F" mask="url(#mask-2)" points="255 101 265 101 265 100 255 100"></polygon>
                <polygon id="Fill-262" fill="#231F1F" mask="url(#mask-2)" points="273 101 291 101 291 100 273 100"></polygon>
                <polygon id="Fill-263" fill="#231F1F" mask="url(#mask-2)" points="210 101 211 101 211 99 210 99"></polygon>
                <polygon id="Fill-264" fill="#231F1F" mask="url(#mask-2)" points="212 101 213 101 213 99 212 99"></polygon>
                <polygon id="Fill-265" fill="#231F1F" mask="url(#mask-2)" points="240 101 241 101 241 99 240 99"></polygon>
                <polygon id="Fill-266" fill="#231F1F" mask="url(#mask-2)" points="241 101 242 101 242 99 241 99"></polygon>
                <path d="M245.903574,103 L245,102.043057 L246.457558,100.499409 L245,98.9557606 L245.903574,98 L247.81236,100.021528 C248.062547,100.285309 248.062547,100.714691 247.81236,100.978472 L245.903574,103 Z" id="Fill-267" fill="#231F1F" mask="url(#mask-2)"></path>
                <path d="M267.903574,103 L267,102.043057 L268.457558,100.499409 L267,98.9557606 L267.903574,98 L269.81236,100.021528 C270.062547,100.285309 270.062547,100.714691 269.81236,100.978472 L267.903574,103 Z" id="Fill-268" fill="#231F1F" mask="url(#mask-2)"></path>
                <polygon id="Fill-269" fill="#231F1F" mask="url(#mask-2)" points="171 101 179 101 179 100 171 100"></polygon>
                <polygon id="Fill-270" fill="#231F1F" mask="url(#mask-2)" points="190 101 194 101 194 100 190 100"></polygon>
                <polygon id="Fill-271" fill="#231F1F" mask="url(#mask-2)" points="197 101 203 101 203 100 197 100"></polygon>
                <path d="M168.096426,103 L166.186523,100.978472 C166.067014,100.851904 166,100.679205 166,100.499409 C166,100.320795 166.067014,100.148096 166.186523,100.021528 L168.096426,98 L169,98.9557606 L167.542442,100.499409 L169,102.043057 L168.096426,103 Z" id="Fill-272" fill="#231F1F" mask="url(#mask-2)"></path>
                <path d="M187.096426,103 L185.186523,100.978472 C185.067014,100.851904 185,100.679205 185,100.499409 C185,100.320795 185.067014,100.148096 185.186523,100.021528 L187.096426,98 L188,98.9557606 L186.542442,100.499409 L188,102.043057 L187.096426,103 Z" id="Fill-273" fill="#231F1F" mask="url(#mask-2)"></path>
                <path d="M252.096426,103 L250.186523,100.978472 C250.067014,100.851904 250,100.679205 250,100.499409 C250,100.320795 250.067014,100.148096 250.186523,100.021528 L252.096426,98 L253,98.9557606 L251.542442,100.499409 L253,102.043057 L252.096426,103 Z" id="Fill-274" fill="#231F1F" mask="url(#mask-2)"></path>
                <polygon id="Fill-275" fill="#231F1F" mask="url(#mask-2)" points="301 101 311 101 311 100 301 100"></polygon>
                <path d="M312.903574,103 L312,102.043057 L313.457558,100.499409 L312,98.9557606 L312.903574,98 L314.81236,100.021528 C315.062547,100.285309 315.062547,100.714691 314.81236,100.978472 L312.903574,103 Z" id="Fill-276" fill="#231F1F" mask="url(#mask-2)"></path>
                <path d="M295.096426,103 L293.18764,100.978472 C292.937453,100.714691 292.937453,100.285309 293.18764,100.021528 L295.096426,98 L296,98.9557606 L294.542442,100.499409 L296,102.043057 L295.096426,103 Z" id="Fill-277" fill="#231F1F" mask="url(#mask-2)"></path>
                <path d="M180.903574,103 L180,102.043057 L181.457558,100.499409 L180,98.9557606 L180.903574,98 L182.813477,100.021528 C182.932986,100.148096 183,100.320795 183,100.499409 C183,100.679205 182.932986,100.851904 182.813477,100.978472 L180.903574,103 Z" id="Fill-278" fill="#231F1F" mask="url(#mask-2)"></path>
                <polygon id="Fill-279" fill="#231F1F" mask="url(#mask-2)" points="298.326827 102 297 101.564243 298.673173 98 300 98.4357571"></polygon>
                <polygon id="Fill-280" fill="#231F1F" mask="url(#mask-2)" points="325 101 329 101 329 100 325 100"></polygon>
                <path d="M330.903574,103 L330,102.043057 L331.457558,100.499409 L330,98.9557606 L330.903574,98 L332.81236,100.021528 C333.062547,100.285309 333.062547,100.714691 332.81236,100.978472 L330.903574,103 Z" id="Fill-281" fill="#231F1F" mask="url(#mask-2)"></path>
                <path d="M319.096426,103 L317.18764,100.978472 C316.937453,100.714691 316.937453,100.285309 317.18764,100.021528 L319.096426,98 L320,98.9557606 L318.542442,100.499409 L320,102.043057 L319.096426,103 Z" id="Fill-282" fill="#231F1F" mask="url(#mask-2)"></path>
                <polygon id="Fill-283" fill="#231F1F" mask="url(#mask-2)" points="322.326827 102 321 101.564243 322.673173 98 324 98.4357571"></polygon>
                <polygon id="Fill-284" fill="#231F1F" mask="url(#mask-2)" points="344 101 348 101 348 100 344 100"></polygon>
                <path d="M349.903574,103 L349,102.043057 L350.457558,100.499409 L349,98.9557606 L349.903574,98 L351.81236,100.021528 C352.062547,100.285309 352.062547,100.714691 351.81236,100.978472 L349.903574,103 Z" id="Fill-285" fill="#231F1F" mask="url(#mask-2)"></path>
                <path d="M337.096426,103 L335.18764,100.978472 C334.937453,100.714691 334.937453,100.285309 335.18764,100.021528 L337.096426,98 L338,98.9557606 L336.542442,100.499409 L338,102.043057 L337.096426,103 Z" id="Fill-286" fill="#231F1F" mask="url(#mask-2)"></path>
                <polygon id="Fill-287" fill="#231F1F" mask="url(#mask-2)" points="341.326827 102 340 101.564243 341.673173 98 343 98.4357571"></polygon>
                <polygon id="Fill-288" fill="#231F1F" mask="url(#mask-2)" points="205 109 208 109 208 108 205 108"></polygon>
                <polygon id="Fill-289" fill="#231F1F" mask="url(#mask-2)" points="205 107 208 107 208 106 205 106"></polygon>
                <polygon id="Fill-290" fill="#231F1F" mask="url(#mask-2)" points="215 108 235 108 235 107 215 107"></polygon>
                <polygon id="Fill-291" fill="#231F1F" mask="url(#mask-2)" points="237 108 247 108 247 107 237 107"></polygon>
                <polygon id="Fill-292" fill="#231F1F" mask="url(#mask-2)" points="263 108 273 108 273 107 263 107"></polygon>
                <polygon id="Fill-293" fill="#231F1F" mask="url(#mask-2)" points="281 108 307 108 307 107 281 107"></polygon>
                <polygon id="Fill-294" fill="#231F1F" mask="url(#mask-2)" points="210 108 211 108 211 106 210 106"></polygon>
                <polygon id="Fill-295" fill="#231F1F" mask="url(#mask-2)" points="212 108 213 108 213 106 212 106"></polygon>
                <polygon id="Fill-296" fill="#231F1F" mask="url(#mask-2)" points="248 108 249 108 249 106 248 106"></polygon>
                <polygon id="Fill-297" fill="#231F1F" mask="url(#mask-2)" points="250 108 251 108 251 106 250 106"></polygon>
                <path d="M254.903574,110 L254,109.043057 L255.457558,107.499409 L254,105.955761 L254.903574,105 L256.813477,107.021528 C256.932986,107.148096 257,107.320795 257,107.499409 C257,107.679205 256.932986,107.851904 256.813477,107.978472 L254.903574,110 Z" id="Fill-298" fill="#231F1F" mask="url(#mask-2)"></path>
                <path d="M275.903574,110 L275,109.043057 L276.457558,107.499409 L275,105.955761 L275.903574,105 L277.813477,107.021528 C277.932986,107.148096 278,107.320795 278,107.499409 C278,107.679205 277.932986,107.851904 277.813477,107.978472 L275.903574,110 Z" id="Fill-299" fill="#231F1F" mask="url(#mask-2)"></path>
                <polygon id="Fill-300" fill="#231F1F" mask="url(#mask-2)" points="171 108 179 108 179 107 171 107"></polygon>
                <polygon id="Fill-301" fill="#231F1F" mask="url(#mask-2)" points="190 108 194 108 194 107 190 107"></polygon>
                <polygon id="Fill-302" fill="#231F1F" mask="url(#mask-2)" points="197 108 203 108 203 107 197 107"></polygon>
                <path d="M168.096426,110 L166.186523,107.978472 C166.067014,107.851904 166,107.679205 166,107.499409 C166,107.320795 166.067014,107.148096 166.186523,107.021528 L168.096426,105 L169,105.955761 L167.542442,107.499409 L169,109.043057 L168.096426,110 Z" id="Fill-303" fill="#231F1F" mask="url(#mask-2)"></path>
                <path d="M187.096426,110 L185.186523,107.978472 C185.067014,107.851904 185,107.679205 185,107.499409 C185,107.320795 185.067014,107.148096 185.186523,107.021528 L187.096426,105 L188,105.955761 L186.542442,107.499409 L188,109.043057 L187.096426,110 Z" id="Fill-304" fill="#231F1F" mask="url(#mask-2)"></path>
                <path d="M261.096426,110 L259.18764,107.978472 C258.937453,107.714691 258.937453,107.285309 259.18764,107.021528 L261.096426,105 L262,105.955761 L260.542442,107.499409 L262,109.043057 L261.096426,110 Z" id="Fill-305" fill="#231F1F" mask="url(#mask-2)"></path>
                <polygon id="Fill-306" fill="#231F1F" mask="url(#mask-2)" points="318 108 328 108 328 107 318 107"></polygon>
                <path d="M329.903574,110 L329,109.043057 L330.457558,107.499409 L329,105.955761 L329.903574,105 L331.81236,107.021528 C332.062547,107.285309 332.062547,107.714691 331.81236,107.978472 L329.903574,110 Z" id="Fill-307" fill="#231F1F" mask="url(#mask-2)"></path>
                <path d="M311.096426,110 L309.186523,107.978472 C309.067014,107.851904 309,107.679205 309,107.499409 C309,107.320795 309.067014,107.148096 309.186523,107.021528 L311.096426,105 L312,105.955761 L310.542442,107.499409 L312,109.043057 L311.096426,110 Z" id="Fill-308" fill="#231F1F" mask="url(#mask-2)"></path>
                <path d="M180.903574,110 L180,109.043057 L181.457558,107.499409 L180,105.955761 L180.903574,105 L182.813477,107.021528 C182.932986,107.148096 183,107.320795 183,107.499409 C183,107.679205 182.932986,107.851904 182.813477,107.978472 L180.903574,110 Z" id="Fill-309" fill="#231F1F" mask="url(#mask-2)"></path>
                <polygon id="Fill-310" fill="#231F1F" mask="url(#mask-2)" points="314.326827 109 313 108.564243 314.673173 105 316 105.435757"></polygon>
                <polygon id="Fill-311" fill="#231F1F" mask="url(#mask-2)" points="342 108 346 108 346 107 342 107"></polygon>
                <path d="M347.903574,110 L347,109.043057 L348.457558,107.499409 L347,105.955761 L347.903574,105 L349.813477,107.021528 C349.932986,107.148096 350,107.320795 350,107.499409 C350,107.679205 349.932986,107.851904 349.813477,107.978472 L347.903574,110 Z" id="Fill-312" fill="#231F1F" mask="url(#mask-2)"></path>
                <path d="M335.096426,110 L333.186523,107.978472 C333.067014,107.851904 333,107.679205 333,107.499409 C333,107.320795 333.067014,107.148096 333.186523,107.021528 L335.096426,105 L336,105.955761 L334.542442,107.499409 L336,109.043057 L335.096426,110 Z" id="Fill-313" fill="#231F1F" mask="url(#mask-2)"></path>
                <polygon id="Fill-314" fill="#231F1F" mask="url(#mask-2)" points="338.326827 109 337 108.564243 338.673173 105 340 105.435757"></polygon>
                <polygon id="Fill-315" fill="#231F1F" mask="url(#mask-2)" points="360 108 364 108 364 107 360 107"></polygon>
                <path d="M365.903574,110 L365,109.043057 L366.457558,107.499409 L365,105.955761 L365.903574,105 L367.813477,107.021528 C367.932986,107.148096 368,107.320795 368,107.499409 C368,107.679205 367.932986,107.851904 367.813477,107.978472 L365.903574,110 Z" id="Fill-316" fill="#231F1F" mask="url(#mask-2)"></path>
                <path d="M354.096426,110 L352.186523,107.978472 C352.067014,107.851904 352,107.679205 352,107.499409 C352,107.320795 352.067014,107.148096 352.186523,107.021528 L354.096426,105 L355,105.955761 L353.542442,107.499409 L355,109.043057 L354.096426,110 Z" id="Fill-317" fill="#231F1F" mask="url(#mask-2)"></path>
                <polygon id="Fill-318" fill="#231F1F" mask="url(#mask-2)" points="357.326827 109 356 108.564243 357.673173 105 359 105.435757"></polygon>
                <polygon id="Fill-319" fill="#231F1F" mask="url(#mask-2)" points="205 115 208 115 208 114 205 114"></polygon>
                <polygon id="Fill-320" fill="#231F1F" mask="url(#mask-2)" points="205 114 208 114 208 113 205 113"></polygon>
                <polygon id="Fill-321" fill="#231F1F" mask="url(#mask-2)" points="215 115 231 115 231 114 215 114"></polygon>
                <polygon id="Fill-322" fill="#231F1F" mask="url(#mask-2)" points="233 115 243 115 243 114 233 114"></polygon>
                <polygon id="Fill-323" fill="#231F1F" mask="url(#mask-2)" points="259 115 269 115 269 114 259 114"></polygon>
                <polygon id="Fill-324" fill="#231F1F" mask="url(#mask-2)" points="277 115 295 115 295 114 277 114"></polygon>
                <polygon id="Fill-325" fill="#231F1F" mask="url(#mask-2)" points="298 115 304 115 304 114 298 114"></polygon>
                <polygon id="Fill-326" fill="#231F1F" mask="url(#mask-2)" points="210 115 211 115 211 113 210 113"></polygon>
                <polygon id="Fill-327" fill="#231F1F" mask="url(#mask-2)" points="212 115 213 115 213 113 212 113"></polygon>
                <polygon id="Fill-328" fill="#231F1F" mask="url(#mask-2)" points="244 115 245 115 245 113 244 113"></polygon>
                <polygon id="Fill-329" fill="#231F1F" mask="url(#mask-2)" points="245 115 246 115 246 113 245 113"></polygon>
                <path d="M250.903574,117 L250,116.043057 L251.457558,114.499409 L250,112.955761 L250.903574,112 L252.81236,114.021528 C253.062547,114.285309 253.062547,114.714691 252.81236,114.978472 L250.903574,117 Z" id="Fill-330" fill="#231F1F" mask="url(#mask-2)"></path>
                <path d="M271.903574,117 L271,116.043057 L272.457558,114.499409 L271,112.955761 L271.903574,112 L273.81236,114.021528 C274.062547,114.285309 274.062547,114.714691 273.81236,114.978472 L271.903574,117 Z" id="Fill-331" fill="#231F1F" mask="url(#mask-2)"></path>
                <polygon id="Fill-332" fill="#231F1F" mask="url(#mask-2)" points="171 115 179 115 179 114 171 114"></polygon>
                <polygon id="Fill-333" fill="#231F1F" mask="url(#mask-2)" points="190 115 194 115 194 114 190 114"></polygon>
                <polygon id="Fill-334" fill="#231F1F" mask="url(#mask-2)" points="197 115 203 115 203 114 197 114"></polygon>
                <path d="M168.096426,117 L166.186523,114.978472 C166.067014,114.851904 166,114.679205 166,114.499409 C166,114.320795 166.067014,114.148096 166.186523,114.021528 L168.096426,112 L169,112.955761 L167.542442,114.499409 L169,116.043057 L168.096426,117 Z" id="Fill-335" fill="#231F1F" mask="url(#mask-2)"></path>
                <path d="M187.096426,117 L185.186523,114.978472 C185.067014,114.851904 185,114.679205 185,114.499409 C185,114.320795 185.067014,114.148096 185.186523,114.021528 L187.096426,112 L188,112.955761 L186.542442,114.499409 L188,116.043057 L187.096426,117 Z" id="Fill-336" fill="#231F1F" mask="url(#mask-2)"></path>
                <path d="M256.096426,117 L254.186523,114.978472 C254.067014,114.851904 254,114.679205 254,114.499409 C254,114.320795 254.067014,114.148096 254.186523,114.021528 L256.096426,112 L257,112.955761 L255.542442,114.499409 L257,116.043057 L256.096426,117 Z" id="Fill-337" fill="#231F1F" mask="url(#mask-2)"></path>
                <polygon id="Fill-338" fill="#231F1F" mask="url(#mask-2)" points="314 115 324 115 324 114 314 114"></polygon>
                <path d="M325.903574,117 L325,116.043057 L326.457558,114.499409 L325,112.955761 L325.903574,112 L327.81236,114.021528 C328.062547,114.285309 328.062547,114.714691 327.81236,114.978472 L325.903574,117 Z" id="Fill-339" fill="#231F1F" mask="url(#mask-2)"></path>
                <path d="M308.096426,117 L306.18764,114.978472 C305.937453,114.714691 305.937453,114.285309 306.18764,114.021528 L308.096426,112 L309,112.955761 L307.542442,114.499409 L309,116.043057 L308.096426,117 Z" id="Fill-340" fill="#231F1F" mask="url(#mask-2)"></path>
                <path d="M180.903574,117 L180,116.043057 L181.457558,114.499409 L180,112.955761 L180.903574,112 L182.813477,114.021528 C182.932986,114.148096 183,114.320795 183,114.499409 C183,114.679205 182.932986,114.851904 182.813477,114.978472 L180.903574,117 Z" id="Fill-341" fill="#231F1F" mask="url(#mask-2)"></path>
                <polygon id="Fill-342" fill="#231F1F" mask="url(#mask-2)" points="311.326827 116 310 115.564243 311.673173 112 313 112.435757"></polygon>
                <polygon id="Fill-343" fill="#231F1F" mask="url(#mask-2)" points="338 115 342 115 342 114 338 114"></polygon>
                <path d="M343.903574,117 L343,116.043057 L344.457558,114.499409 L343,112.955761 L343.903574,112 L345.81236,114.021528 C346.062547,114.285309 346.062547,114.714691 345.81236,114.978472 L343.903574,117 Z" id="Fill-344" fill="#231F1F" mask="url(#mask-2)"></path>
                <path d="M332.096426,117 L330.18764,114.978472 C329.937453,114.714691 329.937453,114.285309 330.18764,114.021528 L332.096426,112 L333,112.955761 L331.542442,114.499409 L333,116.043057 L332.096426,117 Z" id="Fill-345" fill="#231F1F" mask="url(#mask-2)"></path>
                <polygon id="Fill-346" fill="#231F1F" mask="url(#mask-2)" points="335.326827 116 334 115.564243 335.673173 112 337 112.435757"></polygon>
                <polygon id="Fill-347" fill="#231F1F" mask="url(#mask-2)" points="357 115 361 115 361 114 357 114"></polygon>
                <path d="M362.903574,117 L362,116.043057 L363.457558,114.499409 L362,112.955761 L362.903574,112 L364.81236,114.021528 C365.062547,114.285309 365.062547,114.714691 364.81236,114.978472 L362.903574,117 Z" id="Fill-348" fill="#231F1F" mask="url(#mask-2)"></path>
                <path d="M350.096426,117 L348.18764,114.978472 C347.937453,114.714691 347.937453,114.285309 348.18764,114.021528 L350.096426,112 L351,112.955761 L349.542442,114.499409 L351,116.043057 L350.096426,117 Z" id="Fill-349" fill="#231F1F" mask="url(#mask-2)"></path>
                <polygon id="Fill-350" fill="#231F1F" mask="url(#mask-2)" points="354.326827 116 353 115.564243 354.673173 112 356 112.435757"></polygon>
                <polygon id="Fill-351" fill="#231F1F" mask="url(#mask-2)" points="166.326827 123 165 122.564243 166.673173 119 168 119.435757"></polygon>
                <polygon id="Fill-352" fill="#231F1F" mask="url(#mask-2)" points="165 128 172 128 172 127 165 127"></polygon>
                <path d="M160.096426,131 L158.186523,128.978472 C158.067014,128.851904 158,128.679205 158,128.499409 C158,128.320795 158.067014,128.148096 158.186523,128.021528 L160.096426,126 L161,126.955761 L159.542442,128.499409 L161,130.043057 L160.096426,131 Z" id="Fill-353" fill="#231F1F" mask="url(#mask-2)"></path>
                <path d="M174.903574,131 L174,130.043057 L175.457558,128.499409 L174,126.955761 L174.903574,126 L176.81236,128.021528 C177.062547,128.285309 177.062547,128.714691 176.81236,128.978472 L174.903574,131 Z" id="Fill-354" fill="#231F1F" mask="url(#mask-2)"></path>
                <polygon id="Fill-355" fill="#231F1F" mask="url(#mask-2)" points="162.326827 130 161 129.564243 162.673173 126 164 126.435757"></polygon>
                <polygon id="Fill-356" fill="#231F1F" mask="url(#mask-2)" points="161 135 168 135 168 134 161 134"></polygon>
                <path d="M156.096426,138 L154.18764,135.97895 C153.937453,135.715232 153.937453,135.285951 154.18764,135.022233 L156.096426,133 L157,133.956717 L155.542442,135.5 L157,137.043283 L156.096426,138 Z" id="Fill-357" fill="#231F1F" mask="url(#mask-2)"></path>
                <path d="M169.903574,138 L169,137.043283 L170.457558,135.5 L169,133.956717 L169.903574,133 L171.81236,135.022233 C172.062547,135.285951 172.062547,135.715232 171.81236,135.97895 L169.903574,138 Z" id="Fill-358" fill="#231F1F" mask="url(#mask-2)"></path>
                <polygon id="Fill-359" fill="#231F1F" mask="url(#mask-2)" points="158.326827 137 157 136.564243 158.673173 133 160 133.435757"></polygon>
                <polygon id="Fill-360" fill="#231F1F" mask="url(#mask-2)" points="155.326827 182 154 181.564243 155.673173 178 157 178.435757"></polygon>
            </g>
        </g>
    </g>
</svg>