<?xml version="1.0" encoding="UTF-8" standalone="no"?>
<svg width="52px" height="66px" viewBox="0 0 52 66" version="1.1" xmlns="http://www.w3.org/2000/svg" xmlns:xlink="http://www.w3.org/1999/xlink">
    <!-- Generator: Sketch 40.1 (33804) - http://www.bohemiancoding.com/sketch -->
    <title>Page 1</title>
    <desc>Created with Sketch.</desc>
    <defs>
        <polygon id="path-1" points="51.7516154 0.000253846154 51.7516154 65.4263077 0 65.4263077 0 0.000253846154 51.7516154 0.000253846154"></polygon>
    </defs>
    <g id="Page-1" stroke="none" stroke-width="1" fill="none" fill-rule="evenodd">
        <g id="Support" transform="translate(-983.000000, -897.000000)">
            <g id="Page-1" transform="translate(983.000000, 897.000000)">
                <mask id="mask-2" fill="white">
                    <use xlink:href="#path-1"></use>
                </mask>
                <g id="Clip-2"></g>
                <path d="M21.8750019,5.37735 C21.8750019,7.29261923 23.4329827,8.8506 25.3482519,8.8506 C27.2635212,8.8506 28.8215019,7.29261923 28.8215019,5.37735 C28.8215019,3.46208077 27.2635212,1.9041 25.3482519,1.9041 C23.4329827,1.9041 21.8750019,3.46208077 21.8750019,5.37735 L21.8750019,5.37735 Z M19.9711558,5.37735 C19.9711558,2.41242692 22.3833288,0.000253846154 25.3482519,0.000253846154 C28.313175,0.000253846154 30.7253481,2.41242692 30.7253481,5.37735 C30.7253481,8.34227308 28.313175,10.7544462 25.3482519,10.7544462 C22.3833288,10.7544462 19.9711558,8.34227308 19.9711558,5.37735 L19.9711558,5.37735 Z M36.6361558,57.2019462 C36.2642712,56.8300615 35.6620212,56.8300615 35.2901365,57.2019462 L32.6628288,59.8286192 L30.0361558,57.2019462 C29.6642712,56.8300615 29.0620212,56.8300615 28.6901365,57.2019462 C28.3182519,57.5738308 28.3182519,58.1760808 28.6901365,58.5479654 L31.3168096,61.1746385 L28.6901365,63.8013115 C28.3182519,64.1731962 28.3182519,64.7754462 28.6901365,65.1473308 C28.8760788,65.3332731 29.1197712,65.4265615 29.3628288,65.4265615 C29.6065212,65.4265615 29.8502135,65.3332731 30.0361558,65.1473308 L32.6628288,62.5206577 L35.2901365,65.1473308 C35.4760788,65.3332731 35.7191365,65.4265615 35.9628288,65.4265615 C36.2065212,65.4265615 36.4502135,65.3332731 36.6361558,65.1473308 C37.0080404,64.7754462 37.0080404,64.1731962 36.6361558,63.8013115 L34.0088481,61.1746385 L36.6361558,58.5479654 C37.0080404,58.1760808 37.0080404,57.5738308 36.6361558,57.2019462 L36.6361558,57.2019462 Z M16.0549442,6.32927308 L18.5934058,6.32927308 L18.5934058,4.42542692 L16.0549442,4.42542692 L16.0549442,6.32927308 Z M15.6487904,20.2787538 L20.8570788,20.2787538 L20.8570788,18.3749077 L15.6487904,18.3749077 L15.6487904,20.2787538 Z M6.73244423,18.2562346 C5.246175,17.9579654 3.93505962,17.1126577 3.04152115,15.8757923 L1.49877115,16.9914462 C2.67407885,18.6173308 4.39959808,19.7298115 6.35738654,20.1232731 L6.73244423,18.2562346 Z M8.87998269,6.32927308 L14.0876365,6.32927308 L14.0876365,4.42542692 L8.87998269,4.42542692 L8.87998269,6.32927308 Z M2.25713654,14.3907923 C2.02232885,13.7384077 1.90365577,13.0530231 1.90365577,12.3517731 C1.90365577,11.5356577 2.06421346,10.7442923 2.38025192,9.99988846 L0.627444231,9.25548462 C0.211136538,10.2366 -0.000190384615,11.2780038 -0.000190384615,12.3517731 C-0.000190384615,13.2726 0.155925,14.1756577 0.465617308,15.0349269 L2.25713654,14.3907923 Z M8.48779038,20.2787538 L13.6960788,20.2787538 L13.6960788,18.3749077 L8.48779038,18.3749077 L8.48779038,20.2787538 Z M7.06561731,6.39019615 L6.79590577,4.50538846 C4.81907885,4.78779231 3.03327115,5.80190769 1.76848269,7.36052308 L3.24650192,8.55994615 C4.20857885,7.37511923 5.56411731,6.60469615 7.06561731,6.39019615 L7.06561731,6.39019615 Z M13.3470404,34.2276 L18.2424635,34.2276 L18.2424635,32.3237538 L13.3470404,32.3237538 L13.3470404,34.2276 Z M1.90365577,40.2507346 C1.90365577,39.9372346 1.92777115,39.6243692 1.97536731,39.3191192 L0.0937326923,39.0265615 C0.0315403846,39.4289077 -0.000190384615,39.8401385 -0.000190384615,40.2507346 C-0.000190384615,41.7078115 0.398982692,43.1331577 1.154175,44.3712923 L2.779425,43.3806577 C2.20636731,42.4407923 1.90365577,41.3581385 1.90365577,40.2507346 L1.90365577,40.2507346 Z M2.45830962,45.9895615 C3.81448269,47.2816385 5.58886731,48.0539654 7.45527115,48.1624846 L7.56696346,46.2624462 C6.14986731,46.1786769 4.80194423,45.5929269 3.77196346,44.6111769 L2.45830962,45.9895615 Z M0.682021154,37.0287923 L2.42086731,37.8036577 C2.99963654,36.5046 4.02263654,35.4479654 5.30202115,34.8279462 L4.47130962,33.1144846 C2.78830962,33.9299654 1.442925,35.3204077 0.682021154,37.0287923 L0.682021154,37.0287923 Z M20.0790404,34.2276 L24.9744635,34.2276 L24.9744635,32.3237538 L20.0790404,32.3237538 L20.0790404,34.2276 Z M16.078425,48.1770808 L20.9738481,48.1770808 L20.9738481,46.2732346 L16.078425,46.2732346 L16.078425,48.1770808 Z M9.34705962,48.1770808 L14.2424827,48.1770808 L14.2424827,46.2732346 L9.34705962,46.2732346 L9.34705962,48.1770808 Z M11.5117327,32.3237538 L7.92679038,32.3237538 C7.43052115,32.3237538 6.93298269,32.3707154 6.44750192,32.4621 L6.80098269,34.3329462 C7.16969423,34.2631385 7.54855962,34.2276 7.92679038,34.2276 L11.5117327,34.2276 L11.5117327,32.3237538 Z M22.8097904,46.2732346 L22.8097904,48.1770808 L25.3482519,48.1770808 L27.8867135,48.1770808 L27.8867135,46.2732346 L25.3482519,46.2732346 L22.8097904,46.2732346 Z M38.0735596,62.1259269 L40.6120212,62.1259269 L40.6120212,60.2220808 L38.0735596,60.2220808 L38.0735596,62.1259269 Z M48.0852519,49.9425808 C49.061925,50.9198885 49.6768673,52.2119654 49.8164827,53.5814654 L51.710175,53.3879077 C51.5267712,51.5849654 50.7176365,49.8829269 49.4319058,48.5965615 L48.0852519,49.9425808 Z M29.6718865,48.1770808 L34.4321365,48.1770808 L34.4321365,46.2732346 L29.6718865,46.2732346 L29.6718865,48.1770808 Z M47.8663096,58.6660038 L49.1437904,60.0780231 C50.4929827,58.8563885 51.3865212,57.1981385 51.660675,55.4072538 L49.7784058,55.1197731 C49.5708865,56.4784846 48.8912135,57.7381962 47.8663096,58.6660038 L47.8663096,58.6660038 Z M42.7627327,46.2732346 L42.7627327,48.1770808 L43.8250788,48.1770808 C44.8975788,48.1770808 45.9504058,48.4620231 46.8693288,49.0020808 L47.832675,47.3596962 C46.6224635,46.6489269 45.2364635,46.2732346 43.8250788,46.2732346 L42.7627327,46.2732346 Z M43.8250788,60.2220808 L42.4117904,60.2220808 L42.4117904,62.1259269 L43.8250788,62.1259269 C45.0974827,62.1259269 46.3629058,61.8168692 47.4842712,61.2323885 L46.6046942,59.5443115 C45.7409827,59.9942538 44.8061942,60.2220808 43.8250788,60.2220808 L43.8250788,60.2220808 Z M36.2173096,48.1770808 L40.9775596,48.1770808 L40.9775596,46.2732346 L36.2173096,46.2732346 L36.2173096,48.1770808 Z M31.9012904,34.2276 L31.9012904,32.3237538 L29.3628288,32.3237538 L26.8243673,32.3237538 L26.8243673,34.2276 L29.3628288,34.2276 L31.9012904,34.2276 Z M50.1579058,21.5327538 L48.6380019,22.6795038 C49.4300019,23.7291577 49.8482135,24.9818885 49.8482135,26.3012538 C49.8482135,26.4389654 49.8431365,26.5754077 49.8342519,26.7105808 L51.7336558,26.8387731 C51.7457135,26.6617154 51.7520596,26.4821192 51.7520596,26.3018885 C51.7520596,24.5649462 51.2012135,22.9155808 50.1579058,21.5327538 L50.1579058,21.5327538 Z M33.7822904,34.2276 L38.7589442,34.2276 L38.7589442,32.3237538 L33.7822904,32.3237538 L33.7822904,34.2276 Z M36.5968096,20.2787538 L41.5734635,20.2787538 L41.5734635,18.3749077 L36.5968096,18.3749077 L36.5968096,20.2787538 Z M29.7531173,20.2787538 L34.7297712,20.2787538 L34.7297712,18.3749077 L29.7531173,18.3749077 L29.7531173,20.2787538 Z M47.5077519,21.5352923 L48.6729058,20.0299846 C47.2742135,18.9473308 45.5975596,18.3749077 43.8250788,18.3749077 L43.4392327,18.3749077 L43.4392327,20.2787538 L43.8250788,20.2787538 C45.1717327,20.2787538 46.4454058,20.7134654 47.5077519,21.5352923 L47.5077519,21.5352923 Z M40.6253481,32.3237538 L40.6253481,34.2276 L43.8257135,34.2276 C44.5015788,34.2276 45.1730019,34.1419269 45.8215788,33.9743885 L45.3437135,32.1308308 C44.8512519,32.2590231 44.3397519,32.3237538 43.8250788,32.3237538 L40.6253481,32.3237538 Z M47.7793673,33.1722346 C49.4312712,32.2196769 50.6859058,30.7067538 51.3116365,28.9107923 L49.5137712,28.2844269 C49.0384442,29.64885 48.0846173,30.7987731 46.8280788,31.5235038 L47.7793673,33.1722346 Z M25.3482519,20.2787538 L22.8097904,20.2787538 L22.8097904,18.3749077 L25.3482519,18.3749077 L27.8867135,18.3749077 L27.8867135,20.2787538 L25.3482519,20.2787538 Z" id="Fill-1" fill="#B327BF" mask="url(#mask-2)"></path>
            </g>
        </g>
    </g>
</svg>